<svg width="60" height="60" viewBox="0 0 60 60" fill="none" xmlns="http://www.w3.org/2000/svg">
    <path d="M27.876 8.50179L18.576 23.6998C17.55 25.3498 18.75 27.4978 20.7 27.4978H39.276C41.226 27.4978 42.426 25.3498 41.4 23.6998L32.124 8.50179C31.152 6.89979 28.848 6.89979 27.876 8.50179ZM32.502 43.7518C32.502 37.5358 37.536 32.5018 43.752 32.5018C49.968 32.5018 55.002 37.5358 55.002 43.7518C55.002 49.9678 49.968 55.0018 43.752 55.0018C37.536 55.0018 32.502 49.9678 32.502 43.7518Z" fill="#fb2c36"/>
    <path opacity="0.4" d="M10.002 53.748H25.002C26.376 53.748 27.498 52.626 27.498 51.252V36.252C27.498 34.878 26.376 33.75 25.002 33.75H10.002C8.628 33.75 7.5 34.878 7.5 36.252V51.252C7.5 52.626 8.628 53.748 10.002 53.748Z" fill="#fb2c36"/>
</svg>
