<svg width="512" height="512" viewBox="0 0 512 512" fill="none" xmlns="http://www.w3.org/2000/svg">
<path d="M232 64C235.423 66.9102 238.729 69.9208 242 73C242.604 73.5388 243.207 74.0777 243.828 74.6328C264.331 93.6988 275.024 124.021 276.246 151.449C277.107 185.834 264.23 215.789 240.875 240.5C217.604 263.085 187.522 273.577 155.449 273.422C123.683 272.689 94.0273 259.284 72.0784 236.359C50.1959 211.515 39.2344 180.101 41.2718 147.062C43.8682 115.282 58.9726 86.4368 83.0003 65.5C125.213 30.055 189.122 29.6592 232 64ZM105.813 121.688C104.2 122.886 102.586 124.084 100.973 125.281C100.149 125.899 99.3258 126.516 98.4773 127.152C95.3467 129.488 92.1843 131.776 89.0144 134.058C87.5101 135.141 86.0085 136.227 84.5095 137.317C80.9765 139.884 77.4263 142.404 73.7932 144.828C73.1406 145.271 72.4881 145.713 71.8157 146.169C70.6038 146.988 69.3823 147.792 68.1497 148.579C65.3617 150.478 64.0746 151.813 62.8167 154.973C62.7201 158.154 62.7201 158.154 65.051 160.594C68.0288 163.023 71.0357 165.301 74.1878 167.5C75.4317 168.374 76.6752 169.249 77.9182 170.125C78.5774 170.588 79.2366 171.051 79.9158 171.527C82.8614 173.608 85.783 175.722 88.7039 177.837C90.2333 178.945 91.7642 180.05 93.2967 181.153C96.914 183.757 100.516 186.377 104.082 189.051C105.031 189.753 105.031 189.753 105.998 190.469C107.172 191.338 108.339 192.216 109.498 193.105C111.95 194.907 113.724 195.961 116.762 196.387C119.197 196.187 119.197 196.187 121 194C121.374 191.172 121.489 189.648 119.742 187.332C114.334 182.931 108.723 178.844 103.02 174.836C97.6245 171.043 92.294 167.16 86.9539 163.291C86.2228 162.762 85.4918 162.233 84.7385 161.688C84.0893 161.217 83.44 160.746 82.771 160.262C81.2021 159.144 79.6031 158.069 78.0003 157C78.0003 156.34 78.0003 155.68 78.0003 155C79.9256 153.474 81.852 152.074 83.8753 150.688C85.1609 149.788 86.446 148.889 87.7307 147.988C88.4209 147.507 89.111 147.026 89.822 146.53C94.4166 143.303 98.9542 139.996 103.498 136.698C106.83 134.281 110.165 131.873 113.555 129.535C115.044 128.497 115.044 128.497 116.563 127.438C117.41 126.859 118.257 126.28 119.129 125.684C121.236 123.788 121.778 122.803 122 120C120.991 117.654 120.991 117.654 119 116C113.522 114.791 109.908 118.564 105.813 121.688ZM176 115C171.301 119.109 168.961 123.524 166.313 129.125C165.428 130.945 164.541 132.764 163.653 134.582C163.208 135.497 162.763 136.412 162.304 137.354C160.402 141.214 158.395 145.014 156.375 148.813C155.565 150.353 154.755 151.893 153.946 153.434C152.301 156.555 150.642 159.668 148.968 162.774C147.088 166.262 145.227 169.759 143.375 173.261C142.628 174.665 141.875 176.064 141.116 177.461C140.045 179.431 138.997 181.413 137.953 183.398C137.336 184.55 136.719 185.702 136.083 186.888C134.699 189.933 134.699 189.933 135.753 192.85C136.826 194.911 136.826 194.911 138 196C140.423 196.379 140.423 196.379 143 196C148.934 190.455 152.168 180.988 155.72 173.73C157.471 170.152 159.243 166.584 161.012 163.016C161.358 162.316 161.704 161.617 162.061 160.896C164.814 155.345 167.653 149.845 170.563 144.375C170.951 143.64 171.34 142.904 171.741 142.146C173.188 139.409 174.637 136.673 176.107 133.947C177.147 132.013 178.169 130.07 179.188 128.125C179.759 127.055 180.33 125.985 180.918 124.883C182.122 121.676 182.21 120.184 181 117C178.524 115.625 178.524 115.625 176 115ZM197.75 116.125C195.848 117.884 195.848 117.884 195.313 120.313C196.976 126.814 206.062 131.327 211.313 135.063C212.89 136.193 214.466 137.323 216.043 138.453C216.852 139.031 217.661 139.609 218.494 140.205C222.714 143.227 226.919 146.271 231.125 149.313C232.649 150.413 234.172 151.513 235.696 152.613C236.797 153.409 237.899 154.204 239 155C237.56 159.321 234.254 160.858 230.625 163.313C229.078 164.381 227.533 165.451 225.989 166.523C225.176 167.086 224.363 167.649 223.526 168.23C219.24 171.234 215.025 174.332 210.813 177.438C210.024 178.016 209.235 178.595 208.423 179.191C200.302 184.3 200.302 184.3 195.5 191.688C195.821 194.182 195.821 194.182 198 196C201.871 196.561 203.594 196.254 206.938 194.164C207.948 193.326 208.959 192.488 210 191.625C211.151 190.694 212.303 189.766 213.457 188.84C214.045 188.364 214.632 187.888 215.237 187.398C217.98 185.223 220.826 183.203 223.688 181.188C224.847 180.366 226.006 179.545 227.164 178.723C227.772 178.292 228.379 177.862 229.005 177.418C232.87 174.671 236.716 171.898 240.563 169.125C241.325 168.577 242.087 168.03 242.872 167.466C249.783 163.01 249.783 163.01 255.125 157.063C254.924 153.748 252.361 152.1 250 150C247.657 148.093 245.244 146.292 242.813 144.5C242.121 143.986 241.43 143.472 240.718 142.942C234.675 138.462 228.577 134.057 222.464 129.673C219.057 127.226 215.666 124.766 212.336 122.215C211.787 121.795 211.239 121.375 210.673 120.942C209.238 119.837 207.81 118.724 206.383 117.609C203.171 115.44 201.32 114.34 197.75 116.125Z" fill="white"/>
<path d="M147.999 339C151.586 341.775 154.814 344.776 157.999 348C158.636 348.615 159.273 349.23 159.929 349.863C170.044 360.361 174.388 374.822 175.999 389C176.4 388.553 176.801 388.105 177.214 387.645C184.295 380.114 194.001 374.163 204.55 373.566C206.137 373.543 207.725 373.542 209.312 373.563C210.147 373.571 210.982 373.579 211.843 373.588C224.661 373.937 234.944 379.4 243.749 388.688C251.816 398.509 254.909 409.604 255.999 422C256.593 421.965 257.188 421.93 257.8 421.895C269.907 421.499 278.997 424.782 287.999 433C296.807 442.723 299.953 454.179 299.382 467.098C298.307 478.052 293.793 487.85 285.624 495.313C277.242 501.977 268.294 504.308 257.765 504.261C256.402 504.266 256.402 504.266 255.011 504.272C251.977 504.283 248.943 504.279 245.908 504.275C243.728 504.279 241.548 504.284 239.368 504.29C233.452 504.304 227.537 504.304 221.621 504.302C216.679 504.301 211.736 504.305 206.794 504.31C194.462 504.322 182.131 504.321 169.799 504.315C158.445 504.309 147.09 504.323 135.736 504.343C125.405 504.361 115.074 504.367 104.744 504.364C98.5781 504.362 92.4125 504.364 86.2469 504.378C80.4455 504.391 74.6442 504.389 68.8428 504.376C66.7188 504.374 64.5948 504.376 62.4709 504.385C43.5257 504.453 29.3961 502.185 14.9991 489C3.05144 476.256 0.382366 461.184 0.686632 444.441C1.26741 430.37 7.79746 417.66 17.9991 408C20.8736 405.759 23.8509 403.833 26.9991 402C27.6707 401.608 28.3423 401.216 29.0343 400.813C38.0829 395.919 46.8625 395.718 56.9991 396C57.0855 394.791 57.1719 393.582 57.2608 392.336C58.8068 373.35 64.1786 357.617 78.3819 344.102C98.69 327.795 125.532 324.843 147.999 339Z" fill="white"/>
<path d="M323 41C338.84 41 354.68 41 371 41C371.438 57.875 371.438 57.875 371.568 63.1987C371.606 64.5882 371.645 65.9777 371.684 67.3672C371.708 68.453 371.708 68.453 371.734 69.5608C371.784 73.408 371.784 73.408 373 77C375.909 77.9008 378.809 78.7147 381.75 79.5C393.841 82.907 406.392 87.7397 416.785 94.9258C418.966 96.2829 418.966 96.2829 421.33 95.3687C424.529 93.7289 426.472 91.7867 428.941 89.1758C429.855 88.2303 430.768 87.2847 431.709 86.3105C433.144 84.8069 434.575 83.2994 436.001 81.7869C437.387 80.3227 438.789 78.874 440.191 77.4258C441.018 76.5535 441.845 75.6812 442.698 74.7825C445 73 445 73 446.937 73.2076C449.287 74.1102 450.526 75.1334 452.316 76.8958C452.939 77.5034 453.563 78.1111 454.205 78.7371C454.866 79.3975 455.526 80.0579 456.207 80.7383C456.892 81.4155 457.577 82.0926 458.282 82.7903C459.726 84.2231 461.165 85.6599 462.601 87.1003C464.808 89.3078 467.035 91.493 469.264 93.6777C470.663 95.0716 472.061 96.4668 473.457 97.8633C474.128 98.5176 474.798 99.1719 475.489 99.846C476.097 100.463 476.705 101.08 477.331 101.716C477.872 102.255 478.413 102.794 478.97 103.349C480 105 480 105 479.766 107.091C478.757 109.605 477.365 110.864 475.359 112.68C474.248 113.703 474.248 113.703 473.113 114.746C472.333 115.449 471.554 116.151 470.75 116.875C463.288 123.41 463.288 123.41 457 131C456.864 135.665 459.865 139.553 462.125 143.5C468.087 154.28 471.538 165.801 475.066 177.551C475.742 180.153 475.742 180.153 478 181C480.478 181.156 482.933 181.258 485.414 181.316C486.384 181.344 486.384 181.344 487.374 181.373C489.791 181.441 492.208 181.501 494.625 181.562C500.029 181.707 505.432 181.851 511 182C511 197.84 511 213.68 511 230C499.78 230.33 488.56 230.66 477 231C474.678 235.644 473.245 239.291 471.875 244.188C468.769 254.719 464.297 265.592 458.164 274.738C456.802 276.919 456.802 276.919 457.12 279.31C458.299 282.915 460.203 284.656 462.91 287.301C463.641 288.023 463.641 288.023 464.386 288.759C465.935 290.287 467.499 291.8 469.062 293.312C470.119 294.349 471.174 295.386 472.229 296.424C474.809 298.96 477.401 301.483 480 304C478.67 306.953 477.222 309.024 474.927 311.3C473.997 312.23 473.997 312.23 473.047 313.18C472.379 313.837 471.711 314.495 471.023 315.172C470.338 315.854 469.653 316.537 468.947 317.24C466.761 319.415 464.568 321.582 462.375 323.75C460.89 325.225 459.406 326.7 457.922 328.176C454.286 331.789 450.645 335.396 447 339C443.278 337.268 441.048 335.186 438.227 332.176C437.319 331.23 436.412 330.285 435.477 329.311C434.044 327.81 432.618 326.305 431.205 324.787C429.833 323.318 428.436 321.871 427.039 320.426C426.216 319.553 425.393 318.681 424.545 317.782C422.1 315.691 422.1 315.691 418.94 316.094C416.35 316.892 414.255 317.715 411.926 319.074C411.185 319.492 410.444 319.91 409.68 320.34C408.899 320.785 408.118 321.229 407.312 321.688C398.459 326.559 389.574 329.714 379.872 332.434C377.819 333.021 377.819 333.021 375.211 334.156C373 335 373 335 369 335C366.852 332.734 366.852 332.734 364.625 329.75C360.507 324.481 357.421 321.14 351 319C344.302 318.423 339.927 319.927 334 323C327.574 316.161 321.306 309.285 315.426 301.965C311.908 297.665 308.256 293.486 304.604 289.301C301.352 285.574 298.152 281.812 295 278C295.495 277.01 295.495 277.01 296 276C296.86 276.519 297.72 277.039 298.605 277.574C319.989 290.285 342.803 295.638 367.336 290.043C382.027 285.861 394.409 278.958 406 269C406.605 268.492 407.209 267.984 407.832 267.461C423.335 253.301 432.049 230.957 433.203 210.379C433.49 187.02 426.606 165.74 411 148C410.334 147.238 409.667 146.476 408.98 145.691C394.491 130.181 372.949 120.661 351.883 119.723C341.483 119.45 332.059 120.242 322 123C319.335 123.675 316.668 124.337 314 125C313.732 123.86 313.464 122.721 313.188 121.547C310.725 111.476 307.638 101.965 303.592 92.4131C303.256 91.6168 302.92 90.8204 302.574 90C302.119 88.9481 302.119 88.9481 301.655 87.875C301 86 301 86 301 83C301.565 82.8287 302.13 82.6574 302.712 82.481C305.269 81.7021 307.822 80.9137 310.375 80.125C311.264 79.8556 312.154 79.5862 313.07 79.3086C314.346 78.9122 314.346 78.9122 315.648 78.5078C316.434 78.2669 317.219 78.026 318.029 77.7778C320.189 77.0767 320.189 77.0767 322 75C322.245 72.4251 322.374 69.9469 322.414 67.3672C322.432 66.7008 322.449 66.0345 322.468 65.3479C322.531 62.8572 322.577 60.3661 322.625 57.875C322.811 49.5219 322.811 49.5219 323 41Z" fill="white"/>
<path d="M151.028 6.93796C193.515 5.82763 231.86 19.8275 263 49C289.639 74.6514 306.3 111.293 307.203 148.336C307.692 192.328 294.479 229.843 263.375 261.687C262.591 262.451 261.807 263.214 261 264C260.562 264.483 260.123 264.967 259.672 265.465C237.295 289.48 201.243 303.055 168.895 304.91C167.462 304.955 167.462 304.955 166 305C164.869 305.04 163.739 305.08 162.574 305.121C122.887 305.834 84.6929 291.567 56 264C55.0448 263.108 54.0896 262.216 53.1054 261.297C26.5297 236.039 10.9049 199.533 9.77732 162.98C9.01548 123.247 20.6103 85.4432 48 56C48.5635 55.3927 49.1269 54.7854 49.7075 54.1596C74.7084 27.5277 109.126 9.43162 146.023 7.08981C147.692 7.03946 149.36 6.98896 151.028 6.93796ZM62.2461 71.9726C40.164 97.5609 28.8637 131.285 31 165C33.8328 200.098 50.3017 231.215 76.75 254.187C100.381 273.141 128.425 283.447 158.75 283.312C159.41 283.31 160.071 283.308 160.752 283.306C170.861 283.253 180.23 282.766 190 280C190.688 279.812 191.377 279.624 192.086 279.43C214.187 273.261 232.375 261.633 249 246C249.886 245.211 249.886 245.211 250.789 244.406C273.114 223.669 285.006 191.454 286.277 161.555C287.201 125.505 274.675 93.921 250.512 67.2539C234.021 50.0299 212.995 38.1282 190 32C189.025 31.7353 189.025 31.7353 188.03 31.4653C142.074 19.6516 93.4761 37.6637 62.2461 71.9726Z" fill="white"/>
<path d="M422 412C429.493 419.252 436.198 427.182 442.75 435.281C444.935 437.921 447.192 440.467 449.5 443C451 444.667 452.5 446.333 454 448C454.847 448.92 455.694 449.841 456.566 450.789C463.577 458.754 463.577 458.754 464.062 463.188C461.76 471.448 453.57 476.273 447.129 481.441C443.462 484.408 439.925 487.521 436.375 490.625C419.533 505.252 419.533 505.252 414 505C410.036 503.018 407.7 500.73 405 497.25C401.331 492.632 397.565 488.132 393.688 483.688C392.578 482.413 391.469 481.138 390.359 479.863C389.806 479.227 389.252 478.591 388.682 477.936C385.922 474.759 383.178 471.569 380.438 468.375C379.949 467.807 379.461 467.24 378.958 466.655C377.632 465.109 376.316 463.555 375 462C373.811 460.658 373.811 460.658 372.598 459.289C372.07 458.534 371.543 457.778 371 457C372.228 453.315 373.586 452.5 376.625 450.125C381.28 446.41 385.824 442.602 390.312 438.688C391.594 437.573 392.875 436.458 394.156 435.344C394.793 434.789 395.43 434.235 396.086 433.664C404.59 426.271 413.127 418.951 422 412Z" fill="white"/>
<path d="M348.062 327.938C351.704 329.255 353.54 331.147 356 334C356.659 334.715 357.317 335.431 357.996 336.168C362.778 341.381 367.289 346.769 371.738 352.266C373.992 354.99 376.316 357.628 378.688 360.25C379.421 361.062 380.154 361.874 380.91 362.711C382.238 364.166 383.578 365.61 384.934 367.039C386.625 368.875 386.625 368.875 389 372C388.642 375.934 386.602 377.528 383.646 380.008C383.041 380.5 382.436 380.993 381.812 381.5C380.527 382.573 379.242 383.646 377.957 384.719C377.298 385.264 376.639 385.809 375.959 386.371C372.943 388.879 369.973 391.44 367 394C365.841 394.992 364.682 395.985 363.523 396.977C361.106 399.048 358.696 401.127 356.289 403.211C350.335 408.358 344.393 413.397 338 418C331.825 411.387 325.857 404.7 320.18 397.648C318.022 395.027 315.787 392.508 313.5 390C312 388.333 310.5 386.667 309 385C308.153 384.08 307.306 383.159 306.434 382.211C299.426 374.249 299.426 374.249 299 369.75C300.392 364.529 302.894 362.358 307 359C307.846 358.3 308.691 357.6 309.562 356.879C311.427 355.351 313.298 353.832 315.176 352.32C317.858 350.117 320.436 347.84 323 345.5C328.174 340.796 333.517 336.339 339 332C339.599 331.509 340.199 331.018 340.816 330.512C343.353 328.584 344.848 328.003 348.062 327.938Z" fill="white"/>
<path d="M274 267C275.414 268.573 276.756 270.211 278.062 271.875C281.11 275.688 284.205 279.398 287.5 283C290.523 286.32 293.425 289.698 296.25 293.188C299.855 297.639 303.555 301.991 307.312 306.312C307.856 306.941 308.4 307.569 308.96 308.217C311.79 311.481 314.642 314.721 317.535 317.93C318.096 318.561 318.657 319.192 319.235 319.843C320.307 321.049 321.389 322.246 322.482 323.433C323.93 325.074 323.93 325.074 326 328C325.691 331.283 324.565 332.761 322.086 334.84C321.489 335.346 320.892 335.852 320.277 336.373C319.65 336.889 319.022 337.406 318.375 337.938C317.468 338.706 317.468 338.706 316.543 339.49C312.503 342.879 308.323 345.983 304 349C298.18 342.719 292.594 336.349 287.215 329.684C285.044 327.053 282.798 324.521 280.5 322C276.584 317.703 272.912 313.247 269.258 308.727C267.032 306.039 264.728 303.452 262.375 300.875C258.326 296.435 254.608 291.803 251 287C252.48 283.345 254.445 281.611 257.562 279.25C261.971 275.846 266.107 272.257 270.188 268.469C272 267 272 267 274 267Z" fill="white"/>
<path d="M395 382C398.077 383.35 399.956 384.784 402.129 387.336C402.689 387.988 403.249 388.64 403.826 389.312C404.399 389.993 404.972 390.674 405.562 391.375C406.139 392.048 406.716 392.721 407.311 393.414C408.889 395.264 410.449 397.127 412 399C412.942 400.133 412.942 400.133 413.902 401.289C415 403 415 403 415 406C413.121 407.805 413.121 407.805 410.438 409.875C405.751 413.582 401.188 417.383 396.688 421.312C395.406 422.427 394.125 423.542 392.844 424.656C391.889 425.488 391.889 425.488 390.914 426.336C365.995 448 365.995 448 363 448C361.586 446.427 360.244 444.789 358.938 443.125C354.49 437.559 349.818 432.251 345 427C346.546 423.184 348.888 421.03 351.938 418.312C352.424 417.878 352.911 417.443 353.412 416.994C357.609 413.273 361.952 409.738 366.316 406.215C368.947 404.044 371.479 401.798 374 399.5C380.746 393.357 387.874 387.693 395 382Z" fill="white"/>
</svg>
