<svg width="512" height="512" viewBox="0 0 512 512" fill="none" xmlns="http://www.w3.org/2000/svg">
<path d="M190.124 31.6875C191.135 31.6907 191.135 31.6907 192.166 31.694C236.976 31.9227 276.494 49.8201 307.878 81.4592C314.343 88.1544 319.944 95.1915 324.999 103C325.433 103.67 325.867 104.34 326.314 105.03C348.462 139.793 357.037 183.035 348.547 223.58C343.849 244.333 336.324 268.126 321.933 284.387C320.797 285.968 320.797 285.968 321.263 287.891C322.103 290.298 323.097 291.523 324.851 293.363C325.448 293.996 326.044 294.628 326.659 295.279C327.308 295.95 327.956 296.621 328.624 297.312C329.291 298.013 329.957 298.714 330.644 299.436C335.98 305.018 341.439 310.475 346.927 315.909C349.957 318.919 352.916 321.933 355.687 325.188C356.788 326.461 357.892 327.731 358.999 329C359.422 329.492 359.845 329.984 360.281 330.491C366.017 337.531 366.017 337.531 373.714 341.66C376.239 341.602 376.239 341.602 378.683 341.242C382.49 340.844 385.761 342.036 388.999 344C390.682 345.65 392.346 347.32 393.999 349C394.946 349.944 395.893 350.886 396.842 351.827C399.597 354.565 402.349 357.305 405.1 360.046C406.278 361.219 407.457 362.391 408.637 363.563C414.376 369.261 420.061 374.928 425.308 381.089C428.84 385.081 432.702 388.763 436.499 392.5C445.597 401.454 445.597 401.454 449.464 405.969C454.514 411.853 460.158 417.167 465.704 422.578C481.252 437.926 481.252 437.926 481.374 448.25C481.206 456.626 479.012 461.118 473.249 467.062C469.97 470.179 466.571 473.145 463.124 476.074C460.645 478.321 458.412 480.746 456.124 483.188C450.544 488.819 445.284 491.474 437.437 492.438C425.205 490.881 419.559 484.317 411.374 475.812C410.175 474.592 408.974 473.372 407.773 472.154C402.588 466.876 397.524 461.543 392.713 455.921C389.003 451.762 384.967 447.909 380.999 444C375.739 438.818 370.607 433.629 365.8 428.023C362.221 424.002 358.335 420.275 354.499 416.5C335.648 397.947 335.648 397.947 332.999 390C333.153 389.151 333.306 388.301 333.464 387.426C334.175 382.744 334.4 378.97 331.546 374.956C327.681 370.614 323.371 366.776 319.038 362.912C316.445 360.481 314.188 357.839 311.886 355.136C308.135 350.89 304.034 346.975 299.999 343C294.095 337.184 288.345 331.337 282.999 325C279.061 326.418 275.858 328.318 272.374 330.625C264.087 335.888 255.155 339.527 245.999 343C245.33 343.254 244.662 343.508 243.973 343.77C216.407 353.946 184.587 355.276 155.999 349C155.259 348.839 154.518 348.678 153.756 348.512C125.657 342.127 100.808 327.729 79.9992 308C78.5625 306.66 78.5625 306.66 77.0968 305.293C55.1496 284.412 40.6693 256.382 33.9992 227C33.8355 226.301 33.6718 225.602 33.5031 224.882C24.79 186.015 32.4662 142.307 53.2553 108.505C55.0964 105.617 57.032 102.802 58.9992 100C59.712 98.9688 60.4249 97.9375 61.1593 96.875C86.7618 61.7429 125.064 39.6071 167.753 32.8555C175.22 31.8533 182.598 31.6544 190.124 31.6875ZM153.999 53C152.985 53.2569 152.985 53.2569 151.951 53.519C127.864 59.96 106.619 73.6598 88.9992 91C88.4445 91.5328 87.8898 92.0656 87.3183 92.6145C62.234 117.04 48.2203 152.498 47.7064 187.252C47.4957 228.518 61.2061 264.2 90.007 294.039C116.497 320.667 153.415 334.986 190.687 335.312C225.835 335.2 258.515 323.236 284.999 300C285.85 299.282 286.701 298.564 287.577 297.824C293.82 292.433 298.985 286.537 303.999 280C304.667 279.148 305.335 278.296 306.023 277.418C319.209 260.036 327.593 240.298 331.999 219C332.225 217.946 332.45 216.891 332.683 215.805C339.077 179.908 330.354 141.289 309.873 111.293C286.849 78.7531 253.732 57.4709 214.562 50.125C194.57 46.879 173.581 48.0372 153.999 53ZM304.398 304.406C303.385 305.432 302.377 306.464 301.374 307.5C300.859 308.025 300.343 308.549 299.812 309.09C298.536 310.389 297.267 311.694 295.999 313C300.402 318.355 305.161 323.215 310.12 328.059C312.26 330.193 314.246 332.418 316.214 334.711C320.605 339.782 325.36 344.469 330.124 349.188C331.005 350.063 331.885 350.939 332.792 351.842C334.429 353.47 336.067 355.098 337.707 356.723C340.143 359.143 342.571 361.572 344.999 364C348.629 360.37 352.259 356.74 355.999 353C354.118 348.297 352.305 345.916 348.8 342.543C348.287 342.036 347.773 341.53 347.245 341.008C345.607 339.394 343.96 337.79 342.312 336.188C340.158 334.081 338.009 331.97 335.862 329.855C335.343 329.344 334.823 328.833 334.288 328.307C330.887 324.94 327.685 321.467 324.584 317.825C321.763 314.576 318.727 311.543 315.687 308.5C315.067 307.868 314.448 307.237 313.81 306.586C313.216 305.99 312.622 305.395 312.011 304.781C311.479 304.246 310.948 303.71 310.4 303.158C307.658 300.892 306.922 302.071 304.398 304.406ZM371.171 361.219C370.453 361.905 369.735 362.59 368.995 363.297C368.254 364.024 367.513 364.751 366.749 365.5C366.023 366.196 365.298 366.892 364.55 367.609C363.088 369.017 361.635 370.435 360.193 371.863C358.706 373.312 357.184 374.725 355.634 376.105C354.893 376.782 354.153 377.459 353.39 378.156C352.715 378.752 352.04 379.349 351.344 379.963C349.722 382.005 349.722 382.005 350.037 384.961C351.142 388.45 352.377 389.945 355.007 392.461C356.241 393.664 356.241 393.664 357.499 394.891C358.365 395.71 359.232 396.53 360.124 397.375C361.817 399.005 363.507 400.638 365.194 402.273C366.019 403.072 366.844 403.87 367.694 404.692C370.338 407.339 372.764 410.121 375.194 412.963C378.768 416.995 382.661 420.722 386.499 424.5C395.597 433.454 395.597 433.454 399.468 437.969C403.711 442.912 408.361 447.431 412.999 452C418.362 457.283 423.64 462.555 428.508 468.302C430.828 470.944 433.095 472.999 435.999 475C439.405 474.671 441.237 473.207 443.718 470.945C444.413 470.314 445.108 469.683 445.823 469.032C446.541 468.362 447.259 467.691 447.999 467C448.707 466.342 449.415 465.685 450.144 465.007C452.286 462.987 454.395 460.936 456.499 458.875C457.226 458.185 457.953 457.496 458.702 456.785C459.388 456.111 460.074 455.437 460.78 454.742C461.4 454.143 462.019 453.543 462.657 452.925C464.393 450.435 464.397 448.977 463.999 446C462.061 443.492 462.061 443.492 459.437 441.188C456.374 438.33 453.509 435.483 450.784 432.301C446.446 427.275 441.727 422.657 436.999 418C427.37 408.515 427.37 408.515 423.53 404.031C419.138 398.908 414.302 394.235 409.499 389.5C404.017 384.095 398.621 378.7 393.608 372.854C390.952 369.794 388.15 366.889 385.312 364C384.757 363.416 384.202 362.832 383.63 362.23C382.163 360.741 380.586 359.361 378.999 358C374.499 358 374.215 358.275 371.171 361.219Z" fill="black"/>
<path d="M276 89C276.764 89.6456 276.764 89.6456 277.542 90.3042C289.559 100.577 299.3 112.149 307 126C307.337 126.596 307.673 127.192 308.02 127.807C324.538 157.444 328.477 193.549 319.934 226.324C313.973 247.249 303.759 266.041 289 282C288.527 282.517 288.054 283.034 287.567 283.566C264.674 308.32 232.246 322.993 198.629 324.91C197.328 324.955 197.328 324.955 196 325C195.164 325.04 194.327 325.08 193.465 325.121C161.464 325.942 129.313 314.781 105 294C104.229 293.346 104.229 293.346 103.443 292.68C82.3276 274.592 67.8935 250.884 61.0005 224C60.6808 222.782 60.3611 221.564 60.0317 220.309C52.7606 186.949 58.7791 149.896 77.0005 121C97.3777 89.695 127.627 68.9408 163.957 60.7969C203.13 52.765 245.595 63.0235 276 89ZM104.586 113.074C92.1514 127.143 82.8848 143.861 78.0005 162C77.6821 163.169 77.3637 164.338 77.0356 165.543C70.2094 195.396 75.8557 227.42 91.7505 253.438C96.6422 261.1 102.625 267.561 109 274C109.602 274.663 110.204 275.325 110.825 276.008C130.409 297.22 160.33 306.088 188.176 308.246C190.819 308.314 193.365 308.208 196 308C197.255 307.907 198.509 307.814 199.801 307.719C230.915 304.964 259.505 290.373 279.875 266.563C299.714 242.548 309.214 212.166 306.688 181.164C303.464 149.322 287.989 121.97 264 101C250.992 90.675 235.915 83.5446 220 79C218.912 78.679 217.825 78.3581 216.704 78.0274C175.762 67.8863 133.186 83.426 104.586 113.074Z" fill="black"/>
<path d="M213.419 122.543C223.876 130.197 230.531 139.395 232.747 152.27C233.83 163.914 231.53 174.824 224.251 184.062C223.637 184.775 223.024 185.488 222.392 186.223C220.795 187.886 220.795 187.886 221.001 190C222.642 191.152 224.342 192.221 226.063 193.25C241.371 202.81 250.881 216.523 255.876 233.938C257.327 240.461 258.085 247.376 257.001 254C254.993 256.537 253.791 257.836 250.583 258.501C249.678 258.501 248.772 258.501 247.839 258.501C246.275 258.516 246.275 258.516 244.678 258.531C243.54 258.521 242.401 258.512 241.227 258.502C240.024 258.507 238.82 258.513 237.58 258.518C234.282 258.528 230.986 258.521 227.688 258.504C224.236 258.491 220.784 258.497 217.331 258.501C211.534 258.503 205.737 258.49 199.94 258.467C193.24 258.44 186.539 258.438 179.839 258.45C173.391 258.461 166.943 258.455 160.495 258.44C157.752 258.435 155.009 258.435 152.266 258.439C148.435 258.445 144.605 258.426 140.774 258.404C139.066 258.411 139.066 258.411 137.323 258.418C136.28 258.408 135.237 258.398 134.163 258.388C133.257 258.385 132.351 258.383 131.418 258.38C128.49 257.92 127.131 257.037 125.001 255C121.624 244.868 125.492 231.052 129.649 221.531C136.234 209.2 144.662 199.643 156.681 192.445C159.079 191.073 159.079 191.073 161.001 189C160.313 188.182 160.313 188.182 159.61 187.348C150.267 175.865 148.202 165.614 149.001 151C150.566 140.647 156.678 131.059 164.751 124.5C178.989 115.008 198.7 113.15 213.419 122.543ZM172.126 141.812C167.248 147.97 165.4 153.394 165.657 161.227C166.649 169.228 170.747 175.08 177.001 180C183.222 183.857 189.828 183.886 197.001 183C204.427 180.803 209.295 176.754 213.001 170C216.097 163.694 216.849 157.819 215.001 151C211.844 143.394 207.283 138.759 200.001 135C189.75 131.583 179.42 133.97 172.126 141.812ZM156.376 214.438C155.592 215.283 154.808 216.129 154.001 217C153.519 217.477 153.037 217.954 152.54 218.445C146.568 224.72 143.679 232.608 142.001 241C174.011 241 206.021 241 239.001 241C237.238 228.66 231.382 219.201 222.001 211C200.922 195.933 175.413 196.76 156.376 214.438Z" fill="black"/>
<path d="M437.726 170.547C446.983 176.463 453.603 183.817 456.312 194.563C458.533 206.767 455.667 215.717 449 226C448.505 226.99 448.505 226.99 448 228C448.557 228.34 449.113 228.681 449.687 229.031C463.073 237.533 472.456 249.33 476 265C477.864 277.162 477.864 277.162 475.675 281.816C473.36 284.834 471.744 285.424 468 286C464.25 285.188 464.25 285.188 461 283C459.736 280.107 459.435 277.11 459 274C456.843 262.259 452.459 252.453 442.425 245.438C433.046 239.879 423.679 238.793 413 240C402.015 242.844 394.184 249.149 388.246 258.691C384.683 265.292 383.554 271.997 382.722 279.398C381.84 282.575 380.801 283.365 378 285C375.322 286.123 374.257 286.075 371.437 285.25C368.972 283.986 367.679 283.18 366 281C364.049 269.1 367.722 256.334 374.242 246.375C379.871 238.769 385.795 232.772 394 228C393.506 227.108 393.012 226.216 392.504 225.297C391.856 224.115 391.209 222.932 390.562 221.75C390.237 221.163 389.911 220.577 389.576 219.973C384.875 211.346 384.431 201.012 386.906 191.527C391.056 181.006 396.873 174.986 407 170C415.993 166.32 428.876 166.257 437.726 170.547ZM405.199 193.281C402.132 197.677 402.575 202.875 403 208C404.77 213.414 408.183 217.068 413 220C417.898 221.891 422.281 222.593 427.312 220.875C433.453 218.009 436.792 214.73 439.336 208.434C440.791 203.099 439.814 198.174 437.437 193.25C434.809 189.223 431.496 186.683 427 185C417.38 183.567 411.363 185.904 405.199 193.281Z" fill="black"/>
<path d="M260.999 373C261.941 373.524 261.941 373.524 262.902 374.059C268.062 377.322 271.045 381.735 273.999 387C274.342 387.593 274.685 388.186 275.038 388.797C278.504 396.117 278.167 406.33 276.238 414.047C274.426 418.774 271.997 422.932 268.999 427C269.724 427.249 270.448 427.498 271.195 427.754C282.117 432.606 288.991 443.792 293.374 454.438C296.207 461.913 296.831 468.999 295.999 477C293.874 480.375 293.874 480.375 290.999 482C287.271 482.699 285.655 482.394 282.406 480.441C279.332 477.323 278.996 474.546 278.499 470.375C276.913 460.144 273.6 451.365 264.999 445C254.889 439.136 245.787 435.963 234.05 438.684C223.663 442.175 216.705 448.114 210.874 457.375C208.579 462.076 207.935 467.217 207.302 472.365C206.771 475.97 206.184 477.804 203.66 480.484C200.946 482.03 199.897 482.474 196.874 482C196.212 481.918 195.549 481.835 194.867 481.75C192.222 480.688 191.38 479.48 189.999 477C187.981 464.073 192.492 451.397 199.999 441C204.611 435.02 209.306 430.542 215.999 427C214.562 423.166 212.801 419.584 210.902 415.965C207.563 408.695 207.967 399.3 209.8 391.664C213.063 382.941 218.735 376.095 226.937 371.563C238.385 366.63 250.103 366.901 260.999 373ZM231.183 389.652C226.698 394.764 225.633 398.729 225.722 405.5C226.287 410.595 229.382 413.582 233.062 416.813C237.531 420.141 241.554 420.569 246.999 420C252.22 418.055 256.212 414.958 259.121 410.145C261.15 405.192 260.56 399.651 258.874 394.688C255.255 389.499 251.156 386.472 244.999 385C239.648 385 235.232 385.969 231.183 389.652Z" fill="black"/>
<path d="M97.1249 340.688C103.194 345.569 108.585 351.123 110 359C110.865 367.678 110.658 374.575 106.094 382.145C104.831 383.928 104.831 383.928 105 386C106.561 387.27 106.561 387.27 108.562 388.563C117.154 394.847 123.025 404.115 125.613 414.449C126.051 417.339 126.242 420.14 126.312 423.062C126.368 424.596 126.368 424.596 126.426 426.16C125.892 429.719 124.801 430.816 122 433C118.406 434.147 116.732 434.316 113.25 432.812C109.428 429.734 108.787 426.481 108.125 421.75C106.454 412.232 102.829 406.709 94.9999 401C88.9773 397.457 82.9772 396.151 75.9999 397C67.4892 399.224 61.1644 402.224 56.3749 409.812C53.7435 414.749 52.641 420.026 51.6947 425.503C50.9203 429.322 50.3565 430.753 47.1014 433.008C42.9702 434.329 40.92 433.775 36.9999 432C33.4005 427.283 33.7758 423.86 34.4295 418.191C36.9243 404.231 44.6559 393.273 55.9999 385C55.4759 384.004 55.4759 384.004 54.9413 382.988C54.4862 382.105 54.0312 381.222 53.5624 380.313C53.1099 379.442 52.6574 378.572 52.1913 377.676C48.8207 370.106 49.3574 362.241 51.8983 354.523C55.1709 347.027 60.5738 341.399 67.9999 338C78.1393 334.178 87.744 335.622 97.1249 340.688ZM69.1874 358.813C67.4873 361.944 67.1225 364.444 66.9999 368C68.5635 372.197 70.5788 375.113 73.9999 378C77.6192 379.206 80.1922 379.323 83.9999 379C88.3372 376.748 91.1338 374.561 92.9999 370C93.5319 365.212 93.4977 363.015 91.3749 358.688C87.9965 354.865 85.0386 353.297 79.9999 352.563C75.3572 353.24 72.4527 355.547 69.1874 358.813Z" fill="black"/>
<path d="M408.187 24.75C415.787 30.8304 419.916 37.8034 421.382 47.543C421.751 55.2659 419.263 62.6044 414.999 69C415.507 69.3519 416.015 69.7038 416.539 70.0664C425.906 76.7848 434.001 86.212 435.999 98C436.167 100.33 436.265 102.665 436.312 105C436.368 106.825 436.368 106.825 436.425 108.688C435.999 112 435.999 112 434.23 114.406C431.879 116.086 430.844 116.544 427.999 116.5C427.009 116.515 427.009 116.515 425.999 116.531C423.018 115.739 421.871 114.432 419.999 112C419.128 108.828 419.128 108.828 418.562 105.25C416.706 95.6815 413.012 89.6033 404.999 84C398.485 80.0118 391.468 80.135 383.999 81C376.574 83.1735 371.265 87.6142 366.999 94C364.198 99.2177 363.437 104.758 362.722 110.582C361.806 113.648 360.773 114.472 357.999 116C355.999 116.434 355.999 116.434 353.999 116.438C353.339 116.457 352.679 116.476 351.999 116.496C349.023 115.758 347.844 114.412 345.999 112C343.954 101.013 347.953 90.0449 353.999 81C357.775 76.0213 361.602 72.1594 366.999 69C366.65 68.264 366.301 67.5279 365.941 66.7695C365.486 65.7937 365.031 64.8179 364.562 63.8125C364.11 62.8496 363.657 61.8867 363.191 60.8945C359.713 52.4453 360.556 44.3087 363.999 36C368.174 28.4411 374.506 23.7976 382.437 20.625C391.976 18.9515 399.695 20.0875 408.187 24.75ZM380.687 42.3125C378.723 45.441 378.073 47.3024 377.999 51C379.59 56.1254 381.34 59.247 385.999 62C390.032 63.0999 392.232 63.2709 396.187 61.875C399.771 59.4855 402.075 56.8489 403.999 53C404.43 49.2076 404.152 47.2932 402.374 43.875C399.293 40.1454 396.377 37.416 391.499 36.5625C386.988 37.3521 383.915 39.0844 380.687 42.3125Z" fill="black"/>
</svg>
