<svg width="512" height="512" viewBox="0 0 512 512" fill="none" xmlns="http://www.w3.org/2000/svg">
<path d="M31.899 137.866C33.1637 137.861 34.4285 137.857 35.7316 137.852C37.1482 137.852 38.5649 137.853 39.9815 137.853C41.4763 137.85 42.971 137.846 44.4658 137.842C48.5885 137.832 52.7111 137.828 56.8338 137.825C61.2743 137.821 65.7148 137.812 70.1552 137.803C80.8864 137.783 91.6177 137.773 102.349 137.764C107.399 137.76 112.449 137.755 117.499 137.749C134.28 137.732 151.061 137.718 167.842 137.711C172.199 137.709 176.555 137.707 180.912 137.705C181.995 137.704 183.078 137.704 184.194 137.703C201.743 137.695 219.292 137.67 236.841 137.637C254.847 137.604 272.853 137.586 290.858 137.583C300.973 137.581 311.087 137.572 321.201 137.547C329.814 137.525 338.426 137.517 347.038 137.526C351.434 137.531 355.829 137.529 360.225 137.51C364.248 137.492 368.271 137.493 372.294 137.509C373.75 137.511 375.207 137.507 376.663 137.495C378.641 137.48 380.62 137.492 382.599 137.505C383.698 137.504 384.797 137.503 385.93 137.502C391.025 138.328 394.112 140.928 397.347 144.829C399.237 148.453 399.486 150.673 399.455 154.74C399.455 155.384 399.456 156.029 399.456 156.693C399.454 158.804 399.423 160.913 399.391 163.023C399.384 164.495 399.378 165.966 399.374 167.437C399.359 171.294 399.32 175.15 399.275 179.007C399.234 182.949 399.216 186.89 399.196 190.832C399.153 198.555 399.085 206.277 399.001 214C397.83 214.002 397.83 214.002 396.636 214.004C377.631 214.042 358.626 214.101 339.621 214.184C330.43 214.224 321.239 214.256 312.048 214.271C304.035 214.284 296.022 214.311 288.009 214.355C283.769 214.377 279.528 214.393 275.287 214.392C271.29 214.391 267.294 214.409 263.298 214.441C261.836 214.45 260.374 214.451 258.912 214.446C247.483 214.408 239.298 216.061 230.794 223.938C225.252 230.312 222.904 237.747 222.842 246.081C222.828 247.578 222.828 247.578 222.813 249.104C222.807 250.192 222.801 251.279 222.795 252.4C222.785 253.57 222.775 254.74 222.765 255.946C222.733 259.731 222.709 263.516 222.684 267.301C222.666 269.639 222.647 271.977 222.628 274.315C222.559 282.981 222.499 291.647 222.438 300.312C222.294 319.679 222.149 339.046 222.001 359C153.691 359 85.3805 359 15.0005 359C14.8796 307.121 14.8796 307.121 14.854 285.404C14.8362 270.401 14.8153 255.398 14.7742 240.395C14.7443 229.469 14.725 218.543 14.7183 207.617C14.7143 201.832 14.7051 196.046 14.6833 190.261C14.663 184.815 14.6567 179.369 14.6612 173.923C14.6604 171.925 14.6544 169.927 14.6429 167.929C14.628 165.198 14.6316 162.469 14.6398 159.738C14.631 158.949 14.6223 158.16 14.6133 157.348C14.6595 151.632 15.6255 146.695 19.5357 142.258C24.1325 138.848 26.203 137.875 31.899 137.866ZM137.001 183C134.811 187.001 132.978 191.147 131.126 195.313C130.562 196.556 129.998 197.799 129.432 199.041C128.54 201 127.649 202.96 126.762 204.922C123.722 211.643 120.588 218.318 117.446 224.991C115.868 228.344 114.296 231.699 112.723 235.055C112.414 235.715 112.105 236.375 111.786 237.055C108.496 244.075 105.212 251.097 101.938 258.125C101.426 259.219 100.915 260.314 100.387 261.441C99.4102 263.542 98.441 265.647 97.4805 267.755C96.4143 270.093 95.3288 272.416 94.2276 274.737C93.6523 275.989 93.0779 277.24 92.5044 278.492C91.9779 279.617 91.4514 280.743 90.909 281.902C89.729 284.941 89.729 284.941 90.7308 287.79C92.2218 290.385 93.3319 291.628 96.0005 293C99.151 292.921 100.574 292.365 102.97 290.314C105.275 287.687 106.545 285.211 107.997 282.031C108.548 280.835 109.1 279.639 109.668 278.406C110.258 277.104 110.848 275.802 111.438 274.5C112.06 273.145 112.682 271.791 113.305 270.438C114.587 267.652 115.863 264.864 117.137 262.074C119.895 256.036 122.7 250.019 125.501 244C126.564 241.706 127.628 239.412 128.692 237.117C131.023 232.097 133.365 227.082 135.715 222.07C136.343 220.73 136.971 219.391 137.598 218.051C138.782 215.524 139.969 212.998 141.157 210.473C142.245 208.15 143.324 205.824 144.395 203.493C145.515 201.056 146.654 198.636 147.814 196.218C148.389 194.976 148.963 193.735 149.536 192.492C150.057 191.39 150.577 190.288 151.114 189.152C152.199 185.295 151.756 183.559 150.001 180C144.31 176.206 140.876 177.805 137.001 183ZM73.7505 205.375C72.9101 206.179 72.0696 206.984 71.2037 207.813C70.135 208.874 69.0674 209.937 68.0005 211C66.4745 212.5 64.9485 214 63.4224 215.5C60.1997 218.686 56.9812 221.876 53.7818 225.086C53.1018 225.767 52.4218 226.448 51.7212 227.15C49.2247 229.834 48.0641 231.594 47.4922 235.251C48.1917 240.41 50.4852 242.465 54.1333 245.992C54.7628 246.624 55.3922 247.255 56.0408 247.906C57.3725 249.233 58.7128 250.552 60.0611 251.863C62.1189 253.869 64.1428 255.904 66.1646 257.945C67.4648 259.234 68.7668 260.52 70.0708 261.805C70.6742 262.412 71.2776 263.019 71.8992 263.645C75.4243 267.035 77.871 268.964 83.0005 269C86.0103 267.659 86.0103 267.659 88.0005 265C88.5595 260.729 88.5227 258.728 85.981 255.186C85.0593 254.301 84.1376 253.416 83.188 252.504C82.6997 252.026 82.2114 251.547 81.7083 251.054C80.1548 249.54 78.5787 248.051 77.0005 246.563C75.939 245.536 74.8791 244.508 73.8208 243.479C71.232 240.967 68.6223 238.478 66.0005 236C67.5249 232.34 69.7003 230.147 72.5708 227.445C73.4667 226.583 74.3626 225.721 75.2857 224.832C77.1791 223.027 79.0802 221.23 80.9888 219.441C82.3288 218.144 82.3288 218.144 83.6958 216.82C84.521 216.039 85.3462 215.258 86.1963 214.454C88.4492 211.39 88.4852 209.724 88.0005 206C86.5005 203.5 86.5005 203.5 84.0005 202C79.2315 201.483 77.1774 202.062 73.7505 205.375ZM155.626 203.625C153.496 206.737 153.531 208.276 154.001 212C156.003 214.829 156.003 214.829 158.813 217.398C159.301 217.878 159.79 218.358 160.293 218.852C161.848 220.375 163.424 221.875 165.001 223.375C166.062 224.406 167.122 225.439 168.18 226.473C170.772 228.998 173.381 231.504 176.001 234C174.493 237.55 172.429 239.791 169.684 242.477C168.838 243.312 167.992 244.147 167.12 245.008C166.235 245.871 165.35 246.735 164.438 247.625C162.685 249.344 160.933 251.065 159.184 252.789C158.017 253.929 158.017 253.929 156.826 255.092C154.531 257.49 154.058 258.563 153.626 261.875C153.72 265.14 153.72 265.14 156.126 267.438C158.858 269.221 158.858 269.221 161.749 268.989C166.26 267.617 168.646 265.055 171.895 261.734C172.528 261.104 173.161 260.474 173.813 259.824C175.144 258.492 176.469 257.153 177.788 255.809C179.808 253.755 181.851 251.726 183.897 249.699C185.189 248.4 186.481 247.099 187.77 245.797C188.38 245.191 188.991 244.586 189.62 243.962C191.972 241.544 193.756 239.546 195.14 236.45C194.798 230.445 189.283 225.996 185.211 221.98C184.667 221.436 184.122 220.892 183.561 220.332C182.419 219.193 181.274 218.056 180.127 216.921C178.368 215.18 176.618 213.432 174.868 211.682C173.754 210.572 172.639 209.464 171.524 208.355C171 207.833 170.476 207.31 169.936 206.771C166.154 202.989 166.154 202.989 161.126 201.688C157.955 201.752 157.955 201.752 155.626 203.625Z" fill="white"/>
<path d="M237 287C322.8 287 408.6 287 497 287C497.083 319.34 497.165 351.68 497.25 385C497.287 395.212 497.323 405.424 497.361 415.945C497.379 428.414 497.379 428.414 497.382 434.251C497.386 438.328 497.401 442.405 497.423 446.482C497.45 451.685 497.458 456.888 497.453 462.091C497.454 463.999 497.462 465.907 497.477 467.815C497.497 470.397 497.492 472.977 497.481 475.559C497.493 476.302 497.505 477.045 497.517 477.811C497.455 483.259 495.993 487.434 493 492C489.203 495.612 486.188 497.121 480.968 497.134C480.145 497.139 479.322 497.143 478.474 497.148C477.57 497.148 476.665 497.147 475.734 497.147C474.773 497.151 473.813 497.155 472.823 497.158C469.59 497.169 466.356 497.173 463.123 497.177C460.81 497.183 458.498 497.19 456.185 497.197C449.891 497.214 443.598 497.225 437.304 497.233C433.374 497.238 429.443 497.244 425.512 497.251C414.627 497.267 403.742 497.282 392.857 497.289C390.032 497.291 387.208 497.293 384.383 497.295C383.681 497.296 382.979 497.296 382.256 497.297C370.887 497.305 359.518 497.33 348.149 497.363C336.474 497.396 324.798 497.413 313.123 497.417C306.569 497.419 300.015 497.428 293.461 497.453C287.294 497.477 281.128 497.481 274.961 497.471C272.699 497.47 270.437 497.477 268.174 497.49C265.083 497.508 261.993 497.501 258.902 497.488C258.009 497.499 257.116 497.51 256.196 497.521C250.404 497.462 245.678 496.599 241 493C236.929 488.449 236.427 483.561 236.519 477.603C236.514 476.378 236.514 476.378 236.509 475.129C236.502 472.398 236.524 469.668 236.546 466.938C236.548 464.944 236.547 462.951 236.545 460.958C236.544 455.627 236.567 450.297 236.595 444.966C236.618 439.962 236.619 434.957 236.622 429.952C236.643 415.322 236.699 400.692 236.75 386.062C236.833 353.372 236.915 320.681 237 287ZM262 307C260.707 310.88 260.828 314.57 260.808 318.615C260.799 319.495 260.791 320.375 260.783 321.281C260.758 324.195 260.741 327.109 260.727 330.023C260.722 331.018 260.716 332.013 260.711 333.039C260.684 338.303 260.665 343.567 260.65 348.831C260.634 354.271 260.589 359.71 260.538 365.15C260.504 369.331 260.493 373.512 260.487 377.694C260.48 379.699 260.465 381.705 260.441 383.71C260.41 386.516 260.409 389.32 260.417 392.126C260.4 392.955 260.384 393.783 260.367 394.636C260.376 395.404 260.384 396.173 260.392 396.964C260.389 397.627 260.386 398.289 260.382 398.972C261.421 402.382 263.205 403.852 266 406C268.944 406.491 271.306 406.673 274.243 406.628C275.483 406.639 275.483 406.639 276.747 406.65C279.515 406.667 282.28 406.649 285.048 406.631C287.032 406.636 289.016 406.644 291.001 406.653C296.389 406.671 301.777 406.658 307.165 406.639C312.801 406.622 318.436 406.631 324.072 406.636C333.535 406.641 342.998 406.625 352.462 406.597C363.408 406.565 374.355 406.565 385.302 406.582C395.826 406.598 406.35 406.591 416.875 406.574C421.357 406.567 425.839 406.568 430.321 406.576C435.596 406.583 440.871 406.571 446.146 406.544C448.085 406.537 450.023 406.537 451.961 406.544C454.603 406.553 457.243 406.537 459.884 406.515C460.655 406.523 461.426 406.531 462.22 406.54C465.656 406.486 467.653 406.25 470.475 404.219C472.1 401.855 472.503 400.801 472.515 397.977C472.534 396.791 472.534 396.791 472.554 395.581C472.544 394.294 472.544 394.294 472.534 392.98C472.542 392.069 472.551 391.158 472.56 390.22C472.583 387.209 472.576 384.199 472.567 381.188C472.572 379.095 472.578 377.003 472.586 374.911C472.596 370.526 472.591 366.142 472.577 361.757C472.56 356.134 472.583 350.512 472.618 344.89C472.64 340.569 472.639 336.249 472.631 331.929C472.63 329.856 472.637 327.782 472.651 325.709C472.669 322.812 472.654 319.917 472.632 317.02C472.643 316.161 472.655 315.303 472.667 314.419C472.654 313.628 472.642 312.837 472.629 312.023C472.628 311.338 472.627 310.654 472.627 309.949C471.593 306.732 469.857 305.712 467 304C464.148 303.617 461.687 303.463 458.84 303.499C458.023 303.493 457.205 303.488 456.363 303.482C453.626 303.468 450.89 303.483 448.153 303.498C446.19 303.495 444.227 303.489 442.264 303.482C436.933 303.468 431.603 303.479 426.272 303.496C420.696 303.509 415.12 303.503 409.543 303.499C400.178 303.497 390.813 303.51 381.449 303.533C370.619 303.56 359.789 303.562 348.96 303.55C338.545 303.539 328.131 303.545 317.716 303.56C313.283 303.565 308.849 303.565 304.415 303.561C299.195 303.556 293.975 303.566 288.755 303.588C286.838 303.593 284.921 303.594 283.004 303.589C280.389 303.583 277.775 303.595 275.161 303.612C274.401 303.606 273.64 303.6 272.857 303.594C268.422 303.647 265.483 304.178 262 307ZM261 430C261 433.145 261.359 435.019 263.081 437.654C266.066 439.747 269.197 439.425 272.713 439.404C273.889 439.414 273.889 439.414 275.089 439.425C277.683 439.443 280.277 439.439 282.871 439.434C284.674 439.438 286.476 439.443 288.278 439.449C292.057 439.458 295.835 439.456 299.614 439.446C304.458 439.435 309.3 439.455 314.144 439.484C317.866 439.502 321.589 439.502 325.311 439.496C327.097 439.496 328.883 439.502 330.668 439.515C333.165 439.529 335.661 439.519 338.158 439.502C338.897 439.511 339.635 439.521 340.396 439.531C343.821 439.482 345.685 439.237 348.459 437.156C350.223 435.023 350.223 435.023 350.5 432C349.871 428.226 349.04 427.289 346 425C343.293 424.6 340.989 424.442 338.282 424.467C337.123 424.454 337.123 424.454 335.94 424.44C333.388 424.418 330.837 424.425 328.286 424.434C326.51 424.428 324.734 424.422 322.958 424.415C319.236 424.404 315.515 424.409 311.794 424.424C307.027 424.441 302.262 424.417 297.496 424.382C293.828 424.36 290.161 424.362 286.494 424.37C284.737 424.371 282.979 424.364 281.222 424.349C278.764 424.332 276.307 424.346 273.848 424.369C273.124 424.357 272.401 424.346 271.655 424.333C266.435 424.431 264.126 425.869 261 430ZM383 430C383 433.145 383.359 435.019 385.081 437.654C388.066 439.747 391.197 439.425 394.713 439.404C395.889 439.414 395.889 439.414 397.089 439.425C399.683 439.443 402.277 439.439 404.871 439.434C406.674 439.438 408.476 439.443 410.278 439.449C414.057 439.458 417.835 439.456 421.614 439.446C426.458 439.435 431.3 439.455 436.144 439.484C439.866 439.502 443.589 439.502 447.311 439.496C449.097 439.496 450.883 439.502 452.668 439.515C455.165 439.529 457.661 439.519 460.158 439.502C460.897 439.511 461.635 439.521 462.396 439.531C465.821 439.482 467.685 439.237 470.459 437.156C472.223 435.023 472.223 435.023 472.5 432C471.871 428.226 471.04 427.289 468 425C465.293 424.6 462.989 424.442 460.282 424.467C459.123 424.454 459.123 424.454 457.94 424.44C455.388 424.418 452.837 424.425 450.286 424.434C448.51 424.428 446.734 424.422 444.958 424.415C441.236 424.404 437.515 424.409 433.794 424.424C429.027 424.441 424.262 424.417 419.496 424.382C415.828 424.36 412.161 424.362 408.494 424.37C406.737 424.371 404.979 424.364 403.222 424.349C400.764 424.332 398.307 424.346 395.848 424.369C395.124 424.357 394.401 424.346 393.655 424.333C388.435 424.431 386.126 425.869 383 430ZM261 463C261 466.333 261.357 468.152 263.375 470.812C267.249 473.643 271.637 473.178 276.211 473.203C277.016 473.209 277.822 473.215 278.651 473.22C280.354 473.23 282.057 473.236 283.76 473.24C286.359 473.25 288.957 473.281 291.555 473.312C293.211 473.319 294.868 473.324 296.524 473.328C297.298 473.34 298.072 473.353 298.87 473.366C303.425 473.347 306.39 472.85 310 470C311.438 467.125 311.382 465.181 311 462C308.187 458.895 305.93 457.753 301.84 457.467C300.206 457.434 298.572 457.424 296.938 457.434C295.635 457.424 295.635 457.424 294.305 457.415C292.473 457.408 290.64 457.411 288.808 457.424C286.009 457.437 283.213 457.403 280.414 457.365C278.631 457.364 276.847 457.366 275.063 457.371C273.813 457.351 273.813 457.351 272.537 457.331C267.045 457.419 264.406 458.321 261 463ZM383 463C383 466.333 383.357 468.152 385.375 470.812C389.188 473.599 393.455 473.178 397.957 473.203C399.128 473.212 399.128 473.212 400.323 473.22C401.975 473.23 403.626 473.236 405.278 473.24C407.793 473.25 410.308 473.281 412.823 473.312C414.43 473.319 416.038 473.324 417.645 473.328C418.392 473.34 419.139 473.353 419.909 473.366C424.68 473.345 427.959 472.553 432 470C433.438 467.125 433.382 465.181 433 462C430.187 458.895 427.93 457.753 423.84 457.467C422.206 457.434 420.572 457.424 418.938 457.434C417.635 457.424 417.635 457.424 416.305 457.415C414.473 457.408 412.64 457.411 410.808 457.424C408.009 457.437 405.213 457.403 402.414 457.365C400.631 457.364 398.847 457.366 397.063 457.371C395.813 457.351 395.813 457.351 394.537 457.331C389.045 457.419 386.406 458.321 383 463Z" fill="white"/>
<path d="M382.5 14.4999C383.45 14.4844 384.4 14.4689 385.379 14.453C392.12 14.4909 392.12 14.4909 395.484 16.4374C397.744 20.2585 398.72 24.2051 399.75 28.4999C399.97 29.3545 400.191 30.2092 400.418 31.0897C401.378 34.9124 402 38.0189 402 41.9999C402.822 42.0946 402.822 42.0946 403.66 42.1913C408.949 43.0082 412.6 44.3286 417.156 47.2044C420.362 49.1304 423.207 50.7614 427 50.9999C432.234 49.2807 436.453 45.9263 440.809 42.6522C443.588 40.6991 445.689 39.5214 449.102 39.246C454.255 40.2425 456.454 42.359 459.938 46.1249C460.513 46.6946 461.089 47.2644 461.682 47.8514C464.183 50.4437 465.821 52.5444 467.148 55.9178C466.932 60.4107 465.003 63.4086 462.688 67.1874C462.27 67.8983 461.853 68.6092 461.424 69.3417C459.688 72.2848 457.896 75.1559 456 77.9999C456.458 83.5197 459.354 88.4624 461.625 93.4295C463.044 97.1137 463.601 100.103 464 104C464.632 104.098 465.263 104.196 465.914 104.297C473.71 105.6 481.602 107.171 489 110C491.905 114.358 491.368 118.31 491.375 123.437C491.399 124.392 491.424 125.346 491.449 126.33C491.478 133.168 491.478 133.168 489.57 136.488C485.743 138.739 481.796 139.72 477.5 140.75C476.645 140.97 475.791 141.191 474.91 141.418C471.088 142.378 467.981 143 464 143C463.937 143.548 463.874 144.096 463.809 144.66C462.992 149.949 461.671 153.6 458.795 158.156C456.868 161.364 455.245 164.206 455 168C456.674 173.28 459.987 177.597 463.25 182.004C465.662 185.307 467.097 187.773 467 192C465.812 194.09 465.812 194.09 464 195.937C463.352 196.608 462.703 197.278 462.035 197.969C461.028 198.974 461.028 198.974 460 200C459.401 200.67 458.801 201.34 458.184 202.031C457.607 202.66 457.031 203.289 456.438 203.937C455.921 204.503 455.404 205.069 454.871 205.652C452.13 207.626 450.393 207.956 447 208C444.115 206.9 441.563 205.363 438.938 203.75C438.243 203.341 437.549 202.933 436.834 202.512C434.879 201.357 432.938 200.182 431 199C430.011 198.407 429.023 197.814 428.004 197.203C427.343 196.806 426.681 196.409 426 196C425.385 196.361 424.77 196.722 424.137 197.094C423.328 197.558 422.52 198.022 421.688 198.5C420.887 198.964 420.086 199.428 419.262 199.906C417 201 417 201 414 201C413.821 194.632 413.699 188.265 413.615 181.896C413.58 179.733 413.533 177.57 413.472 175.408C412.915 155.107 412.915 155.107 417.379 148.859C417.997 148.207 418.615 147.554 419.252 146.882C425.86 139.767 426.372 128.961 426.211 119.824C425.646 109.577 421.293 100.97 414.625 93.2499C402.409 82.7793 391.111 78.8718 375 79.9999C364.048 82.2442 353.917 88.1258 347 96.9999C341.681 105.398 340.136 113.03 338 123C316.88 123 295.76 123 274 123C274 113 274 113 275.371 110.547C279.376 108.19 283.556 107.268 288.062 106.25C288.973 106.029 289.884 105.809 290.822 105.582C297.489 104 297.489 104 301 104C301.095 103.178 301.095 103.178 301.191 102.34C302.011 97.0349 303.306 93.4755 306.255 88.9452C308.257 85.6908 309.857 82.8872 310 78.9999C308.002 73.1918 304.336 68.3708 300.773 63.4335C298.809 60.5594 298.032 59.3581 297.715 55.8358C299.522 51.849 302.065 49.207 305.188 46.1874C305.753 45.6028 306.318 45.0182 306.9 44.4159C309.478 41.8677 311.52 40.1903 314.914 38.8436C319.407 39.0711 322.408 40.9959 326.188 43.3124C326.898 43.7294 327.609 44.1464 328.342 44.576C331.285 46.312 334.156 48.1039 337 49.9999C342.52 49.5415 347.463 46.6455 352.43 44.3749C356.114 42.956 359.103 42.3985 363 41.9999C363.11 41.345 363.219 40.6902 363.332 40.0155C364.231 34.84 365.221 29.6874 366.375 24.5624C366.589 23.5943 366.803 22.6262 367.023 21.6288C369.907 13.866 375.158 14.3803 382.5 14.4999Z" fill="white"/>
<path d="M15.0006 373C83.3106 373 151.621 373 222.001 373C222.001 392.8 222.001 412.6 222.001 433C196.549 433.09 171.098 433.164 145.646 433.207C133.828 433.228 122.011 433.256 110.194 433.302C99.8942 433.342 89.595 433.367 79.2956 433.376C73.8415 433.382 68.3875 433.394 62.9334 433.423C57.8002 433.45 52.6673 433.458 47.534 433.452C45.6498 433.454 43.7656 433.461 41.8815 433.477C39.3083 433.497 36.7363 433.492 34.1631 433.481C33.4179 433.493 32.6728 433.504 31.9051 433.516C26.7976 433.458 23.9485 432.186 20.0006 429C6.90763 414.845 15.0006 387.978 15.0006 373ZM201.001 395C199.937 398.658 199.488 400.854 201.063 404.375C203.757 406.635 205.493 407 209.001 407C211.814 405.312 213.49 403.989 215.001 401.062C215.001 398.019 213.78 396.414 212.001 394C207.517 391.011 205.064 391.686 201.001 395Z" fill="white"/>
<path d="M253.017 227.866C253.837 227.861 254.656 227.857 255.501 227.852C256.401 227.852 257.301 227.853 258.228 227.853C259.185 227.849 260.142 227.845 261.127 227.842C264.347 227.831 267.566 227.827 270.786 227.823C273.089 227.817 275.391 227.81 277.694 227.803C283.961 227.786 290.227 227.775 296.494 227.767C300.408 227.762 304.322 227.756 308.236 227.749C319.075 227.732 329.914 227.718 340.752 227.711C343.565 227.709 346.377 227.707 349.19 227.705C349.889 227.704 350.588 227.704 351.308 227.703C362.628 227.695 373.949 227.67 385.269 227.637C396.895 227.604 408.521 227.586 420.147 227.583C426.673 227.581 433.199 227.572 439.725 227.547C445.865 227.523 452.005 227.519 458.146 227.529C460.398 227.53 462.651 227.523 464.904 227.51C467.982 227.492 471.059 227.499 474.137 227.512C475.026 227.501 475.915 227.49 476.831 227.479C482.628 227.539 487.202 228.618 492 232C501.905 244.445 497 254.152 497 273C411.2 273 325.4 273 237 273C237 239 237 239 241 233C244.889 229.491 247.775 227.879 253.017 227.866ZM264 250C262.996 253.145 262.72 255.084 263.688 258.25C265.314 260.419 266.41 261.186 269 262C272.537 261.912 273.752 261.228 276.375 258.812C278.25 256.09 278.25 256.09 278.062 252.875C277.226 249.843 277.226 249.843 274.625 248.125C270.144 246.204 267.728 247.057 264 250ZM293 249C291.309 251.335 290.99 252.612 291.062 255.5C292.34 258.908 293.889 260.161 297 262C299.88 261.931 301.381 261.42 303.75 259.812C305.607 257.12 306 255.272 306 252C303.937 249.02 303.937 249.02 301 247C297.231 247 295.993 247.005 293 249ZM321 249C319.309 251.335 318.99 252.612 319.062 255.5C320.34 258.908 321.889 260.161 325 262C328.252 262 329.701 261.205 332.375 259.375C334.335 256.99 334.335 256.99 334 253.437C333.284 250.011 333.284 250.011 331.188 248.062C327.385 246.215 324.388 246.741 321 249Z" fill="white"/>
<path d="M150 448C173.76 448 197.52 448 222 448C222.312 465.938 222.312 465.938 222.388 471.543C222.42 473.038 222.454 474.532 222.488 476.027C222.495 476.78 222.501 477.533 222.507 478.309C222.64 483.288 223.589 487.396 225.362 492.054C226 494 226 494 226 497C185.08 497 144.16 497 102 497C102 474.405 102 474.405 106.535 469.258C111.819 465.339 114.817 464.861 121.289 464.902C122.517 464.904 122.517 464.904 123.769 464.907C126.388 464.912 129.006 464.925 131.625 464.938C133.398 464.943 135.172 464.947 136.945 464.951C141.297 464.961 145.648 464.981 150 465C150 459.39 150 453.78 150 448Z" fill="white"/>
<path d="M458 323C458 344.12 458 365.24 458 387C454.519 386.304 452.195 385.795 449.097 384.425C447.996 383.942 447.996 383.942 446.872 383.449C446.087 383.098 445.301 382.748 444.492 382.387C443.661 382.021 442.83 381.654 441.974 381.277C439.272 380.085 436.574 378.887 433.875 377.688C432.023 376.869 430.171 376.051 428.319 375.233C423.727 373.204 419.139 371.17 414.551 369.133C412.178 368.079 409.804 367.026 407.43 365.974C399.949 362.658 392.472 359.335 385 356C387.042 353.779 388.832 352.422 391.584 351.198C392.656 350.715 392.656 350.715 393.749 350.222C394.523 349.882 395.296 349.542 396.094 349.191C396.905 348.828 397.717 348.465 398.553 348.091C401.199 346.908 403.849 345.735 406.5 344.562C408.316 343.754 410.132 342.945 411.948 342.135C415.583 340.516 419.219 338.9 422.857 337.287C427.43 335.257 431.992 333.205 436.551 331.145C437.806 330.579 439.061 330.014 440.316 329.449C442.601 328.421 444.883 327.389 447.164 326.354C448.168 325.904 449.172 325.455 450.207 324.992C451.068 324.604 451.929 324.216 452.816 323.816C455 323 455 323 458 323Z" fill="white"/>
<path d="M276 323C282.173 325.058 287.948 327.185 293.82 329.879C295.041 330.432 295.041 330.432 296.287 330.996C298.014 331.779 299.74 332.564 301.466 333.35C305.934 335.387 310.409 337.41 314.883 339.434C315.759 339.83 316.635 340.227 317.537 340.636C327.642 345.206 337.808 349.629 348 354C348 354.66 348 355.32 348 356C334.879 361.949 321.752 367.887 308.622 373.816C306.217 374.902 303.813 375.99 301.409 377.078C297.63 378.788 293.847 380.489 290.062 382.188C288.415 382.934 288.415 382.934 286.735 383.696C285.741 384.141 284.747 384.585 283.723 385.043C282.45 385.616 282.45 385.616 281.153 386.2C279 387 279 387 276 387C276 365.88 276 344.76 276 323Z" fill="white"/>
<path d="M377.555 367.246C378.285 367.573 379.016 367.9 379.769 368.238C382.14 369.3 384.507 370.369 386.875 371.438C389.314 372.532 391.755 373.625 394.195 374.717C395.819 375.445 397.443 376.172 399.067 376.9C405.941 379.982 412.837 383.007 419.75 386C420.706 386.415 421.663 386.829 422.648 387.256C424.765 388.172 426.882 389.087 429 390C429 390.66 429 391.32 429 392C387.75 392 346.5 392 304 392C307.333 388.667 310.664 387.152 314.902 385.305C316.081 384.781 316.081 384.781 317.284 384.246C319.832 383.116 322.385 381.995 324.938 380.875C327.545 379.725 330.152 378.573 332.758 377.421C334.472 376.663 336.186 375.907 337.9 375.151C342.554 373.097 347.184 371.006 351.789 368.844C352.708 368.415 353.627 367.986 354.574 367.544C356.18 366.79 357.781 366.026 359.377 365.25C366.507 361.929 370.731 364.144 377.555 367.246Z" fill="white"/>
<path d="M304 319C345.25 319 386.5 319 429 319C426.005 321.246 423.908 322.637 420.605 324.097C419.744 324.481 418.882 324.865 417.994 325.261C417.068 325.667 416.142 326.074 415.188 326.492C414.223 326.92 413.258 327.348 412.264 327.789C409.178 329.156 406.089 330.515 403 331.875C400.952 332.782 398.903 333.69 396.855 334.598C392.06 336.722 387.256 338.827 382.449 340.924C380.313 341.862 378.186 342.817 376.062 343.782C375.011 344.249 373.959 344.715 372.875 345.195C372.027 345.58 371.179 345.964 370.305 346.36C364.673 347.924 359.242 344.507 354.176 342.246C353.316 341.867 352.455 341.488 351.569 341.097C348.815 339.882 346.064 338.66 343.312 337.438C341.513 336.642 339.712 335.847 337.912 335.053C332.605 332.709 327.302 330.356 322 328C321.112 327.606 320.225 327.212 319.31 326.805C314.206 324.538 309.103 322.27 304 320C304 319.67 304 319.34 304 319Z" fill="white"/>
</svg>
