<svg width="512" height="512" viewBox="0 0 512 512" fill="none" xmlns="http://www.w3.org/2000/svg">
<g clip-path="url(#clip0_177_51)">
<path d="M88.1022 -0.134315C89.3602 -0.141002 89.3602 -0.141002 90.6437 -0.147824C91.5652 -0.14764 92.4866 -0.147455 93.436 -0.147265C94.9044 -0.15278 94.9044 -0.15278 96.4025 -0.158407C99.698 -0.16946 102.994 -0.17329 106.289 -0.177096C108.646 -0.18336 111.003 -0.190006 113.36 -0.197009C120.445 -0.21625 127.53 -0.226841 134.616 -0.235737C137.955 -0.240121 141.293 -0.245488 144.632 -0.250726C155.736 -0.26774 166.84 -0.282232 177.944 -0.289474C180.825 -0.291384 183.707 -0.293304 186.588 -0.29526C187.663 -0.295986 187.663 -0.295986 188.759 -0.296726C200.349 -0.305019 211.939 -0.330342 223.529 -0.362841C235.436 -0.395956 247.343 -0.413927 259.25 -0.417118C265.932 -0.41928 272.614 -0.428419 279.296 -0.45358C285.587 -0.476882 291.877 -0.481085 298.168 -0.470818C300.473 -0.470323 302.777 -0.476632 305.082 -0.490374C321.83 -0.584629 333.899 0.552399 347 11.9999C355.585 21.0297 359.179 32.867 359.105 45.1794C359.049 46.9956 358.981 48.8114 358.902 50.6267C358.868 51.6379 358.834 52.649 358.799 53.6909C358.725 55.8902 358.646 58.0893 358.562 60.2882C358.33 66.4208 358.139 72.5547 357.943 78.6886C357.9 79.995 357.857 81.3014 357.813 82.6474C357.503 92.2933 357.279 101.939 357.102 111.588C357.089 112.291 357.076 112.994 357.062 113.718C356.929 120.984 356.806 128.251 356.69 135.518C356.63 139.246 356.567 142.973 356.502 146.701C356.483 147.814 356.483 147.814 356.463 148.949C356.278 159.38 355.962 169.801 355.546 180.225C354.829 198.195 354.369 216.152 354.383 234.137C354.383 234.83 354.383 235.523 354.382 236.237C354.409 269.541 355.775 299 380.308 323.918C391.131 334.36 403.085 343.318 416 351C414.218 354.85 411.923 357.28 408.875 360.25C407.965 361.142 407.055 362.034 406.117 362.953C405.069 363.966 405.069 363.966 404 365C398.794 360.651 393.954 356.077 389.188 351.254C388.441 350.502 387.693 349.75 386.923 348.975C385.311 347.352 383.7 345.728 382.09 344.104C379.536 341.528 376.978 338.956 374.419 336.385C367.146 329.079 359.878 321.769 352.62 314.448C348.17 309.961 343.713 305.481 339.252 301.006C337.559 299.305 335.87 297.602 334.183 295.896C331.819 293.506 329.446 291.125 327.071 288.746C326.385 288.048 325.699 287.349 324.992 286.63C317.436 279.105 309.689 273.115 298.75 272.625C291.727 272.806 285.97 274.333 280.668 279.094C275.112 285.1 272.16 290.661 272 299C272.996 312.725 282.603 320.986 291.901 330.034C293.93 332.011 295.949 333.999 297.965 335.99C303.691 341.644 309.435 347.281 315.192 352.904C318.726 356.358 322.245 359.826 325.756 363.303C327.092 364.621 328.433 365.932 329.781 367.238C331.662 369.061 333.523 370.902 335.382 372.748C335.939 373.28 336.497 373.811 337.071 374.358C340.739 378.055 341.853 380.81 342 386C341.102 388.527 341.102 388.527 339.625 390.937C339.068 391.886 338.511 392.835 337.938 393.812C337.298 394.864 336.659 395.916 336 397C317.595 427.675 309.211 460.731 308.395 496.363C308.355 497.89 308.314 499.417 308.273 500.944C308.175 504.629 308.085 508.314 308 512C279.001 512.117 250.003 512.205 221.004 512.259C218.321 512.264 215.639 512.269 212.956 512.275C212.289 512.276 211.623 512.277 210.936 512.279C200.157 512.3 189.379 512.34 178.601 512.386C167.532 512.432 156.462 512.46 145.392 512.47C139.179 512.477 132.966 512.492 126.753 512.529C120.899 512.563 115.045 512.573 109.191 512.565C107.048 512.567 104.905 512.577 102.763 512.596C86.3726 512.736 74.4608 510.935 62.1328 499.226C54.4485 491.146 50.8424 481.614 50.8658 470.604C50.8634 469.853 50.8611 469.102 50.8587 468.329C50.852 465.798 50.8524 463.268 50.8528 460.737C50.8495 458.91 50.8458 457.083 50.8417 455.256C50.8317 450.224 50.828 445.192 50.8253 440.16C50.8214 434.737 50.8118 429.314 50.8031 423.891C50.7833 410.789 50.7733 397.687 50.7644 384.585C50.76 378.417 50.7546 372.248 50.7494 366.08C50.7324 345.577 50.7179 325.073 50.7106 304.57C50.7087 299.248 50.7068 293.927 50.7048 288.605C50.7046 287.944 50.7044 287.283 50.7041 286.602C50.6965 265.837 50.6748 245.072 50.6433 224.307C50.608 200.979 50.5864 177.651 50.583 154.323C50.5808 141.971 50.5721 129.619 50.5465 117.268C50.5248 106.749 50.5168 96.2299 50.5265 85.711C50.531 80.3446 50.5291 74.9784 50.5097 69.612C50.4921 64.6961 50.4931 59.7806 50.5086 54.8647C50.511 53.0894 50.5067 51.3141 50.4948 49.5388C50.4027 34.8436 52.715 22.9483 63 11.8397C69.6073 5.52742 78.7026 -0.111127 88.1022 -0.134315ZM73 27.9999C67.78 35.3547 69 41.6269 69 50.9999C158.76 50.9999 248.52 50.9999 341 50.9999C341 40.7714 340.539 31.5777 333 23.9999C328.327 20.4794 323.962 17.879 317.996 17.8685C317.179 17.8646 316.362 17.8608 315.521 17.8568C314.624 17.8577 313.727 17.8586 312.803 17.8595C311.85 17.8565 310.896 17.8535 309.914 17.8505C306.706 17.8418 303.498 17.8403 300.29 17.8388C297.996 17.8341 295.701 17.8291 293.407 17.8237C287.163 17.8106 280.919 17.8042 274.675 17.7997C270.776 17.7968 266.877 17.7927 262.977 17.7882C252.181 17.7761 241.384 17.7657 230.587 17.7623C229.55 17.762 229.55 17.762 228.493 17.7617C227.8 17.7615 227.107 17.7612 226.394 17.761C224.99 17.7606 223.586 17.7601 222.183 17.7597C221.138 17.7593 221.138 17.7593 220.073 17.759C208.794 17.7551 197.514 17.7376 186.235 17.7143C174.654 17.6906 163.072 17.6784 151.49 17.677C144.988 17.6759 138.486 17.67 131.984 17.6521C125.868 17.6357 119.751 17.6335 113.635 17.6423C111.39 17.6431 109.145 17.6387 106.9 17.6288C103.835 17.6161 100.77 17.622 97.7051 17.6324C96.8171 17.6244 95.9291 17.6163 95.0141 17.608C85.7614 17.6817 79.2151 21.1107 73 27.9999ZM69 68.9999C69 186.81 69 304.62 69 426C139.29 426 209.58 426 282 426C282 431.94 282 437.88 282 444C211.71 444 141.42 444 69 444C66.7411 468.624 66.7411 468.624 76.0274 487.437C76.9729 488.211 76.9729 488.211 77.9375 489C78.5653 489.536 79.1931 490.072 79.8399 490.625C85.0819 493.962 90.3291 494.286 96.3902 494.24C97.2202 494.242 98.0502 494.244 98.9054 494.246C101.678 494.249 104.451 494.238 107.224 494.227C109.215 494.226 111.206 494.227 113.197 494.228C118.597 494.228 123.998 494.217 129.398 494.203C135.043 494.19 140.689 494.189 146.334 494.187C157.023 494.18 167.711 494.164 178.399 494.144C190.569 494.122 202.738 494.111 214.907 494.101C239.938 494.08 264.969 494.044 290 494C290.055 493.251 290.11 492.501 290.166 491.729C290.419 488.305 290.676 484.881 290.933 481.456C291.019 480.278 291.105 479.099 291.194 477.884C291.777 470.167 292.573 462.689 294.25 455.125C294.574 453.597 294.574 453.597 294.905 452.039C299.682 430.214 307.863 410.811 318 391C319.001 389 320.001 387.001 321 385C319.986 383.996 319.986 383.996 318.952 382.972C312.559 376.641 306.175 370.301 299.798 363.953C296.519 360.69 293.239 357.431 289.951 354.177C286.774 351.033 283.604 347.881 280.439 344.724C279.236 343.526 278.029 342.33 276.82 341.137C270.463 334.862 264.567 328.752 260 321C259.423 320.154 258.845 319.309 258.25 318.437C252.478 307.181 253.272 293.699 257 282C260.114 273.018 267.431 264.634 275.727 260.027C289.195 253.941 303.006 252.892 317 258C325.073 261.578 331.128 267.547 337.41 273.586C339.532 276.114 339.532 276.114 341 276C341 207.69 341 139.38 341 68.9999C251.24 68.9999 161.48 68.9999 69 68.9999Z" fill="white" fill-opacity="0.8"/>
<path d="M383 198C387.651 200.79 391.178 204.071 394.957 207.949C396.768 209.767 398.615 211.456 400.562 213.125C404.604 216.6 408.488 220.23 412.375 223.875C416.615 227.848 420.861 231.808 425.188 235.688C425.964 236.387 426.74 237.087 427.539 237.809C429.33 239.403 431.14 240.976 432.961 242.535C448.429 255.948 459.657 274.568 461.17 295.329C461.437 301.782 461.376 308.237 461.341 314.693C461.34 316.853 461.34 319.012 461.342 321.172C461.343 326.995 461.325 332.819 461.304 338.642C461.285 344.742 461.284 350.843 461.28 356.944C461.271 368.478 461.246 380.013 461.216 391.547C461.182 404.686 461.166 417.825 461.151 430.964C461.12 457.976 461.066 484.988 461 512C455.06 512 449.12 512 443 512C442.994 509.308 442.988 506.616 442.982 503.843C442.926 478.476 442.852 453.109 442.764 427.742C442.719 414.7 442.68 401.659 442.654 388.618C442.631 377.248 442.597 365.879 442.551 354.509C442.527 348.492 442.509 342.474 442.502 336.456C442.496 330.786 442.476 325.116 442.446 319.446C442.437 317.371 442.433 315.296 442.435 313.221C442.447 292.997 439.336 276.308 425 261C418.327 254.381 411.335 248.089 404.211 241.961C400.959 239.076 397.797 236.097 394.625 233.125C386.911 225.898 379.195 218.685 371 212C373.122 208.133 375.527 205.256 378.688 202.188C379.496 201.397 380.304 200.607 381.137 199.793C381.752 199.201 382.366 198.61 383 198Z" fill="white" fill-opacity="0.8"/>
<path d="M272.284 84.8389C273.145 84.8293 274.007 84.8197 274.894 84.8098C275.822 84.8056 276.75 84.8013 277.707 84.7969C278.665 84.7912 279.623 84.7855 280.61 84.7797C282.639 84.7702 284.667 84.7637 286.695 84.7598C289.79 84.7501 292.884 84.7191 295.978 84.6876C297.95 84.681 299.922 84.6758 301.894 84.6719C302.816 84.6596 303.738 84.6472 304.688 84.6345C311.506 84.658 315.78 85.7801 320.75 90.7501C324.826 96.6379 325.309 102.53 325.3 109.461C325.305 110.251 325.309 111.041 325.313 111.855C325.319 113.517 325.32 115.18 325.315 116.842C325.312 119.361 325.336 121.879 325.361 124.398C325.436 142.689 325.436 142.689 320.281 149.156C319.693 149.6 319.105 150.043 318.5 150.5C317.618 151.196 317.618 151.196 316.718 151.906C313.748 153.797 311.159 154.132 307.731 154.177C306.444 154.196 306.444 154.196 305.131 154.216C303.743 154.227 303.743 154.227 302.328 154.238C301.372 154.246 300.416 154.254 299.431 154.263C297.407 154.277 295.383 154.287 293.359 154.295C290.275 154.312 287.193 154.356 284.109 154.4C282.14 154.411 280.172 154.419 278.203 154.426C277.286 154.443 276.369 154.461 275.424 154.479C268.249 154.455 263.878 152.878 258.687 147.688C255.099 141.973 254.691 136.087 254.699 129.539C254.695 128.749 254.69 127.959 254.686 127.145C254.68 125.483 254.68 123.821 254.684 122.158C254.687 119.639 254.664 117.121 254.638 114.602C254.563 96.3112 254.563 96.3112 259.718 89.8438C260.306 89.4004 260.894 88.9569 261.5 88.5001C262.087 88.036 262.675 87.5719 263.281 87.0938C266.261 85.1971 268.846 84.8699 272.284 84.8389ZM273 103C273 113.89 273 124.78 273 136C284.22 136 295.44 136 307 136C307 125.11 307 114.22 307 103C295.78 103 284.56 103 273 103Z" fill="white" fill-opacity="0.8"/>
<path d="M187.253 340.807C188.535 340.783 188.535 340.783 189.843 340.759C193.758 340.714 197.672 340.673 201.586 340.65C203.645 340.633 205.704 340.606 207.763 340.568C210.742 340.513 213.72 340.491 216.7 340.477C217.611 340.454 218.523 340.431 219.462 340.408C225.814 340.429 230.226 341.688 235 346C239.548 351.105 239.602 356.68 239.567 363.246C239.573 364.216 239.579 365.186 239.585 366.185C239.593 368.229 239.589 370.272 239.577 372.315C239.563 375.425 239.597 378.533 239.635 381.643C239.636 383.636 239.634 385.628 239.629 387.621C239.642 388.542 239.656 389.463 239.669 390.412C239.579 396.715 238.404 401.328 234 406C228.495 410.266 222.769 410.582 216.024 410.496C215.095 410.498 214.166 410.499 213.209 410.501C211.258 410.499 209.306 410.487 207.355 410.467C204.377 410.438 201.4 410.446 198.422 410.459C196.519 410.453 194.615 410.444 192.711 410.434C191.827 410.437 190.942 410.44 190.031 410.443C184.085 410.352 179.67 409.463 175.137 405.281C174.659 404.694 174.181 404.106 173.688 403.5C173.197 402.912 172.706 402.324 172.2 401.719C170.174 398.815 169.871 396.24 169.839 392.807C169.83 391.966 169.82 391.125 169.81 390.258C169.806 389.352 169.802 388.446 169.797 387.512C169.791 386.576 169.786 385.64 169.78 384.676C169.77 382.694 169.764 380.713 169.76 378.732C169.75 375.71 169.719 372.688 169.688 369.666C169.681 367.74 169.676 365.813 169.672 363.887C169.66 362.987 169.647 362.086 169.635 361.159C169.656 355.137 170.48 350.732 174.719 346.137C175.307 345.659 175.895 345.18 176.5 344.688C177.088 344.196 177.676 343.705 178.282 343.199C181.196 341.165 183.807 340.866 187.253 340.807ZM188 359C188 369.89 188 380.78 188 392C198.89 392 209.78 392 221 392C221 381.11 221 370.22 221 359C210.11 359 199.22 359 188 359Z" fill="white" fill-opacity="0.8"/>
<path d="M107.097 340.504C108.526 340.502 108.526 340.502 109.983 340.499C111.988 340.501 113.992 340.513 115.997 340.533C119.056 340.562 122.114 340.554 125.173 340.541C127.127 340.547 129.081 340.556 131.035 340.566C132.399 340.562 132.399 340.562 133.791 340.558C139.81 340.647 144.27 341.482 148.863 345.719C149.341 346.307 149.819 346.894 150.312 347.5C151.049 348.382 151.049 348.382 151.8 349.281C153.826 352.185 154.129 354.76 154.161 358.193C154.17 359.034 154.18 359.875 154.19 360.742C154.194 361.648 154.198 362.555 154.203 363.488C154.208 364.424 154.214 365.36 154.22 366.325C154.229 368.306 154.236 370.287 154.24 372.268C154.249 375.29 154.28 378.312 154.312 381.334C154.318 383.26 154.324 385.187 154.328 387.113C154.34 388.013 154.352 388.914 154.365 389.841C154.344 395.863 153.519 400.268 149.281 404.863C148.693 405.342 148.105 405.82 147.499 406.312C146.618 407.049 146.618 407.049 145.718 407.801C142.83 409.816 140.254 410.131 136.839 410.177C135.586 410.196 135.586 410.196 134.309 410.216C133.409 410.223 132.509 410.231 131.581 410.238C130.65 410.246 129.719 410.254 128.76 410.263C126.787 410.277 124.814 410.287 122.841 410.295C119.841 410.312 116.841 410.356 113.841 410.4C111.921 410.411 110.001 410.419 108.081 410.426C107.192 410.443 106.302 410.461 105.385 410.479C99.4964 410.459 94.7386 409.687 89.9994 406C84.8394 400.515 84.2552 394.925 84.3354 387.656C84.3306 386.688 84.3258 385.719 84.3209 384.721C84.3175 382.684 84.3266 380.647 84.3476 378.61C84.3743 375.508 84.3478 372.41 84.3158 369.309C84.3191 367.32 84.3255 365.332 84.3354 363.344C84.3252 362.426 84.3151 361.508 84.3047 360.562C84.4188 354.231 85.7041 349.766 89.9994 345C95.0851 340.475 100.558 340.423 107.097 340.504ZM102.999 359C102.999 369.89 102.999 380.78 102.999 392C113.889 392 124.779 392 135.999 392C135.999 381.11 135.999 370.22 135.999 359C125.109 359 114.219 359 102.999 359Z" fill="white" fill-opacity="0.8"/>
<path d="M103.091 169.823C103.886 169.81 104.681 169.797 105.499 169.784C106.776 169.773 106.776 169.773 108.078 169.762C109.407 169.75 109.407 169.75 110.761 169.737C112.634 169.724 114.507 169.713 116.38 169.705C118.286 169.693 120.193 169.673 122.099 169.643C124.863 169.601 127.627 169.585 130.391 169.574C131.234 169.557 132.077 169.539 132.945 169.521C139.373 169.545 144.751 170.993 149.564 175.448C153.187 179.541 154.104 182.869 154.177 188.183C154.197 189.405 154.197 189.405 154.216 190.652C154.224 191.525 154.231 192.398 154.239 193.297C154.247 194.205 154.255 195.112 154.263 196.047C154.277 197.967 154.288 199.887 154.295 201.807C154.307 203.762 154.327 205.717 154.357 207.672C154.4 210.506 154.416 213.338 154.426 216.172C154.444 217.037 154.461 217.902 154.479 218.793C154.458 224.668 153.317 229.094 150 234C146.071 237.738 143 239.114 137.624 239.161C136.743 239.171 135.861 239.18 134.953 239.19C133.528 239.197 133.528 239.197 132.075 239.203C131.094 239.209 130.114 239.215 129.104 239.22C127.028 239.23 124.953 239.236 122.878 239.24C119.711 239.25 116.544 239.281 113.377 239.313C111.36 239.319 109.342 239.324 107.325 239.328C106.381 239.341 105.437 239.353 104.464 239.366C98.4826 239.345 93.9648 238.704 89.3558 234.5C86.2212 230.474 84.8879 227.7 84.8233 222.64C84.8105 221.762 84.7976 220.883 84.7844 219.979C84.777 219.032 84.7696 218.085 84.762 217.109C84.754 216.131 84.7459 215.153 84.7376 214.146C84.7237 212.075 84.713 210.003 84.7052 207.932C84.688 204.776 84.6441 201.621 84.5999 198.465C84.5898 196.451 84.5813 194.436 84.5745 192.422C84.557 191.483 84.5395 190.544 84.5215 189.577C84.5414 183.51 85.4295 179.953 89.0003 175C93.6144 171.347 97.2925 169.905 103.091 169.823ZM103 188C103 198.89 103 209.78 103 221C113.89 221 124.78 221 136 221C136 210.11 136 199.22 136 188C125.11 188 114.22 188 103 188Z" fill="white" fill-opacity="0.8"/>
<path d="M187.253 84.8072C188.535 84.7831 188.535 84.7831 189.843 84.7585C193.758 84.7139 197.672 84.673 201.586 84.65C203.645 84.6335 205.704 84.6062 207.763 84.568C210.742 84.5129 213.72 84.4913 216.7 84.4767C217.611 84.454 218.523 84.4313 219.462 84.408C225.814 84.4287 230.226 85.6876 235 90.0001C239.548 95.1048 239.602 100.68 239.567 107.246C239.573 108.216 239.579 109.186 239.585 110.185C239.593 112.229 239.589 114.272 239.577 116.315C239.563 119.425 239.597 122.533 239.635 125.643C239.636 127.636 239.634 129.628 239.629 131.621C239.642 132.542 239.656 133.463 239.669 134.412C239.579 140.715 238.404 145.328 234 150C228.495 154.266 222.769 154.582 216.024 154.496C215.095 154.498 214.166 154.499 213.209 154.501C211.258 154.499 209.306 154.487 207.355 154.467C204.377 154.438 201.4 154.446 198.422 154.459C196.519 154.453 194.615 154.444 192.711 154.434C191.827 154.437 190.942 154.44 190.031 154.443C184.085 154.352 179.67 153.463 175.137 149.281C174.659 148.694 174.181 148.106 173.688 147.5C173.197 146.912 172.706 146.324 172.2 145.719C170.174 142.815 169.871 140.24 169.839 136.807C169.83 135.966 169.82 135.125 169.81 134.258C169.806 133.352 169.802 132.446 169.797 131.512C169.791 130.576 169.786 129.64 169.78 128.676C169.77 126.694 169.764 124.713 169.76 122.732C169.75 119.71 169.719 116.688 169.688 113.666C169.681 111.74 169.676 109.813 169.672 107.887C169.66 106.987 169.647 106.086 169.635 105.159C169.656 99.1371 170.48 94.7321 174.719 90.1368C175.307 89.6586 175.895 89.1803 176.5 88.6876C177.088 88.1965 177.676 87.7053 178.282 87.1993C181.196 85.1655 183.807 84.8662 187.253 84.8072ZM188 103C188 113.89 188 124.78 188 136C198.89 136 209.78 136 221 136C221 125.11 221 114.22 221 103C210.11 103 199.22 103 188 103Z" fill="white" fill-opacity="0.8"/>
<path d="M107.097 84.5039C108.526 84.5017 108.526 84.5017 109.983 84.4995C111.988 84.5011 113.992 84.5126 115.997 84.5334C119.056 84.5624 122.114 84.554 125.173 84.541C127.127 84.5472 129.081 84.5556 131.035 84.5664C132.399 84.562 132.399 84.562 133.791 84.5575C139.81 84.6465 144.27 85.4823 148.863 89.7187C149.341 90.3066 149.819 90.8944 150.312 91.5C151.049 92.3817 151.049 92.3817 151.8 93.2812C153.826 96.1848 154.129 98.7605 154.161 102.193C154.17 103.034 154.18 103.875 154.19 104.742C154.194 105.648 154.198 106.555 154.203 107.488C154.208 108.424 154.214 109.36 154.22 110.325C154.229 112.306 154.236 114.287 154.24 116.268C154.249 119.29 154.28 122.312 154.312 125.334C154.318 127.26 154.324 129.187 154.328 131.113C154.34 132.013 154.352 132.914 154.365 133.841C154.344 139.863 153.519 144.268 149.281 148.863C148.693 149.342 148.105 149.82 147.499 150.312C146.618 151.049 146.618 151.049 145.718 151.801C142.83 153.816 140.254 154.131 136.839 154.177C135.586 154.196 135.586 154.196 134.309 154.216C133.409 154.223 132.509 154.231 131.581 154.238C130.65 154.246 129.719 154.254 128.76 154.263C126.787 154.277 124.814 154.287 122.841 154.295C119.841 154.312 116.841 154.356 113.841 154.4C111.921 154.411 110.001 154.419 108.081 154.426C107.192 154.443 106.302 154.461 105.385 154.479C99.4964 154.459 94.7386 153.687 89.9994 150C84.8394 144.515 84.2552 138.925 84.3354 131.656C84.3306 130.688 84.3258 129.719 84.3209 128.721C84.3175 126.684 84.3266 124.647 84.3476 122.61C84.3743 119.508 84.3478 116.41 84.3158 113.309C84.3191 111.32 84.3255 109.332 84.3354 107.344C84.3252 106.426 84.3151 105.508 84.3047 104.562C84.4188 98.2306 85.7041 93.7658 89.9994 89C95.0851 84.475 100.558 84.423 107.097 84.5039ZM102.999 103C102.999 113.89 102.999 124.78 102.999 136C113.889 136 124.779 136 135.999 136C135.999 125.11 135.999 114.22 135.999 103C125.109 103 114.219 103 102.999 103Z" fill="white" fill-opacity="0.8"/>
<path d="M193.211 169.699C194.541 169.693 194.541 169.693 195.897 169.686C197.768 169.681 199.639 169.68 201.51 169.684C204.359 169.688 207.206 169.664 210.055 169.639C211.878 169.636 213.701 169.636 215.524 169.637C216.369 169.628 217.214 169.618 218.084 169.609C224.835 169.661 229.53 170.914 234.813 175.375C239.407 180.888 239.308 186.014 239.301 192.902C239.305 193.858 239.31 194.813 239.314 195.797C239.32 197.814 239.32 199.83 239.316 201.847C239.313 204.923 239.336 207.999 239.362 211.076C239.364 213.039 239.365 215.002 239.364 216.965C239.373 217.881 239.382 218.797 239.391 219.74C239.349 225.633 238.638 230.109 234.5 234.645C230.475 237.779 227.7 239.113 222.64 239.177C221.762 239.19 220.884 239.203 219.979 239.216C219.032 239.223 218.085 239.231 217.11 239.238C216.132 239.246 215.154 239.255 214.146 239.263C212.075 239.277 210.004 239.287 207.932 239.295C204.776 239.312 201.621 239.356 198.465 239.4C196.451 239.411 194.437 239.419 192.422 239.426C191.483 239.443 190.545 239.461 189.577 239.479C183.511 239.459 179.95 238.575 175 235C171.698 230.741 169.89 227.304 169.839 221.915C169.83 221.097 169.82 220.279 169.81 219.436C169.804 218.114 169.804 218.114 169.797 216.766C169.791 215.854 169.786 214.943 169.78 214.004C169.77 212.074 169.764 210.144 169.76 208.214C169.75 205.275 169.719 202.337 169.688 199.399C169.681 197.521 169.676 195.643 169.672 193.766C169.66 192.893 169.647 192.019 169.635 191.12C169.657 185.086 170.418 180.084 174.43 175.293C180.75 170.459 185.484 169.691 193.211 169.699ZM188 188C188 198.89 188 209.78 188 221C198.89 221 209.78 221 221 221C221 210.11 221 199.22 221 188C210.11 188 199.22 188 188 188Z" fill="white" fill-opacity="0.8"/>
<path d="M278.59 169.567C279.494 169.561 280.397 169.556 281.328 169.551C283.23 169.544 285.132 169.546 287.034 169.554C289.926 169.563 292.817 169.534 295.71 169.502C297.566 169.5 299.422 169.501 301.278 169.504C302.133 169.493 302.989 169.482 303.87 169.47C310.466 169.546 315.967 171.121 320.84 175.746C321.203 176.304 321.565 176.863 321.938 177.438C322.318 177.993 322.699 178.549 323.09 179.121C325.396 183.881 325.175 189.084 325.204 194.266C325.209 195.059 325.215 195.851 325.221 196.668C325.23 198.343 325.237 200.017 325.241 201.691C325.25 204.228 325.282 206.764 325.313 209.301C325.437 227.775 325.437 227.775 320.247 234.156C319.351 234.822 319.351 234.822 318.438 235.5C317.839 235.964 317.239 236.428 316.622 236.906C313.795 238.814 312.022 239.135 308.646 239.177C307.745 239.19 306.843 239.203 305.914 239.216C304.937 239.223 303.96 239.231 302.954 239.238C301.95 239.246 300.946 239.255 299.911 239.263C297.783 239.277 295.654 239.287 293.526 239.295C290.277 239.312 287.03 239.356 283.782 239.4C281.714 239.411 279.646 239.419 277.579 239.426C276.61 239.443 275.641 239.461 274.642 239.479C268.896 239.461 265.542 238.879 261.001 235C255.272 229.112 254.693 222.29 254.735 214.469C254.733 213.674 254.731 212.879 254.729 212.061C254.728 210.39 254.731 208.719 254.74 207.048C254.751 204.507 254.74 201.967 254.727 199.426C254.728 197.794 254.731 196.163 254.735 194.531C254.731 193.78 254.727 193.029 254.723 192.255C254.777 186.088 255.675 180.97 259.188 175.75C265.019 170.049 270.8 169.54 278.59 169.567ZM273.001 188C273.001 198.89 273.001 209.78 273.001 221C284.221 221 295.441 221 307.001 221C307.001 210.11 307.001 199.22 307.001 188C295.781 188 284.561 188 273.001 188Z" fill="white" fill-opacity="0.8"/>
<path d="M186.469 255.823C187.37 255.81 188.271 255.797 189.2 255.784C190.658 255.773 190.658 255.773 192.145 255.762C193.649 255.75 193.649 255.75 195.183 255.737C197.306 255.724 199.428 255.713 201.551 255.705C204.79 255.688 208.029 255.644 211.268 255.6C213.331 255.59 215.394 255.581 217.458 255.574C218.423 255.557 219.389 255.539 220.384 255.521C226.117 255.54 229.479 256.119 234.001 260C237.606 263.996 239.113 266.919 239.162 272.285C239.171 273.146 239.181 274.007 239.191 274.895C239.195 275.823 239.199 276.751 239.204 277.707C239.209 278.665 239.215 279.623 239.221 280.611C239.23 282.639 239.237 284.667 239.241 286.696C239.251 289.79 239.282 292.884 239.313 295.979C239.32 297.951 239.325 299.923 239.329 301.895C239.341 302.817 239.353 303.739 239.366 304.689C239.345 310.773 238.548 315.181 234.317 319.863C233.738 320.342 233.159 320.82 232.563 321.313C231.699 322.049 231.699 322.049 230.817 322.801C227.738 324.834 224.63 325.125 221.002 325.161C220.227 325.171 219.452 325.18 218.654 325.19C217.825 325.195 216.996 325.199 216.141 325.203C214.846 325.212 214.846 325.212 213.525 325.22C211.7 325.23 209.874 325.236 208.048 325.24C205.274 325.25 202.501 325.281 199.727 325.313C197.949 325.319 196.17 325.324 194.391 325.328C193.57 325.341 192.749 325.353 191.903 325.366C186.042 325.343 180.069 324.701 175.471 320.654C170.189 314.652 169.684 309.238 169.665 301.606C169.658 300.699 169.651 299.793 169.644 298.86C169.634 296.946 169.63 295.032 169.63 293.118C169.626 290.208 169.589 287.299 169.551 284.389C169.545 282.524 169.542 280.658 169.54 278.793C169.525 277.931 169.511 277.07 169.496 276.182C169.54 270.324 170.699 265.894 174.001 261C177.964 257.23 181.054 255.89 186.469 255.823ZM188.001 274C188.001 284.89 188.001 295.78 188.001 307C198.891 307 209.781 307 221.001 307C221.001 296.11 221.001 285.22 221.001 274C210.111 274 199.221 274 188.001 274Z" fill="white" fill-opacity="0.8"/>
<path d="M100.339 255.823C101.686 255.804 101.686 255.804 103.061 255.784C104.035 255.777 105.009 255.769 106.012 255.762C107.014 255.754 108.015 255.746 109.047 255.737C111.171 255.723 113.296 255.713 115.42 255.705C118.657 255.688 121.894 255.644 125.131 255.6C127.196 255.59 129.26 255.581 131.325 255.574C132.288 255.557 133.252 255.539 134.245 255.521C140.379 255.541 144.003 256.371 149 260C152.296 264.25 154.103 267.692 154.177 273.069C154.197 274.291 154.197 274.291 154.216 275.538C154.224 276.416 154.231 277.295 154.239 278.199C154.247 279.108 154.255 280.017 154.263 280.954C154.277 282.88 154.288 284.805 154.295 286.731C154.313 289.659 154.357 292.586 154.401 295.514C154.411 297.388 154.419 299.262 154.426 301.137C154.444 302.005 154.461 302.873 154.479 303.767C154.454 310.869 152.71 316.29 147.625 321.375C141.846 324.952 136.512 325.308 129.91 325.301C129.048 325.305 128.185 325.309 127.296 325.314C125.478 325.32 123.66 325.32 121.842 325.316C119.075 325.313 116.309 325.336 113.541 325.361C111.769 325.364 109.996 325.364 108.223 325.363C107.403 325.373 106.583 325.382 105.738 325.391C99.6905 325.343 94.7407 324.402 90.0394 320.281C89.5727 319.694 89.1061 319.106 88.6253 318.5C87.9021 317.618 87.9021 317.618 87.1644 316.719C85.1665 313.769 84.8704 311.173 84.8392 307.716C84.8296 306.854 84.82 305.993 84.8101 305.106C84.8058 304.177 84.8016 303.249 84.7972 302.293C84.7915 301.335 84.7858 300.377 84.7799 299.39C84.7705 297.361 84.7639 295.333 84.7601 293.305C84.7504 290.21 84.7194 287.116 84.6878 284.022C84.6813 282.05 84.676 280.078 84.6722 278.106C84.6598 277.183 84.6475 276.261 84.6348 275.311C84.6552 269.394 85.3187 264.873 89.5355 260.356C93.4167 257.388 95.49 255.883 100.339 255.823ZM103 274C103 284.89 103 295.78 103 307C113.89 307 124.78 307 136 307C136 296.11 136 285.22 136 274C125.11 274 114.22 274 103 274Z" fill="white" fill-opacity="0.8"/>
<path d="M196 460C201.94 460 207.88 460 214 460C214 465.94 214 471.88 214 478C208.06 478 202.12 478 196 478C196 472.06 196 466.12 196 460Z" fill="white" fill-opacity="0.8"/>
</g>
<defs>
<clipPath id="clip0_177_51">
<rect width="512" height="512" fill="white"/>
</clipPath>
</defs>
</svg>
