<svg width="512" height="512" viewBox="0 0 512 512" fill="none" xmlns="http://www.w3.org/2000/svg">
<g clip-path="url(#clip0_177_65)">
<path d="M289.489 9.07028C294.074 12.5931 298.819 16.3372 301.2 21.7031C302.916 24.4286 302.916 24.4286 306.801 24.6015C308.305 24.6334 309.809 24.6403 311.313 24.625C316.99 24.625 321.068 24.8137 326 28C326.726 28.8496 327.451 29.6992 328.198 30.5745C331.683 33.5908 334.214 33.6896 338.614 33.5959C339.364 33.6 340.114 33.604 340.888 33.6082C342.512 33.6137 344.137 33.6077 345.762 33.5915C348.346 33.566 350.928 33.571 353.512 33.5834C359.008 33.6042 364.504 33.5846 370 33.5625C376.347 33.5413 382.693 33.537 389.039 33.563C391.564 33.5663 394.087 33.5452 396.611 33.5226C412.583 33.4921 425.697 37.4265 438 48C448.017 59.08 453.112 71.693 453.135 86.7219C453.137 87.3757 453.139 88.0295 453.142 88.7032C453.148 90.8914 453.148 93.0796 453.148 95.2679C453.151 96.8538 453.155 98.4398 453.159 100.026C453.169 104.382 453.172 108.739 453.175 113.095C453.179 117.795 453.189 122.495 453.197 127.194C453.217 138.544 453.227 149.893 453.236 161.243C453.24 166.591 453.246 171.94 453.251 177.288C453.268 195.075 453.283 212.862 453.29 230.648C453.292 235.262 453.294 239.877 453.296 244.491C453.296 245.637 453.297 246.784 453.297 247.966C453.305 266.533 453.331 285.1 453.363 303.667C453.396 322.742 453.414 341.817 453.417 360.892C453.42 371.597 453.428 382.301 453.454 393.006C453.476 402.125 453.484 411.244 453.474 420.363C453.469 425.011 453.471 429.658 453.491 434.307C453.508 438.572 453.507 442.837 453.492 447.102C453.489 448.635 453.494 450.168 453.506 451.701C453.611 466.098 451.798 480.108 443 492C442.324 492.947 442.324 492.947 441.633 493.914C434.356 503.247 422.602 509.972 411 512C406.778 512.286 402.567 512.274 398.337 512.261C397.071 512.264 395.806 512.268 394.501 512.272C391.004 512.282 387.507 512.28 384.01 512.276C380.232 512.274 376.454 512.283 372.677 512.29C365.281 512.303 357.886 512.305 350.491 512.302C344.479 512.301 338.467 512.302 332.454 512.307C331.17 512.307 331.17 512.307 329.859 512.308C328.119 512.31 326.379 512.311 324.64 512.312C308.33 512.323 292.021 512.321 275.712 512.315C260.801 512.309 245.89 512.321 230.979 512.34C215.658 512.359 200.337 512.367 185.016 512.364C176.419 512.362 167.821 512.364 159.224 512.378C151.905 512.39 144.586 512.392 137.267 512.379C133.535 512.374 129.803 512.372 126.071 512.384C122.02 512.397 117.969 512.387 113.918 512.374C112.746 512.382 111.575 512.389 110.368 512.397C96.475 512.305 84.0911 507.527 73.8442 497.973C60.8703 484.092 58.6903 468.507 58.7397 450.231C58.7367 448.639 58.7328 447.048 58.7281 445.456C58.7179 441.103 58.72 436.75 58.7243 432.396C58.7268 427.693 58.7178 422.99 58.7103 418.288C58.6976 409.082 58.6957 399.876 58.6981 390.67C58.6999 383.185 58.6981 375.7 58.6939 368.215C58.6933 367.149 58.6927 366.083 58.6921 364.984C58.6908 362.818 58.6896 360.652 58.6884 358.486C58.6776 338.181 58.6797 317.877 58.6858 297.572C58.691 279.01 58.6797 260.447 58.6607 241.885C58.6413 222.811 58.6331 203.737 58.6368 184.663C58.6387 173.96 58.6363 163.257 58.6221 152.554C58.6102 143.443 58.6088 134.331 58.6209 125.219C58.6268 120.573 58.6279 115.928 58.6159 111.282C58.605 107.023 58.6082 102.763 58.6222 98.5039C58.6248 96.9697 58.6225 95.4354 58.6144 93.9012C58.5301 76.5878 61.7052 60.8763 74.0004 48C84.4005 38.8979 95.9315 33.8333 109.741 33.874C110.504 33.8721 111.267 33.8703 112.053 33.8683C113.705 33.8643 115.356 33.8622 117.007 33.8619C120.519 33.8584 124.032 33.8371 127.544 33.8166C134.078 33.7787 140.611 33.7474 147.145 33.7495C151.697 33.7503 156.247 33.7269 160.798 33.6876C162.53 33.6771 164.262 33.6756 165.994 33.6832C168.417 33.6929 170.838 33.6717 173.26 33.6435C174.33 33.6588 174.33 33.6588 175.42 33.6744C179.297 33.5937 180.835 33.143 183.81 30.5723C184.533 29.7234 185.256 28.8746 186 28C190.957 24.7907 194.827 24.7523 200.5 24.8125C206.135 24.7696 206.135 24.7696 211.125 22.4453C212.539 20.4488 212.539 20.4488 213.711 18.2539C218.95 9.09503 229.971 3.88915 239.641 0.859338C256.641 -3.10389 275.079 -0.732259 289.489 9.07028ZM229.29 27.664C226.047 31.2687 223.504 35.2098 221.079 39.3984C220 41 220 41 218 42C216.408 42.1517 214.81 42.249 213.211 42.3164C211.94 42.3735 211.94 42.3735 210.643 42.4318C209.564 42.4749 208.486 42.5181 207.375 42.5625C202.24 42.779 202.24 42.779 197 43C197 53.89 197 64.78 197 76C235.94 76 274.88 76 315 76C315 65.11 315 54.22 315 43C308.315 42.8692 308.315 42.8692 301.629 42.7922C297.102 42.6407 294.694 42.5262 291.004 39.7265C289.277 37.3761 287.63 35.0599 286.125 32.5625C281.05 24.8073 274.97 20.4792 266 18C252.299 15.8631 239.55 17.685 229.29 27.664ZM84.2778 64C76.8416 74.2316 76.5598 85.5386 76.6128 97.7375C76.6086 99.3134 76.6031 100.889 76.5964 102.465C76.582 106.771 76.5862 111.076 76.5936 115.382C76.5984 120.035 76.5858 124.688 76.5756 129.341C76.5584 138.447 76.5576 147.553 76.5628 156.66C76.5668 164.063 76.5654 171.467 76.5601 178.871C76.5593 179.926 76.5585 180.981 76.5578 182.068C76.5562 184.211 76.5547 186.354 76.5532 188.498C76.5395 208.584 76.5449 228.67 76.5564 248.756C76.5663 267.118 76.5533 285.48 76.5294 303.842C76.505 322.713 76.4954 341.583 76.5021 360.454C76.5056 371.041 76.5033 381.629 76.4858 392.217C76.4711 401.23 76.4705 410.243 76.4879 419.256C76.4964 423.851 76.4986 428.446 76.4832 433.041C76.4694 437.254 76.4742 441.467 76.4935 445.68C76.4972 447.197 76.4943 448.715 76.4839 450.232C76.4039 462.695 77.7429 474.368 86.1489 484.133C93.597 491.644 101.535 494.324 112 494.406C113.742 494.397 113.742 494.397 115.519 494.388C116.769 494.393 118.019 494.398 119.307 494.404C122.76 494.418 126.214 494.414 129.667 494.407C133.398 494.402 137.129 494.415 140.86 494.425C148.162 494.442 155.465 494.443 162.767 494.438C168.704 494.434 174.64 494.435 180.577 494.44C181.422 494.441 182.268 494.442 183.139 494.443C184.857 494.444 186.575 494.446 188.293 494.447C204.395 494.461 220.497 494.456 236.599 494.444C251.323 494.434 266.047 494.447 280.772 494.471C295.899 494.495 311.027 494.505 326.155 494.498C334.644 494.495 343.134 494.497 351.623 494.515C358.85 494.529 366.076 494.53 373.303 494.513C376.988 494.504 380.673 494.502 384.358 494.517C388.357 494.534 392.356 494.519 396.355 494.501C397.514 494.511 398.673 494.52 399.867 494.53C410.929 494.43 418.992 490.603 427 483C435.369 473.174 435.441 460.52 435.388 448.262C435.392 446.687 435.398 445.111 435.404 443.535C435.419 439.229 435.415 434.924 435.407 430.618C435.403 425.965 435.415 421.312 435.425 416.659C435.442 407.553 435.443 398.447 435.438 389.34C435.434 381.937 435.435 374.533 435.441 367.129C435.442 366.074 435.442 365.019 435.443 363.932C435.445 361.789 435.446 359.646 435.448 357.502C435.461 337.416 435.456 317.33 435.445 297.244C435.435 278.882 435.448 260.52 435.471 242.158C435.496 223.287 435.505 204.417 435.499 185.546C435.495 174.959 435.498 164.371 435.515 153.783C435.53 144.77 435.53 135.757 435.513 126.744C435.504 122.149 435.502 117.554 435.518 112.959C435.532 108.746 435.527 104.533 435.507 100.32C435.504 98.8025 435.507 97.2851 435.517 95.7677C435.592 84.0745 434.574 72.0379 426.762 62.7109C419.322 55.4849 410.568 51.6069 400.207 51.6594C399.475 51.6589 398.742 51.6585 397.987 51.6581C395.596 51.6601 393.204 51.6834 390.813 51.707C389.143 51.7126 387.473 51.7169 385.803 51.7199C381.43 51.7313 377.057 51.7607 372.684 51.794C368.213 51.8248 363.741 51.8384 359.27 51.8535C350.513 51.8855 341.757 51.9383 333 52C333 57.28 333 62.56 333 68C335.18 68.0145 337.36 68.0291 339.606 68.0442C346.819 68.0946 354.031 68.1612 361.244 68.2357C365.615 68.2804 369.987 68.3196 374.359 68.3464C378.58 68.3725 382.801 68.4129 387.022 68.4632C388.63 68.4798 390.238 68.4913 391.847 68.4976C394.104 68.5072 396.361 68.5353 398.618 68.5676C399.902 68.5787 401.185 68.5898 402.508 68.6012C407.476 69.1684 410.771 70.7367 414.25 74.3125C417.477 79.2676 418.25 83.8025 418.255 89.6505C418.258 90.2966 418.261 90.9427 418.265 91.6084C418.273 93.7703 418.267 95.932 418.261 98.0939C418.264 99.6608 418.268 101.228 418.273 102.795C418.283 107.098 418.281 111.402 418.277 115.705C418.274 120.348 418.283 124.99 418.291 129.632C418.303 138.726 418.305 147.82 418.303 156.914C418.301 164.305 418.303 171.696 418.307 179.087C418.308 180.138 418.308 181.19 418.309 182.273C418.31 184.409 418.311 186.545 418.312 188.682C418.323 208.719 418.321 228.756 418.315 248.794C418.31 267.127 418.321 285.46 418.34 303.794C418.36 322.615 418.368 341.437 418.364 360.259C418.362 370.827 418.365 381.395 418.379 391.963C418.391 400.96 418.392 409.957 418.38 418.954C418.374 423.544 418.373 428.134 418.385 432.724C418.396 436.928 418.393 441.131 418.379 445.334C418.376 446.853 418.378 448.373 418.386 449.892C418.472 467.315 418.472 467.315 413.549 472.541C409.598 475.966 407.17 477.124 402.055 477.134C400.476 477.141 400.476 477.141 398.866 477.148C397.118 477.147 397.118 477.147 395.335 477.147C394.104 477.151 392.874 477.155 391.606 477.158C388.179 477.167 384.751 477.172 381.324 477.175C377.632 477.179 373.94 477.188 370.248 477.197C361.326 477.217 352.405 477.227 343.483 477.236C339.284 477.24 335.085 477.245 330.885 477.251C316.93 477.268 302.975 477.282 289.019 477.289C285.396 477.291 281.774 477.293 278.151 477.295C277.25 477.296 276.35 477.296 275.422 477.297C260.831 477.305 246.241 477.33 231.65 477.363C216.677 477.396 201.704 477.414 186.732 477.417C178.322 477.419 169.912 477.428 161.503 477.453C154.342 477.475 147.18 477.483 140.019 477.473C136.365 477.469 132.711 477.471 129.056 477.49C125.095 477.511 121.135 477.501 117.174 477.488C115.439 477.504 115.439 477.504 113.67 477.521C107.473 477.471 103.672 477.227 99.0004 473C94.6695 467.381 93.8766 463.563 93.869 456.596C93.867 455.952 93.8649 455.308 93.8628 454.645C93.8571 452.479 93.8586 450.313 93.86 448.147C93.8574 446.581 93.8544 445.016 93.851 443.451C93.8429 439.143 93.8411 434.835 93.8404 430.527C93.8385 425.883 93.831 421.239 93.8243 416.596C93.8107 406.439 93.8046 396.282 93.8002 386.125C93.7975 379.784 93.7933 373.443 93.7887 367.103C93.7766 349.551 93.7663 332 93.7629 314.448C93.7626 313.325 93.7624 312.201 93.7622 311.044C93.762 309.917 93.7618 308.791 93.7615 307.631C93.7611 305.349 93.7607 303.066 93.7602 300.784C93.76 299.652 93.7598 298.52 93.7595 297.354C93.7556 279.007 93.7381 260.661 93.7148 242.315C93.6911 223.484 93.6787 204.653 93.6775 185.823C93.6766 175.248 93.6708 164.673 93.6527 154.098C93.6373 145.094 93.6322 136.09 93.6404 127.085C93.6443 122.491 93.6434 117.897 93.6294 113.302C93.6166 109.095 93.6178 104.889 93.63 100.682C93.6319 99.1609 93.6288 97.64 93.6201 96.1191C93.5271 78.7792 93.5271 78.7792 98.417 73.4586C103.185 69.2542 106.878 68.8689 113.042 68.7946C113.755 68.7847 114.467 68.7748 115.201 68.7646C117.555 68.7331 119.908 68.7083 122.262 68.6836C123.895 68.663 125.527 68.642 127.159 68.6206C131.455 68.5654 135.751 68.516 140.046 68.4677C144.43 68.4175 148.814 68.3618 153.198 68.3066C161.799 68.1991 170.399 68.0981 179 68C179 62.72 179 57.44 179 52C169.394 51.9093 159.789 51.836 150.182 51.7927C145.721 51.7719 141.26 51.7437 136.798 51.6982C132.486 51.6545 128.175 51.6308 123.863 51.6205C122.224 51.6131 120.586 51.5988 118.947 51.577C105.379 51.4044 93.6085 53.167 84.2778 64ZM111 86C111 209.42 111 332.84 111 460C206.7 460 302.4 460 401 460C401 336.58 401 213.16 401 86C377.57 86 354.14 86 330 86C327.525 88.475 327.525 88.475 325 91C321.849 93.0654 319.367 93.2542 315.631 93.2674C314.542 93.2759 313.453 93.2844 312.331 93.2932C311.14 93.2923 309.95 93.2914 308.724 93.2905C306.838 93.3006 306.838 93.3006 304.914 93.3108C301.467 93.3285 298.021 93.3332 294.575 93.3345C292.42 93.3359 290.265 93.3402 288.11 93.3455C280.587 93.364 273.064 93.3721 265.541 93.3706C258.537 93.3694 251.534 93.3905 244.53 93.4221C238.51 93.4482 232.49 93.4589 226.471 93.4577C222.878 93.4571 219.286 93.4628 215.694 93.484C211.684 93.507 207.675 93.4979 203.665 93.4858C201.889 93.5027 201.889 93.5027 200.077 93.5199C193.51 93.4697 189.29 93.0266 184 89C183.01 87.515 183.01 87.515 182 86C158.57 86 135.14 86 111 86Z" fill="white"/>
<path d="M156.999 136C161.2 138.8 163.45 141.904 165.987 146.226C166.336 146.815 166.684 147.404 167.042 148.011C167.77 149.247 168.494 150.486 169.212 151.727C170.316 153.632 171.435 155.527 172.556 157.422C177.999 166.697 177.999 166.697 177.999 169C180.823 166.476 182.531 163.638 184.433 160.379C185.082 159.279 185.731 158.178 186.4 157.045C187.419 155.304 188.437 153.561 189.454 151.818C190.441 150.127 191.437 148.44 192.433 146.754C193.021 145.746 193.61 144.739 194.216 143.701C196.363 140.449 198.477 137.761 201.999 136C205.871 135.57 207.524 135.683 210.812 137.875C213.519 140.505 213.966 141.245 214.133 145.023C214.137 146.321 214.141 147.619 214.144 148.956C214.148 149.672 214.151 150.388 214.155 151.125C214.164 153.497 214.166 155.87 214.167 158.242C214.17 159.889 214.174 161.535 214.177 163.182C214.183 166.637 214.185 170.092 214.184 173.547C214.184 177.975 214.198 182.402 214.215 186.83C214.226 190.232 214.228 193.634 214.228 197.037C214.229 198.669 214.233 200.301 214.241 201.934C214.251 204.217 214.248 206.501 214.242 208.785C214.244 210.084 214.245 211.384 214.246 212.723C214.013 215.819 213.76 217.485 211.999 220C208.831 222.112 206.867 222.331 203.132 222.558C199.648 221.646 198.23 219.777 195.999 217C195.273 214.138 195.277 211.36 195.292 208.418C195.277 207.604 195.262 206.79 195.246 205.951C195.204 203.363 195.195 200.776 195.187 198.187C195.164 196.428 195.138 194.668 195.111 192.908C195.048 188.605 195.015 184.303 194.999 180C194.185 181.355 194.185 181.355 193.355 182.738C192.632 183.93 191.91 185.121 191.187 186.312C190.83 186.907 190.474 187.502 190.107 188.115C186.583 193.902 186.583 193.902 183.999 196C180.93 196.69 178.087 196.557 174.999 196C171.145 193.311 169.216 189.778 166.855 185.805C166.319 184.905 165.783 184.005 165.23 183.078C164.824 182.392 164.418 181.706 163.999 181C163.985 182.004 163.97 183.007 163.955 184.042C163.897 187.779 163.82 191.515 163.737 195.252C163.704 196.866 163.675 198.481 163.653 200.096C163.619 202.423 163.567 204.748 163.511 207.074C163.501 208.151 163.501 208.151 163.492 209.25C163.329 214.85 161.925 218.074 157.999 222C151.123 222.676 151.123 222.676 147.402 220.437C144.752 217.749 144.408 216.374 144.344 212.66C144.357 211.961 144.37 211.261 144.384 210.541C144.378 209.796 144.373 209.051 144.367 208.283C144.355 205.823 144.38 203.366 144.405 200.906C144.407 199.195 144.407 197.484 144.405 195.773C144.407 192.188 144.426 188.604 144.457 185.02C144.497 180.426 144.501 175.834 144.494 171.24C144.491 167.707 144.503 164.174 144.52 160.642C144.527 158.948 144.53 157.254 144.529 155.561C144.531 153.193 144.552 150.826 144.579 148.459C144.576 147.76 144.573 147.06 144.57 146.34C144.623 143.322 144.858 141.254 146.338 138.596C149.461 135.595 152.872 135.587 156.999 136Z" fill="white"/>
<path d="M331.125 135.687C332.494 135.663 332.494 135.663 333.891 135.639C343.516 135.632 351.746 137.926 358.817 144.754C366.318 152.756 367.604 159.441 367.344 170.375C366.543 178.818 362.367 185.465 356 191C348.364 195.808 341.889 197.151 333 197C333.026 197.58 333.053 198.159 333.08 198.757C333.184 201.4 333.249 204.043 333.313 206.687C333.355 207.599 333.397 208.511 333.44 209.451C333.524 214.069 333.524 216.281 330.735 220.109C326.617 222.956 324.916 222.702 320 222C317.569 220.13 316.36 218.719 315 216C314.893 213.719 314.851 211.435 314.839 209.151C314.834 208.447 314.829 207.743 314.824 207.017C314.809 204.682 314.803 202.347 314.797 200.012C314.791 198.39 314.786 196.768 314.78 195.146C314.769 191.742 314.764 188.339 314.76 184.935C314.755 180.577 314.731 176.219 314.702 171.861C314.683 168.509 314.678 165.158 314.677 161.806C314.674 160.199 314.666 158.593 314.653 156.987C314.635 154.737 314.637 152.487 314.644 150.237C314.64 148.957 314.637 147.678 314.633 146.359C315.031 142.724 315.791 140.882 318 138C322.301 135.133 326.067 135.67 331.125 135.687ZM333 154C333 162.25 333 170.5 333 179C342.028 178.231 342.028 178.231 348 173C349.745 169.511 349.576 165.807 349 162C347.34 158.846 344.998 156.732 342.125 154.625C339.25 153.671 339.25 153.671 333 154Z" fill="white"/>
<path d="M242 136C246.703 138.925 248.388 142.394 250.192 147.442C250.6 148.526 250.6 148.526 251.016 149.632C251.879 151.937 252.721 154.249 253.563 156.563C254.131 158.09 254.701 159.617 255.272 161.143C256.868 165.421 258.438 169.709 260 174C260.427 175.169 260.853 176.338 261.293 177.543C262.198 180.028 263.101 182.513 264 185C265.635 182.548 266.559 180.771 267.541 178.067C267.828 177.283 268.115 176.498 268.411 175.69C268.717 174.846 269.022 174.002 269.336 173.133C269.995 171.342 270.654 169.552 271.313 167.762C272.346 164.943 273.376 162.124 274.4 159.302C275.391 156.576 276.394 153.854 277.399 151.133C277.851 149.873 277.851 149.873 278.311 148.588C282.069 138.466 282.069 138.466 287 136C290.909 135.745 293.71 135.767 297 138C299.496 141.743 299.433 144.67 299 149C298.04 152.555 298.04 152.555 296.677 156.179C296.43 156.847 296.183 157.514 295.928 158.202C295.116 160.385 294.286 162.56 293.453 164.734C292.879 166.26 292.306 167.786 291.733 169.312C290.535 172.499 289.327 175.683 288.112 178.864C286.557 182.935 285.025 187.015 283.499 191.097C282.32 194.245 281.13 197.389 279.937 200.532C279.367 202.034 278.801 203.538 278.238 205.043C277.45 207.146 276.647 209.243 275.841 211.339C275.162 213.128 275.162 213.128 274.468 214.953C272.987 218.027 271.619 219.841 269 222C266.782 222.531 266.782 222.531 264.5 222.5C263.747 222.51 262.995 222.521 262.219 222.531C259.119 221.789 258.068 220.418 256 218C254.532 214.947 254.532 214.947 253.159 211.323C252.905 210.661 252.651 209.998 252.389 209.316C251.556 207.135 250.739 204.949 249.922 202.762C249.346 201.237 248.768 199.713 248.191 198.188C246.983 194.996 245.784 191.8 244.59 188.603C243.063 184.515 241.516 180.435 239.963 176.357C238.767 173.211 237.583 170.061 236.401 166.909C235.835 165.404 235.266 163.899 234.693 162.396C233.892 160.29 233.106 158.179 232.324 156.065C231.874 154.867 231.424 153.669 230.96 152.434C229.931 148.752 229.692 145.805 230 142C233.401 136.786 235.785 135.391 242 136Z" fill="white"/>
<path d="M233.718 408.853C234.909 408.846 236.101 408.839 237.329 408.831C238.638 408.828 239.947 408.826 241.296 408.823C242.687 408.817 244.079 408.81 245.47 408.803C250.04 408.782 254.61 408.772 259.179 408.762C260.753 408.758 262.326 408.754 263.899 408.749C271.29 408.73 278.68 408.716 286.07 408.708C294.602 408.698 303.133 408.672 311.665 408.631C318.259 408.601 324.854 408.586 331.449 408.583C335.387 408.581 339.326 408.572 343.265 408.547C346.97 408.523 350.675 408.519 354.38 408.529C356.386 408.53 358.393 408.511 360.399 408.491C361.597 408.498 362.794 408.505 364.028 408.512C365.066 408.51 366.105 408.507 367.175 408.505C370.737 409.129 372.413 410.526 375 413C376.39 415.78 376.185 417.919 376 421C374.793 424.343 374.079 424.947 371 427C368.396 427.257 368.396 427.257 365.206 427.267C363.393 427.28 363.393 427.28 361.543 427.293C360.202 427.293 358.861 427.292 357.52 427.291C356.109 427.297 354.698 427.303 353.287 427.311C349.452 427.329 345.617 427.333 341.782 427.335C338.582 427.336 335.381 427.344 332.18 427.351C324.628 427.367 317.076 427.372 309.525 427.371C301.734 427.369 293.943 427.391 286.153 427.422C279.465 427.448 272.777 427.459 266.089 427.458C262.094 427.457 258.1 427.463 254.105 427.484C250.347 427.503 246.59 427.504 242.832 427.489C241.454 427.487 240.076 427.492 238.697 427.504C236.814 427.519 234.931 427.507 233.048 427.494C231.467 427.496 231.467 427.496 229.855 427.498C226.242 426.868 224.578 425.569 222 423C220.606 418.575 220.6 416.771 222.75 412.625C226.098 408.719 228.825 408.873 233.718 408.853Z" fill="white"/>
<path d="M233.041 340.492C234.254 340.481 235.466 340.47 236.716 340.458C238.051 340.466 239.387 340.474 240.723 340.483C242.136 340.477 243.549 340.47 244.961 340.461C248.792 340.443 252.622 340.45 256.453 340.463C260.463 340.473 264.473 340.464 268.483 340.457C275.215 340.45 281.948 340.46 288.681 340.479C296.465 340.5 304.248 340.493 312.032 340.471C318.717 340.453 325.401 340.451 332.086 340.461C336.078 340.467 340.07 340.468 344.061 340.455C347.813 340.443 351.565 340.451 355.317 340.475C356.694 340.48 358.071 340.478 359.448 340.469C361.327 340.459 363.206 340.475 365.086 340.492C366.663 340.494 366.663 340.494 368.273 340.497C371.688 341.127 372.845 342.336 375 345C376.426 347.853 376.31 349.835 376 353C374.2 355.7 372.916 357.542 370 359C368.136 359.1 366.268 359.135 364.402 359.141C363.212 359.146 362.021 359.152 360.795 359.158C359.482 359.159 358.169 359.16 356.817 359.161C355.426 359.166 354.034 359.171 352.643 359.176C348.858 359.189 345.073 359.196 341.288 359.2C338.923 359.203 336.559 359.207 334.195 359.212C326.799 359.225 319.404 359.235 312.008 359.239C303.468 359.244 294.928 359.261 286.388 359.29C279.789 359.312 273.19 359.322 266.591 359.323C262.649 359.324 258.707 359.33 254.765 359.348C251.056 359.364 247.347 359.367 243.638 359.358C241.629 359.357 239.62 359.37 237.611 359.384C235.813 359.376 235.813 359.376 233.978 359.368C232.938 359.369 231.898 359.371 230.827 359.372C227.535 358.939 225.663 357.953 223 356C221.27 353.091 220.993 351.325 221.062 347.938C222.958 341.998 227.177 340.501 233.041 340.492Z" fill="white"/>
<path d="M231.958 272.499C233.178 272.489 234.398 272.479 235.654 272.469C237.003 272.478 238.352 272.488 239.7 272.498C241.123 272.495 242.546 272.489 243.968 272.482C247.83 272.468 251.691 272.479 255.553 272.496C259.594 272.509 263.634 272.503 267.675 272.499C274.461 272.497 281.246 272.51 288.032 272.533C295.878 272.56 303.723 272.562 311.569 272.55C319.116 272.539 326.662 272.545 334.209 272.56C337.421 272.565 340.633 272.565 343.845 272.561C347.628 272.556 351.41 272.566 355.192 272.588C356.58 272.593 357.969 272.594 359.357 272.589C361.251 272.583 363.146 272.597 365.04 272.612C366.101 272.615 367.161 272.617 368.254 272.62C371.376 273.052 372.742 273.837 374.999 276C376.126 278.993 376.339 281.826 375.999 285C373.507 288.324 371.931 289.689 367.999 291C366.135 291.097 364.268 291.135 362.402 291.14C361.237 291.146 360.072 291.152 358.872 291.158C356.952 291.159 356.952 291.159 354.994 291.161C353.634 291.166 352.274 291.171 350.914 291.176C347.217 291.189 343.521 291.196 339.825 291.2C337.515 291.203 335.205 291.207 332.895 291.212C325.667 291.225 318.438 291.235 311.21 291.239C302.868 291.243 294.527 291.261 286.185 291.29C279.736 291.312 273.287 291.322 266.837 291.323C262.986 291.324 259.135 291.33 255.284 291.348C251.66 291.364 248.037 291.366 244.413 291.358C242.453 291.356 240.493 291.37 238.534 291.384C227.627 291.333 227.627 291.333 222.999 288C221.179 285.071 220.984 283.382 221.124 279.938C222.887 274.021 226.016 272.5 231.958 272.499Z" fill="white"/>
<path d="M193 316C196.037 317.665 196.07 319.24 197.062 322.625C197.39 326.306 196.598 328.119 194.492 331.117C193.669 332.294 193.669 332.294 192.829 333.494C189.632 337.875 186.37 342.201 183.062 346.5C182.385 347.386 181.708 348.271 181.01 349.184C179.667 350.937 178.322 352.688 176.973 354.438C175.645 356.162 174.323 357.891 173.007 359.625C172.385 360.44 171.762 361.254 171.121 362.094C170.567 362.823 170.014 363.552 169.443 364.303C167.182 366.962 165.925 367.01 162.375 367.5C157.554 367.448 155.172 365.202 151.828 361.938C150.923 360.978 150.923 360.978 150 360C149.479 359.464 148.958 358.928 148.422 358.375C145.737 355.413 144.104 353.041 144 349C144.766 346.074 145.628 344.399 147.688 342.188C150.947 340.514 153.379 340.682 157 341C158.681 341.63 160.351 342.29 162 343C162.581 342.2 162.581 342.2 163.174 341.383C164.966 338.919 166.764 336.46 168.562 334C169.476 332.741 169.476 332.741 170.408 331.457C183.316 313.837 183.316 313.837 193 316Z" fill="white"/>
<path d="M191 247C194.719 249.021 195.766 250.27 197.062 254.312C196.926 262.363 190.049 269.077 185.312 275.187C183.878 277.05 182.445 278.914 181.012 280.777C179.978 282.119 179.978 282.119 178.923 283.488C175.759 287.621 172.675 291.814 169.602 296.016C168 298 168 298 166 299C158.876 299.701 158.876 299.701 155.5 297C154.675 296.01 153.85 295.02 153 294C151.969 293.093 151.969 293.093 150.918 292.168C144.467 286.44 144.467 286.44 144.188 281.812C145.171 277.198 146.075 275.617 150 273C154.285 272.208 157.307 272.538 161 275C166.937 267.923 172.561 260.676 178.013 253.221C178.502 252.557 178.992 251.894 179.496 251.211C179.931 250.616 180.366 250.021 180.814 249.408C183.588 246.115 186.987 246.66 191 247Z" fill="white"/>
<path d="M185.316 383.273C188.982 383.439 191.337 383.586 194.5 385.562C196.611 388.993 197.133 390.932 197 395C195.954 396.972 195.954 396.972 194.488 399.082C193.666 400.266 193.666 400.266 192.827 401.474C189.645 405.873 186.373 410.197 183.062 414.5C182.385 415.386 181.708 416.271 181.01 417.184C179.665 418.939 178.317 420.692 176.965 422.441C175.655 424.147 174.359 425.863 173.078 427.59C172.171 428.798 172.171 428.798 171.246 430.031C170.716 430.749 170.185 431.466 169.638 432.205C167.851 434.163 166.475 435.076 164 436C159.507 435.953 157.487 435.388 153.945 432.566C152.989 431.58 152.049 430.578 151.125 429.562C150.398 428.807 150.398 428.807 149.656 428.037C146.607 424.83 145.128 423.126 144.625 418.688C145 415 145 415 147 412.062C151.1 409.244 153.086 409.532 158 410C159.339 410.312 160.674 410.64 162 411C162.459 410.395 162.917 409.791 163.389 409.167C165.487 406.402 167.587 403.639 169.688 400.875C170.769 399.448 170.769 399.448 171.873 397.992C173.278 396.144 174.689 394.301 176.105 392.461C177.241 390.985 178.368 389.502 179.475 388.003C181.267 385.665 182.458 384.17 185.316 383.273Z" fill="white"/>
</g>
<defs>
<clipPath id="clip0_177_65">
<rect width="512" height="512" fill="white"/>
</clipPath>
</defs>
</svg>
