<svg width="512" height="512" viewBox="0 0 512 512" fill="none" xmlns="http://www.w3.org/2000/svg">
<g clip-path="url(#clip0_203_32)">
<path d="M161.248 245.86C162.506 245.855 162.506 245.855 163.79 245.851C166.606 245.842 169.422 245.84 172.237 245.839C174.254 245.834 176.272 245.829 178.289 245.824C183.772 245.811 189.256 245.804 194.74 245.8C198.166 245.797 201.591 245.793 205.017 245.788C215.737 245.775 226.456 245.765 237.175 245.761C249.549 245.757 261.922 245.739 274.296 245.71C283.86 245.689 293.425 245.678 302.989 245.677C308.702 245.676 314.414 245.67 320.126 245.652C325.501 245.636 330.875 245.634 336.25 245.642C338.22 245.643 340.19 245.639 342.161 245.629C344.856 245.616 347.55 245.622 350.244 245.633C351.02 245.625 351.795 245.616 352.594 245.608C359.179 245.668 364.661 247.025 369.812 251.375C374.745 257.294 375.438 261.164 375.394 268.697C375.401 269.68 375.407 270.662 375.413 271.675C375.43 274.971 375.425 278.267 375.42 281.564C375.427 283.926 375.436 286.288 375.446 288.65C375.468 295.07 375.471 301.489 375.469 307.908C375.468 311.919 375.473 315.929 375.479 319.939C375.481 321.287 375.483 322.634 375.486 323.982C375.487 324.653 375.488 325.324 375.489 326.015C375.508 338.701 375.507 351.387 375.5 364.073C375.494 375.672 375.515 387.27 375.548 398.869C375.582 410.784 375.597 422.699 375.592 434.614C375.59 441.301 375.596 447.988 375.62 454.675C375.643 460.965 375.641 467.254 375.62 473.544C375.617 475.851 375.622 478.159 375.636 480.466C375.655 483.619 375.642 486.77 375.621 489.922C375.634 490.833 375.646 491.744 375.659 492.683C375.573 498.92 374.224 503.307 370 508C365.163 512.19 360.278 512.578 354.088 512.515C352.776 512.525 352.776 512.525 351.439 512.536C348.521 512.554 345.605 512.544 342.688 512.534C340.591 512.541 338.495 512.549 336.399 512.56C330.713 512.582 325.027 512.579 319.341 512.57C314.592 512.565 309.843 512.572 305.094 512.58C293.889 512.597 282.685 512.593 271.481 512.576C259.926 512.56 248.372 512.575 236.817 512.608C226.892 512.634 216.967 512.642 207.041 512.633C201.115 512.628 195.19 512.63 189.264 512.651C183.691 512.669 178.119 512.663 172.547 512.639C170.504 512.634 168.461 512.637 166.418 512.65C163.624 512.666 160.833 512.651 158.039 512.628C157.235 512.64 156.43 512.652 155.601 512.664C149.66 512.567 145.489 510.943 141 507C136.512 501.953 136.427 496.55 136.485 490.063C136.478 489.078 136.471 488.094 136.464 487.08C136.446 483.789 136.456 480.5 136.467 477.209C136.459 474.847 136.451 472.484 136.44 470.122C136.418 463.711 136.421 457.3 136.43 450.889C136.435 446.883 136.431 442.877 136.426 438.872C136.425 438.206 136.424 437.54 136.423 436.855C136.421 435.502 136.419 434.15 136.417 432.798C136.401 420.125 136.41 407.452 136.426 394.779C136.441 383.194 136.427 371.609 136.398 360.023C136.368 348.117 136.357 336.211 136.367 324.305C136.368 322.957 136.369 321.61 136.37 320.262C136.37 319.599 136.371 318.936 136.371 318.253C136.373 313.59 136.363 308.927 136.349 304.264C136.331 297.982 136.337 291.701 136.361 285.42C136.366 283.115 136.363 280.811 136.35 278.507C136.334 275.359 136.349 272.212 136.372 269.064C136.36 268.155 136.348 267.245 136.336 266.308C136.426 260.112 137.893 255.728 142 251C148.043 246.326 153.87 245.851 161.248 245.86ZM195.293 285.84C194.629 286.522 193.965 287.204 193.281 287.906C191.934 289.294 190.6 290.695 189.28 292.108C188.656 292.753 188.033 293.398 187.391 294.063C186.834 294.652 186.278 295.241 185.704 295.848C184 297 184 297 181.905 296.785C180 296 180 296 178.125 294.375C176.002 292.72 176.002 292.72 173 293.063C169.522 294.149 168.142 295.064 166 298C164.569 300.75 164.569 300.75 165 304C166.985 307.017 169.459 309.449 172 312C172.576 312.682 173.152 313.364 173.746 314.066C174.304 314.705 174.862 315.343 175.437 316C175.931 316.578 176.425 317.155 176.934 317.75C180.192 319.721 183.363 319.747 187 319C189.92 317.21 192.162 314.89 194.527 312.43C195.202 311.756 195.876 311.082 196.571 310.388C197.988 308.963 199.395 307.529 200.793 306.085C202.932 303.88 205.104 301.712 207.283 299.547C208.658 298.156 210.031 296.763 211.402 295.367C212.05 294.72 212.698 294.073 213.365 293.406C216.844 289.779 218.981 287.281 219 282C217.396 278.471 216.258 277.172 213 275C205.006 273.327 200.308 280.637 195.293 285.84ZM238.625 297.813C237.739 300.913 238.101 302.916 239 306C240.663 308.447 241.968 309.8 244.933 310.374C247.45 310.537 249.94 310.563 252.463 310.549C253.421 310.56 254.379 310.57 255.366 310.58C258.535 310.608 261.702 310.606 264.871 310.602C267.073 310.609 269.275 310.618 271.477 310.628C276.093 310.643 280.708 310.642 285.324 310.631C291.241 310.62 297.156 310.654 303.073 310.7C307.62 310.73 312.168 310.731 316.715 310.725C318.897 310.726 321.078 310.737 323.259 310.757C326.31 310.781 329.358 310.768 332.408 310.745C333.76 310.768 333.76 310.768 335.14 310.791C339.716 310.749 339.716 310.749 343.697 308.742C346.253 305.879 346.992 304.235 347.125 300.375C345.745 296.236 344.716 295.247 341 293C337.896 292.428 334.848 292.463 331.699 292.498C330.77 292.493 329.841 292.488 328.884 292.482C325.818 292.469 322.753 292.486 319.688 292.504C317.554 292.504 315.421 292.502 313.288 292.5C308.819 292.498 304.351 292.511 299.882 292.534C294.155 292.562 288.429 292.559 282.702 292.546C278.298 292.539 273.894 292.547 269.489 292.56C267.378 292.564 265.266 292.565 263.155 292.561C260.203 292.558 257.252 292.574 254.301 292.596C252.993 292.589 252.993 292.589 251.659 292.582C246.211 292.649 242.133 293.188 238.625 297.813ZM199 337C198.398 337.595 197.796 338.191 197.175 338.804C192.756 343.175 188.368 347.577 184 352C181.988 351.013 180.064 350.042 178.187 348.813C174.87 347.58 172.391 348.199 169 349C166.23 350.662 165.965 352.099 164.875 355.188C165.062 360.884 168.085 363.146 172 367C172.588 367.681 173.176 368.361 173.781 369.063C176.597 372.237 178.255 373.81 182.437 374.875C191.283 372.702 198.419 362.86 204.802 356.548C205.9 355.467 207.002 354.392 208.11 353.322C209.73 351.757 211.333 350.176 212.934 348.59C213.428 348.118 213.923 347.646 214.433 347.159C217.634 343.938 218.83 341.547 219 337C217.396 333.471 216.258 332.172 213 330C206.386 328.616 203.348 332.671 199 337ZM239 352C237.763 355.633 237.655 357.242 239.25 360.75C241.144 363.186 242.708 364.822 245.87 365.257C246.576 365.261 247.282 365.264 248.01 365.267C249.229 365.28 249.229 365.28 250.473 365.293C251.362 365.292 252.25 365.292 253.166 365.291C254.104 365.297 255.043 365.304 256.009 365.311C259.118 365.33 262.227 365.334 265.336 365.336C267.494 365.342 269.653 365.349 271.811 365.356C276.339 365.368 280.867 365.372 285.395 365.371C291.198 365.37 297 365.398 302.803 365.432C307.262 365.454 311.721 365.459 316.181 365.457C318.32 365.46 320.46 365.469 322.599 365.484C325.592 365.504 328.583 365.498 331.576 365.486C332.902 365.503 332.902 365.503 334.255 365.52C338.308 365.478 340.48 365.312 344.023 363.185C346.784 360.134 347.072 358.079 347 354C345.234 351.198 343.97 349.485 341 348C337.975 347.886 334.973 347.832 331.948 347.823C331.01 347.816 330.071 347.81 329.104 347.803C325.99 347.783 322.876 347.772 319.762 347.762C318.169 347.756 318.169 347.756 316.543 347.749C310.922 347.729 305.302 347.714 299.681 347.705C293.87 347.694 288.059 347.659 282.249 347.62C277.785 347.594 273.322 347.585 268.858 347.582C266.716 347.577 264.574 347.565 262.432 347.547C259.434 347.522 256.438 347.523 253.44 347.53C252.554 347.517 251.668 347.504 250.756 347.491C245.596 347.535 242.667 347.995 239 352ZM199 392C197.719 393.269 196.438 394.537 195.156 395.805C191.416 399.516 187.702 403.251 184 407C181.506 405.796 179.319 404.546 177 403C173.257 402.512 171.479 402.723 168.187 404.625C165.51 407.532 165 409.064 165 413C167.055 417.103 169.808 420.048 173.062 423.25C173.94 424.121 174.818 424.993 175.723 425.891C178.21 428.195 179.327 428.872 182.625 429.5C191.195 428.23 198.729 417.585 204.802 411.603C205.899 410.528 207.002 409.46 208.11 408.398C209.733 406.842 211.335 405.267 212.934 403.688C213.428 403.221 213.923 402.754 214.433 402.273C217.946 398.738 218.914 395.953 219 391C217.173 387.425 217.173 387.425 214 385C206.888 383.256 203.655 387.302 199 392ZM239 407C237.763 410.633 237.655 412.242 239.25 415.75C241.144 418.186 242.708 419.822 245.87 420.257C246.576 420.261 247.282 420.264 248.01 420.267C249.229 420.28 249.229 420.28 250.473 420.293C251.362 420.292 252.25 420.292 253.166 420.291C254.104 420.297 255.043 420.304 256.009 420.311C259.118 420.33 262.227 420.334 265.336 420.336C267.494 420.342 269.653 420.349 271.811 420.356C276.339 420.368 280.867 420.372 285.395 420.371C291.198 420.37 297 420.398 302.803 420.432C307.262 420.454 311.721 420.459 316.181 420.457C318.32 420.46 320.46 420.469 322.599 420.484C325.592 420.504 328.583 420.498 331.576 420.486C332.902 420.503 332.902 420.503 334.255 420.52C338.308 420.478 340.48 420.312 344.023 418.185C346.784 415.134 347.072 413.079 347 409C345.234 406.198 343.97 404.485 341 403C337.975 402.886 334.973 402.832 331.948 402.823C331.01 402.816 330.071 402.81 329.104 402.803C325.99 402.783 322.876 402.772 319.762 402.762C318.169 402.756 318.169 402.756 316.543 402.749C310.922 402.729 305.302 402.714 299.681 402.705C293.87 402.694 288.059 402.659 282.249 402.62C277.785 402.594 273.322 402.585 268.858 402.582C266.716 402.577 264.574 402.565 262.432 402.547C259.434 402.522 256.438 402.523 253.44 402.53C252.554 402.517 251.668 402.504 250.756 402.491C245.596 402.535 242.667 402.995 239 407ZM194.5 451C193.478 452.062 192.455 453.122 191.43 454.18C188.931 456.766 186.459 459.376 184 462C181.506 460.796 179.319 459.546 177 458C173.257 457.512 171.479 457.723 168.187 459.625C165.51 462.532 165 464.064 165 468C167.055 472.103 169.808 475.048 173.062 478.25C173.94 479.121 174.818 479.993 175.723 480.891C178.21 483.195 179.327 483.872 182.625 484.5C191.129 483.24 198.359 472.828 204.32 466.865C205.888 465.3 207.463 463.743 209.039 462.186C210.045 461.183 211.05 460.18 212.055 459.176C213.408 457.829 213.408 457.829 214.789 456.454C217.715 453.206 219.058 451.399 218.875 447C217.833 443.428 217.104 442.069 214 440C204.85 437.897 200.228 444.876 194.5 451ZM239 462C237.829 464.86 237.829 464.86 238 468C240.443 472.704 240.443 472.704 245 475C248.032 475.112 251.041 475.168 254.074 475.177C255.467 475.187 255.467 475.187 256.888 475.197C259.964 475.217 263.041 475.228 266.117 475.238C267.692 475.244 267.692 475.244 269.299 475.251C274.855 475.272 280.411 475.286 285.967 475.295C291.71 475.306 297.452 475.341 303.194 475.38C307.607 475.407 312.02 475.415 316.433 475.419C318.55 475.423 320.667 475.435 322.784 475.454C325.746 475.478 328.706 475.477 331.667 475.47C332.542 475.483 333.417 475.496 334.319 475.509C338.354 475.474 340.489 475.309 344.013 473.182C346.821 470.098 347.143 468.144 347 464C344.392 459.589 344.392 459.589 339.969 457.449C337.431 457.231 334.955 457.212 332.408 457.255C330.968 457.244 330.968 457.244 329.499 457.233C326.331 457.217 323.164 457.244 319.996 457.273C317.793 457.275 315.59 457.273 313.387 457.27C308.773 457.271 304.159 457.291 299.545 457.328C293.628 457.373 287.711 457.374 281.793 457.361C277.246 457.354 272.698 457.367 268.151 457.387C265.969 457.395 263.787 457.397 261.604 457.394C258.557 457.393 255.51 457.418 252.463 457.451C251.559 457.446 250.656 457.441 249.725 457.436C244.813 457.519 241.978 457.657 239 462Z" fill="white"/>
<path d="M273.48 2.8827C275.158 3.35977 275.158 3.35977 276.87 3.84648C279.987 4.7361 283.099 5.63972 286.211 6.54925C289.589 7.53308 292.973 8.49844 296.356 9.46571C301.737 11.0059 307.115 12.5529 312.492 14.1063C324.769 17.6534 337.059 21.1592 349.35 24.6591C367.95 29.9555 386.548 35.2553 405.142 40.5732C407.224 41.1686 409.306 41.7635 411.389 42.3578C424.624 46.136 437.827 50.0108 451 53.9999C451 54.6599 451 55.3199 451 55.9999C450.192 56.2244 449.385 56.449 448.553 56.6803C408.378 67.8509 368.211 79.0466 328.062 90.3124C327.215 90.5503 326.367 90.7882 325.493 91.0333C320.501 92.434 320.501 92.434 315.51 93.8354C311.546 94.9487 307.581 96.0603 303.615 97.168C296.751 99.0876 289.892 101.022 283.052 103.03C280.09 103.899 277.125 104.758 274.16 105.617C272.779 106.02 271.4 106.428 270.022 106.842C268.134 107.408 266.24 107.957 264.345 108.505C262.753 108.976 262.753 108.976 261.128 109.457C255.053 110.512 249.452 108.686 243.612 107.048C242.902 106.85 242.192 106.653 241.461 106.449C239.102 105.79 236.744 105.126 234.387 104.461C232.692 103.986 230.998 103.513 229.303 103.039C224.718 101.757 220.135 100.469 215.552 99.1799C210.748 97.8298 205.942 96.4847 201.137 95.1391C193.13 92.8962 185.124 90.6503 177.119 88.4022C166.291 85.3614 155.461 82.3265 144.631 79.2935C132.968 76.0273 121.307 72.7594 109.645 69.4896C108.416 69.145 108.416 69.145 107.162 68.7935C101.084 67.0885 95.0068 65.3774 88.9304 63.6647C84.6517 62.4602 80.3686 61.2725 76.0825 60.0946C75.0784 59.8158 74.0743 59.537 73.0397 59.2498C71.2519 58.7535 69.4625 58.2631 67.6711 57.78C65.763 57.2465 63.8776 56.6325 62 55.9999C61.67 55.3399 61.34 54.6799 61 53.9999C94.6583 44.1333 128.361 34.4309 162.115 24.8988C165.25 24.0134 168.385 23.1277 171.52 22.2421C172.678 21.915 172.678 21.915 173.859 21.5813C184.418 18.5979 194.963 15.5707 205.498 12.5044C209.655 11.2961 213.815 10.0959 217.974 8.89601C221.214 7.96049 224.452 7.0174 227.686 6.06364C231.222 5.02153 234.762 3.99899 238.305 2.98036C239.828 2.52266 239.828 2.52266 241.382 2.05571C252.687 -1.14938 262.311 -0.435809 273.48 2.8827Z" fill="white"/>
<path d="M31 65C39.8384 66.5358 48.4114 68.9757 57.0312 71.418C58.631 71.8682 60.2308 72.3181 61.8307 72.7676C65.2599 73.732 68.6885 74.6986 72.1166 75.6671C77.5678 77.2072 83.0203 78.7421 88.4731 80.2761C95.1412 82.1524 101.809 84.0299 108.476 85.9089C125.313 90.6539 142.155 95.3801 158.997 100.103C164.127 101.542 169.257 102.981 174.387 104.421C196.581 110.652 218.786 116.842 241 123C242.145 126.681 242.145 126.681 240.839 129.548C240.236 130.509 239.633 131.471 239.012 132.461C238.334 133.558 237.655 134.656 236.957 135.786C236.2 136.983 235.444 138.179 234.688 139.375C233.52 141.247 232.357 143.122 231.195 144.997C230.383 146.306 229.569 147.613 228.755 148.92C225.802 153.666 222.935 158.457 220.105 163.277C219.306 164.634 218.506 165.991 217.706 167.348C216.55 169.311 215.396 171.276 214.253 173.247C203.866 191.127 203.866 191.127 195.125 194.438C194.364 194.746 193.604 195.054 192.82 195.371C186.011 196.89 179.609 195.985 172.992 194.078C172.223 193.867 171.453 193.655 170.66 193.437C168.062 192.719 165.469 191.985 162.875 191.25C160.977 190.722 159.079 190.194 157.18 189.667C151.701 188.143 146.227 186.602 140.753 185.058C136.767 183.934 132.78 182.814 128.793 181.694C116.751 178.312 104.709 174.929 92.6731 171.522C89.6324 170.662 86.5916 169.801 83.5508 168.941C82.8042 168.73 82.0576 168.519 81.2884 168.301C71.0731 165.414 60.846 162.574 50.6055 159.777C47.1658 158.833 43.7264 157.888 40.2869 156.944C38.163 156.363 36.0378 155.787 33.9113 155.217C31.0119 154.438 28.117 153.645 25.2227 152.848C23.9824 152.522 23.9824 152.522 22.7171 152.19C15.8279 150.267 9.2369 147.152 4.625 141.5C4.16352 140.953 3.70203 140.407 3.22656 139.844C0.240249 135.355 -0.365106 131.283 -0.5 125.938C-0.551562 124.73 -0.603125 123.522 -0.65625 122.277C0.20615 111.521 8.81335 101.091 14.375 92.0625C15.0994 90.8785 15.8234 89.6943 16.5469 88.5098C18.6913 85.0024 20.8449 81.5008 23 78C23.7738 76.742 24.5476 75.4841 25.3213 74.2261C27.2134 71.1502 29.1064 68.0749 31 65Z" fill="white"/>
<path d="M482 65.9999C483.824 68.4581 483.824 68.4581 485.688 71.7382C486.027 72.3269 486.367 72.9157 486.717 73.5223C487.823 75.4458 488.911 77.3789 490 79.3124C490.756 80.6346 491.514 81.9561 492.273 83.2768C493.419 85.2707 494.565 87.2652 495.705 89.2625C499.522 95.9445 503.498 102.527 507.508 109.095C507.959 109.84 508.41 110.584 508.875 111.351C509.264 111.989 509.654 112.627 510.055 113.284C513.454 119.455 513.027 128.78 511.387 135.519C508.725 141.464 503.73 146.275 497.838 149C488.604 152.297 479.171 154.865 469.727 157.48C467.821 158.011 465.917 158.543 464.012 159.075C458.932 160.491 453.851 161.903 448.77 163.314C443.514 164.774 438.26 166.238 433.006 167.703C424.612 170.042 416.217 172.378 407.822 174.712C397.355 177.622 386.89 180.54 376.426 183.461C373.571 184.258 370.717 185.054 367.863 185.851C366.858 186.131 366.858 186.131 365.833 186.417C359.044 188.312 352.255 190.206 345.465 192.098C344.446 192.382 343.428 192.666 342.379 192.959C341.454 193.216 340.53 193.473 339.578 193.738C338.784 193.96 337.989 194.181 337.171 194.409C328.927 196.652 322.643 196.622 314.555 193.558C307.399 189.193 303.279 182.721 299.25 175.562C298.134 173.627 297.017 171.692 295.898 169.758C295.288 168.696 294.678 167.634 294.05 166.54C290.482 160.355 286.811 154.23 283.159 148.095C281.892 145.965 280.626 143.834 279.36 141.703C275.385 134.916 275.385 134.916 271.188 128.268C270.796 127.519 270.404 126.771 270 126C270.33 125.01 270.66 124.02 271 123C273.302 122.035 273.302 122.035 276.422 121.188C278.192 120.698 278.192 120.698 279.997 120.198C281.32 119.845 282.642 119.493 283.965 119.141C285.352 118.761 286.74 118.38 288.127 117.998C291.135 117.172 294.146 116.354 297.158 115.541C301.991 114.237 306.82 112.916 311.648 111.591C313.317 111.133 314.986 110.675 316.655 110.217C317.494 109.987 318.332 109.757 319.197 109.52C321.796 108.808 324.396 108.097 326.996 107.387C344.673 102.557 362.319 97.6145 379.961 92.6558C384.308 91.434 388.656 90.2149 393.005 88.9967C408.631 84.619 424.253 80.2304 439.849 75.7437C443.021 74.8314 446.195 73.9225 449.368 73.0128C453.908 71.7113 458.444 70.397 462.977 69.0748C464.951 68.5077 466.925 67.941 468.898 67.3749C470.215 66.9846 470.215 66.9846 471.559 66.5865C472.758 66.2459 472.758 66.2459 473.982 65.8983C474.667 65.699 475.353 65.4997 476.059 65.2943C478.371 64.9437 479.819 65.1688 482 65.9999Z" fill="white"/>
<path d="M246 151C246.33 151 246.66 151 247 151C247 176.74 247 202.48 247 229C236.706 229.039 236.706 229.039 226.204 229.078C221.838 229.103 217.472 229.13 213.106 229.16C206.187 229.208 199.268 229.252 192.349 229.271C186.766 229.286 181.183 229.321 175.601 229.368C173.478 229.383 171.356 229.391 169.233 229.392C148.713 229.393 148.713 229.393 130.969 238.965C118.818 251.526 119.539 268.228 119.489 284.516C119.472 286.584 119.454 288.652 119.434 290.719C119.387 296.125 119.357 301.53 119.331 306.935C119.301 312.466 119.254 317.997 119.209 323.527C119.124 334.351 119.056 345.176 119 356C105.197 352.575 91.4293 349.023 77.694 345.333C74.1284 344.375 70.5609 343.426 66.9879 342.496C63.4823 341.583 59.983 340.649 56.487 339.701C55.1674 339.346 53.8458 338.999 52.5221 338.66C50.6779 338.187 48.8415 337.683 47.0055 337.178C45.9635 336.902 44.9214 336.625 43.8478 336.34C40.0303 334.543 37.6713 332.872 36.0004 329C35.2797 323.999 35.3682 319.035 35.4328 313.999C35.4342 312.461 35.4334 310.923 35.4305 309.385C35.4291 305.22 35.4585 301.056 35.4934 296.891C35.5247 292.535 35.5276 288.178 35.5335 283.822C35.5491 275.577 35.5901 267.333 35.6403 259.088C35.6962 249.7 35.7237 240.312 35.7488 230.924C35.801 211.616 35.8889 192.308 36.0004 173C38.5083 173.623 41.0159 174.246 43.5234 174.871C44.2225 175.044 44.9217 175.218 45.6421 175.396C51.6249 176.888 57.575 178.484 63.5132 180.145C64.1701 180.328 64.8269 180.512 65.5036 180.701C66.1806 180.89 66.8576 181.079 67.5551 181.273C69.0114 181.679 70.4678 182.083 71.9243 182.488C75.7814 183.561 79.6377 184.635 83.4939 185.711C86.6951 186.604 89.8967 187.494 93.0983 188.385C115.247 194.548 137.389 200.733 159.523 206.949C160.489 207.22 161.455 207.491 162.45 207.77C164.221 208.267 165.992 208.765 167.762 209.263C168.534 209.479 169.305 209.696 170.099 209.919C170.761 210.105 171.423 210.291 172.106 210.483C184.425 213.846 196.102 212.485 207.188 206.25C216.69 200.617 221.848 191.904 227.313 182.625C228.061 181.372 228.811 180.12 229.561 178.868C232.836 173.392 236.069 167.89 239.293 162.383C239.994 161.187 239.994 161.187 240.708 159.966C241.55 158.522 242.388 157.074 243.22 155.624C244.121 154.067 245.056 152.53 246 151Z" fill="white"/>
<path d="M265 151C268.054 154.818 270.417 158.221 272.828 162.41C273.181 163.018 273.534 163.626 273.897 164.253C275.019 166.187 276.135 168.124 277.25 170.062C291.744 196.386 291.744 196.386 316.794 211.562C329.695 214.122 341.738 210.397 354.02 206.82C355.948 206.275 357.876 205.731 359.805 205.189C363.839 204.052 367.87 202.904 371.898 201.747C377.849 200.039 383.808 198.364 389.771 196.698C397.538 194.526 405.303 192.347 413.064 190.156C414.018 189.887 414.972 189.618 415.955 189.341C419.867 188.236 423.778 187.132 427.69 186.027C433.598 184.358 439.506 182.691 445.415 181.027C448.124 180.263 450.832 179.497 453.539 178.73C455.195 178.264 456.851 177.798 458.507 177.332C459.237 177.124 459.968 176.916 460.721 176.702C465.777 175.283 470.864 174.093 476 173C476.117 193.236 476.205 213.472 476.259 233.709C476.285 243.105 476.32 252.501 476.377 261.897C476.427 270.087 476.459 278.276 476.47 286.466C476.477 290.803 476.492 295.139 476.529 299.475C476.563 303.558 476.573 307.64 476.566 311.723C476.567 313.22 476.577 314.717 476.596 316.214C476.751 328.928 476.751 328.928 473.86 332.795C470.763 335.183 468.441 336.271 464.672 337.286C462.783 337.811 462.783 337.811 460.857 338.347C459.488 338.705 458.119 339.062 456.75 339.418C455.33 339.804 453.911 340.192 452.493 340.581C448.761 341.601 445.023 342.593 441.283 343.581C437.519 344.581 433.762 345.608 430.004 346.631C417.715 349.963 405.43 353.224 393 356C392.994 354.862 392.988 353.723 392.982 352.55C392.925 341.781 392.852 331.013 392.764 320.245C392.72 314.71 392.68 309.174 392.654 303.639C392.627 298.29 392.587 292.941 392.537 287.591C392.52 285.558 392.509 283.525 392.502 281.492C392.541 259.904 392.541 259.904 383 241C373.819 232.527 364.261 229.547 351.96 229.568C351.013 229.557 350.065 229.547 349.089 229.537C345.994 229.507 342.9 229.497 339.805 229.488C337.644 229.471 335.484 229.453 333.323 229.434C327.665 229.387 322.006 229.357 316.348 229.33C309.544 229.295 302.739 229.238 295.935 229.185C285.624 229.107 275.312 229.056 265 229C265 203.26 265 177.52 265 151Z" fill="white"/>
</g>
<defs>
<clipPath id="clip0_203_32">
<rect width="512" height="512" fill="white"/>
</clipPath>
</defs>
</svg>
