<svg width="60" height="60" viewBox="0 0 60 60" fill="none" xmlns="http://www.w3.org/2000/svg">
    <g clip-path="url(#clip0_4366_2151)">
        <path d="M1.674 20.67C0.702 20.496 0 19.656 0 18.672V16.446C0 15.462 0.702 14.622 1.674 14.448L4.302 13.992C4.614 12.846 5.076 11.742 5.67 10.716L4.128 8.52C3.564 7.716 3.66 6.624 4.356 5.928L5.934 4.344C6.624 3.654 7.716 3.558 8.52 4.122L10.716 5.67C11.742 5.076 12.846 4.62 13.992 4.308L14.448 1.68C14.616 0.708 15.462 0 16.446 0H18.678C19.662 0 20.496 0.708 20.67 1.674L21.126 4.302C22.278 4.614 23.382 5.076 24.408 5.67L26.598 4.134C27.402 3.57 28.494 3.666 29.184 4.362L30.774 5.934C31.464 6.63 31.56 7.722 30.996 8.526L29.46 10.716C29.91 11.508 30.276 12.348 30.558 13.212C29.904 14.022 29.466 14.982 29.286 16.002L29.07 17.226L28.416 17.496L27.402 16.794C26.364 16.062 25.122 15.672 23.844 15.672C23.646 15.672 23.454 15.708 23.232 15.726C22.38 13.014 19.734 11.268 16.902 11.556C14.064 11.844 11.826 14.082 11.532 16.92C11.238 19.752 12.978 22.398 15.69 23.262C15.546 24.726 15.936 26.202 16.782 27.408L17.49 28.422C17.4 28.632 17.31 28.854 17.22 29.076L15.996 29.292C14.976 29.472 14.016 29.91 13.206 30.564C12.342 30.282 11.502 29.916 10.71 29.466L8.514 31.002C7.71 31.56 6.624 31.464 5.934 30.774L4.356 29.19C3.66 28.494 3.564 27.402 4.128 26.598L5.67 24.408C5.076 23.382 4.62 22.284 4.308 21.132L1.674 20.67Z" fill="#FFB900"/>
        <path opacity="0.4" d="M38.238 14.5078C39.48 14.5198 40.536 15.4078 40.752 16.6258L41.364 19.9678C42.798 20.3638 44.178 20.9458 45.468 21.6958L48.27 19.7518C49.29 19.0318 50.682 19.1578 51.564 20.0398L53.568 22.0378C54.45 22.9258 54.57 24.3118 53.856 25.3318L51.906 28.1158C52.662 29.4178 53.244 30.8218 53.634 32.2798L56.97 32.8918C58.182 33.1018 59.076 34.1518 59.094 35.3818V38.1958C59.094 39.4438 58.194 40.5118 56.97 40.7278L53.634 41.3398C53.238 42.7858 52.656 44.1718 51.906 45.4678L53.856 48.2458C54.6 49.2778 54.474 50.6998 53.568 51.5878L51.588 53.5678C50.706 54.4498 49.314 54.5698 48.294 53.8558L45.468 51.9058C44.16 52.6618 42.762 53.2378 41.304 53.6338L40.692 56.9698C40.476 58.1938 39.408 59.0938 38.16 59.0938H35.382C34.134 59.0938 33.072 58.1938 32.856 56.9698L32.238 53.6338C30.786 53.2378 29.388 52.6618 28.086 51.9058L25.326 53.8558C24.306 54.5698 22.92 54.4498 22.032 53.5678L20.034 51.5878C19.14 50.6998 19.02 49.2958 19.752 48.2698L21.696 45.4678C20.946 44.1598 20.364 42.7618 19.974 41.3098L16.632 40.6978C15.408 40.4818 14.514 39.4138 14.508 38.1658V35.3818C14.514 34.1398 15.402 33.0718 16.626 32.8558L19.968 32.2378C20.358 30.7858 20.94 29.3818 21.69 28.0798L19.752 25.3258C19.032 24.3058 19.158 22.9198 20.04 22.0318L22.038 20.0338C22.926 19.1578 24.306 19.0378 25.326 19.7518L28.11 21.6958C29.412 20.9458 30.81 20.3638 32.268 19.9738L32.88 16.6318C33.096 15.4078 34.158 14.5138 35.406 14.5078H38.238ZM36.804 29.1538C32.58 29.1538 29.154 32.5798 29.154 36.8038C29.154 41.0278 32.58 44.4478 36.804 44.4478C41.028 44.4478 44.448 41.0278 44.448 36.8038C44.448 32.5798 41.028 29.1538 36.804 29.1538Z" fill="#FFB900"/>
    </g>
    <defs>
        <clipPath id="clip0_4366_2151">
            <rect width="60" height="60" fill="white"/>
        </clipPath>
    </defs>
</svg>
