<svg width="512" height="512" viewBox="0 0 512 512" fill="none" xmlns="http://www.w3.org/2000/svg">
<g clip-path="url(#clip0_174_3)">
<path d="M82.8258 -0.507874C84.3869 -0.512492 85.9481 -0.518852 87.5092 -0.526783C91.7646 -0.543368 96.0197 -0.53528 100.275 -0.522838C104.878 -0.513745 109.48 -0.527778 114.083 -0.538758C123.086 -0.556503 132.089 -0.552721 141.092 -0.541107C148.412 -0.532057 155.732 -0.530856 163.052 -0.535202C164.095 -0.535815 165.139 -0.536428 166.214 -0.53706C168.334 -0.538339 170.455 -0.539636 172.575 -0.54095C192.436 -0.552344 212.297 -0.539261 232.158 -0.517749C249.184 -0.499879 266.209 -0.502983 283.234 -0.521424C303.026 -0.542851 322.818 -0.551246 342.611 -0.538975C344.723 -0.537701 346.835 -0.536443 348.948 -0.535202C350.506 -0.534277 350.506 -0.534277 352.097 -0.533332C359.404 -0.529885 366.711 -0.535694 374.018 -0.545121C382.929 -0.556363 391.839 -0.553254 400.75 -0.531998C405.292 -0.521517 409.835 -0.517314 414.377 -0.530594C418.542 -0.542587 422.707 -0.535844 426.872 -0.514684C428.371 -0.510247 429.871 -0.512419 431.371 -0.522187C446.749 -0.614597 459.782 2.74269 471.437 13.1837C484.652 26.778 487.312 41.9431 487.26 60.2065C487.263 61.7368 487.267 63.2672 487.272 64.7976C487.282 68.9818 487.28 73.166 487.276 77.3503C487.273 81.8712 487.282 86.392 487.29 90.9129C487.303 99.7616 487.304 108.61 487.302 117.459C487.3 124.653 487.302 131.847 487.306 139.041C487.307 140.066 487.307 141.091 487.308 142.147C487.309 144.229 487.31 146.311 487.312 148.393C487.323 167.908 487.32 187.424 487.314 206.939C487.309 224.781 487.32 242.623 487.339 260.465C487.359 278.799 487.367 297.133 487.363 315.466C487.361 325.754 487.364 336.042 487.378 346.329C487.39 355.087 487.391 363.845 487.379 372.602C487.373 377.067 487.372 381.533 487.384 385.998C487.395 390.091 487.392 394.185 487.378 398.278C487.375 399.753 487.378 401.228 487.386 402.703C487.471 419.49 483.873 434.565 472 447C462.531 455.287 451.23 461.143 438.475 461.114C437.394 461.114 436.313 461.113 435.2 461.113C434.045 461.108 432.889 461.103 431.699 461.098C430.507 461.096 429.316 461.095 428.088 461.093C424.288 461.088 420.487 461.075 416.687 461.063C414.108 461.058 411.53 461.053 408.951 461.049C402.634 461.038 396.317 461.021 390 461C390.211 461.544 390.423 462.088 390.641 462.649C391.052 463.724 391.052 463.724 391.473 464.821C391.746 465.53 392.019 466.239 392.301 466.97C394.295 472.765 393.687 479.063 391.437 484.688C389.003 489.47 385.711 493.168 382 497C381.233 497.841 380.466 498.681 379.675 499.547C372.272 507.403 366.028 512.148 355 512.625C346.061 512.73 339.173 508.403 332.825 502.425C331.003 500.616 329.195 498.792 327.398 496.957C326.427 495.982 325.455 495.007 324.481 494.033C322.462 492.008 320.451 489.974 318.446 487.934C315.874 485.316 313.286 482.713 310.692 480.116C308.693 478.112 306.698 476.103 304.706 474.091C303.753 473.129 302.798 472.167 301.843 471.207C300.517 469.872 299.198 468.53 297.88 467.187C297.129 466.425 296.377 465.663 295.603 464.877C294 463 294 463 294 461C285.323 460.852 276.649 460.77 267.971 460.769C263.94 460.767 259.912 460.743 255.882 460.668C251.984 460.595 248.09 460.582 244.192 460.609C242.713 460.609 241.234 460.589 239.756 460.546C233.5 460.377 227.588 460.233 222.696 464.633C219.857 467.558 217.447 470.745 215 474C213.777 475.276 212.533 476.535 211.25 477.75C208.979 479.98 206.858 482.276 204.785 484.691C201.045 488.985 197.17 493.119 193.187 497.188C192.539 497.873 191.892 498.558 191.224 499.264C182.702 507.937 172.511 512.254 160.312 512.375C147.596 512.306 138.287 508.206 129.254 499.273C120.951 490.205 118.766 480.28 118.832 468.207C118.969 465.583 119.318 463.505 120 461C119.377 461.009 118.754 461.018 118.113 461.027C111.574 461.116 105.036 461.176 98.4969 461.22C96.0636 461.24 93.6303 461.267 91.1971 461.302C71.1062 461.582 54.2875 460.593 38.9996 446C27.3585 432.683 24.5329 417.817 24.6187 400.553C24.6152 399.021 24.6104 397.489 24.6045 395.957C24.592 391.777 24.5981 387.598 24.6074 383.418C24.6143 378.898 24.6037 374.379 24.5955 369.859C24.5822 361.018 24.585 352.176 24.5937 343.334C24.6005 336.146 24.6014 328.958 24.5982 321.769C24.5977 320.745 24.5973 319.72 24.5968 318.665C24.5958 316.583 24.5948 314.501 24.5939 312.42C24.5853 292.918 24.5951 273.416 24.6113 253.914C24.6247 237.194 24.6223 220.474 24.6085 203.754C24.5924 184.32 24.5861 164.886 24.5953 145.452C24.5963 143.378 24.5972 141.305 24.5982 139.231C24.5986 138.211 24.5991 137.19 24.5996 136.139C24.6022 128.963 24.5978 121.786 24.5907 114.61C24.5823 105.859 24.5846 97.1092 24.6006 88.3589C24.6084 83.8977 24.6116 79.4366 24.6016 74.9753C24.5926 70.8856 24.5977 66.7962 24.6136 62.7066C24.6169 61.233 24.6153 59.7593 24.6079 58.2858C24.5289 41.0481 28.3055 25.9651 40.527 13.254C52.8264 2.0426 66.669 -0.613106 82.8258 -0.507874ZM59.9996 22.0001C59.2017 22.4577 58.4038 22.9153 57.5816 23.3868C48.7929 29.8474 46.1494 36.5009 42.9996 47.0001C42.9996 53.9301 42.9996 60.8601 42.9996 68.0001C183.58 68.0001 324.16 68.0001 469 68.0001C469.563 46.1272 469.563 46.1272 460 28.0001C450.143 18.5993 441.081 17.5544 427.9 17.6124C426.357 17.6082 424.813 17.6027 423.27 17.5961C419.041 17.5816 414.813 17.5858 410.584 17.5932C406.019 17.598 401.454 17.5854 396.888 17.5752C387.95 17.558 379.011 17.5572 370.072 17.5624C362.806 17.5665 355.541 17.565 348.275 17.5597C347.241 17.5589 346.206 17.5582 345.141 17.5574C343.04 17.5559 340.938 17.5543 338.837 17.5528C319.135 17.5391 299.434 17.5445 279.732 17.556C261.71 17.5659 243.688 17.553 225.666 17.529C207.157 17.5047 188.648 17.495 170.139 17.5017C159.75 17.5052 149.36 17.5029 138.97 17.4854C130.126 17.4707 121.282 17.4701 112.438 17.4875C107.926 17.496 103.415 17.4982 98.9032 17.4829C94.7709 17.469 90.639 17.4738 86.5068 17.4931C85.0143 17.4969 83.5217 17.4939 82.0292 17.4835C73.8043 17.4301 67.1694 17.7366 59.9996 22.0001ZM42.9996 86.0001C42.9377 139.914 42.8759 193.828 42.8121 249.375C42.7848 266.408 42.7575 283.441 42.7294 300.99C42.7193 316.238 42.7193 316.238 42.7133 331.486C42.7105 338.286 42.6995 345.085 42.6829 351.885C42.6638 359.728 42.6551 367.571 42.6593 375.414C42.6611 379.426 42.6582 383.437 42.642 387.448C42.6273 391.08 42.6267 394.71 42.6369 398.341C42.6388 400.269 42.6259 402.196 42.6124 404.123C42.676 416.505 45.4333 425.798 53.9996 435C60.7192 440.187 67.724 443.263 76.2804 443.227C77.5012 443.227 78.722 443.227 79.9798 443.227C81.2831 443.216 82.5865 443.206 83.9293 443.195C85.2884 443.192 86.6474 443.189 88.0065 443.187C91.5674 443.179 95.1281 443.16 98.6889 443.137C102.329 443.117 105.969 443.108 109.609 443.098C116.739 443.076 123.869 443.042 131 443C131.33 442.01 131.66 441.02 132 440C132.551 439.736 133.103 439.472 133.671 439.199C137.165 437.4 139.541 434.622 142.25 431.813C146.401 427.578 150.585 423.511 155.109 419.672C158.145 416.987 160.94 414.067 163.785 411.184C165.776 409.22 167.813 407.379 169.937 405.563C173.11 402.844 176.063 399.973 179 397C182.542 393.414 186.175 390.051 190.004 386.777C193.057 384.058 195.886 381.124 198.754 378.211C201.51 375.498 204.405 372.988 207.371 370.508C209.235 368.9 209.235 368.9 211 366C204.4 359.4 197.8 352.8 191 346C186.05 347.485 186.05 347.485 181 349C176.742 349.293 176.742 349.293 172.875 349.188C171.573 349.16 170.271 349.133 168.929 349.106C167.479 349.053 167.479 349.053 166 349C165.67 349.66 165.34 350.32 165 351C165.309 351.846 165.618 352.691 165.937 353.563C167.713 359.307 168.038 363.846 165.394 369.332C162.881 373.472 159.718 376.833 156.312 380.25C155.451 381.167 155.451 381.167 154.572 382.102C150.214 386.503 146.159 389.013 140 390C132.27 389.934 127.861 386.781 122.514 381.473C121.223 380.129 121.223 380.129 119.906 378.758C118.536 377.378 118.536 377.378 117.138 375.97C115.217 374.033 113.309 372.085 111.411 370.125C108.982 367.617 106.533 365.131 104.074 362.653C101.719 360.278 99.3748 357.894 97.0309 355.508C95.7154 354.17 95.7154 354.17 94.3733 352.806C93.5648 351.971 92.7564 351.137 91.9234 350.278C91.2119 349.547 90.5004 348.815 89.7673 348.062C86.7302 344.519 85.7088 341.771 85.6871 337.125C85.6704 336.303 85.6536 335.48 85.6363 334.633C86.6537 327.26 91.7658 322.746 96.8121 317.75C97.5114 317.031 98.2108 316.311 98.9313 315.57C103.788 310.719 107.364 308.269 114.375 307.75C118.494 308.034 122.029 308.886 126 310C127.091 306.726 126.863 305.234 126.375 301.875C125.756 295.53 126.432 290.386 130.366 285.199C138.382 276.229 146.932 267.766 155.412 259.238C157.507 257.13 159.594 255.015 161.675 252.893C183.058 231.099 205.233 213.892 237.25 213.563C237.94 213.552 238.631 213.542 239.343 213.532C243.924 213.612 247.098 214.632 251 217C254.662 220.906 254.355 225.197 254.398 230.281C253.737 234.795 251.92 237.221 248.468 240.141C247.489 240.837 246.509 241.533 245.5 242.25C244.419 243.033 243.339 243.818 242.261 244.606C241.717 245.002 241.172 245.398 240.61 245.806C236.266 249.026 232.138 252.522 228 256C227.124 256.727 226.249 257.454 225.347 258.203C224.531 258.899 223.715 259.595 222.875 260.313C222.15 260.927 221.426 261.542 220.679 262.176C218.834 264.18 218.228 265.299 218 268C220.086 271.825 222.696 274.79 225.625 278C230.836 283.937 231.228 289 231.363 296.707C231 300 231 300 228 309C234.93 315.93 241.86 322.86 249 330C254.158 326.609 254.158 326.609 258.507 322.652C259.102 322.047 259.696 321.442 260.308 320.818C261.207 319.887 261.207 319.887 262.125 318.938C263.333 317.694 264.544 316.453 265.757 315.215C266.317 314.642 266.876 314.069 267.453 313.479C269 312 269 312 271.441 310.336C273.226 309.117 273.226 309.117 273.207 306.949C273.076 306.203 272.946 305.457 272.812 304.688C272.636 303.58 272.636 303.58 272.457 302.449C272.134 300.721 271.803 298.995 271.464 297.27C268.384 275.604 273.81 255.071 286 237C287.902 234.847 289.89 232.956 292 231C292 230.34 292 229.68 292 229C292.572 228.745 293.144 228.49 293.734 228.227C296.243 226.868 298.106 225.256 300.25 223.375C315.773 210.801 338.039 203.279 358 205C365.384 206.605 369.53 209.338 373.812 215.688C375.934 221.606 376.071 227.024 373.403 232.764C371.058 237.338 367.918 240.235 364.047 243.535C362.686 244.755 361.33 245.979 359.977 247.207C359.282 247.836 358.588 248.466 357.872 249.115C345.502 259.735 345.502 259.735 339.023 274.082C338.814 279.536 339.474 284.761 341 290C347.452 293.226 357.186 292.67 364 291C370.703 287.443 375.533 281.336 380.437 275.688C382.433 273.496 384.445 271.319 386.462 269.147C387.702 267.801 388.926 266.442 390.132 265.066C395.129 259.454 400.058 256.541 407.629 255.941C412.428 256.06 416.898 257.215 420.605 260.363C427.128 267.766 426.625 276.261 426.186 285.536C424.804 303.796 417.033 323.295 403.765 336.168C401.768 337.816 401.768 337.816 402 340C401.42 340.264 400.839 340.529 400.242 340.801C397.908 342.049 396.139 343.475 394.125 345.188C378.574 357.404 358.545 362.71 338.953 360.641C334.529 360.025 330.197 359.328 325.886 358.148C322.884 357.674 322.884 357.674 320.691 359.844C319.988 360.72 319.286 361.597 318.562 362.5C317.802 363.415 317.041 364.331 316.257 365.273C315.512 366.173 314.767 367.073 314 368C312.665 369.394 311.313 370.772 309.937 372.125C309.369 372.685 308.8 373.244 308.214 373.82C307.814 374.21 307.413 374.599 307 375C309.283 379.242 312.195 382.463 315.601 385.813C316.161 386.371 316.72 386.929 317.297 387.505C319.14 389.341 320.99 391.171 322.839 393C324.126 394.281 325.413 395.562 326.699 396.844C330.081 400.213 333.469 403.577 336.859 406.939C342.282 412.318 347.698 417.704 353.11 423.094C354.998 424.971 356.889 426.845 358.78 428.719C359.943 429.875 361.106 431.031 362.269 432.188C362.792 432.704 363.315 433.221 363.855 433.753C366.125 436.016 368.12 438.175 369.94 440.823C371.868 443.277 371.868 443.277 375.057 443.635C376.855 443.641 376.855 443.641 378.689 443.647C379.685 443.66 379.685 443.66 380.701 443.674C382.895 443.696 385.087 443.681 387.281 443.664C388.816 443.667 390.351 443.672 391.886 443.679C395.107 443.686 398.328 443.675 401.549 443.652C405.647 443.624 409.743 443.64 413.841 443.67C417.015 443.688 420.19 443.682 423.364 443.669C424.873 443.666 426.381 443.67 427.889 443.682C439.038 443.749 447.825 441.961 457.312 435.875C467.455 425.025 469.307 414.937 469.24 400.586C469.241 399.229 469.243 397.873 469.245 396.516C469.25 392.796 469.242 389.076 469.232 385.356C469.223 381.28 469.226 377.204 469.227 373.127C469.228 365.219 469.219 357.311 469.206 349.403C469.192 340.253 469.19 331.104 469.189 321.954C469.178 297.803 469.15 273.651 469.125 249.5C469.083 195.545 469.042 141.59 469 86.0001C328.42 86.0001 187.84 86.0001 42.9996 86.0001ZM314 235C310.498 237.842 307.215 240.839 304 244C303.349 244.638 302.698 245.276 302.027 245.934C291.107 257.478 287.355 272.602 287.629 288.148C288.147 293.53 289.5 298.418 291.125 303.563C292.243 307.957 293.109 312.01 290.82 316.117C290.26 316.697 289.701 317.277 289.125 317.875C288.166 318.879 288.166 318.879 287.187 319.902C284.049 322.911 280.83 325.817 277.566 328.688C274.21 331.712 271.058 334.913 267.91 338.152C266 340 266 340 263 342C264.417 345.252 266.125 347.314 268.687 349.75C272.167 353.135 275.397 356.65 278.554 360.336C280.924 363.205 280.924 363.205 284.309 364.461C289.778 364.728 293.201 364.501 297.363 360.746C298.709 359.337 300.025 357.9 301.312 356.438C301.975 355.733 302.639 355.029 303.322 354.303C306.924 350.444 310.362 346.45 313.732 342.387C315.719 340.213 317.081 339.475 320 339C323.064 339.553 325.986 340.237 329 341C347.696 345.282 363.619 344.189 380.355 333.77C395.506 323.631 404.454 307.487 408.32 289.938C409.246 284.572 409.369 279.422 409 274C405.77 274.579 404.179 275.461 401.919 277.82C401.344 278.411 400.77 279.002 400.178 279.61C399.567 280.252 398.957 280.894 398.328 281.555C397.01 282.905 395.693 284.256 394.375 285.606C392.312 287.736 390.254 289.871 388.201 292.011C386.213 294.079 384.209 296.13 382.203 298.18C381.299 299.136 381.299 299.136 380.377 300.112C373.343 307.267 366.678 308.401 356.832 308.508C355.608 308.505 354.385 308.503 353.125 308.5C351.909 308.528 350.693 308.557 349.441 308.586C341.608 308.603 335.482 307.613 329 303C323.058 296.69 323.75 289.061 323.704 280.969C323.693 279.54 323.673 278.112 323.643 276.683C323.6 274.608 323.584 272.533 323.574 270.457C323.559 269.219 323.545 267.982 323.53 266.706C324.579 258.431 329.1 253.332 334.953 247.727C335.613 247.077 336.273 246.427 336.953 245.757C339.043 243.703 341.145 241.664 343.25 239.625C345.367 237.563 347.48 235.499 349.589 233.428C350.896 232.145 352.21 230.867 353.528 229.595C355.056 228.101 356.534 226.555 358 225C358 224.34 358 223.68 358 223C343.143 219.912 325.993 226.267 314 235ZM197 244C189.934 250.089 183.26 256.568 176.652 263.145C176.188 263.606 175.724 264.067 175.246 264.542C172.804 266.969 170.365 269.399 167.929 271.831C165.42 274.334 162.903 276.827 160.383 279.318C157.966 281.712 155.56 284.117 153.152 286.52C152.248 287.411 151.344 288.303 150.412 289.222C149.584 290.053 148.755 290.885 147.902 291.742C147.17 292.469 146.439 293.197 145.685 293.947C143.935 296.079 143.185 297.258 143 300C144.01 301.642 145.028 303.287 146.187 304.828C147.504 308.348 147.133 311.507 146 315C144.249 317.668 142.132 319.761 139.812 321.938C139.247 322.513 138.682 323.089 138.099 323.682C134.596 327.089 132.092 328.952 127 329C124.367 328.406 124.367 328.406 121.875 327.5C117.431 325.891 117.431 325.891 113 327C110.568 329.068 110.568 329.068 108.25 331.563C107.45 332.389 106.651 333.215 105.828 334.066C105.224 334.705 104.621 335.343 104 336C108.027 340.833 112.243 345.381 116.711 349.809C117.324 350.42 117.937 351.032 118.568 351.662C120.501 353.59 122.438 355.514 124.375 357.438C125.696 358.754 127.018 360.071 128.339 361.389C131.557 364.595 134.777 367.798 138 371C141.41 369.395 143.618 367.595 146.25 364.875C147.309 363.788 147.309 363.788 148.39 362.68C148.921 362.125 149.452 361.571 150 361C149.783 360.371 149.566 359.742 149.343 359.094C149.065 358.238 148.786 357.382 148.5 356.5C148.221 355.665 147.943 354.829 147.656 353.969C145.707 345.15 145.707 345.15 148.173 341.049C149.824 339.062 151.572 337.287 153.437 335.5C154.029 334.868 154.622 334.237 155.232 333.586C158.629 330.229 160.97 328.589 165.836 328.496C169.52 328.697 171.116 329.713 174 332C179.431 332.066 182 329.614 185.685 326.035C186.717 324.993 186.717 324.993 187.769 323.93C188.491 323.215 189.212 322.501 189.956 321.765C191.476 320.253 192.989 318.734 194.496 317.21C196.803 314.885 199.136 312.59 201.474 310.297C202.949 308.822 204.423 307.346 205.894 305.867C206.592 305.185 207.29 304.502 208.009 303.799C212.096 299.612 214.043 296.95 214 291C212.82 289.006 212.82 289.006 210.875 287.625C205.439 282.744 202.076 277.37 201 270.063C200.64 262.816 202.36 256.569 207 250.938C211.573 246.141 216.808 242.1 222 238C223.233 236.984 224.463 235.964 225.687 234.938C226.832 233.979 226.832 233.979 228 233C219.194 229.478 203.88 238.999 197 244ZM211.617 324.188C210.259 325.58 210.259 325.58 208.875 327C207.965 327.928 207.054 328.856 206.117 329.813C205.418 330.534 204.719 331.256 204 332C205.569 335.783 207.931 338.173 210.817 341.044C211.304 341.532 211.792 342.021 212.295 342.524C213.903 344.13 215.518 345.729 217.132 347.328C218.251 348.443 219.369 349.558 220.487 350.674C223.425 353.605 226.369 356.529 229.315 359.453C232.322 362.439 235.322 365.431 238.324 368.422C244.21 374.287 250.103 380.145 256 386C259.41 384.395 261.618 382.595 264.25 379.875C264.956 379.151 265.662 378.426 266.39 377.68C266.921 377.125 267.452 376.571 268 376C266.431 372.23 264.083 369.83 261.214 366.956C260.73 366.468 260.245 365.98 259.745 365.477C258.148 363.87 256.543 362.271 254.937 360.672C253.823 359.557 252.71 358.442 251.597 357.326C249.267 354.993 246.933 352.663 244.596 350.336C241.597 347.348 238.606 344.35 235.618 341.35C233.322 339.048 231.022 336.75 228.721 334.453C227.615 333.35 226.512 332.244 225.41 331.138C223.873 329.596 222.33 328.06 220.785 326.526C219.907 325.65 219.029 324.774 218.125 323.871C215.051 321.165 214.64 321.412 211.617 324.188ZM221.554 381.285C221 381.872 220.446 382.458 219.875 383.063C217.382 385.632 214.847 388.05 212.125 390.375C209.115 392.966 206.289 395.673 203.5 398.5C200.771 401.266 198.014 403.913 195.062 406.438C191.889 409.156 188.936 412.028 186 415C182.457 418.586 178.824 421.949 174.996 425.223C171.933 427.95 169.097 430.894 166.218 433.813C164.205 435.797 162.145 437.661 160 439.5C156.157 442.798 152.591 446.326 149.039 449.934C147.448 451.545 145.824 453.123 144.187 454.688C138.688 460.501 136.543 465.627 136.66 473.496C137.636 480.692 141.622 486.354 147.156 490.844C151.303 493.445 154.937 494.311 159.812 494.375C160.788 494.403 161.764 494.432 162.769 494.461C171.896 493.159 177.386 487.148 183.562 480.75C184.374 479.929 185.185 479.108 186.021 478.262C190.321 473.882 194.452 469.399 198.46 464.751C200.536 462.39 202.748 460.192 205 458C208.585 454.458 211.949 450.824 215.222 446.996C217.951 443.932 220.896 441.095 223.816 438.215C225.779 436.223 227.62 434.187 229.437 432.063C232.961 427.946 236.789 424.176 240.668 420.395C241.437 419.604 242.207 418.814 243 418C243.779 417.323 244.559 416.647 245.363 415.949C247.636 411.853 247.575 408.81 247.015 404.205C245.043 397.979 240.26 394.049 235.562 389.75C234.569 388.796 233.579 387.839 232.591 386.879C227.658 380.888 227.658 380.888 221.554 381.285ZM287 383C286.274 383.733 286.274 383.733 285.534 384.481C283.317 386.719 281.096 388.953 278.875 391.188C278.114 391.956 277.354 392.725 276.57 393.518C272.532 397.573 268.476 401.432 264 405C268.547 410.46 273.383 415.501 278.433 420.496C279.229 421.289 280.026 422.081 280.846 422.897C284.224 426.26 287.609 429.616 290.993 432.973C293.475 435.437 295.954 437.904 298.433 440.371C299.188 441.117 299.942 441.863 300.719 442.632C304.722 446.617 308.528 450.694 312.215 454.972C317.847 461.37 323.962 467.351 329.951 473.412C331.657 475.145 333.356 476.885 335.048 478.631C337.505 481.167 339.984 483.679 342.468 486.188C343.22 486.972 343.971 487.756 344.745 488.564C349.078 492.935 349.078 492.935 354.898 494.566C358.241 493.956 359.54 493.35 361.937 491C362.597 490.361 363.257 489.721 363.937 489.063C364.618 488.382 365.298 487.701 366 487C366.742 486.34 367.485 485.68 368.25 485C371.56 481.973 373.718 479.686 375.437 475.5C374.766 470.127 371.785 467.682 368 464C366.166 462.167 364.333 460.333 362.5 458.5C361.623 457.644 360.747 456.788 359.843 455.906C357.804 453.873 355.922 451.757 354.06 449.561C349.557 444.396 344.704 439.592 339.843 434.769C338.15 433.088 336.459 431.404 334.77 429.719C331.183 426.143 327.591 422.571 324 419C319.832 414.856 315.666 410.711 311.505 406.561C309.852 404.915 308.197 403.272 306.541 401.629C301.652 396.762 296.86 391.893 292.506 386.528C290.818 384.816 289.192 383.954 287 383ZM255.504 429.484C254.517 430.568 253.537 431.657 252.562 432.75C251.826 433.558 251.826 433.558 251.076 434.383C248.547 437.181 246.273 439.968 244 443C254.23 443 264.46 443 275 443C271.456 438.865 268.059 434.904 264.25 431.063C263.492 430.29 262.734 429.518 261.953 428.723C258.863 425.997 258.428 426.573 255.504 429.484Z" fill="black"/>
<path d="M265.815 33.3689C267.237 33.3638 268.66 33.3565 270.083 33.3472C273.941 33.3287 277.797 33.3417 281.655 33.3613C285.693 33.3777 289.731 33.3689 293.769 33.3638C300.549 33.3593 307.328 33.3752 314.108 33.4031C321.947 33.4352 329.785 33.4351 337.623 33.4179C345.165 33.402 352.707 33.4088 360.249 33.4258C363.458 33.4327 366.667 33.4317 369.876 33.4243C373.655 33.4166 377.433 33.4287 381.211 33.4561C382.597 33.463 383.984 33.4631 385.371 33.4559C387.263 33.4472 389.156 33.4656 391.048 33.4854C392.107 33.4882 393.166 33.491 394.257 33.4939C397.7 34.1292 398.863 35.2791 401 38C402.229 41.769 402.18 43.5067 400.812 47.25C398.881 50.1802 398.185 50.8043 395 52C392.32 52.2545 392.32 52.2545 389.2 52.2607C387.423 52.2713 387.423 52.2713 385.61 52.2822C384.314 52.2797 383.017 52.2772 381.682 52.2747C380.3 52.279 378.919 52.2842 377.537 52.2902C373.787 52.3036 370.037 52.3041 366.287 52.3016C363.156 52.3005 360.025 52.3054 356.893 52.3102C349.506 52.3213 342.119 52.3217 334.731 52.3157C327.111 52.3097 319.492 52.322 311.872 52.3433C305.329 52.3609 298.785 52.3669 292.241 52.3636C288.334 52.3618 284.426 52.3645 280.519 52.3783C276.844 52.3909 273.17 52.389 269.495 52.3759C267.505 52.3724 265.515 52.3838 263.526 52.3955C262.338 52.3885 261.151 52.3815 259.927 52.3742C258.382 52.3745 258.382 52.3745 256.806 52.3748C253.511 51.9348 251.663 50.9653 249 49C246.5 45.2495 246.464 43.4415 247 39C251.332 32.0041 258.355 33.3008 265.815 33.3689Z" fill="black"/>
<path d="M208.001 119C210.701 120.8 212.543 122.084 214.001 125C214.528 128.866 214.338 130.518 212.079 133.754C208.422 137.938 203.883 140.988 199.376 144.187C197.674 145.408 195.973 146.63 194.274 147.855C193.526 148.388 192.777 148.921 192.006 149.469C190.172 150.87 188.584 152.326 187.001 154C187.54 154.393 188.079 154.785 188.634 155.19C191.113 156.999 193.588 158.812 196.063 160.625C196.911 161.242 197.758 161.86 198.632 162.496C202.493 165.329 206.331 168.185 210.044 171.211C210.589 171.655 211.135 172.099 211.697 172.556C213.728 174.805 214.216 177.052 214.325 180.031C213.672 183.995 212.127 185.448 209.001 188C203.803 188.777 201.011 188.367 196.661 185.395C195.113 184.22 193.582 183.025 192.063 181.812C191.249 181.186 190.434 180.56 189.595 179.915C187.9 178.61 186.211 177.297 184.529 175.977C182.068 174.052 179.585 172.162 177.091 170.281C171.218 165.846 171.218 165.846 168.345 163.645C167.769 163.205 167.193 162.765 166.6 162.312C162.223 158.722 162.223 158.722 161.391 156.02C161.169 152.528 161.264 150.025 163.349 147.125C165.77 144.891 168.346 142.942 171.001 141C172.494 139.878 173.986 138.756 175.477 137.633C201.279 118.341 201.279 118.341 208.001 119Z" fill="black"/>
<path d="M310 119C319.777 123.306 328.442 131.646 336.755 138.231C339.868 140.684 343.007 143.102 346.148 145.52C349.861 148.487 349.861 148.487 350.512 150.883C350.787 154.395 350.75 156.951 348.656 159.879C346.221 162.116 343.668 164.043 341 166C339.519 167.11 338.039 168.221 336.559 169.332C333.263 171.793 329.946 174.223 326.613 176.633C323.899 178.598 321.222 180.587 318.605 182.68C311.245 188.465 311.245 188.465 306.625 188.875C302.919 187.981 300.981 187.042 298.809 183.832C297.658 181.226 297.35 178.926 297.918 176.133C300.439 171.164 305.59 168.183 310 165C311.643 163.776 313.28 162.545 314.917 161.312C316.427 160.18 317.947 159.062 319.469 157.945C321.501 156.383 323.221 154.827 325 153C324.461 152.607 323.922 152.215 323.367 151.81C320.888 150.001 318.413 148.188 315.937 146.375C315.09 145.758 314.242 145.14 313.369 144.504C299.76 134.521 299.76 134.521 298 131C297.57 127.128 297.683 125.475 299.875 122.188C303.203 118.762 305.296 118.664 310 119Z" fill="black"/>
<path d="M271.812 113.313C274.064 116.512 274.098 119.38 273.494 123.18C273.052 124.975 273.052 124.975 272.6 126.806C272.439 127.47 272.278 128.135 272.112 128.819C271.58 131.006 271.032 133.188 270.484 135.371C270.108 136.896 269.732 138.422 269.358 139.948C268.57 143.143 267.776 146.336 266.976 149.528C265.954 153.608 264.948 157.692 263.947 161.777C263.174 164.928 262.393 168.076 261.61 171.225C261.237 172.729 260.865 174.234 260.495 175.74C259.976 177.85 259.447 179.957 258.916 182.064C258.618 183.262 258.32 184.459 258.012 185.693C255.553 193.724 255.553 193.724 252.249 196.438C248.862 197.284 246.368 196.842 242.999 196C240.416 194.097 239.264 192.849 238.31 189.786C237.918 186.269 238.553 183.614 239.399 180.178C239.56 179.512 239.72 178.846 239.886 178.16C240.419 175.969 240.966 173.781 241.515 171.594C241.891 170.066 242.266 168.538 242.641 167.01C243.428 163.811 244.223 160.614 245.022 157.417C246.045 153.328 247.051 149.236 248.052 145.141C248.824 141.986 249.605 138.833 250.389 135.68C250.763 134.172 251.134 132.664 251.503 131.154C252.021 129.042 252.55 126.932 253.082 124.822C253.53 123.023 253.53 123.023 253.986 121.187C255.294 117.072 256.948 114.051 259.999 111C264.279 109.166 268.173 110.678 271.812 113.313Z" fill="black"/>
<path d="M166.438 33.375C167.189 33.3427 167.94 33.3105 168.714 33.2773C171.852 33.2718 174.096 33.312 176.647 35.2524C179.224 38.1552 179.996 39.7081 180.063 43.625C178.931 47.2215 177.929 48.6929 175.001 51C172.2 52.4005 169.812 52.2075 166.688 52.25C165.558 52.2757 164.427 52.3015 163.262 52.3281C159.688 51.9685 157.87 51.1097 155.001 49C152.9 46.3259 153.002 44.9571 153.126 41.5C154.995 34.0219 159.353 33.3145 166.438 33.375Z" fill="black"/>
<path d="M123.374 33.5C124.13 33.4716 124.885 33.4432 125.663 33.414C129.886 33.3993 131.546 33.6514 135.003 36.3125C136.999 39 136.999 39 137.562 42.5C136.915 46.5234 135.899 48.183 132.999 51C129.696 52.1011 127.101 52.2022 123.624 52.25C122.503 52.2757 121.381 52.3015 120.226 52.3281C116.643 51.9637 114.825 51.2019 111.999 49C110.449 45.361 109.719 43.1212 110.687 39.25C113.953 33.6509 117.079 33.4787 123.374 33.5Z" fill="black"/>
<path d="M80.9999 33.375C81.6986 33.3557 82.3973 33.3363 83.1171 33.3164C87.0138 33.3532 88.8586 33.891 91.9648 36.2852C95.014 40.3527 94.7104 42.0268 93.9999 47C91.7925 49.9686 90.514 50.8287 86.9999 52C85.0452 52.1448 83.0848 52.2207 81.1249 52.25C79.5819 52.2887 79.5819 52.2887 78.0078 52.3281C74.5607 51.9521 72.764 51.061 69.9999 49C67.4996 45.2495 67.4639 43.4414 67.9999 39C71.7461 34.0339 75.0303 33.2098 80.9999 33.375Z" fill="black"/>
</g>
<defs>
<clipPath id="clip0_174_3">
<rect width="512" height="512" fill="white"/>
</clipPath>
</defs>
</svg>
