<svg width="512" height="512" viewBox="0 0 512 512" fill="none" xmlns="http://www.w3.org/2000/svg">
<path d="M88 24C193.6 24 299.2 24 408 24C408 108.48 408 192.96 408 280C404.37 280.66 400.74 281.32 397 282C393.716 285.284 393.486 286.286 392.812 290.688C392.575 292.178 392.575 292.178 392.332 293.699C392.222 294.458 392.113 295.218 392 296C383.283 298.238 374.515 298.623 366.422 294.189C356.543 288.108 346.261 278.826 343.297 267.256C341.262 255.309 341.762 242.953 342.716 230.915C343.202 224.73 343.202 224.73 341 219C334.884 215.223 326.518 216.847 319.809 218.188C311.455 220.604 305.281 225.473 301 233C296.929 241.382 296.834 250.032 296.684 259.184C296.652 260.767 296.652 260.767 296.621 262.382C296.556 265.734 296.496 269.086 296.438 272.438C296.394 274.718 296.351 276.999 296.307 279.279C296.2 284.853 296.098 290.426 296 296C295.318 296.008 294.637 296.016 293.935 296.025C286.812 296.111 279.69 296.21 272.569 296.317C269.914 296.357 267.259 296.39 264.605 296.422C260.779 296.468 256.954 296.526 253.129 296.586C251.361 296.603 251.361 296.603 249.558 296.621C240.139 296.788 232.693 297.371 225 303C224.34 303 223.68 303 223 303C218.346 311.95 216.85 319.408 216.855 329.351C216.851 330.274 216.848 331.196 216.845 332.147C216.835 335.188 216.833 338.229 216.832 341.27C216.829 343.392 216.825 345.514 216.822 347.636C216.816 352.082 216.814 356.528 216.815 360.974C216.815 366.656 216.801 372.339 216.784 378.021C216.773 382.404 216.771 386.787 216.771 391.17C216.77 393.265 216.766 395.359 216.758 397.453C216.748 400.389 216.751 403.325 216.757 406.261C216.751 407.117 216.746 407.973 216.74 408.855C216.784 417.364 217.941 424.086 223 431C223 431.66 223 432.32 223 433C231.935 437.646 239.409 439.146 249.335 439.177C250.256 439.184 251.177 439.19 252.126 439.197C255.162 439.217 258.198 439.228 261.234 439.238C262.796 439.244 262.796 439.244 264.389 439.251C269.899 439.271 275.409 439.286 280.919 439.295C286.592 439.306 292.266 439.341 297.939 439.38C302.318 439.407 306.697 439.415 311.075 439.418C313.166 439.423 315.257 439.435 317.347 439.453C320.281 439.478 323.214 439.477 326.147 439.47C327.426 439.489 327.426 439.489 328.73 439.509C336.977 439.438 343.851 436.336 351.027 432.457C352.245 431.806 352.245 431.806 353.486 431.143C354.295 430.704 355.104 430.265 355.938 429.812C357.591 428.921 359.246 428.032 360.902 427.145C361.619 426.756 362.336 426.368 363.074 425.968C366.7 424.146 369.544 423.881 373.543 423.902C374.616 423.906 375.689 423.909 376.795 423.912C377.914 423.92 379.034 423.929 380.188 423.938C381.884 423.944 381.884 423.944 383.615 423.951C386.41 423.963 389.205 423.979 392 424C392.11 424.759 392.219 425.519 392.332 426.301C392.57 427.792 392.57 427.792 392.812 429.312C392.963 430.299 393.114 431.285 393.27 432.301C394.064 435.237 394.51 436.296 397 438C399.725 438.792 399.725 438.792 402.688 439.188C404.178 439.425 404.178 439.425 405.699 439.668C406.458 439.778 407.218 439.887 408 440C408.1 444.268 408.172 448.536 408.22 452.805C408.24 454.254 408.267 455.703 408.302 457.152C408.522 466.56 408.579 473.775 402.035 481.242C401.384 481.781 400.733 482.32 400.062 482.875C399.414 483.429 398.766 483.984 398.098 484.555C394.017 487.366 390.432 488.25 385.512 488.246C383.867 488.252 383.867 488.252 382.189 488.258C380.989 488.252 379.79 488.247 378.554 488.241C376.636 488.243 376.636 488.243 374.68 488.246C371.134 488.25 367.588 488.242 364.042 488.232C360.218 488.223 356.393 488.226 352.568 488.228C345.942 488.229 339.316 488.223 332.69 488.211C323.11 488.195 313.53 488.19 303.95 488.187C288.408 488.183 272.865 488.17 257.322 488.151C242.223 488.133 227.125 488.118 212.026 488.11C211.095 488.109 210.165 488.109 209.206 488.108C204.537 488.106 199.869 488.103 195.2 488.101C156.467 488.08 117.733 488.045 79 488C79.4099 487.273 79.8198 486.546 80.2422 485.797C87.2358 472.747 87.2966 460.306 87.2785 445.853C87.2835 444.028 87.2894 442.202 87.296 440.377C87.3118 435.387 87.3153 430.398 87.3167 425.408C87.3204 420.018 87.3355 414.627 87.3493 409.237C87.3715 399.906 87.3866 390.576 87.3967 381.245C87.4113 367.755 87.4368 354.264 87.465 340.774C87.5104 318.885 87.5471 296.996 87.5781 275.106C87.6083 253.847 87.6427 232.588 87.6826 211.329C87.6851 209.991 87.6876 208.653 87.6901 207.316C87.7096 196.957 87.7293 186.598 87.749 176.239C87.8458 125.493 87.9214 74.7463 88 24ZM236.625 46.5C213.375 62.5821 187.429 71.1691 159.129 71.5347C154.032 71.6529 150.405 72.1337 146 75C138.404 90.1927 147.59 119.079 152.585 134.217C153.368 136.487 154.175 138.745 155 141C155.262 141.718 155.523 142.437 155.792 143.177C163.485 163.889 174.879 182.629 189.949 198.797C191.887 200.878 193.727 203.016 195.562 205.188C199.067 209.195 202.925 212.587 207 216C207.994 216.847 208.988 217.694 210.012 218.566C215.989 223.659 221.994 228.718 228.102 233.652C230.281 235.418 232.437 237.202 234.586 239.004C235.828 240.024 237.07 241.044 238.312 242.062C239.175 242.797 239.175 242.797 240.054 243.547C242.746 245.726 244.692 246.949 248.133 247.516C251.525 246.906 252.97 245.937 255.562 243.688C256.85 242.593 256.85 242.593 258.164 241.477C259.1 240.659 260.036 239.842 261 239C262.59 237.649 264.186 236.304 265.782 234.96C267.447 233.555 269.106 232.143 270.766 230.73C273.706 228.237 276.69 225.801 279.688 223.375C284.14 219.751 288.429 215.984 292.664 212.109C294.755 210.221 296.896 208.424 299.062 206.625C304.026 202.301 307.935 197.151 312 192C312.682 191.184 313.364 190.368 314.066 189.527C319.415 183.091 323.831 176.247 328 169C328.335 168.421 328.671 167.842 329.016 167.246C338.073 151.45 344.04 134.746 348 117C348.248 115.895 348.248 115.895 348.5 114.767C350.479 105.578 351.304 96.5229 351.438 87.125C351.46 86.1791 351.482 85.2331 351.505 84.2585C351.533 78.9935 351.533 78.9935 349.16 74.4297C346.039 72.3642 343.505 71.8802 339.852 71.8242C308.003 71.0234 279.564 62.027 254.039 42.7656C246.822 38.5729 242.636 42.1441 236.625 46.5ZM194 235C193.467 235.931 192.934 236.862 192.385 237.822C188.487 243.45 184.388 247.334 177.504 248.687C167.841 249.512 158.149 249.114 148.471 248.718C142.138 248.474 135.8 248.357 129.464 248.222C127.263 248.165 125.066 248.082 122.866 247.994C121.514 247.951 120.161 247.908 118.809 247.866C117.636 247.82 116.462 247.774 115.254 247.727C111.439 248.047 109.18 248.874 106 251C103.808 254.698 103.743 258.109 103.725 262.347C103.716 263.609 103.706 264.871 103.696 266.17C103.697 267.539 103.698 268.908 103.699 270.277C103.695 271.691 103.691 273.104 103.686 274.517C103.679 277.475 103.679 280.433 103.684 283.391C103.69 287.172 103.673 290.952 103.65 294.733C103.635 297.65 103.634 300.568 103.637 303.486C103.637 304.879 103.632 306.273 103.622 307.666C103.609 309.618 103.618 311.571 103.628 313.523C103.627 314.632 103.626 315.74 103.626 316.882C104.068 320.567 104.961 322.9 107 326C110.698 328.192 114.109 328.257 118.347 328.275C119.609 328.284 120.871 328.294 122.17 328.304C123.539 328.303 124.908 328.302 126.277 328.301C127.691 328.305 129.104 328.309 130.517 328.314C133.475 328.321 136.433 328.321 139.391 328.316C143.172 328.31 146.952 328.327 150.733 328.35C153.65 328.365 156.568 328.366 159.486 328.363C160.879 328.363 162.273 328.368 163.666 328.378C165.618 328.391 167.571 328.382 169.523 328.372C170.632 328.373 171.74 328.374 172.882 328.374C176.567 327.932 178.9 327.039 182 325C184.011 321.546 184.21 318.73 184.001 314.793C183.958 313.776 183.914 312.759 183.868 311.712C183.816 310.62 183.765 309.528 183.711 308.402C182.388 265.663 182.388 265.663 192.219 255.061C196.257 251.602 200.312 248.522 205 246C204.11 244.912 203.213 243.83 202.312 242.75C201.564 241.845 201.564 241.845 200.801 240.922C198.709 238.689 196.422 236.865 194 235ZM194 331C193.467 331.931 192.934 332.862 192.385 333.822C188.487 339.45 184.388 343.334 177.504 344.687C167.841 345.512 158.149 345.114 148.471 344.718C142.138 344.474 135.8 344.357 129.464 344.222C127.263 344.165 125.066 344.082 122.866 343.994C121.514 343.951 120.161 343.908 118.809 343.866C117.636 343.82 116.462 343.774 115.254 343.727C111.439 344.047 109.18 344.874 106 347C103.808 350.698 103.743 354.109 103.725 358.347C103.716 359.609 103.706 360.871 103.696 362.17C103.697 363.539 103.698 364.908 103.699 366.277C103.695 367.691 103.691 369.104 103.686 370.517C103.679 373.475 103.679 376.433 103.684 379.391C103.69 383.172 103.673 386.952 103.65 390.733C103.635 393.65 103.634 396.568 103.637 399.486C103.637 400.879 103.632 402.273 103.622 403.666C103.609 405.618 103.618 407.571 103.628 409.523C103.627 410.632 103.626 411.74 103.626 412.882C104.068 416.567 104.961 418.9 107 422C110.698 424.192 114.109 424.257 118.347 424.275C119.609 424.284 120.871 424.294 122.17 424.304C123.539 424.303 124.908 424.302 126.277 424.301C127.691 424.305 129.104 424.309 130.517 424.314C133.475 424.321 136.433 424.321 139.391 424.316C143.172 424.31 146.952 424.327 150.733 424.35C153.65 424.365 156.568 424.366 159.486 424.363C160.879 424.363 162.273 424.368 163.666 424.378C165.618 424.391 167.571 424.382 169.523 424.372C170.632 424.373 171.74 424.374 172.882 424.374C176.567 423.932 178.9 423.039 182 421C184.011 417.546 184.21 414.73 184.001 410.793C183.958 409.776 183.914 408.759 183.868 407.712C183.816 406.62 183.765 405.528 183.711 404.402C182.388 361.663 182.388 361.663 192.219 351.061C196.257 347.602 200.312 344.522 205 342C204.11 340.912 203.213 339.83 202.312 338.75C201.564 337.845 201.564 337.845 200.801 336.922C198.709 334.689 196.422 332.865 194 331Z" fill="white"/>
<path d="M328 232C328.015 233.18 328.029 234.361 328.044 235.577C328.102 239.971 328.18 244.366 328.262 248.76C328.296 250.659 328.324 252.558 328.346 254.457C328.38 257.193 328.432 259.928 328.488 262.664C328.495 263.508 328.501 264.352 328.508 265.222C328.733 274.335 332.627 279.084 338.898 285.297C339.906 286.309 339.906 286.309 340.935 287.342C342.352 288.761 343.772 290.176 345.196 291.587C347.371 293.746 349.53 295.921 351.688 298.098C353.069 299.477 354.452 300.856 355.836 302.234C356.479 302.883 357.122 303.532 357.784 304.201C358.395 304.802 359.005 305.403 359.634 306.022C360.165 306.551 360.695 307.079 361.242 307.623C369.79 314.319 382.132 311.589 392 312C392 343.68 392 375.36 392 408C384.08 408.33 376.16 408.66 368 409C360.226 411.964 360.226 411.964 353.274 415.754C339.656 423.985 328.711 425.561 312.996 425.215C310.771 425.204 308.546 425.198 306.322 425.196C301.708 425.181 297.097 425.13 292.484 425.05C286.571 424.947 280.66 424.911 274.747 424.898C270.175 424.886 265.604 424.851 261.032 424.808C258.85 424.788 256.668 424.771 254.486 424.759C251.454 424.736 248.424 424.687 245.392 424.629C244.047 424.624 244.047 424.624 242.674 424.62C241.849 424.598 241.024 424.577 240.174 424.555C239.46 424.544 238.746 424.534 238.011 424.523C236 424 236 424 232 420C232 416.04 232 412.08 232 408C253.12 408 274.24 408 296 408C296 402.72 296 397.44 296 392C274.88 392 253.76 392 232 392C232 386.72 232 381.44 232 376C253.12 376 274.24 376 296 376C296 370.72 296 365.44 296 360C274.88 360 253.76 360 232 360C232 354.72 232 349.44 232 344C253.12 344 274.24 344 296 344C296 338.72 296 333.44 296 328C274.88 328 253.76 328 232 328C232 316 232 316 236 312C239.029 311.494 239.029 311.494 242.617 311.486C243.273 311.479 243.929 311.472 244.604 311.464C246.766 311.445 248.928 311.453 251.09 311.461C252.597 311.451 254.104 311.439 255.61 311.425C259.576 311.393 263.54 311.382 267.505 311.378C273.848 311.37 280.191 311.334 286.533 311.286C288.745 311.274 290.957 311.274 293.168 311.276C294.53 311.27 295.892 311.263 297.254 311.255C299.031 311.253 299.031 311.253 300.844 311.252C304.078 310.994 306.203 310.646 309 309C311.123 305.332 311.25 302.015 311.255 297.836C311.262 296.615 311.269 295.393 311.276 294.135C311.275 292.167 311.275 292.167 311.273 290.16C311.282 288.792 311.292 287.423 311.303 286.055C311.349 280.259 311.374 274.463 311.381 268.667C311.386 265.114 311.41 261.562 311.446 258.01C311.461 256.008 311.453 254.006 311.446 252.004C311.568 240.699 311.568 240.699 316 236C320.225 232.51 322.615 231.805 328 232Z" fill="white"/>
<path d="M24.0002 232C39.8402 232 55.6802 232 72.0002 232C72.0884 262.311 72.1623 292.622 72.2045 322.933C72.2095 326.513 72.2146 330.093 72.2199 333.672C72.221 334.385 72.222 335.098 72.2231 335.832C72.2405 347.366 72.272 358.9 72.3088 370.434C72.3462 382.272 72.3684 394.11 72.3766 405.948C72.3815 412.596 72.394 419.244 72.4231 425.892C72.4503 432.15 72.4586 438.407 72.4526 444.665C72.4537 446.961 72.4617 449.258 72.477 451.554C72.4969 454.691 72.4921 457.827 72.4812 460.965C72.4929 461.871 72.5045 462.778 72.5165 463.712C72.4509 470.7 70.6732 475.95 66.0354 481.242C65.3844 481.781 64.7334 482.32 64.0627 482.875C63.4143 483.429 62.7659 483.984 62.0979 484.555C55.5966 489.034 48.6288 488.675 41.0002 488C34.3406 486.319 29.8147 481.536 26.0002 476C23.4641 471.221 23.7261 466.596 23.7597 461.325C23.758 460.345 23.7563 459.365 23.7545 458.355C23.7512 455.068 23.7622 451.78 23.7731 448.493C23.7737 446.138 23.7734 443.782 23.7723 441.427C23.7717 435.028 23.7835 428.63 23.7974 422.232C23.8096 416.224 23.8107 410.216 23.8127 404.208C23.8171 392.309 23.8304 380.41 23.8493 368.511C23.8677 356.953 23.8818 345.395 23.8903 333.837C23.8909 333.125 23.8914 332.412 23.8919 331.678C23.8945 328.103 23.8971 324.528 23.8996 320.953C23.9203 291.302 23.9571 261.651 24.0002 232Z" fill="white"/>
<path d="M408 296C434.4 296 460.8 296 488 296C488 338.24 488 380.48 488 424C461.6 424 435.2 424 408 424C408 381.76 408 339.52 408 296Z" fill="white"/>
<path d="M248.468 58.0625C251.561 59.208 254.053 60.7525 256.812 62.5625C281.279 78.0472 307.319 84.7133 336 87C337.778 124.576 319.136 162.612 294.585 190.02C286.377 199.011 277.387 206.997 267.906 214.625C265.772 216.369 263.675 218.132 261.593 219.938C261.016 220.436 260.439 220.934 259.845 221.448C258.726 222.417 257.611 223.391 256.502 224.371C253.488 226.972 250.798 228.773 247 230C246.189 229.31 245.378 228.621 244.543 227.91C239.251 223.417 233.952 218.939 228.562 214.563C191.504 184.331 165.049 146.808 160 98C159.938 96.0009 159.912 94 159.937 92C159.946 91.0513 159.955 90.1025 159.964 89.125C159.976 88.4238 159.988 87.7225 160 87C161.272 86.9137 162.544 86.8273 163.855 86.7383C192.307 84.565 220.353 76.6519 243.449 59.3711C246 58 246 58 248.468 58.0625ZM236.312 86.6875C222.016 96.579 207.644 101.957 190.216 103.229C185.537 103.617 182.084 104.473 178 107C174.949 113.102 177.776 120.567 179.741 126.576C189.641 156.008 208.33 177.777 232.402 196.922C234.194 198.355 235.956 199.827 237.691 201.328C238.556 202.066 239.421 202.803 240.312 203.563C241.071 204.224 241.831 204.885 242.613 205.566C245.687 207.413 247.466 207.49 251 207C253.337 205.749 253.337 205.749 255.437 203.813C256.292 203.086 257.146 202.358 258.027 201.609C259.008 200.748 259.989 199.887 261 199C262.208 197.962 263.418 196.926 264.629 195.891C267.855 193.123 271.06 190.333 274.255 187.529C275.787 186.186 277.327 184.85 278.867 183.516C297.943 166.757 316.139 141.014 319.238 115C319.374 111.339 319.436 109.587 317.187 106.563C313.66 104.043 310.433 103.816 306.2 103.456C289.386 101.964 274.407 97.4628 260.519 87.5508C259.941 87.138 259.362 86.7252 258.766 86.2998C257.153 85.1284 255.562 83.9264 253.972 82.7227C246.697 78.5068 242.367 82.3182 236.312 86.6875Z" fill="white"/>
<path d="M248.379 98.082C251.593 99.2075 254.098 100.807 256.938 102.687C270.682 111.458 286.015 116.201 302 119C301.454 124.229 300.204 128.681 298.062 133.5C297.603 134.535 297.603 134.535 297.134 135.591C288.871 153.496 275.663 167.17 261 180C260.493 180.446 259.987 180.892 259.465 181.352C250.721 189 250.721 189 246 189C244.328 187.949 244.328 187.949 242.68 186.473C242.067 185.932 241.454 185.392 240.823 184.835C240.18 184.25 239.537 183.665 238.875 183.062C237.873 182.169 237.873 182.169 236.851 181.258C235.509 180.061 234.172 178.859 232.837 177.654C231.288 176.259 229.718 174.887 228.145 173.519C212.464 159.833 200.124 143.103 194 123C194 121.68 194 120.36 194 119C194.836 118.82 194.836 118.82 195.69 118.636C212.432 114.98 230.745 110.861 244.02 99.2304C246 97.9999 246 97.9999 248.379 98.082Z" fill="white"/>
<path d="M120 360C134.85 360 149.7 360 165 360C158.25 367.875 158.25 367.875 155.352 370.746C154.739 371.355 154.127 371.964 153.496 372.592C152.879 373.201 152.261 373.81 151.625 374.438C150.664 375.392 150.664 375.392 149.684 376.365C148.125 377.913 146.563 379.457 145 381C141.819 379.491 139.701 377.921 137.25 375.375C136.636 374.743 136.023 374.112 135.391 373.461C134.932 372.979 134.473 372.497 134 372C132.891 372.911 131.788 373.829 130.688 374.75C129.765 375.516 129.765 375.516 128.824 376.297C126.939 378.057 125.52 379.923 124 382C126.454 384.483 128.914 386.961 131.375 389.438C132.074 390.145 132.772 390.852 133.492 391.58C134.163 392.254 134.833 392.927 135.523 393.621C136.141 394.244 136.759 394.867 137.396 395.51C139.484 397.449 140.81 397.964 143.625 398.5C151.524 397.33 157.636 388.448 163.051 382.913C164.35 381.591 165.673 380.293 167 379C167.33 379 167.66 379 168 379C168 388.57 168 398.14 168 408C152.16 408 136.32 408 120 408C120 392.16 120 376.32 120 360Z" fill="white"/>
<path d="M120 264C134.85 264 149.7 264 165 264C158.25 271.875 158.25 271.875 155.352 274.746C154.739 275.355 154.127 275.964 153.496 276.592C152.879 277.201 152.261 277.81 151.625 278.438C150.664 279.392 150.664 279.392 149.684 280.365C148.125 281.913 146.563 283.457 145 285C141.819 283.491 139.701 281.921 137.25 279.375C136.636 278.743 136.023 278.112 135.391 277.461C134.932 276.979 134.473 276.497 134 276C132.891 276.911 131.788 277.829 130.688 278.75C129.765 279.516 129.765 279.516 128.824 280.297C126.939 282.057 125.52 283.923 124 286C126.454 288.483 128.914 290.961 131.375 293.438C132.074 294.145 132.772 294.852 133.492 295.58C134.163 296.254 134.833 296.927 135.523 297.621C136.141 298.244 136.759 298.867 137.396 299.51C139.484 301.449 140.81 301.964 143.625 302.5C151.524 301.33 157.636 292.448 163.051 286.913C164.35 285.591 165.673 284.293 167 283C167.33 283 167.66 283 168 283C168 292.57 168 302.14 168 312C152.16 312 136.32 312 120 312C120 296.16 120 280.32 120 264Z" fill="white"/>
</svg>
