<svg width="512" height="512" viewBox="0 0 512 512" fill="none" xmlns="http://www.w3.org/2000/svg">
<g clip-path="url(#clip0_177_76)">
<path d="M373 211C378.371 210.9 383.742 210.828 389.113 210.78C390.937 210.76 392.76 210.733 394.583 210.698C406.244 210.481 415.299 210.575 425.312 217.188C430.315 222.422 434.105 228.884 434.147 236.248C434.158 237.548 434.158 237.548 434.169 238.873C434.172 239.821 434.174 240.768 434.177 241.745C434.184 242.745 434.19 243.745 434.197 244.776C434.217 248.093 434.228 251.41 434.238 254.727C434.242 255.86 434.246 256.993 434.251 258.161C434.272 264.163 434.286 270.164 434.295 276.166C434.306 282.356 434.341 288.546 434.38 294.737C434.407 299.503 434.415 304.269 434.418 309.036C434.423 311.317 434.435 313.599 434.453 315.88C434.478 319.08 434.477 322.279 434.47 325.479C434.489 326.882 434.489 326.882 434.509 328.314C434.447 336.14 432.185 343.762 426.667 349.597C415.4 359.079 402.784 357.783 388.859 357.586C386.522 357.575 384.185 357.566 381.848 357.56C375.733 357.537 369.618 357.479 363.502 357.412C357.248 357.35 350.993 357.323 344.738 357.293C332.492 357.229 320.246 357.127 308 357C306.452 373.82 306.452 373.82 311.426 389.203C313.94 391.871 316.782 394.079 319.763 396.201C326.148 400.812 332.801 406.129 335.18 413.809C336.418 421.829 335.448 430.068 334 438C334.764 438.132 335.529 438.263 336.316 438.398C342.805 439.853 347.318 444.722 351 450C354.794 456.451 354.795 463.719 354 471C351.819 479.171 346.809 485.647 339.562 489.938C332.288 493.256 323.876 493.347 316.215 491.23C308.527 488.009 303.805 483.346 300 476C297.121 468.598 296.904 461.271 299.625 453.813C303.001 446.266 307.541 441.519 315 438C315.99 438 316.98 438 318 438C319.278 430.811 319.852 423.876 317 417C313.225 412.646 308.842 409.073 304.438 405.375C297.529 399.545 291.704 394.409 290.515 385.072C289.856 375.656 290.789 366.334 292 357C282.76 357 273.52 357 264 357C264 390.33 264 423.66 264 458C265.65 458.33 267.3 458.66 269 459C276.188 462.935 279.932 468.568 283.312 475.813C285.395 485.468 283.968 493.638 278.75 502.004C274.904 507.063 270.086 510.224 264 512C254.59 513.174 245.865 512.914 238 507C232.06 501.912 228.611 494.931 227.652 487.195C227.379 478.618 229.595 471.72 235 465C239.311 461.132 242.211 459.158 248 458C248 424.67 248 391.34 248 357C238.76 357 229.52 357 220 357C220.29 359.237 220.58 361.473 220.879 363.777C223.297 387.998 223.297 387.998 217.562 395.773C214.01 399.892 209.937 403.382 205.781 406.871C197.349 413.581 197.349 413.581 193.117 423.199C192.724 428.252 193.115 433.02 194 438C194.744 438.115 195.488 438.229 196.254 438.348C201.666 439.633 205.568 443.04 208.812 447.48C213.266 454.729 214.858 460.48 214 469C212.12 476.55 209.504 483.085 202.785 487.434C194.578 492.129 187.336 492.81 178 492C169.814 489.692 164.196 484.365 159.906 477.164C156.887 470.539 156.867 462.41 158.656 455.445C161.401 448.608 165.978 442.86 172.25 439C175 438 175 438 178 438C177.869 437.283 177.738 436.565 177.603 435.826C174.423 415.559 174.423 415.559 179.099 408.292C182.933 403.649 187.629 399.864 192.219 396C198.7 390.464 203.826 386.014 204.883 377.215C205.41 370.293 204.604 364.07 204 357C187.83 357 171.66 357 155 357C155 351.72 155 346.44 155 341C156.31 340.998 157.619 340.995 158.968 340.993C190.046 340.935 221.124 340.863 252.201 340.771C256.025 340.76 259.849 340.749 263.673 340.738C264.434 340.735 265.196 340.733 265.98 340.731C278.312 340.696 290.643 340.671 302.975 340.65C315.625 340.628 328.276 340.595 340.926 340.551C348.734 340.525 356.542 340.507 364.35 340.501C370.334 340.495 376.318 340.473 382.302 340.446C384.759 340.437 387.216 340.433 389.673 340.435C393.022 340.437 396.37 340.42 399.718 340.399C401.184 340.406 401.184 340.406 402.68 340.413C409.351 340.351 409.351 340.351 415 337C416.845 334.259 417.251 332.1 417.254 328.832C417.26 328.009 417.265 327.186 417.271 326.339C417.267 325.445 417.263 324.55 417.259 323.629C417.262 322.681 417.266 321.732 417.269 320.755C417.278 317.619 417.272 314.484 417.266 311.348C417.267 309.168 417.269 306.989 417.271 304.809C417.274 300.24 417.27 295.672 417.261 291.103C417.249 285.247 417.256 279.392 417.268 273.536C417.275 269.035 417.273 264.534 417.268 260.032C417.266 257.874 417.268 255.715 417.273 253.556C417.278 250.537 417.27 247.519 417.259 244.5C417.265 243.162 417.265 243.162 417.271 241.797C417.242 237.486 417.214 233.838 415 230C410.374 227.707 405.611 227.663 400.539 227.586C399.748 227.567 398.958 227.547 398.143 227.527C395.637 227.468 393.131 227.421 390.625 227.375C388.918 227.337 387.211 227.298 385.504 227.258C381.336 227.161 377.168 227.081 373 227C373 221.72 373 216.44 373 211ZM178 455C175.143 458.224 174.109 460.234 173.5 464.5C174.18 469.259 175.947 472.387 179.75 475.375C184.171 476.603 187.928 477.08 192.039 474.938C195.34 472.438 197.383 470.19 198.188 466.063C198.324 462.317 197.423 459.601 195.383 456.477C192.941 453.869 190.385 453.066 187 452C183.653 452 180.829 453.324 178 455ZM318 455C315.49 457.68 314.209 460.382 313.738 464.023C313.89 468.178 315.089 470.602 318.062 473.5C320.716 475.49 322.743 476.434 326.062 476.625C331.06 475.832 334.282 474.264 337.375 470.188C338.706 465.528 338.54 462.122 336.438 457.75C333.409 454.334 331.294 453.431 327 452C323.623 452 320.811 453.238 318 455ZM248 475C245.469 477.657 244.129 479.51 243.809 483.215C244.046 487.539 244.652 489.572 247.438 493C251.559 496.217 254.863 496.533 260 496C263.543 494.583 264.741 493.401 266.812 490.188C268.106 486.715 268.534 484.665 268 481C266.079 477.082 264.324 474.881 260.375 473.125C255.46 471.487 252.415 472.41 248 475Z" fill="black"/>
<path d="M104.537 210.877C105.448 210.875 106.358 210.873 107.296 210.871C108.79 210.875 108.79 210.875 110.314 210.88C111.375 210.879 112.436 210.878 113.529 210.877C117.096 210.876 120.663 210.881 124.23 210.887C126.782 210.887 129.334 210.887 131.887 210.886C137.387 210.886 142.888 210.889 148.389 210.894C156.342 210.902 164.295 210.905 172.249 210.906C185.152 210.908 198.055 210.915 210.959 210.925C223.494 210.934 236.029 210.941 248.563 210.945C249.336 210.945 250.109 210.946 250.905 210.946C254.78 210.947 258.656 210.948 262.532 210.95C294.688 210.96 326.844 210.978 359 211C359 216.28 359 221.56 359 227C357.687 227.003 356.373 227.007 355.019 227.01C323.835 227.089 292.652 227.178 261.468 227.28C257.63 227.293 253.793 227.305 249.955 227.317C249.191 227.32 248.427 227.322 247.64 227.325C235.267 227.365 222.894 227.397 210.521 227.428C197.826 227.459 185.132 227.497 172.437 227.543C164.603 227.571 156.769 227.593 148.935 227.607C142.93 227.619 136.924 227.641 130.918 227.667C128.453 227.677 125.988 227.682 123.524 227.684C120.163 227.688 116.802 227.703 113.441 227.722C112.462 227.72 111.483 227.718 110.475 227.716C105.625 227.756 101.499 227.948 97.0004 230C94.1476 234.264 94.7191 239.547 94.7416 244.5C94.7381 245.45 94.7346 246.401 94.731 247.38C94.7222 250.515 94.728 253.65 94.7347 256.785C94.7334 258.966 94.7315 261.146 94.7289 263.327C94.726 267.894 94.7303 272.461 94.7396 277.028C94.751 282.884 94.7445 288.741 94.7325 294.598C94.7253 299.099 94.7276 303.6 94.7327 308.101C94.7341 310.261 94.7324 312.421 94.7278 314.581C94.7227 317.597 94.7304 320.613 94.7416 323.629C94.7375 324.523 94.7335 325.417 94.7293 326.339C94.7349 327.162 94.7406 327.984 94.7464 328.832C94.7475 329.901 94.7475 329.901 94.7487 330.991C95.1832 334.46 96.3962 336.496 99.0616 338.718C103.093 340.477 106.664 340.478 111.02 340.512C111.878 340.53 112.737 340.548 113.622 340.566C116.352 340.62 119.082 340.654 121.813 340.688C123.669 340.721 125.525 340.755 127.381 340.791C131.921 340.876 136.46 340.943 141 341C141 346.28 141 351.56 141 357C135.239 357.15 129.478 357.258 123.715 357.33C121.76 357.36 119.805 357.4 117.85 357.453C96.136 358.019 96.136 358.019 87.0004 351C79.4928 343.333 77.6997 336.406 77.7098 325.915C77.7031 324.914 77.6964 323.913 77.6895 322.882C77.6705 319.582 77.6666 316.281 77.6644 312.981C77.658 310.679 77.6513 308.377 77.6443 306.076C77.6323 301.253 77.6286 296.431 77.6298 291.608C77.63 285.441 77.6027 279.275 77.5682 273.108C77.5459 268.354 77.5419 263.601 77.543 258.847C77.5406 256.574 77.5318 254.301 77.5163 252.029C77.4966 248.843 77.5025 245.659 77.5145 242.473C77.5033 241.543 77.492 240.612 77.4805 239.653C77.5549 231.852 79.8589 226.182 84.1879 219.75C89.9204 214.145 96.4886 210.873 104.537 210.877Z" fill="black"/>
<path d="M155 29C156.946 31.3008 156.946 31.3008 159.125 34.3125C160.212 35.7917 160.212 35.7917 161.321 37.3008C163 40 163 40 163 43C161.024 44.8672 161.024 44.8672 158.375 46.875C157.459 47.584 156.542 48.293 155.598 49.0234C154.741 49.6757 153.883 50.328 153 51C148.019 54.8389 143.984 59.1562 140 64C139.236 64.9152 138.471 65.8305 137.684 66.7734C127.03 80.0117 119.77 94.3369 114.278 110.379C113 114 113 114 112 115C109.856 115.214 107.712 115.422 105.564 115.594C79.1421 117.739 56.295 127.352 38.3338 147.417C19.7002 169.543 15.0965 195.064 17.2449 223.204C17.4791 225.805 17.7278 228.403 18.0003 231C16.0868 231.533 14.1694 232.051 12.2503 232.562C11.1829 232.853 10.1156 233.143 9.01591 233.441C6.06819 233.987 4.78259 233.822 2.00029 233C0.107487 224.545 -0.351244 216.399 -0.312211 207.75C-0.307296 206.466 -0.302382 205.182 -0.297318 203.859C-0.186069 194.868 0.37927 186.648 3.00029 178C3.329 176.877 3.65771 175.754 3.99638 174.598C8.47489 160.821 15.3271 147.812 25.0003 137C25.7093 136.161 26.4183 135.322 27.1487 134.457C46.0648 112.521 72.6438 101.351 101 99C101.097 98.3336 101.194 97.6671 101.293 96.9805C105.526 79.1356 118.57 61.9638 131 49C132.13 47.6499 133.255 46.2958 134.375 44.9375C138.681 39.9768 143.828 36.0159 149 32C149.729 31.4186 150.457 30.8373 151.207 30.2383C153 29 153 29 155 29Z" fill="black"/>
<path d="M434 78C443.247 82.6234 447 94.7885 450.152 104.111C451.573 108.669 452.198 112.796 452.356 117.555C452.491 120.977 452.872 123.753 454 127C458.073 130.277 462.35 132.138 467.139 134.146C471.7 136.238 475.325 139.652 479 143C479.966 143.873 480.931 144.745 481.926 145.645C498.733 161.354 510.796 183.724 512.177 206.982C512.723 234.907 508.602 258.985 490 281C489.344 281.802 488.688 282.604 488.012 283.43C477.862 295.342 466.047 302.544 452 309C449.288 306.631 448.078 304.329 446.75 301C446.394 300.134 446.038 299.267 445.672 298.375C445 296 445 296 446 293C448.371 291.676 448.371 291.676 451.438 290.312C457.744 287.298 462.715 283.523 468 279C469.011 278.257 470.021 277.515 471.062 276.75C483.856 265.83 493.089 246.512 495 230C497.026 203.15 490.547 181.203 472.988 160.645C463.988 150.979 452.782 144.934 440.668 140.094C438 139 438 139 437 138C436.904 135.974 436.815 133.946 436.761 131.918C436.314 116.505 432.817 104.343 425 91C424.34 89.68 423.68 88.36 423 87C426.63 84.03 430.26 81.06 434 78Z" fill="black"/>
<path d="M243.437 -0.375018C244.201 -0.370365 244.965 -0.365712 245.752 -0.360919C257.064 -0.280294 268.009 0.144155 279 2.99998C279.766 3.18802 280.533 3.37607 281.323 3.56981C303.967 9.24198 331.594 20.844 346.943 39.3423C349.995 42.9836 352.338 45.6438 357.092 46.6628C360.618 46.7422 364.046 46.5783 367.562 46.3125C378.611 45.8918 387.559 46.2704 398 50C399.045 50.3506 400.091 50.7012 401.168 51.0625C409.535 54.18 419.96 59.4406 425 67C421.7 70.63 418.4 74.26 415 78C411.994 76.4973 409.155 74.9068 406.279 73.1819C394.837 66.3851 383.731 62.8252 370.375 62.8125C369.175 62.793 369.175 62.793 367.951 62.7732C363.119 62.7581 359.519 63.4102 354.937 65.0625C352.113 65.6445 352.113 65.6445 349 65C344.168 61.4676 340.261 56.8748 336.23 52.4844C330.81 46.5949 324.782 42.1911 318 38C317.367 37.6088 316.735 37.2175 316.083 36.8144C286.14 18.6036 249.033 11.3426 214.549 19.2341C212.353 19.7847 210.176 20.379 208 21C207.338 21.1819 206.677 21.3638 205.995 21.5513C197.398 23.972 189.485 27.4575 181.544 31.4971C176.312 34.1041 176.312 34.1041 173 33C171.359 30.8554 171.359 30.8555 169.75 28.1875C169.208 27.3148 168.667 26.4421 168.109 25.543C167 23 167 23 167.181 20.989C168.276 18.3278 169.417 17.8708 171.988 16.6328C172.83 16.2249 173.671 15.817 174.538 15.3967C175.911 14.7672 175.911 14.7672 177.312 14.125C178.255 13.6866 179.198 13.2483 180.169 12.7966C186.411 9.97451 192.694 7.55038 199.25 5.56248C199.979 5.34028 200.707 5.11808 201.458 4.88914C215.359 0.955415 229.049 -0.532455 243.437 -0.375018Z" fill="black"/>
<path d="M304.68 248.617C312.493 253.273 316.495 259.376 319 268C319.505 272.348 319.469 276.635 319.391 281.008C319.385 282.214 319.379 283.421 319.374 284.664C319.351 288.485 319.301 292.305 319.25 296.125C319.23 298.729 319.212 301.333 319.195 303.938C319.151 310.292 319.083 316.646 319 323C313.72 323 308.44 323 303 323C303 318.05 303 313.1 303 308C295.08 308 287.16 308 279 308C279 312.95 279 317.9 279 323C273.72 323 268.44 323 263 323C262.926 315.474 262.871 307.949 262.835 300.423C262.82 297.865 262.8 295.308 262.774 292.75C262.737 289.064 262.72 285.378 262.707 281.691C262.692 280.557 262.676 279.422 262.66 278.253C262.658 267.789 264.546 260.624 271.805 252.949C280.941 244.837 293.712 243.574 304.68 248.617ZM280.336 267.969C278.322 272.539 278.684 276.884 278.813 281.813C278.874 285.174 278.936 288.536 279 292C286.92 292 294.84 292 303 292C303.062 288.638 303.124 285.276 303.188 281.813C303.215 280.762 303.242 279.711 303.27 278.628C303.346 271.812 303.346 271.812 300 266C296.971 263.509 294.881 262.147 291 261.5C286.347 262.276 283.361 264.39 280.336 267.969Z" fill="black"/>
<path d="M235 249C242.373 254.182 247.14 260.13 249 269C249.086 270.802 249.118 272.607 249.114 274.411C249.114 275.492 249.113 276.573 249.113 277.686C249.108 278.847 249.103 280.007 249.098 281.203C249.096 282.396 249.095 283.589 249.093 284.818C249.088 288.629 249.075 292.439 249.063 296.25C249.058 298.833 249.053 301.417 249.049 304C249.038 310.333 249.021 316.667 249 323C243.72 323 238.44 323 233 323C233 318.05 233 313.1 233 308C225.08 308 217.16 308 209 308C209 312.95 209 317.9 209 323C203.72 323 198.44 323 193 323C192.901 315.35 192.828 307.701 192.78 300.051C192.76 297.451 192.733 294.852 192.698 292.253C192.649 288.504 192.627 284.757 192.609 281.008C192.589 279.856 192.568 278.705 192.547 277.519C192.545 269.165 193.986 262.356 198.789 255.414C208.644 245.811 222.342 242.278 235 249ZM210.336 267.969C208.322 272.539 208.684 276.884 208.813 281.812C208.874 285.174 208.936 288.536 209 292C216.92 292 224.84 292 233 292C233.083 288.659 233.165 285.317 233.25 281.875C233.305 280.312 233.305 280.312 233.36 278.718C233.431 272.793 232.942 269.505 229 265C226.26 262.837 224.514 262.076 221.063 261.562C216.352 262.235 213.384 264.363 210.336 267.969Z" fill="black"/>
<path d="M359.242 245.805C360.011 245.807 360.779 245.81 361.571 245.813C364.006 245.824 366.44 245.849 368.875 245.875C370.534 245.885 372.193 245.894 373.852 245.902C377.901 245.923 381.95 245.962 386 246C386 251.28 386 256.56 386 262C383.736 262.026 381.473 262.052 379.141 262.078C376.943 262.117 374.745 262.162 372.548 262.207C371.023 262.236 369.498 262.257 367.974 262.271C365.779 262.292 363.585 262.339 361.391 262.391C360.071 262.412 358.751 262.432 357.392 262.454C353.952 262.739 353.952 262.739 351.534 264.843C349.689 266.983 349.689 266.983 350.062 270.125C350.767 273.292 350.767 273.292 354 275C356.748 275.227 359.436 275.365 362.187 275.437C370.421 275.815 376.467 276.415 382.812 282.25C388.319 288.297 389.572 294.031 389.352 302.062C388.544 308.806 385.223 313.727 380 318C374.505 321.45 369.995 322.574 363.562 322.391C362.797 322.385 362.031 322.379 361.243 322.373C358.828 322.351 356.414 322.301 354 322.25C352.35 322.23 350.701 322.212 349.051 322.195C345.033 322.155 341.018 322.077 337 322C337 316.72 337 311.44 337 306C339.275 305.963 341.55 305.925 343.895 305.887C346.099 305.84 348.303 305.789 350.507 305.738C352.039 305.704 353.57 305.676 355.102 305.654C357.304 305.62 359.505 305.568 361.707 305.512C362.391 305.505 363.076 305.499 363.781 305.492C366.619 305.405 368.565 305.303 370.928 303.655C372.638 301.014 372.445 299.054 372 296C369.486 293.247 367.962 292.996 364.207 292.629C362.742 292.599 361.277 292.577 359.812 292.562C351.282 292.247 344.715 291.209 338.625 284.75C334.614 279.525 332.332 273.825 332.66 267.137C333.872 259.515 336.941 254.313 342.805 249.375C348.045 246.093 353.2 245.72 359.242 245.805Z" fill="black"/>
<path d="M149.024 245.805C149.77 245.807 150.516 245.81 151.285 245.813C153.648 245.824 156.012 245.849 158.375 245.875C159.986 245.885 161.597 245.894 163.207 245.902C167.138 245.923 171.069 245.962 175 246C175 251.28 175 256.56 175 262C172.809 262.037 170.617 262.075 168.36 262.113C166.231 262.16 164.103 262.211 161.975 262.262C160.499 262.296 159.023 262.324 157.547 262.346C155.421 262.38 153.297 262.432 151.172 262.488C149.894 262.514 148.616 262.541 147.3 262.568C143.853 263.019 142.381 263.504 140 266C139.417 269 139.417 269 140 272C141.229 273.738 141.229 273.738 143 275C145.9 275.251 148.663 275.362 151.563 275.375C159.84 275.629 166.154 276.816 172.602 282.383C176.996 287.086 178.733 292.631 179.438 298.875C179.086 306.038 176.392 312.146 171.125 317C165.59 321.661 159.792 322.294 152.758 322.195C151.99 322.192 151.221 322.19 150.43 322.187C147.995 322.176 145.56 322.151 143.125 322.125C141.466 322.115 139.807 322.106 138.149 322.098C134.099 322.077 130.05 322.038 126 322C126 316.72 126 311.44 126 306C128.264 305.974 130.527 305.948 132.86 305.922C135.057 305.883 137.255 305.838 139.452 305.792C140.977 305.764 142.502 305.743 144.027 305.729C146.222 305.708 148.415 305.661 150.61 305.609C152.589 305.578 152.589 305.578 154.609 305.546C158.048 305.261 158.048 305.261 160.466 303.157C162.311 301.017 162.311 301.017 161.938 297.875C161.233 294.708 161.233 294.708 158 293C154.308 292.744 150.654 292.634 146.955 292.609C139.827 292.395 134.759 290.257 129.25 285.75C124.054 279.399 122.291 274.188 122.625 265.895C123.587 258.471 127.284 254.251 132.805 249.445C137.917 246.08 143.056 245.718 149.024 245.805Z" fill="black"/>
<path d="M248 78C253.28 78 258.56 78 264 78C264 106.38 264 134.76 264 164C258.72 164 253.44 164 248 164C248 135.62 248 107.24 248 78Z" fill="black"/>
<path d="M318 98C323.28 98 328.56 98 334 98C337.689 117.268 337.689 117.268 332.901 124.708C328.581 130.105 323.345 134.645 317.981 138.97C312.39 143.61 308.581 146.827 307.772 154.341C307.695 157.56 307.873 160.782 308 164C302.72 164 297.44 164 292 164C290.353 156.221 289.317 148.648 292 141C295.762 135.4 301.203 131.047 306.219 126.612C315.26 118.925 315.26 118.925 319.157 108.046C319.035 104.677 318.477 101.337 318 98Z" fill="black"/>
<path d="M177.999 98C183.279 98 188.559 98 193.999 98C193.648 100.454 193.298 102.909 192.937 105.438C192.737 110.957 193.888 114.695 197.5 118.936C200.737 122.147 204.147 125.168 207.562 128.188C220.509 139.655 220.509 139.655 221.655 147.711C221.827 153.289 221.153 158.55 219.999 164C214.719 164 209.439 164 203.999 164C204.093 161.606 204.187 159.212 204.284 156.746C204.148 151.042 203.205 147.303 199.064 143.269C196.821 141.315 194.552 139.401 192.236 137.533C177.636 125.599 177.636 125.599 176.343 115.836C176.17 109.756 176.857 103.964 177.999 98Z" fill="black"/>
<path d="M23 243C23.4963 243.978 23.9926 244.957 24.5039 245.965C28.4145 253.559 32.3978 260.499 38 267C38.5685 267.723 39.137 268.446 39.7227 269.191C47.0885 278.184 56.9332 284.396 67 290C66.5498 295.853 63.9616 300.082 61 305C50.1505 301.721 41.4338 294.346 33 287C32.3864 286.471 31.7728 285.943 31.1406 285.398C21.15 276.121 13.0937 263.587 8 251C8 250.01 8 249.02 8 248C9.93468 247.16 11.8729 246.328 13.8125 245.5C14.8914 245.036 15.9704 244.572 17.082 244.094C20 243 20 243 23 243Z" fill="black"/>
<path d="M292 178C297.28 178 302.56 178 308 178C308 183.28 308 188.56 308 194C302.72 194 297.44 194 292 194C292 188.72 292 183.44 292 178Z" fill="black"/>
<path d="M248 178C253.28 178 258.56 178 264 178C264 183.28 264 188.56 264 194C258.72 194 253.44 194 248 194C248 188.72 248 183.44 248 178Z" fill="black"/>
<path d="M204 178C209.28 178 214.56 178 220 178C220 183.28 220 188.56 220 194C214.72 194 209.44 194 204 194C204 188.72 204 183.44 204 178Z" fill="black"/>
<path d="M318 68C323.28 68 328.56 68 334 68C334 73.28 334 78.56 334 84C328.72 84 323.44 84 318 84C318 78.72 318 73.44 318 68Z" fill="black"/>
<path d="M178 68C183.28 68 188.56 68 194 68C194 73.28 194 78.56 194 84C188.72 84 183.44 84 178 84C178 78.72 178 73.44 178 68Z" fill="black"/>
<path d="M248 48C253.28 48 258.56 48 264 48C264 53.28 264 58.56 264 64C258.72 64 253.44 64 248 64C248 58.72 248 53.44 248 48Z" fill="black"/>
</g>
<defs>
<clipPath id="clip0_177_76">
<rect width="512" height="512" fill="white"/>
</clipPath>
</defs>
</svg>
