<svg width="512" height="512" viewBox="0 0 512 512" fill="none" xmlns="http://www.w3.org/2000/svg">
<g clip-path="url(#clip0_204_42)">
<path d="M130.479 1.59879C131.605 1.59199 132.731 1.58519 133.892 1.57819C137.65 1.55926 141.408 1.56165 145.166 1.56414C147.867 1.55516 150.568 1.54503 153.269 1.5336C159.836 1.50875 166.402 1.50044 172.968 1.49877C178.308 1.49734 183.648 1.49116 188.988 1.48166C204.147 1.45526 219.306 1.4414 234.466 1.44366C235.282 1.44377 236.098 1.44389 236.939 1.44402C237.756 1.44414 238.573 1.44426 239.415 1.44439C252.656 1.44561 265.897 1.4169 279.139 1.3746C292.753 1.33146 306.368 1.3108 319.983 1.31338C327.619 1.31438 335.255 1.30622 342.891 1.27385C349.393 1.24646 355.894 1.24007 362.396 1.26038C365.709 1.27014 369.021 1.26718 372.334 1.24432C400.068 1.06537 400.068 1.06537 411.499 12.1874C419.247 20.8016 419.577 31.9396 419.48 42.9138C419.482 44.4 419.485 45.8861 419.49 47.3723C419.499 51.4294 419.483 55.486 419.463 59.543C419.446 63.928 419.452 68.313 419.455 72.698C419.457 80.2864 419.445 87.8747 419.422 95.4631C419.389 106.434 419.379 117.406 419.374 128.377C419.365 146.179 419.339 163.982 419.301 181.784C419.264 199.073 419.236 216.361 419.219 233.65C419.218 234.717 419.217 235.783 419.216 236.882C419.21 242.232 419.205 247.582 419.2 252.933C419.159 297.288 419.089 341.644 418.999 386C424.356 385.906 429.713 385.8 435.07 385.683C436.892 385.644 438.715 385.609 440.537 385.578C443.156 385.532 445.775 385.474 448.394 385.414C449.617 385.397 449.617 385.397 450.865 385.379C454.733 385.278 456.711 385.192 459.999 383C460.452 380.828 460.452 380.828 460.374 378.262C460.381 377.256 460.388 376.25 460.396 375.213C460.388 374.1 460.381 372.986 460.373 371.839C460.377 370.663 460.381 369.487 460.385 368.275C460.393 364.999 460.388 361.724 460.377 358.449C460.368 354.92 460.376 351.392 460.382 347.864C460.392 340.948 460.385 334.032 460.373 327.116C460.36 319.069 460.361 311.022 460.363 302.975C460.366 288.62 460.355 274.266 460.335 259.912C460.316 245.971 460.309 232.029 460.315 218.088C460.321 202.921 460.321 187.755 460.309 172.588C460.308 170.972 460.307 169.356 460.306 167.74C460.305 166.945 460.304 166.15 460.304 165.331C460.3 159.716 460.3 154.101 460.302 148.487C460.304 141.648 460.299 134.81 460.285 127.971C460.277 124.479 460.273 120.987 460.278 117.496C460.281 113.717 460.272 109.939 460.26 106.161C460.264 105.047 460.267 103.934 460.271 102.787C460.265 101.781 460.26 100.775 460.254 99.7382C460.253 98.8652 460.252 97.9922 460.251 97.0927C460.191 94.7803 460.191 94.7803 457.999 92.9999C455.087 92.6272 455.087 92.6272 451.679 92.5859C450.547 92.5503 449.415 92.5146 448.249 92.478C446.083 92.427 446.083 92.427 443.874 92.3749C437.006 92.1893 437.006 92.1893 429.999 91.9999C429.999 76.1599 429.999 60.3199 429.999 43.9999C437.222 43.9078 444.443 43.8282 451.667 43.7802C454.12 43.7602 456.574 43.7329 459.028 43.6982C462.568 43.6493 466.107 43.6269 469.648 43.6093C471.276 43.5783 471.276 43.5783 472.938 43.5467C484.284 43.5434 493.072 47.417 501.499 54.9999C508.203 61.8672 512.116 71.0545 512.133 80.5839C512.138 81.7276 512.142 82.8714 512.147 84.0498C512.147 85.9354 512.147 85.9354 512.146 87.8591C512.15 89.2076 512.153 90.5562 512.157 91.9047C512.167 95.6142 512.171 99.3236 512.174 103.033C512.178 107.033 512.187 111.032 512.196 115.032C512.216 124.693 512.226 134.354 512.235 144.015C512.239 148.565 512.244 153.116 512.25 157.667C512.267 172.797 512.281 187.926 512.288 203.056C512.29 206.982 512.292 210.908 512.294 214.834C512.295 215.81 512.295 216.786 512.296 217.791C512.304 233.594 512.329 249.397 512.362 265.2C512.395 281.428 512.413 297.657 512.416 313.885C512.418 322.995 512.427 332.105 512.453 341.215C512.474 348.974 512.482 356.734 512.473 364.493C512.468 368.45 512.47 372.407 512.489 376.363C512.507 379.991 512.506 383.619 512.49 387.247C512.487 389.169 512.503 391.092 512.52 393.014C512.428 405.512 508.839 414.943 500.151 423.906C492.16 431.405 483.791 434.144 473.001 434.158C472.189 434.163 471.377 434.168 470.541 434.173C467.817 434.188 465.093 434.197 462.369 434.205C460.418 434.215 458.467 434.225 456.515 434.235C451.214 434.262 445.913 434.283 440.612 434.303C435.073 434.325 429.534 434.352 423.995 434.379C413.505 434.429 403.015 434.474 392.525 434.517C380.583 434.567 368.642 434.622 356.7 434.677C332.133 434.791 307.566 434.898 282.999 435C292.597 449.68 310.025 454.307 325.925 459.599C345.574 466.171 367.028 474.42 377.413 493.613C379.718 498.78 380.707 502.536 378.999 508C375.937 510.041 375.337 510.251 371.893 510.257C370.634 510.267 370.634 510.267 369.349 510.277C368.427 510.274 367.504 510.271 366.554 510.267C365.574 510.272 364.594 510.276 363.585 510.281C360.287 510.294 356.989 510.292 353.691 510.29C351.332 510.296 348.974 510.303 346.615 510.311C340.198 510.328 333.781 510.333 327.364 510.334C323.358 510.335 319.352 510.34 315.346 510.345C302.103 510.363 288.86 510.372 275.617 510.371C274.903 510.371 274.189 510.371 273.453 510.371C272.738 510.37 272.023 510.37 271.287 510.37C259.695 510.369 248.104 510.389 236.512 510.417C224.615 510.446 212.718 510.459 200.821 510.458C194.14 510.457 187.459 510.463 180.777 510.484C174.496 510.503 168.215 510.504 161.933 510.489C159.624 510.487 157.315 510.492 155.006 510.504C151.86 510.519 148.716 510.51 145.571 510.494C144.651 510.505 143.731 510.515 142.783 510.526C136.659 510.459 136.659 510.459 133.405 508.196C131.63 505.423 131.73 503.456 132.339 500.266C135.835 488.267 144.127 478.971 154.784 472.699C166.359 466.581 178.357 462.107 190.749 457.937C212.271 451.609 212.271 451.609 228.09 436.895C228.39 436.27 228.69 435.644 228.999 435C227.484 434.998 227.484 434.998 225.938 434.995C201.332 434.959 176.726 434.899 152.121 434.816C140.222 434.776 128.323 434.744 116.424 434.729C106.05 434.716 95.6762 434.689 85.3026 434.645C79.812 434.623 74.3215 434.607 68.8309 434.608C63.6573 434.609 58.4842 434.591 53.3107 434.559C51.4174 434.55 49.524 434.548 47.6306 434.554C33.6935 434.59 22.3534 433.519 11.4991 423.75C1.88592 413.175 -0.457334 404.757 -0.388626 390.464C-0.392805 389.102 -0.398292 387.741 -0.404953 386.38C-0.419359 382.659 -0.415168 378.938 -0.407776 375.217C-0.403034 371.197 -0.415566 367.176 -0.425797 363.156C-0.442971 355.287 -0.443827 347.417 -0.438583 339.548C-0.434538 333.15 -0.435988 326.752 -0.44133 320.354C-0.442078 319.443 -0.442832 318.531 -0.443604 317.592C-0.445135 315.74 -0.446667 313.889 -0.448212 312.037C-0.461932 294.68 -0.456499 277.324 -0.445023 259.968C-0.435091 244.1 -0.448043 228.233 -0.47197 212.366C-0.496371 196.06 -0.505962 179.755 -0.499313 163.45C-0.495823 154.301 -0.498038 145.152 -0.515564 136.003C-0.530299 128.214 -0.5309 120.425 -0.513489 112.637C-0.504987 108.666 -0.502811 104.695 -0.518143 100.724C-0.532025 97.0832 -0.527183 93.4429 -0.507904 89.8021C-0.502389 87.8731 -0.516378 85.944 -0.53125 84.015C-0.432073 72.2335 2.59431 62.5009 10.9991 53.9999C20.7497 45.7022 29.6453 43.528 42.253 43.707C43.3944 43.7112 44.5359 43.7154 45.7119 43.7198C49.3287 43.7365 52.9449 43.7741 56.5616 43.8124C59.0257 43.8275 61.4899 43.8412 63.9541 43.8534C69.9695 43.8838 75.9836 43.9426 81.9991 43.9999C81.9991 59.8399 81.9991 75.6799 81.9991 91.9999C72.0991 92.3299 62.1991 92.6599 51.9991 92.9999C51.9539 129.91 51.9181 166.82 51.8969 203.731C51.8944 208.084 51.8918 212.438 51.8892 216.791C51.8884 218.092 51.8884 218.092 51.8876 219.418C51.8789 233.468 51.8631 247.519 51.8447 261.569C51.8261 275.977 51.8149 290.384 51.8109 304.792C51.8081 313.689 51.7994 322.585 51.7832 331.482C51.7727 337.575 51.7694 343.669 51.772 349.762C51.7733 353.282 51.7713 356.802 51.7606 360.323C51.7492 364.132 51.7531 367.941 51.7585 371.75C51.7498 373.434 51.7498 373.434 51.7409 375.152C51.7449 376.166 51.7489 377.18 51.753 378.225C51.7522 379.105 51.7514 379.985 51.7507 380.892C51.8041 383.218 51.8041 383.218 53.9991 385C56.9357 385.246 59.7847 385.374 62.7256 385.414C63.5884 385.433 64.4512 385.453 65.3402 385.473C68.1014 385.533 70.8626 385.579 73.6241 385.625C75.4939 385.663 77.3637 385.702 79.2334 385.742C83.8218 385.838 88.4103 385.922 92.9991 386C92.9979 385.248 92.9968 384.497 92.9956 383.722C92.9285 339.172 92.877 294.622 92.8459 250.072C92.8421 244.722 92.8382 239.372 92.8343 234.022C92.8335 232.957 92.8327 231.892 92.8319 230.795C92.8188 213.552 92.7952 196.31 92.7676 179.067C92.7395 161.373 92.7229 143.679 92.7168 125.986C92.7127 115.068 92.6997 104.151 92.6753 93.234C92.6594 85.7468 92.6547 78.2596 92.6586 70.7723C92.6605 66.4532 92.6575 62.1341 92.6414 57.815C92.6268 53.857 92.6261 49.8992 92.6364 45.9411C92.6376 44.513 92.6339 43.0848 92.6244 41.6566C92.5507 29.8171 93.5697 19.8679 101.999 10.9999C110.417 3.16789 119.252 1.54861 130.479 1.59879ZM140.21 74.9179C135.63 81.0495 134.256 86.8389 135.343 94.3866C136.721 99.7256 139.313 103.22 143.632 106.613C149.503 110.053 155.67 110.645 162.249 109.125C167.615 107.225 170.908 103.689 173.999 98.9999C174.494 97.5149 174.494 97.5149 174.999 95.9999C185.559 95.9999 196.119 95.9999 206.999 95.9999C203.369 98.3099 199.739 100.62 195.999 103C181.161 114.857 170.339 129.677 163.562 147.375C163.314 148.016 163.067 148.658 162.813 149.319C161.154 153.902 160.464 158.183 159.999 163C159.263 162.954 158.527 162.907 157.769 162.859C151.527 162.549 151.527 162.549 145.874 164.875C141.506 169.826 142.815 176.016 142.812 182.312C142.799 183.549 142.787 184.786 142.774 186.06C142.773 187.253 142.771 188.447 142.769 189.676C142.764 190.768 142.76 191.86 142.756 192.986C143.007 196.099 143.551 198.24 144.999 201C151.112 204.842 157.517 204.483 164.562 204.437C165.672 204.457 166.783 204.477 167.927 204.498C174.213 204.494 178.278 204.334 182.999 200C185.266 195.466 184.184 189.166 184.187 184.187C184.205 182.261 184.205 182.261 184.224 180.295C184.226 179.057 184.228 177.819 184.23 176.543C184.234 175.409 184.238 174.275 184.242 173.106C183.997 169.972 183.404 167.798 181.999 165C178.623 162.374 175.119 162.947 170.999 163C178.579 137.317 190.511 118.775 214.03 105.258C221.077 101.531 228.325 99.104 235.999 96.9999C236.177 97.9106 236.177 97.9106 236.358 98.8398C237.56 102.89 240.987 105.19 244.187 107.75C249.714 110.207 255.547 110.81 261.312 108.812C266.871 106.335 269.98 103.242 272.999 97.9999C286.346 100.567 297.74 106.134 307.999 115C308.724 115.57 309.448 116.139 310.194 116.726C324.393 128.352 332.577 145.481 336.999 163C335.927 162.959 334.854 162.917 333.749 162.875C330.313 162.989 328.741 163.07 325.999 165C322.822 169.765 323.627 175.197 323.628 180.769C323.624 182.861 323.588 184.951 323.55 187.043C323.544 188.38 323.54 189.717 323.538 191.055C323.53 192.266 323.522 193.478 323.513 194.726C324.095 198.644 325.158 200.277 327.999 203C333.038 205.143 339.56 204.227 344.937 204.25C346.117 204.271 347.297 204.291 348.513 204.312C350.221 204.32 350.221 204.32 351.964 204.328C353.002 204.337 354.039 204.347 355.108 204.356C358.492 203.939 360.305 203.072 362.999 201C366.41 196.199 365.327 189.747 365.312 184.125C365.328 182.953 365.344 181.781 365.36 180.574C365.489 172.305 365.489 172.305 361.999 165C358.998 162.793 356.404 162.779 352.749 162.875C351.857 162.893 350.965 162.911 350.046 162.93C349.37 162.953 348.695 162.976 347.999 163C347.887 162.07 347.887 162.07 347.772 161.121C345.103 143.142 335.925 127.445 323.999 114C323.374 113.291 322.749 112.582 322.105 111.851C316.219 105.582 308.716 99.8584 300.999 95.9999C312.879 95.9999 324.759 95.9999 336.999 95.9999C337.989 97.9799 338.979 99.9599 339.999 102C344.048 107.149 348.828 109.086 355.222 109.945C361.026 110.06 365.778 108.166 370.374 104.687C374.937 100.016 376.669 95.4997 376.999 88.9999C376.345 83.1554 374.83 78.5761 370.999 73.9999C364.636 69.0948 358.897 68.1461 350.999 68.9999C345.702 70.663 341.956 73.2235 338.999 77.9999C338.339 79.9799 337.679 81.9599 336.999 83.9999C315.879 83.9999 294.759 83.9999 272.999 83.9999C272.669 82.3499 272.339 80.6999 271.999 78.9999C269.056 74.3032 265.323 70.676 259.999 68.9999C252.546 68.1683 246.99 68.3273 240.999 72.9999C237.884 76.115 235.404 78.7854 233.999 82.9999C214.529 83.3299 195.059 83.6599 174.999 83.9999C174.339 82.0199 173.679 80.0399 172.999 77.9999C170.029 73.2023 166.318 70.6603 160.999 68.9999C152.937 67.8381 145.911 68.806 140.21 74.9179ZM252.056 134.576C249.577 137.497 247.859 140.628 246.128 144.019C245.77 144.706 245.411 145.392 245.042 146.099C244.275 147.569 243.511 149.041 242.75 150.514C240.736 154.41 238.697 158.293 236.659 162.176C236.053 163.332 236.053 163.332 235.435 164.511C232.244 170.579 228.92 176.559 225.499 182.5C219.114 193.617 213.141 204.945 207.177 216.291C206.622 217.345 206.622 217.345 206.057 218.42C205.34 219.784 204.625 221.15 203.913 222.517C202.008 226.161 199.987 229.685 197.843 233.195C196.351 235.891 195.958 236.611 196.292 239.75C198.564 242.745 201.276 244.843 204.312 247C213.536 253.686 220.396 260.641 222.999 272C222.251 271.977 221.504 271.954 220.733 271.93C219.749 271.912 218.764 271.894 217.749 271.875C216.775 271.852 215.8 271.829 214.796 271.805C211.948 272.003 210.369 272.446 207.999 274C206.325 277.349 206.793 281.12 206.761 284.805C206.753 285.68 206.745 286.556 206.736 287.458C206.722 289.312 206.712 291.167 206.704 293.021C206.687 295.857 206.643 298.692 206.599 301.527C206.589 303.328 206.58 305.129 206.573 306.93C206.556 307.778 206.538 308.626 206.52 309.499C206.525 310.691 206.525 310.69 206.529 311.906C206.523 312.601 206.517 313.297 206.511 314.014C207.27 317.104 208.402 318.163 210.999 320C214.006 320.394 216.645 320.547 219.651 320.517C220.523 320.524 221.395 320.532 222.294 320.539C225.175 320.556 228.055 320.545 230.937 320.531C232.939 320.534 234.942 320.538 236.944 320.543C241.141 320.549 245.337 320.54 249.533 320.521C254.914 320.499 260.294 320.512 265.674 320.536C269.809 320.55 273.944 320.546 278.079 320.535C280.063 320.533 282.047 320.536 284.031 320.545C286.803 320.555 289.574 320.54 292.347 320.517C293.168 320.526 293.989 320.534 294.834 320.542C298.386 320.489 300.572 320.302 303.508 318.222C305.104 315.844 305.5 314.747 305.501 311.922C305.515 310.735 305.515 310.735 305.529 309.525C305.518 308.68 305.507 307.835 305.495 306.965C305.497 305.652 305.497 305.652 305.5 304.313C305.498 302.466 305.486 300.62 305.466 298.773C305.437 295.944 305.445 293.116 305.458 290.287C305.452 288.492 305.443 286.697 305.433 284.902C305.436 284.055 305.439 283.208 305.442 282.336C305.52 278.009 305.52 278.009 303.599 274.316C300.505 271.771 298.302 271.892 294.374 271.937C293.371 271.946 292.368 271.955 291.335 271.965C290.564 271.976 289.793 271.988 288.999 272C292.347 259.684 299.693 252.118 309.999 245C313.976 242.21 313.976 242.21 315.999 238C315.031 235.625 314.002 233.449 312.812 231.187C312.452 230.487 312.093 229.787 311.722 229.066C307.702 221.3 303.483 213.64 299.272 205.976C295.811 199.671 292.403 193.337 288.999 187C283.643 177.038 278.273 167.085 272.819 157.176C270.909 153.698 269.057 150.196 267.241 146.668C266.799 145.827 266.358 144.987 265.902 144.121C265.075 142.545 264.263 140.961 263.471 139.367C261.593 135.837 260.765 134.31 256.96 132.769C253.968 132.721 253.968 132.721 252.056 134.576ZM73.9991 406C73.4989 408.958 73.4989 408.958 73.9991 412C76.2291 414.249 77.6238 414.947 80.7764 415.388C82.3407 415.393 82.3407 415.393 83.9366 415.398C85.0787 415.402 86.2208 415.406 87.3975 415.41C88.586 415.398 89.7745 415.387 90.9991 415.375C92.7818 415.392 92.7818 415.392 94.6006 415.41C96.3138 415.404 96.3138 415.404 98.0616 415.398C99.1044 415.395 100.147 415.392 101.222 415.388C104.374 414.947 105.769 414.249 107.999 412C108.499 408.958 108.499 408.958 107.999 406C105.166 403.167 103.272 403.742 99.3116 403.734C98.6532 403.732 97.9949 403.73 97.3167 403.729C95.9247 403.727 94.5326 403.731 93.1407 403.739C91.0072 403.75 88.8746 403.739 86.7412 403.727C85.3897 403.728 84.0381 403.73 82.6866 403.734C80.8361 403.738 80.8361 403.738 78.9483 403.741C75.8784 403.692 75.8784 403.692 73.9991 406ZM121.999 406C121.499 408.958 121.499 408.958 121.999 412C124.229 414.249 125.624 414.947 128.776 415.388C130.341 415.393 130.341 415.393 131.937 415.398C133.079 415.402 134.221 415.406 135.397 415.41C136.586 415.398 137.775 415.387 138.999 415.375C140.782 415.392 140.782 415.392 142.601 415.41C144.314 415.404 144.314 415.404 146.062 415.398C147.104 415.395 148.147 415.392 149.222 415.388C152.374 414.947 153.769 414.249 155.999 412C156.499 408.958 156.499 408.958 155.999 406C153.166 403.167 151.272 403.742 147.312 403.734C146.653 403.732 145.995 403.73 145.317 403.729C143.925 403.727 142.533 403.731 141.141 403.739C139.007 403.75 136.875 403.739 134.741 403.727C133.39 403.728 132.038 403.73 130.687 403.734C128.836 403.738 128.836 403.738 126.948 403.741C123.878 403.692 123.878 403.692 121.999 406ZM407.069 405.329C405.717 407.099 405.717 407.099 406.062 410.062C406.68 413.034 406.68 413.034 408.687 414.165C413.538 415.917 418.901 415.326 423.999 415.312C425.188 415.329 426.376 415.345 427.601 415.361C428.743 415.362 429.885 415.363 431.062 415.363C432.104 415.366 433.147 415.369 434.222 415.372C437.334 414.955 438.7 414.085 440.999 412C440.814 407.658 440.814 407.658 438.999 404C434.76 403.758 430.516 403.771 426.271 403.76C424.14 403.75 422.009 403.719 419.878 403.687C418.525 403.681 417.172 403.676 415.819 403.672C414.585 403.662 413.35 403.653 412.078 403.643C409.037 403.752 409.037 403.752 407.069 405.329Z" fill="white"/>
<path d="M249 162C249.33 162 249.66 162 250 162C250.203 166.395 250.328 170.789 250.438 175.188C250.496 176.433 250.555 177.679 250.615 178.963C250.785 188.026 250.785 188.026 248.479 190.887C246.594 192.199 246.594 192.199 244.705 193.135C242.704 193.99 242.704 193.99 241.062 196.625C239.172 202.63 239.129 208.48 241.188 214.438C243.892 218.262 246.55 220.517 251 222C257.832 222.729 262.527 222.269 268 218C271.705 213.249 272.662 209.505 272.379 203.496C271.774 199.514 270.667 196.061 268 193C265.69 191.68 263.38 190.36 261 189C261 180.09 261 171.18 261 162C261.66 162 262.32 162 263 162C263.361 162.672 263.723 163.345 264.095 164.038C270.389 175.749 276.688 187.457 283.062 199.125C284.029 200.895 284.995 202.664 285.961 204.434C286.448 205.325 286.935 206.217 287.437 207.136C287.952 208.081 288.468 209.026 289 210C289.583 211.068 290.166 212.135 290.767 213.235C292.576 216.551 294.382 219.869 296.188 223.188C297.036 224.739 297.036 224.739 297.901 226.323C298.422 227.282 298.943 228.242 299.48 229.23C299.943 230.08 300.406 230.93 300.884 231.805C302 234 302 234 303 237C301.948 237.692 301.948 237.692 300.875 238.398C289.646 246.119 283.65 254.259 279 267C278.34 268.65 277.68 270.3 277 272C263.14 272 249.28 272 235 272C233.35 267.71 231.7 263.42 230 259C224.388 250.182 217.868 243.774 210 237C210.607 232.458 212.463 228.824 214.613 224.848C215.162 223.815 215.162 223.815 215.722 222.762C216.912 220.525 218.112 218.294 219.312 216.062C220.137 214.519 220.961 212.976 221.785 211.433C224.18 206.95 226.588 202.474 229 198C229.325 197.396 229.651 196.792 229.986 196.169C236.169 184.69 242.456 173.278 249 162Z" fill="white"/>
<path d="M218 283C243.08 283 268.16 283 294 283C294 291.58 294 300.16 294 309C268.92 309 243.84 309 218 309C218 300.42 218 291.84 218 283Z" fill="white"/>
<path d="M335 174C341.27 174 347.54 174 354 174C354 180.27 354 186.54 354 193C347.73 193 341.46 193 335 193C335 186.73 335 180.46 335 174Z" fill="white"/>
<path d="M154 174C160.27 174 166.54 174 173 174C173 180.27 173 186.54 173 193C166.73 193 160.46 193 154 193C154 186.73 154 180.46 154 174Z" fill="white"/>
<path d="M159.001 80.0001C161.754 81.7957 163.527 83.0526 165.001 86.0001C165.039 90.065 164.99 93.8272 162.313 97.0001C157.982 98.8731 155.268 99.4631 150.751 97.8126C147.902 95.9352 146.922 95.2263 146.001 92.0001C145.5 88.0797 145.659 86.513 147.876 83.1876C151.428 79.5302 153.97 79.5737 159.001 80.0001Z" fill="white"/>
<path d="M360 80.0001C363.762 82.0444 364.779 83.2535 366 87.3751C366 91.6424 365.605 93.6055 363 97.0001C360.361 98.3722 357.97 98.9271 355 99.0001C351.657 97.8858 349.76 97.001 347.625 94.1876C346.581 90.5311 346.545 87.3657 347.75 83.7501C350.836 79.4308 355.004 79.4742 360 80.0001Z" fill="white"/>
<path d="M256.063 79.5234C259.615 80.3972 261.011 82.0162 263 85C263.967 89.2443 263.475 92.1406 261.375 95.9375C258.466 98.4637 256.833 98.9218 253 99C249.508 98.0254 247.292 96.8015 245 94C244.31 90.9305 244.438 88.0873 245 85C247.967 80.4574 250.804 79.145 256.063 79.5234Z" fill="white"/>
<path d="M259 199C260.875 200.062 260.875 200.062 262 202C262.365 205.409 262.614 207.88 260.938 210.937C257.845 212.633 255.445 212.431 252 212C250 210.437 250 210.437 249 208C249.125 204.375 249.125 204.375 250 201C253.469 198.687 254.922 198.575 259 199Z" fill="white"/>
</g>
<defs>
<clipPath id="clip0_204_42">
<rect width="512" height="512" fill="white"/>
</clipPath>
</defs>
</svg>
