<svg width="512" height="512" viewBox="0 0 512 512" fill="none" xmlns="http://www.w3.org/2000/svg">
<path d="M224.999 311C226.937 311.834 228.874 312.667 230.812 313.5C231.788 313.923 232.763 314.346 233.769 314.781C249.663 320.778 267.507 319.619 282.999 313C284.428 312.145 285.847 311.273 287.249 310.375C291.607 308.777 292.442 309.114 296.624 310.75C298.769 311.794 300.893 312.88 302.999 314C304.107 314.552 305.214 315.103 306.355 315.672C330.568 328.476 348.153 350.658 356.341 376.702C360.033 389.593 360.458 401.614 360.433 414.937C360.437 417.033 360.443 419.129 360.449 421.224C360.458 425.588 360.455 429.951 360.445 434.315C360.434 439.901 360.454 445.487 360.483 451.073C360.502 455.388 360.501 459.703 360.496 464.019C360.495 466.079 360.501 468.139 360.514 470.2C360.529 473.074 360.518 475.946 360.501 478.82C360.515 480.087 360.515 480.087 360.53 481.38C360.464 486.72 359.529 489.752 355.999 494C350.741 497.769 343.121 496.799 336.999 496C328.059 494.198 319.315 491.535 310.562 489C308.174 488.324 305.785 487.649 303.396 486.977C297.591 485.338 291.793 483.678 285.999 482C288.67 479.329 291.576 478.878 295.132 477.977C296.593 477.591 298.054 477.206 299.515 476.82C301.811 476.223 304.109 475.629 306.406 475.037C324.208 470.685 324.208 470.685 337.511 458.754C342.307 450.385 342.958 442.544 341.999 433C339.53 424.868 335.369 420.143 328.847 414.949C326.629 412.609 326.361 411.3 326.124 408.125C326.147 407.385 326.171 406.645 326.195 405.883C326.13 405.261 326.066 404.64 325.999 404C322.53 401.687 321.077 401.575 316.999 402C314.881 403.513 314.146 404.544 313.351 407.02C311.999 409 311.999 409 309.008 409.87C307.727 410.056 306.446 410.243 305.126 410.435C303.66 410.672 302.194 410.914 300.73 411.162C299.955 411.293 299.181 411.423 298.383 411.558C294.36 412.304 290.409 413.31 286.447 414.328C285.613 414.542 284.779 414.756 283.92 414.976C281.271 415.658 278.623 416.347 275.976 417.035C274.095 417.52 272.213 418.004 270.332 418.488C265.426 419.75 260.521 421.018 255.617 422.288C247.75 424.324 239.882 426.353 232.013 428.379C229.286 429.082 226.56 429.789 223.834 430.496C215.921 432.541 208.044 434.531 199.999 436C199.969 434.767 199.969 434.767 199.939 433.509C199.844 429.777 199.734 426.045 199.624 422.312C199.593 421.019 199.562 419.725 199.53 418.393C199.472 416.522 199.472 416.522 199.413 414.613C199.382 413.466 199.35 412.32 199.318 411.138C198.98 407.806 198.458 404.459 195.999 402C190.672 401.661 190.672 401.661 185.999 404C185.661 406.759 185.51 409.305 185.487 412.07C185.47 412.867 185.452 413.663 185.433 414.483C185.379 417.03 185.345 419.577 185.312 422.125C185.279 423.85 185.244 425.576 185.208 427.301C185.123 431.534 185.056 435.767 184.999 440C184.041 440.447 183.084 440.895 182.097 441.355C178.916 442.734 178.916 442.734 177.437 445.312C176.82 449.1 177.87 450.877 179.999 454C183.107 455.231 185.27 454.925 188.455 454.098C189.345 453.872 190.235 453.646 191.153 453.413C192.125 453.155 193.098 452.898 194.101 452.633C195.137 452.366 196.174 452.1 197.242 451.826C199.509 451.242 201.776 450.653 204.041 450.061C207.661 449.115 211.284 448.182 214.909 447.251C226.657 444.229 238.395 441.164 250.124 438.069C256.113 436.49 262.105 434.919 268.098 433.353C272.453 432.214 276.805 431.061 281.154 429.898C283.895 429.168 286.638 428.45 289.382 427.736C291.251 427.245 293.117 426.74 294.982 426.234C303.64 423.998 313.311 421.604 321.562 426.125C326.024 429.421 327.478 433.026 328.874 438.312C329.033 443.002 328.419 446.938 325.999 451C320.029 457.28 313.869 458.933 305.605 461.039C304.247 461.4 302.889 461.763 301.532 462.128C297.856 463.111 294.174 464.07 290.491 465.025C286.612 466.035 282.738 467.063 278.864 468.091C273.986 469.384 269.108 470.676 264.228 471.959C253.122 474.882 242.046 477.9 230.983 480.981C225.951 482.381 220.916 483.77 215.881 485.16C211.84 486.277 207.802 487.4 203.766 488.537C199.958 489.61 196.144 490.664 192.327 491.705C190.936 492.088 189.546 492.477 188.159 492.874C165.97 499.213 165.97 499.213 156.691 494.22C152.85 491.053 152.85 491.053 151.999 488C151.797 485.001 151.705 482.094 151.709 479.095C151.702 478.195 151.695 477.295 151.688 476.368C151.669 473.387 151.665 470.407 151.663 467.426C151.657 465.342 151.65 463.259 151.643 461.175C151.631 456.798 151.627 452.421 151.629 448.044C151.629 442.478 151.602 436.914 151.567 431.348C151.545 427.037 151.541 422.726 151.542 418.414C151.539 416.366 151.531 414.317 151.515 412.269C151.308 382.275 160.406 355.537 181.37 333.648C190.124 324.79 200.019 318.674 210.999 313C211.938 312.499 212.876 311.997 213.843 311.48C218.541 309.139 220.096 308.687 224.999 311ZM282.999 362C280.672 365.491 280.496 366.892 280.999 371C283.222 374.002 284.42 374.905 288.144 375.518C289.354 375.522 290.565 375.527 291.812 375.531C292.462 375.535 293.113 375.539 293.784 375.543C295.155 375.546 296.527 375.538 297.899 375.521C299.993 375.5 302.084 375.521 304.179 375.547C305.515 375.544 306.851 375.539 308.187 375.531C310.002 375.524 310.002 375.524 311.855 375.518C315.579 374.905 316.768 373.994 318.999 371C319.666 368 319.666 368 318.999 365C316.767 362.152 315.449 361.15 311.999 360C308.045 359.767 304.085 359.815 300.124 359.812C299.035 359.8 297.946 359.788 296.823 359.775C295.77 359.773 294.717 359.771 293.632 359.769C292.672 359.765 291.712 359.761 290.722 359.757C287.75 360.022 285.649 360.633 282.999 362Z" fill="white"/>
<path d="M272 138C273.422 140.574 273.422 140.574 274.75 143.688C280.135 154.9 289.406 159.842 300.828 164.039C309.803 166.783 318.203 167.292 326.93 163.559C329.661 162.822 331.312 163.155 334 164C339.837 167.949 347.632 174.637 349.781 181.492C350.02 184.231 349.656 185.513 348.562 188C344.393 199.66 347.56 211.023 352.285 221.981C356.917 231.334 363.438 237.566 373.25 241.211C375 242 375 242 376 244C378.379 263.227 378.379 263.227 375 269C372.16 271.077 369.228 272.639 366.105 274.258C355.92 279.972 351.843 290.529 348 301C346.145 308.108 345.705 316.65 348.562 323.5C350.026 327.064 350.227 328.429 349 332C344.867 328.586 341.078 325.066 337.375 321.188C327.717 311.471 316.093 305.139 304 299C305.338 295.29 307.035 292.394 309.312 289.188C318.107 275.564 320.307 259.717 317.844 243.867C314.162 226.993 304.81 213.257 290.598 203.32C276.712 194.502 261.241 191.487 245 194C226.713 198.217 211.913 207.869 201.812 223.813C193.575 238.084 191.297 255.498 194.871 271.617C196.866 278.985 200.018 285.429 204.449 291.668C206.026 294.04 207.036 296.327 208 299C206.924 299.534 205.847 300.067 204.738 300.617C188.662 308.747 176.433 319.064 164 332C163.34 331.67 162.68 331.34 162 331C162.441 327.914 162.961 325.108 164.016 322.168C167.742 310.175 163.672 297.889 158.187 287.125C153.979 279.913 149.751 275.742 142.187 272.188C137.383 269.67 137.383 269.67 135.816 266.93C134.19 260.134 133.829 248.343 137 242C138.835 241.105 140.693 240.259 142.562 239.438C154.525 233.534 159.241 223.958 163.812 211.848C166.355 203.495 166.061 193.971 162.559 186C161.807 183.308 162.17 181.656 163 179C164.993 176.029 167.502 173.554 170 171C170.732 170.232 171.464 169.463 172.219 168.672C177.974 163.035 177.974 163.035 182.687 162.875C184.722 163.566 186.746 164.288 188.75 165.063C200.717 168.515 213.128 164.098 223.727 158.387C231.623 153.57 235.511 147.924 239.457 139.695C241 137 241 137 244 136C252.098 134.73 265.009 132.883 272 138Z" fill="white"/>
<path d="M291.165 222.102C300.059 231.529 304.841 242.999 305.001 256C303.871 271.611 299.063 282.519 287.688 293.25C275.993 303.252 263.211 304.865 248.375 304.191C236.58 303.242 226.56 296.354 218.594 287.937C210.059 277.561 206.216 265.146 207.251 251.766C209.207 236.885 215.221 226.526 226.606 216.789C246.784 201.713 273.57 205.015 291.165 222.102Z" fill="white"/>
<path d="M413.363 349.477C420.369 350.867 429.534 351.193 436.25 348.625C442.478 347.587 446.861 350.669 452 354C462.414 361.708 468.636 371.535 472 384C472.58 388.557 472.651 393.035 472.625 397.625C472.657 398.788 472.689 399.951 472.723 401.149C472.73 407.936 471.903 412.525 467.974 418.111C460.623 425.145 452.956 424.622 443.32 424.602C441.782 424.609 440.245 424.618 438.707 424.628C435.491 424.642 432.275 424.642 429.059 424.631C424.958 424.62 420.858 424.654 416.757 424.7C413.583 424.73 410.409 424.731 407.234 424.725C405.723 424.726 404.212 424.736 402.701 424.757C394.697 424.851 388.233 424.692 381.655 419.636C376.952 414.988 375.82 410.422 375.469 403.918C375.458 401.675 375.469 399.431 375.5 397.188C375.485 396.076 375.469 394.964 375.453 393.818C375.514 380.774 380.31 368.842 389.25 359.25C395.798 353.095 404.39 346.844 413.363 349.477Z" fill="white"/>
<path d="M77.3633 349.477C84.3692 350.867 93.5336 351.193 100.25 348.625C106.478 347.587 110.861 350.669 116 354C126.414 361.708 132.636 371.535 136 384C136.58 388.557 136.651 393.035 136.625 397.625C136.657 398.788 136.689 399.951 136.723 401.149C136.73 407.936 135.903 412.525 131.974 418.111C124.623 425.145 116.956 424.622 107.32 424.602C105.782 424.609 104.245 424.618 102.707 424.628C99.4907 424.642 96.2751 424.642 93.0591 424.631C88.9577 424.62 84.8582 424.654 80.7571 424.7C77.5826 424.73 74.4086 424.731 71.2341 424.725C69.7231 424.726 68.2121 424.736 66.7013 424.757C58.6967 424.851 52.2332 424.692 45.6554 419.636C40.9519 414.988 39.8197 410.422 39.4688 403.918C39.4582 401.675 39.4691 399.431 39.5 397.188C39.4845 396.076 39.4691 394.964 39.4531 393.818C39.5142 380.774 44.3103 368.842 53.25 359.25C59.798 353.095 68.3896 346.844 77.3633 349.477Z" fill="white"/>
<path d="M271.894 18.7499C279.836 23.4651 285.179 29.9918 287.887 38.9257C289.932 48.9687 288.495 58.308 283 66.9999C278.165 73.8493 272.039 77.8031 264 79.9999C252.9 80.9985 243.265 80.3494 234.187 73.2499C227.31 66.8271 223.893 58.7061 223.035 49.4257C222.905 40.4585 226.174 33.0039 231.25 25.8124C241.651 15.175 258.39 12.2352 271.894 18.7499Z" fill="white"/>
<path d="M483.985 117.32C490.158 122.148 493.943 128.488 496 136C496.789 144.851 496.96 153.298 492 161C491.565 161.706 491.129 162.413 490.68 163.141C486 170.045 480 173.8 472 176C463.15 176.789 454.702 176.96 447 172C446.294 171.564 445.587 171.129 444.86 170.68C437.416 165.635 433.39 158.787 431.594 150.016C430.133 140.651 431.989 132.22 437.168 124.293C448.547 110.052 468.834 107.24 483.985 117.32Z" fill="white"/>
<path d="M67.9487 117.25C74.7125 122.415 78.8152 129.667 80.4994 137.938C81.8525 148.693 78.8896 157.489 72.7494 166.188C66.5038 172.575 59.2806 176.179 50.2397 176.38C43.0425 176.362 37.1847 175.983 30.9994 172C30.293 171.564 29.5866 171.129 28.8588 170.68C21.953 165.999 18.2023 160 15.9994 152C15.0051 140.946 15.6689 131.359 22.6244 122.25C34.3447 109.633 53.7381 108.137 67.9487 117.25Z" fill="white"/>
<path d="M209 63C211.938 65.0625 211.938 65.0625 214 68C214.562 71.5625 214.562 71.5625 214 75C210.98 78.7788 207.203 80.6063 202.895 82.582C202.191 82.9127 201.488 83.2435 200.763 83.5843C198.45 84.669 196.132 85.7409 193.812 86.8125C192.185 87.5721 190.558 88.3324 188.931 89.0932C177.065 94.6297 165.149 100.057 153.217 105.447C141.865 110.58 130.58 115.849 119.313 121.166C118.352 121.619 118.352 121.619 117.372 122.082C115.65 122.893 113.929 123.707 112.208 124.52C100.613 129.867 100.613 129.867 94 129C90.7116 126.287 90.0915 124.652 89.5 120.437C90.0928 116.362 90.9453 115.62 94 113C96.2253 111.682 96.2253 111.682 98.6992 110.512C99.6435 110.061 100.588 109.61 101.561 109.145C103.109 108.424 103.109 108.424 104.688 107.687C105.782 107.17 106.876 106.652 108.004 106.118C118.37 101.238 128.808 96.5132 139.249 91.7954C148.495 87.6143 157.701 83.354 166.881 79.0304C170.834 77.1698 174.79 75.3165 178.747 73.4632C181.508 72.1696 184.268 70.8734 187.024 69.5703C189.531 68.388 192.045 67.2222 194.562 66.0625C195.24 65.7383 195.917 65.4142 196.615 65.0803C200.89 63.1393 204.324 62.5347 209 63Z" fill="white"/>
<path d="M310 63.0001C312.746 63.9994 315.232 65.0364 317.844 66.3048C318.593 66.6553 319.343 67.0059 320.115 67.367C322.583 68.5242 325.041 69.6997 327.5 70.8751C329.237 71.6932 330.974 72.5098 332.712 73.3251C336.331 75.0239 339.947 76.7289 343.561 78.4381C351.26 82.0729 358.997 85.6264 366.733 89.183C370.773 91.0421 374.81 92.908 378.848 94.7736C384.046 97.1749 389.245 99.574 394.446 101.969C397.066 103.177 399.686 104.387 402.305 105.597C404.066 106.41 405.828 107.221 407.591 108.031C408.636 108.514 409.681 108.998 410.758 109.496C411.657 109.911 412.555 110.325 413.481 110.752C420.653 114.306 420.653 114.306 422 117C422.491 121.333 422.478 123.32 419.938 126.938C416.191 129.568 414.529 129.413 410 129C407.114 128.074 404.441 126.801 401.719 125.477C400.925 125.104 400.131 124.731 399.312 124.347C396.702 123.119 394.101 121.872 391.5 120.625C389.668 119.76 387.836 118.896 386.003 118.033C382.211 116.247 378.423 114.456 374.635 112.66C366.828 108.966 358.981 105.358 351.133 101.75C348.699 100.63 346.267 99.5072 343.835 98.3829C337.077 95.2586 330.318 92.1383 323.538 89.0613C320.904 87.865 318.273 86.6623 315.642 85.4588C313.871 84.6519 312.096 83.8544 310.321 83.0572C309.273 82.5769 308.225 82.0966 307.145 81.6017C306.241 81.1926 305.337 80.7834 304.406 80.3619C301.75 78.8586 299.955 77.341 298 75.0001C297.279 70.5924 297.48 68.7407 300.063 65.0626C303.798 62.4395 305.487 62.6024 310 63.0001Z" fill="white"/>
<path d="M439.999 293C445.857 298.929 448.861 304.458 448.999 313C448.077 321.639 444.37 327.1 437.878 332.703C431.508 337.1 424.449 336.659 416.999 336C410.34 334.319 405.814 329.536 401.999 324C398.762 317.569 398.875 309.453 400.616 302.555C403.363 296.356 408.693 291.732 414.624 288.625C415.408 288.419 416.192 288.212 416.999 288C417.865 287.752 418.732 287.505 419.624 287.25C427.079 286.698 434.247 288.051 439.999 293Z" fill="white"/>
<path d="M104 293C109.748 298.818 112.283 303.447 112.375 311.812C112.237 319.136 111.192 323.648 106.129 328.965C99.2251 335.347 93.7983 336.48 84.4453 336.305C77.543 335.694 73.7579 333.074 69.125 328.062C64.8686 322.81 63.11 317.821 63 311C63.9208 302.377 67.6027 296.69 74.2734 291.254C76.4473 289.675 78.4127 288.73 81 288C81.8662 287.752 82.7325 287.505 83.625 287.25C91.0794 286.698 98.2483 288.051 104 293Z" fill="white"/>
<path d="M452.098 188.613C455.107 189.225 456.31 190.497 458.001 193C459.761 197.978 458.181 202.257 456.833 207.148C456.478 208.483 456.478 208.483 456.117 209.844C455.359 212.691 454.586 215.533 453.813 218.375C453.311 220.248 452.811 222.122 452.311 223.996C451.339 227.641 450.354 231.282 449.362 234.921C448.494 238.123 447.665 241.33 446.885 244.556C446.714 245.245 446.544 245.935 446.368 246.645C445.923 248.457 445.492 250.273 445.062 252.088C443.888 255.309 442.641 256.851 440.001 259C437.256 259.729 434.776 259.558 432.001 259C428.976 256.984 428.178 255.736 427.328 252.211C426.981 248.81 427.329 246.533 428.2 243.242C428.488 242.134 428.775 241.026 429.072 239.885C429.392 238.703 429.713 237.522 430.044 236.305C430.368 235.08 430.693 233.855 431.028 232.593C431.717 230.007 432.412 227.423 433.114 224.841C434.012 221.539 434.886 218.232 435.753 214.922C436.587 211.754 437.441 208.592 438.294 205.43C438.604 204.244 438.915 203.059 439.235 201.837C439.538 200.736 439.841 199.634 440.154 198.499C440.414 197.532 440.675 196.564 440.943 195.567C443.259 189.945 446.325 188.301 452.098 188.613Z" fill="white"/>
<path d="M66.0007 189C69.4238 191.86 70.6971 194.227 71.8476 198.5C72.1509 199.601 72.4541 200.703 72.7665 201.837C73.0771 203.023 73.3877 204.208 73.7077 205.43C74.0374 206.653 74.367 207.876 74.7067 209.136C75.3999 211.722 76.0875 214.308 76.7661 216.898C77.6339 220.207 78.5247 223.509 79.4228 226.81C80.2799 229.972 81.118 233.138 81.9577 236.305C82.2785 237.486 82.5992 238.668 82.9296 239.885C83.3608 241.547 83.3608 241.547 83.8008 243.242C84.1857 244.696 84.1857 244.696 84.5784 246.18C85.2166 250.442 84.8171 253.759 82.4382 257.375C79.4574 259.362 77.5076 259.477 74.0007 259.531C71.1141 258.765 69.942 257.239 68.0007 255C66.9949 252.592 66.9949 252.592 66.2773 249.884C66.0006 248.865 65.7238 247.847 65.4387 246.798C65.1562 245.703 64.8738 244.609 64.5827 243.481C64.1287 241.783 64.1287 241.783 63.6654 240.05C63.0281 237.657 62.3972 235.262 61.7724 232.866C60.8186 229.208 59.8461 225.556 58.8699 221.904C58.2522 219.576 57.6356 217.247 57.0202 214.918C56.7317 213.829 56.4432 212.741 56.1459 211.619C52.451 197.414 52.451 197.414 54.3132 192.625C57.0885 188.308 61.141 188.001 66.0007 189Z" fill="white"/>
</svg>
