<svg width="512" height="512" viewBox="0 0 512 512" fill="none" xmlns="http://www.w3.org/2000/svg">
<g clip-path="url(#clip0_177_42)">
<path d="M40.327 45.8145C42.4931 45.8123 44.6586 45.7941 46.8246 45.7752C48.2061 45.7723 49.5876 45.7703 50.9691 45.7693C52.2215 45.7652 53.4738 45.7611 54.7641 45.7569C57.8211 45.9864 59.4811 46.3204 62.0004 47.9998C63.8892 50.5183 64.0075 51.828 63.8754 54.9998C62.8413 58.5451 61.8985 59.7402 59.0004 61.9998C55.9193 62.4822 55.9193 62.4822 52.3285 62.4686C51.024 62.4827 49.7194 62.4969 48.3754 62.5115C46.3174 62.5091 44.2595 62.4999 42.2016 62.4905C30.9647 62.4214 30.9647 62.4214 21.0004 66.9998C12.2104 77.8626 15.4025 96.3387 15.0004 108C174.06 108 333.12 108 497 108C498.107 86.7197 498.107 86.7197 490.625 67.0623C485.936 63.3781 482.115 62.7498 476.212 62.7493C475.539 62.7465 474.866 62.7437 474.172 62.7408C471.912 62.7338 469.652 62.7411 467.392 62.7483C465.757 62.7461 464.123 62.7431 462.488 62.7393C457.992 62.7312 453.496 62.7355 449 62.7418C444.152 62.7463 439.305 62.7393 434.458 62.7335C426.057 62.7248 417.657 62.723 409.256 62.7254C397.106 62.7285 384.956 62.7169 372.806 62.7009C353.089 62.6749 333.371 62.6549 313.653 62.6414C311.883 62.6402 311.883 62.6402 310.076 62.639C293.316 62.6277 276.555 62.6225 259.795 62.6196C258.024 62.6193 258.024 62.6193 256.217 62.619C255.038 62.6188 253.858 62.6186 252.643 62.6184C232.999 62.6146 213.355 62.5956 193.71 62.5639C181.587 62.5449 169.463 62.539 157.339 62.5497C149.037 62.556 140.736 62.548 132.434 62.5286C127.639 62.5179 122.845 62.5138 118.051 62.5271C113.666 62.5391 109.281 62.5329 104.896 62.5119C103.306 62.5076 101.716 62.5101 100.126 62.5199C97.9709 62.5323 95.8177 62.5203 93.6631 62.502C92.4644 62.5016 91.2656 62.5012 90.0306 62.5007C86.3957 61.8999 85.2254 60.8771 83.0004 57.9998C82.434 55.9998 82.434 55.9998 82.4379 53.9998C82.416 53.3398 82.3941 52.6798 82.3715 51.9998C83.3646 48.8416 85.2821 47.7963 88.0004 45.9998C91.1543 45.4984 91.1543 45.4984 94.785 45.4965C95.4577 45.4906 96.1305 45.4848 96.8237 45.4788C99.0826 45.4642 101.34 45.4781 103.599 45.4919C105.233 45.4873 106.867 45.4809 108.501 45.473C112.995 45.4562 117.489 45.4645 121.983 45.4769C126.828 45.486 131.674 45.472 136.519 45.461C146.015 45.4432 155.51 45.4471 165.005 45.4586C172.725 45.4677 180.444 45.4689 188.163 45.4646C189.261 45.4639 190.359 45.4633 191.49 45.4627C193.72 45.4614 195.951 45.4601 198.181 45.4588C219.111 45.4474 240.041 45.4605 260.971 45.482C278.923 45.4999 296.876 45.4968 314.829 45.4783C335.673 45.4569 356.518 45.4485 377.363 45.4608C379.587 45.4621 381.811 45.4633 384.035 45.4646C385.677 45.4655 385.677 45.4655 387.351 45.4664C395.057 45.4699 402.762 45.4641 410.467 45.4546C419.865 45.4434 429.262 45.4465 438.659 45.4678C443.452 45.4783 448.245 45.4824 453.038 45.4692C457.431 45.4572 461.822 45.4639 466.215 45.4851C467.799 45.4895 469.384 45.4873 470.969 45.4776C482.619 45.4115 492.892 46.668 502.215 54.2303C507.707 59.6739 511.618 66.3109 512.253 74.106C512.255 75.7804 512.255 75.7804 512.258 77.4886C512.264 78.7832 512.271 80.0779 512.277 81.4117C512.274 82.8414 512.271 84.271 512.268 85.7007C512.272 87.2249 512.276 88.7491 512.282 90.2734C512.294 94.4591 512.293 98.6448 512.291 102.831C512.291 107.346 512.302 111.861 512.311 116.377C512.328 125.223 512.333 134.069 512.334 142.914C512.335 150.105 512.34 157.296 512.346 164.487C512.363 184.876 512.373 205.265 512.371 225.653C512.371 227.302 512.371 227.302 512.371 228.984C512.371 230.085 512.371 231.185 512.371 232.319C512.37 250.153 512.389 267.987 512.417 285.821C512.446 304.134 512.46 322.448 512.458 340.761C512.457 351.042 512.463 361.323 512.484 371.603C512.503 380.357 512.507 389.111 512.493 397.865C512.487 402.33 512.487 406.795 512.504 411.26C512.52 415.351 512.517 419.441 512.5 423.532C512.497 425.009 512.5 426.485 512.511 427.962C512.592 439.334 511.189 448.632 503.2 457.176C496.108 463.058 487.989 466.123 478.882 466.128C477.618 466.132 476.356 466.135 475.054 466.138C473.65 466.137 472.246 466.135 470.841 466.134C469.352 466.135 467.862 466.138 466.372 466.14C462.273 466.147 458.174 466.146 454.075 466.145C449.656 466.145 445.238 466.151 440.819 466.155C432.161 466.164 423.502 466.166 414.844 466.167C407.809 466.167 400.774 466.169 393.739 466.173C373.806 466.181 353.873 466.186 333.94 466.185C332.865 466.185 331.79 466.185 330.683 466.185C329.606 466.185 328.53 466.185 327.421 466.185C309.968 466.185 292.514 466.194 275.061 466.208C257.152 466.223 239.244 466.23 221.335 466.229C211.276 466.228 201.216 466.231 191.157 466.242C182.594 466.251 174.032 466.253 165.469 466.246C161.098 466.243 156.727 466.243 152.356 466.252C148.358 466.259 144.36 466.258 140.361 466.249C138.912 466.248 137.462 466.25 136.013 466.255C134.048 466.262 132.084 466.256 130.119 466.249C129.026 466.249 127.933 466.249 126.807 466.249C123.988 465.999 122.363 465.52 120 464C118.112 461.481 117.993 460.172 118.125 457C119.155 453.471 120.137 452.269 123 450C125.796 449.501 125.796 449.501 129.092 449.503C130.35 449.494 131.607 449.485 132.902 449.476C134.299 449.486 135.697 449.497 137.095 449.508C138.577 449.505 140.06 449.5 141.543 449.494C145.623 449.481 149.703 449.493 153.783 449.51C158.181 449.523 162.579 449.513 166.977 449.506C174.601 449.496 182.225 449.5 189.849 449.514C200.881 449.533 211.913 449.527 222.944 449.513C240.853 449.492 258.762 449.485 276.671 449.491C278.28 449.491 278.28 449.491 279.921 449.492C288.619 449.494 297.317 449.498 306.016 449.501C313.613 449.504 321.211 449.507 328.808 449.509C329.878 449.509 330.947 449.51 332.05 449.51C349.886 449.515 367.722 449.504 385.559 449.483C396.562 449.47 407.565 449.471 418.569 449.491C426.11 449.504 433.651 449.502 441.192 449.49C445.543 449.483 449.894 449.483 454.245 449.5C458.23 449.516 462.215 449.513 466.2 449.496C467.64 449.493 469.08 449.497 470.52 449.509C478.394 449.567 484.361 449.476 491 445C495.245 439.764 496.12 434.107 496.139 427.559C496.145 426.472 496.15 425.385 496.156 424.266C496.157 423.079 496.158 421.891 496.159 420.668C496.166 418.773 496.166 418.773 496.174 416.84C496.187 413.33 496.195 409.82 496.201 406.309C496.209 402.467 496.223 398.626 496.236 394.784C496.261 387.325 496.28 379.866 496.298 372.407C496.319 363.78 496.346 355.153 496.373 346.526C496.442 323.746 496.502 300.967 496.563 278.187C496.779 201.865 496.779 201.865 497 124C337.94 124 178.88 124 15.0004 124C15.1035 174.799 15.2066 225.599 15.3129 277.937C15.3378 293.987 15.3627 310.037 15.3883 326.574C15.4249 340.94 15.4249 340.94 15.4654 355.306C15.4834 361.713 15.4932 368.12 15.4975 374.527C15.5025 381.917 15.5178 389.307 15.5459 396.697C15.5599 400.477 15.5693 404.256 15.5654 408.036C15.5614 412.087 15.5804 416.136 15.6017 420.187C15.5944 421.95 15.5944 421.95 15.587 423.75C15.6554 431.673 16.2686 438.621 21.3754 444.937C25.9862 448.56 29.757 449.249 35.5631 449.255C36.8712 449.262 38.1793 449.269 39.527 449.276C40.2209 449.276 40.9148 449.275 41.6297 449.274C43.8115 449.273 45.9928 449.286 48.1746 449.303C54.3747 449.349 60.5748 449.374 66.775 449.381C70.5741 449.386 74.3727 449.41 78.1716 449.446C79.6168 449.456 81.0621 449.458 82.5074 449.453C84.5273 449.446 86.5472 449.465 88.567 449.486C89.7156 449.489 90.8641 449.491 92.0474 449.494C95.6249 450.107 96.7959 451.175 99.0004 454C99.5668 456 99.5668 456 99.5629 458C99.5958 458.99 99.5958 458.99 99.6293 460C98.6387 463.15 96.7057 464.202 94.0004 466C90.9296 466.508 90.9296 466.508 87.4569 466.517C85.4987 466.536 85.4987 466.536 83.5008 466.556C82.0814 466.548 80.662 466.54 79.2426 466.531C77.7739 466.534 76.3052 466.538 74.8366 466.543C71.7582 466.549 68.6803 466.54 65.6019 466.521C61.6849 466.499 57.7689 466.512 53.8519 466.536C50.8164 466.55 47.7811 466.545 44.7455 466.535C43.3033 466.532 41.861 466.536 40.4187 466.545C29.0095 466.603 18.898 465.16 9.78554 457.769C4.29387 452.326 0.382303 445.689 -0.252616 437.894C-0.254025 436.777 -0.255433 435.661 -0.256884 434.511C-0.263333 433.216 -0.269783 431.922 -0.276427 430.588C-0.273485 429.158 -0.270351 427.729 -0.267043 426.299C-0.27078 424.775 -0.275381 423.25 -0.280772 421.726C-0.293005 417.541 -0.292743 413.355 -0.290385 409.169C-0.289977 404.654 -0.301015 400.138 -0.3105 395.623C-0.327113 386.777 -0.332609 377.931 -0.333724 369.085C-0.334674 361.894 -0.338785 354.703 -0.345126 347.513C-0.362739 327.124 -0.371963 306.735 -0.370463 286.346C-0.370383 285.247 -0.370305 284.148 -0.370223 283.015C-0.370141 281.915 -0.370059 280.814 -0.369975 279.681C-0.369162 261.847 -0.388299 244.013 -0.416499 226.179C-0.445228 207.865 -0.45904 189.552 -0.457312 171.239C-0.456648 160.958 -0.46214 150.677 -0.483668 140.396C-0.501881 131.642 -0.506225 122.889 -0.492648 114.135C-0.486119 109.67 -0.486001 105.205 -0.503356 100.74C-0.519093 96.6489 -0.516214 92.5583 -0.498786 88.4672C-0.495717 86.9907 -0.499345 85.5143 -0.510508 84.0379C-0.590769 72.6661 0.81178 63.368 8.80116 54.824C18.5288 46.7551 28.2711 45.8131 40.327 45.8145Z" fill="white" fill-opacity="0.8"/>
<path d="M245.36 154.762C246.182 154.753 247.005 154.745 247.852 154.737C249.594 154.723 251.336 154.713 253.077 154.705C254.852 154.693 256.627 154.673 258.402 154.643C260.971 154.6 263.54 154.584 266.11 154.574C267.288 154.548 267.288 154.548 268.49 154.521C274.119 154.543 277.356 155.793 282 159C283.785 161.191 283.785 161.191 285.063 163.562C285.554 164.432 286.045 165.303 286.551 166.199C287.532 168.095 288.466 170.016 289.356 171.957C291.81 177.093 293.589 180.403 298.938 182.75C305.67 184.791 310.476 183.194 316.938 180.937C322.698 178.962 327.602 177.518 333.438 180.062C335.815 183.01 336 185.254 336 189C332.839 194.736 327.827 195.94 321.938 197.812C320.601 198.279 320.601 198.279 319.237 198.756C309.071 202.09 300.419 202.113 290.688 197.562C289.903 197.201 289.118 196.84 288.31 196.468C281.927 193.334 279.101 190.546 276 184C274.02 180.04 272.04 176.08 270 172C260.76 172 251.52 172 242 172C239.045 178.016 239.045 178.016 236.139 184.055C233.094 190.042 230.021 193.077 224 196C222.506 196.783 222.506 196.783 220.981 197.582C210.032 202.406 202.062 201.902 191.126 197.692C187.604 196.36 185.543 195.654 182 197C178.797 199.397 175.996 202.218 173.125 205C172.316 205.731 171.506 206.462 170.672 207.215C166.421 211.12 166.421 211.12 164.884 216.416C165.383 218.751 166.067 220.805 167 223C167.281 223.812 167.562 224.624 167.852 225.461C168.235 226.408 168.235 226.408 168.625 227.375C172.215 238.333 169.294 247.006 164.332 257.004C161.417 262.342 158.545 264.373 153 267C149.04 268.98 145.08 270.96 141 273C141 282.24 141 291.48 141 301C147.016 303.955 147.016 303.955 153.056 306.861C159.043 309.906 162.077 312.979 165 319C165.522 319.996 166.044 320.993 166.582 322.019C171.406 332.969 170.902 340.938 166.692 351.874C165.361 355.396 164.655 357.458 166 361C168.397 364.203 171.219 367.004 174 369.875C174.731 370.684 175.462 371.494 176.215 372.328C180.119 376.579 180.119 376.579 185.415 378.117C187.75 377.617 189.805 376.931 192 376C192.824 375.719 193.648 375.438 194.496 375.148C195.137 374.893 195.778 374.638 196.438 374.375C205.119 371.516 211.5 372.847 219.813 376.187C220.542 376.479 221.272 376.77 222.024 377.07C230.259 380.605 233.892 386.031 237.813 393.812C239.195 396.514 240.577 399.216 242 402C251.24 402 260.48 402 270 402C273.039 395.936 273.039 395.936 276.042 389.854C281.288 379.639 290.558 376.397 301 373C308.068 371.522 314.246 373.792 320.825 376.308C324.359 377.634 326.449 378.35 330 377C333.204 374.603 336.005 371.781 338.875 369C339.685 368.269 340.494 367.538 341.328 366.785C345.58 362.88 345.58 362.88 347.117 357.583C346.618 355.248 345.934 353.195 345 351C344.719 350.188 344.438 349.376 344.149 348.539C343.894 347.907 343.638 347.276 343.375 346.625C340.471 337.835 341.602 330.963 345.188 322.625C345.625 321.608 345.625 321.608 346.07 320.57C349.735 312.647 355.226 309.011 362.813 305.187C365.515 303.805 368.217 302.424 371 301C371 291.76 371 282.52 371 273C364.985 270.044 364.985 270.044 358.945 267.139C352.958 264.093 349.923 261.021 347 255C346.478 254.003 345.956 253.007 345.418 251.98C340.594 241.029 341.155 233.537 345.289 222.499C347.05 217.577 347.037 214.086 346.153 209.027C346 207 346 207 347.625 203.937C350.312 201.746 351.536 201 355 201C358.718 202.264 360.55 203.384 362.875 206.562C365.593 214.865 363.819 221.698 360.692 229.646C358.344 235.852 359.66 240.252 361.563 246.375C361.967 247.686 361.967 247.686 362.379 249.023C362.584 249.676 362.789 250.328 363 251C363.669 251.087 364.338 251.175 365.028 251.265C368.846 252.209 372.119 253.908 375.563 255.75C376.552 256.253 376.552 256.253 377.561 256.765C382.679 259.481 386.105 262.315 388 268C388.134 270.879 388.213 273.733 388.239 276.613C388.247 277.46 388.255 278.307 388.263 279.18C388.277 280.973 388.288 282.766 388.295 284.559C388.313 287.292 388.357 290.023 388.401 292.756C388.411 294.5 388.419 296.244 388.426 297.988C388.444 298.801 388.461 299.614 388.479 300.451C388.459 305.777 387.517 308.764 384 313C381.774 314.722 381.774 314.722 379.375 316.062C378.503 316.565 377.63 317.068 376.731 317.586C374 319 374 319 371.301 320.101C366.021 322.296 363.39 324.157 360.813 329.375C358.611 335.238 358.877 338.845 360.977 344.742C363.706 352.458 366.063 359.264 362.657 367.086C359.471 372.351 354.879 376.531 350.519 380.817C348.995 382.317 347.485 383.83 345.977 385.346C336.006 395.259 336.006 395.259 329.188 395.437C322.748 395.368 317.411 393.302 311.481 390.996C307.593 389.883 305.858 389.882 302 391C301.278 391.209 300.555 391.417 299.811 391.632C293.922 393.721 291.59 396.346 288.899 401.91C288.52 402.765 288.141 403.619 287.75 404.5C282.575 415.712 282.575 415.712 276 419C273.081 419.136 270.187 419.213 267.266 419.238C266.395 419.246 265.524 419.254 264.627 419.263C262.781 419.276 260.935 419.287 259.089 419.295C256.275 419.312 253.462 419.356 250.649 419.4C248.854 419.41 247.06 419.419 245.266 419.426C244.009 419.452 244.009 419.452 242.727 419.479C237.331 419.459 234.286 418.581 230 415C228.278 412.773 228.278 412.773 226.938 410.375C226.435 409.502 225.932 408.629 225.414 407.73C224 405 224 405 222.899 402.301C220.704 397.02 218.843 394.389 213.625 391.812C207.779 389.617 204.17 389.856 198.293 391.976C184.809 396.789 184.809 396.789 178 395C171.193 390.969 165.712 385.013 160.188 379.437C159.343 378.6 158.498 377.763 157.627 376.9C156.816 376.086 156.004 375.272 155.168 374.433C154.439 373.702 153.71 372.97 152.958 372.216C148.608 367.291 147.428 363.693 147.559 357.246C148.266 352.044 150.107 347.359 152.004 342.48C153.117 338.592 153.118 336.857 152 333C151.687 331.916 151.687 331.916 151.368 330.81C149.279 324.922 146.655 322.589 141.09 319.898C140.236 319.519 139.381 319.14 138.5 318.75C127.288 313.575 127.288 313.575 124 307C123.865 304.165 123.788 301.356 123.762 298.519C123.754 297.673 123.746 296.827 123.738 295.955C123.724 294.16 123.713 292.366 123.705 290.571C123.688 287.84 123.644 285.111 123.6 282.381C123.59 280.635 123.581 278.89 123.575 277.144C123.557 276.334 123.54 275.523 123.521 274.688C123.543 268.986 124.696 265.678 128 261C131.287 258.762 134.538 257.206 138.168 255.59C145.437 252.115 149.646 249.384 152.395 241.621C153.48 236.923 152.614 233.724 151.024 229.258C148.288 221.524 145.917 214.703 149.383 206.879C152.445 201.822 156.762 197.791 160.945 193.664C162.376 192.249 163.79 190.819 165.203 189.387C166.114 188.48 167.024 187.574 167.961 186.64C168.784 185.821 169.607 185.001 170.455 184.157C175.367 179.994 179.699 178.415 186.012 178.558C190.415 179.209 194.519 180.684 198.647 182.308C202.926 183.927 205.608 184.274 210 183C211.084 182.687 211.084 182.687 212.19 182.367C218.078 180.279 220.411 177.654 223.102 172.09C223.67 170.808 223.67 170.808 224.25 169.5C229.088 159.018 229.088 159.018 234 156C237.8 154.733 241.398 154.798 245.36 154.762Z" fill="white" fill-opacity="0.8"/>
<path d="M306 248C308.333 249.536 308.333 249.536 310.593 251.73C311.453 252.553 312.313 253.376 313.199 254.224C314.123 255.14 315.047 256.056 316 257C317.005 257.977 318.012 258.953 319.019 259.928C321.666 262.503 324.287 265.102 326.898 267.713C328.52 269.333 330.15 270.945 331.781 272.557C332.823 273.596 333.865 274.636 334.906 275.676C335.837 276.603 336.768 277.53 337.728 278.486C340.545 281.604 341.966 283.536 342.062 287.75C339.132 296.714 329.064 304.09 322.473 310.657C320.67 312.454 318.873 314.257 317.076 316.061C315.93 317.206 314.783 318.351 313.636 319.496C312.832 320.304 312.832 320.304 312.011 321.128C307.221 325.887 307.221 325.887 302.625 326.313C299 326 299 326 296.562 324.5C294.406 321.051 294.245 317.914 295 314C296.519 311.434 298.51 309.55 300.687 307.531C301.264 306.965 301.841 306.4 302.436 305.817C304.272 304.025 306.135 302.263 308 300.5C309.254 299.286 310.507 298.07 311.757 296.852C314.818 293.879 317.902 290.933 321 288C319.42 284.014 316.625 281.5 313.554 278.641C312.466 277.597 311.379 276.553 310.292 275.508C308.585 273.875 306.873 272.248 305.144 270.638C303.47 269.074 301.824 267.485 300.179 265.891C299.661 265.419 299.142 264.948 298.607 264.463C295.796 261.694 294.658 259.657 294.543 255.788C295 252 295 252 297.125 249.5C300.498 247.74 302.237 247.604 306 248Z" fill="white" fill-opacity="0.8"/>
<path d="M212 248C214.875 249.5 214.875 249.5 217 252C217.854 258.561 217.854 258.561 215.982 261.715C214.51 263.414 212.961 264.94 211.312 266.469C210.735 267.035 210.158 267.6 209.564 268.183C207.727 269.975 205.865 271.737 204 273.5C202.746 274.714 201.493 275.931 200.242 277.149C197.182 280.121 194.098 283.067 191 286C192.579 289.986 195.375 292.5 198.445 295.359C199.533 296.403 200.621 297.447 201.707 298.492C203.415 300.126 205.127 301.752 206.856 303.362C208.529 304.926 210.176 306.515 211.82 308.109C212.339 308.581 212.858 309.052 213.392 309.537C216.212 312.315 217.334 314.332 217.421 318.212C217 322 217 322 215.438 324.5C211.894 326.681 210.109 326.753 206 326C198.764 321.011 192.603 313.789 186.398 307.583C184.613 305.801 182.82 304.026 181.027 302.252C179.885 301.113 178.743 299.973 177.602 298.832C177.068 298.306 176.535 297.78 175.986 297.238C172.527 293.758 170.051 291.254 169.938 286.25C172.81 277.463 182.577 270.269 189.044 263.825C190.764 262.111 192.478 260.392 194.191 258.672C195.289 257.575 196.386 256.479 197.484 255.383C197.994 254.871 198.503 254.36 199.028 253.833C203.28 249.61 205.826 247.259 212 248Z" fill="white" fill-opacity="0.8"/>
<path d="M271.5 247.5C275 248 275 248 277.375 249.688C279.311 252.442 279.833 253.62 280 257C278.97 260.175 277.443 263.089 275.938 266.062C275.471 267.008 275.004 267.954 274.523 268.928C273.397 271.205 272.264 273.478 271.125 275.748C269.041 279.906 266.99 284.079 264.939 288.253C262.966 292.264 260.985 296.272 259.001 300.278C258 302.302 257.001 304.327 256.004 306.354C254.583 309.236 253.152 312.113 251.719 314.988C251.072 316.307 251.072 316.307 250.413 317.653C250.008 318.46 249.603 319.267 249.186 320.099C248.835 320.807 248.484 321.515 248.122 322.244C247 324 247 324 244 326C240.077 326.428 237.892 326.634 234.625 324.312C232.685 321.552 232.163 320.388 232 317C233.053 313.784 234.599 310.827 236.125 307.812C236.595 306.86 237.065 305.908 237.549 304.927C238.669 302.664 239.796 300.405 240.927 298.148C242.932 294.148 244.905 290.132 246.877 286.115C248.75 282.303 250.632 278.495 252.516 274.688C253.462 272.774 254.406 270.859 255.348 268.942C256.692 266.214 258.046 263.491 259.402 260.77C259.806 259.944 260.21 259.119 260.626 258.269C265.608 248.342 265.608 248.342 271.5 247.5Z" fill="white" fill-opacity="0.8"/>
<path d="M416.001 78.0001C417.938 79.0626 417.938 79.0626 419.001 81.0001C419.755 87.7925 419.755 87.7925 417.438 91.5001C414.077 93.5686 411.881 93.4851 408.001 93.0001C405.626 91.9376 405.626 91.9376 404.001 90.0001C403.128 86.5712 402.671 84.1075 403.688 80.6876C407.156 76.2294 410.784 76.767 416.001 78.0001Z" fill="white" fill-opacity="0.8"/>
<path d="M474.5 77.1874C478 77.9999 478 77.9999 479.938 79.0624C481.694 82.2648 481.62 85.4968 481 88.9999C479.438 91.4999 479.438 91.4999 477 92.9999C473.015 93.5691 470.945 93.6714 467.625 91.3124C465.781 88.6879 465.078 87.2106 465 83.9999C467.172 79.3291 469.077 76.8969 474.5 77.1874Z" fill="white" fill-opacity="0.8"/>
<path d="M443.5 77.1874C447 77.9999 447 77.9999 448.938 79.0624C450.694 82.2648 450.62 85.4968 450 88.9999C448.438 91.4999 448.438 91.4999 446 92.9999C442.015 93.5691 439.945 93.6714 436.625 91.3124C434.781 88.6879 434.078 87.2106 434 83.9999C436.172 79.3291 438.077 76.8969 443.5 77.1874Z" fill="white" fill-opacity="0.8"/>
</g>
<defs>
<clipPath id="clip0_177_42">
<rect width="512" height="512" fill="white"/>
</clipPath>
</defs>
</svg>
