<svg width="14289" height="3240" viewBox="0 0 14289 3240" fill="none" xmlns="http://www.w3.org/2000/svg">
<g filter="url(#filter0_d_98_121)">
<path d="M2298.38 2916.75L2850.61 2703.97L901.663 1297.65L903.03 1904.75L2298.38 2916.75Z" fill="url(#paint0_linear_98_121)"/>
</g>
<path d="M2295.4 2917.89L2850.71 2703.93L2835.75 64.8369L2276.24 280.417L2295.4 2917.89Z" fill="url(#paint1_linear_98_121)"/>
<g filter="url(#filter1_d_98_121)">
<path d="M556.234 1.14773L4.00028 213.923L1952.95 1620.25L1951.58 1013.14L556.234 1.14773Z" fill="url(#paint2_linear_98_121)"/>
</g>
<path d="M559.213 0L3.89608 213.963L18.8551 2853.06L578.368 2637.48L559.213 0Z" fill="url(#paint3_linear_98_121)"/>
<path d="M3348.66 2399.28V669.081H3682.16L4449.47 1902.79V669.081H4755.39V2399.28H4424.39L3654.58 1165.57V2399.28H3348.66ZM5112.57 2003.09V1479.01C5112.57 1214.89 5244.64 1082.82 5508.76 1082.82H5834.74C6097.2 1082.82 6228.42 1214.89 6228.42 1479.01V1850.13H5405.95V2028.16C5405.95 2105.06 5444.4 2143.51 5521.3 2143.51H6178.27V2301.49L6045.37 2399.28H5508.76C5244.64 2399.28 5112.57 2267.22 5112.57 2003.09ZM5405.95 1621.94H5935.04V1453.94C5935.04 1377.04 5896.59 1338.59 5819.7 1338.59H5521.3C5444.4 1338.59 5405.95 1377.04 5405.95 1453.94V1621.94ZM6444.33 2349.13L6885.65 1732.28L6456.87 1132.97L6481.94 1082.82H6752.75L7051.15 1514.12L7352.05 1082.82H7622.87L7647.94 1132.97L7219.16 1732.28L7660.48 2349.13L7637.91 2399.28H7364.59L7051.15 1950.43L6737.71 2399.28H6466.9L6444.33 2349.13Z" fill="#070707"/>
<path d="M7938.74 2399.28V669.081H8751.18C9000.26 669.081 9124.8 793.622 9124.8 1042.7V1316.02C9124.8 1535.02 9027.84 1656.21 8833.93 1679.62L9174.95 2356.65L9152.39 2399.28H9014.47L8653.39 1687.14H8106.74V2399.28H7938.74ZM8106.74 1536.69H8761.21C8891.6 1536.69 8956.8 1470.66 8956.8 1338.59V1017.63C8956.8 887.237 8891.6 822.041 8761.21 822.041H8106.74V1536.69ZM9467.57 2030.67V1468.98C9467.57 1223.25 9590.44 1100.38 9836.18 1100.38H10187.2C10431.3 1100.38 10553.3 1223.25 10553.3 1468.98V2030.67C10553.3 2276.41 10431.3 2399.28 10187.2 2399.28H9836.18C9590.44 2399.28 9467.57 2276.41 9467.57 2030.67ZM9625.55 2055.75C9625.55 2192.83 9694.08 2261.36 9831.16 2261.36H10192.2C10327.7 2261.36 10395.4 2192.83 10395.4 2055.75V1443.91C10395.4 1308.5 10327.7 1240.8 10192.2 1240.8H9831.16C9694.08 1240.8 9625.55 1308.5 9625.55 1443.91V2055.75ZM10766.6 1132.97L10786.6 1100.38H10924.5L11325.7 2261.36H11383.4L11787.1 1100.38H11922.5L11942.6 1132.97L11493.7 2399.28H11217.9L10766.6 1132.97ZM12152.7 2030.67V1468.98C12152.7 1223.25 12275.6 1100.38 12521.3 1100.38H12847.3C13091.3 1100.38 13213.4 1223.25 13213.4 1468.98V1812.52H12310.7V2055.75C12310.7 2192.83 12379.2 2261.36 12516.3 2261.36H13163.2V2334.08L13078 2399.28H12521.3C12275.6 2399.28 12152.7 2276.41 12152.7 2030.67ZM12310.7 1679.62H13055.4V1443.91C13055.4 1308.5 12987.7 1240.8 12852.3 1240.8H12516.3C12379.2 1240.8 12310.7 1308.5 12310.7 1443.91V1679.62ZM13572.6 2399.28V1245.81C13631.1 1148.86 13737.3 1100.38 13891.1 1100.38H14136.8L14222.1 1165.57V1240.8H13898.6C13821.7 1240.8 13765.7 1261.69 13730.6 1303.49V2399.28H13572.6Z" fill="black"/>
<defs>
<filter id="filter0_d_98_121" x="897.662" y="1297.65" width="1956.95" height="1627.1" filterUnits="userSpaceOnUse" color-interpolation-filters="sRGB">
<feFlood flood-opacity="0" result="BackgroundImageFix"/>
<feColorMatrix in="SourceAlpha" type="matrix" values="0 0 0 0 0 0 0 0 0 0 0 0 0 0 0 0 0 0 127 0" result="hardAlpha"/>
<feOffset dy="4"/>
<feGaussianBlur stdDeviation="2"/>
<feComposite in2="hardAlpha" operator="out"/>
<feColorMatrix type="matrix" values="0 0 0 0 0 0 0 0 0 0 0 0 0 0 0 0 0 0 0.25 0"/>
<feBlend mode="normal" in2="BackgroundImageFix" result="effect1_dropShadow_98_121"/>
<feBlend mode="normal" in="SourceGraphic" in2="effect1_dropShadow_98_121" result="shape"/>
</filter>
<filter id="filter1_d_98_121" x="0" y="1.14746" width="1956.95" height="1627.1" filterUnits="userSpaceOnUse" color-interpolation-filters="sRGB">
<feFlood flood-opacity="0" result="BackgroundImageFix"/>
<feColorMatrix in="SourceAlpha" type="matrix" values="0 0 0 0 0 0 0 0 0 0 0 0 0 0 0 0 0 0 127 0" result="hardAlpha"/>
<feOffset dy="4"/>
<feGaussianBlur stdDeviation="2"/>
<feComposite in2="hardAlpha" operator="out"/>
<feColorMatrix type="matrix" values="0 0 0 0 0 0 0 0 0 0 0 0 0 0 0 0 0 0 0.25 0"/>
<feBlend mode="normal" in2="BackgroundImageFix" result="effect1_dropShadow_98_121"/>
<feBlend mode="normal" in="SourceGraphic" in2="effect1_dropShadow_98_121" result="shape"/>
</filter>
<linearGradient id="paint0_linear_98_121" x1="2136.76" y1="2979.02" x2="1616.88" y2="1629.71" gradientUnits="userSpaceOnUse">
<stop stop-color="#205A9F"/>
<stop offset="1" stop-color="#40D3EA"/>
</linearGradient>
<linearGradient id="paint1_linear_98_121" x1="1851.73" y1="1766.41" x2="3279.42" y2="1216.32" gradientUnits="userSpaceOnUse">
<stop stop-color="#06C7E6" stop-opacity="0.2"/>
<stop offset="1" stop-color="#06C7E6"/>
</linearGradient>
<linearGradient id="paint2_linear_98_121" x1="717.846" y1="-61.1214" x2="1237.73" y2="1288.19" gradientUnits="userSpaceOnUse">
<stop stop-color="#205A9F"/>
<stop offset="1" stop-color="#40D3EA"/>
</linearGradient>
<linearGradient id="paint3_linear_98_121" x1="1002.88" y1="1151.48" x2="-424.812" y2="1701.57" gradientUnits="userSpaceOnUse">
<stop stop-color="#06C7E6" stop-opacity="0.2"/>
<stop offset="1" stop-color="#06C7E6"/>
</linearGradient>
</defs>
</svg>
