<svg width="12032" height="2925" viewBox="0 0 12032 2925" fill="none" xmlns="http://www.w3.org/2000/svg">
<g filter="url(#filter0_d_89_49)">
<path d="M2298.38 2916.75L2850.61 2703.97L901.666 1297.65L903.033 1904.75L2298.38 2916.75Z" fill="url(#paint0_linear_89_49)"/>
</g>
<path d="M2295.4 2917.89L2850.72 2703.93L2835.76 64.8369L2276.24 280.417L2295.4 2917.89Z" fill="url(#paint1_linear_89_49)"/>
<g filter="url(#filter1_d_89_49)">
<path d="M556.234 1.14773L4.00028 213.923L1952.95 1620.25L1951.58 1013.14L556.234 1.14773Z" fill="url(#paint2_linear_89_49)"/>
</g>
<path d="M559.214 0L3.89703 213.963L18.8561 2853.06L578.369 2637.48L559.214 0Z" fill="url(#paint3_linear_89_49)"/>
<path d="M3305.81 2038.28V658.279H3571.81L4183.81 1642.28V658.279H4427.81V2038.28H4163.81L3549.81 1054.28V2038.28H3305.81ZM4712.7 1722.28V1304.28C4712.7 1093.61 4818.03 988.279 5028.7 988.279H5288.7C5498.03 988.279 5602.7 1093.61 5602.7 1304.28V1600.28H4946.7V1742.28C4946.7 1803.61 4977.36 1834.28 5038.7 1834.28H5562.7V1960.28L5456.7 2038.28H5028.7C4818.03 2038.28 4712.7 1932.95 4712.7 1722.28ZM4946.7 1418.28H5368.7V1284.28C5368.7 1222.95 5338.03 1192.28 5276.7 1192.28H5038.7C4977.36 1192.28 4946.7 1222.95 4946.7 1284.28V1418.28ZM5774.9 1998.28L6126.9 1506.28L5784.9 1028.28L5804.9 988.279H6020.9L6258.9 1332.28L6498.9 988.279H6714.9L6734.9 1028.28L6392.9 1506.28L6744.9 1998.28L6726.9 2038.28H6508.9L6258.9 1680.28L6008.9 2038.28H5792.9L5774.9 1998.28Z" fill="#F3F3F3"/>
<path d="M6966.84 2038.28V658.279H7614.84C7813.5 658.279 7912.84 757.613 7912.84 956.279V1174.28C7912.84 1348.95 7835.5 1445.61 7680.84 1464.28L7952.84 2004.28L7934.84 2038.28H7824.84L7536.84 1470.28H7100.84V2038.28H6966.84ZM7100.84 1350.28H7622.84C7726.84 1350.28 7778.84 1297.61 7778.84 1192.28V936.279C7778.84 832.279 7726.84 780.279 7622.84 780.279H7100.84V1350.28ZM8186.23 1744.28V1296.28C8186.23 1100.28 8284.23 1002.28 8480.23 1002.28H8760.23C8954.9 1002.28 9052.23 1100.28 9052.23 1296.28V1744.28C9052.23 1940.28 8954.9 2038.28 8760.23 2038.28H8480.23C8284.23 2038.28 8186.23 1940.28 8186.23 1744.28ZM8312.23 1764.28C8312.23 1873.61 8366.9 1928.28 8476.23 1928.28H8764.23C8872.23 1928.28 8926.23 1873.61 8926.23 1764.28V1276.28C8926.23 1168.28 8872.23 1114.28 8764.23 1114.28H8476.23C8366.9 1114.28 8312.23 1168.28 8312.23 1276.28V1764.28ZM9222.29 1028.28L9238.29 1002.28H9348.29L9668.29 1928.28H9714.29L10036.3 1002.28H10144.3L10160.3 1028.28L9802.29 2038.28H9582.29L9222.29 1028.28ZM10327.9 1744.28V1296.28C10327.9 1100.28 10425.9 1002.28 10621.9 1002.28H10881.9C11076.5 1002.28 11173.9 1100.28 11173.9 1296.28V1570.28H10453.9V1764.28C10453.9 1873.61 10508.5 1928.28 10617.9 1928.28H11133.9V1986.28L11065.9 2038.28H10621.9C10425.9 2038.28 10327.9 1940.28 10327.9 1744.28ZM10453.9 1464.28H11047.9V1276.28C11047.9 1168.28 10993.9 1114.28 10885.9 1114.28H10617.9C10508.5 1114.28 10453.9 1168.28 10453.9 1276.28V1464.28ZM11460.4 2038.28V1118.28C11507.1 1040.95 11591.7 1002.28 11714.4 1002.28H11910.4L11978.4 1054.28V1114.28H11720.4C11659.1 1114.28 11614.4 1130.95 11586.4 1164.28V2038.28H11460.4Z" fill="#FBFBFB"/>
<defs>
<filter id="filter0_d_89_49" x="897.666" y="1297.65" width="1956.95" height="1627.1" filterUnits="userSpaceOnUse" color-interpolation-filters="sRGB">
<feFlood flood-opacity="0" result="BackgroundImageFix"/>
<feColorMatrix in="SourceAlpha" type="matrix" values="0 0 0 0 0 0 0 0 0 0 0 0 0 0 0 0 0 0 127 0" result="hardAlpha"/>
<feOffset dy="4"/>
<feGaussianBlur stdDeviation="2"/>
<feComposite in2="hardAlpha" operator="out"/>
<feColorMatrix type="matrix" values="0 0 0 0 0 0 0 0 0 0 0 0 0 0 0 0 0 0 0.25 0"/>
<feBlend mode="normal" in2="BackgroundImageFix" result="effect1_dropShadow_89_49"/>
<feBlend mode="normal" in="SourceGraphic" in2="effect1_dropShadow_89_49" result="shape"/>
</filter>
<filter id="filter1_d_89_49" x="0" y="1.14746" width="1956.95" height="1627.1" filterUnits="userSpaceOnUse" color-interpolation-filters="sRGB">
<feFlood flood-opacity="0" result="BackgroundImageFix"/>
<feColorMatrix in="SourceAlpha" type="matrix" values="0 0 0 0 0 0 0 0 0 0 0 0 0 0 0 0 0 0 127 0" result="hardAlpha"/>
<feOffset dy="4"/>
<feGaussianBlur stdDeviation="2"/>
<feComposite in2="hardAlpha" operator="out"/>
<feColorMatrix type="matrix" values="0 0 0 0 0 0 0 0 0 0 0 0 0 0 0 0 0 0 0.25 0"/>
<feBlend mode="normal" in2="BackgroundImageFix" result="effect1_dropShadow_89_49"/>
<feBlend mode="normal" in="SourceGraphic" in2="effect1_dropShadow_89_49" result="shape"/>
</filter>
<linearGradient id="paint0_linear_89_49" x1="2136.77" y1="2979.02" x2="1616.88" y2="1629.71" gradientUnits="userSpaceOnUse">
<stop stop-color="#205A9F"/>
<stop offset="1" stop-color="#40D3EA"/>
</linearGradient>
<linearGradient id="paint1_linear_89_49" x1="1851.73" y1="1766.41" x2="3279.42" y2="1216.32" gradientUnits="userSpaceOnUse">
<stop stop-color="#06C7E6" stop-opacity="0.2"/>
<stop offset="1" stop-color="#06C7E6"/>
</linearGradient>
<linearGradient id="paint2_linear_89_49" x1="717.846" y1="-61.1214" x2="1237.73" y2="1288.19" gradientUnits="userSpaceOnUse">
<stop stop-color="#205A9F"/>
<stop offset="1" stop-color="#40D3EA"/>
</linearGradient>
<linearGradient id="paint3_linear_89_49" x1="1002.88" y1="1151.48" x2="-424.811" y2="1701.57" gradientUnits="userSpaceOnUse">
<stop stop-color="#06C7E6" stop-opacity="0.2"/>
<stop offset="1" stop-color="#06C7E6"/>
</linearGradient>
</defs>
</svg>
