<svg width="12032" height="2925" viewBox="0 0 12032 2925" fill="none" xmlns="http://www.w3.org/2000/svg">
<g filter="url(#filter0_d_115_2)">
<path d="M2298.38 2916.75L2850.61 2703.97L901.663 1297.65L903.03 1904.75L2298.38 2916.75Z" fill="url(#paint0_linear_115_2)"/>
</g>
<path d="M2295.4 2917.9L2850.71 2703.93L2835.75 64.8384L2276.24 280.419L2295.4 2917.9Z" fill="url(#paint1_linear_115_2)"/>
<g filter="url(#filter1_d_115_2)">
<path d="M556.234 1.14822L4.00028 213.924L1952.95 1620.25L1951.58 1013.14L556.234 1.14822Z" fill="url(#paint2_linear_115_2)"/>
</g>
<path d="M559.213 0L3.89605 213.963L18.8551 2853.06L578.368 2637.48L559.213 0Z" fill="url(#paint3_linear_115_2)"/>
<path d="M3305.8 2038.28V658.281H3571.8L4183.8 1642.28V658.281H4427.8V2038.28H4163.8L3549.8 1054.28V2038.28H3305.8ZM4712.69 1722.28V1304.28C4712.69 1093.61 4818.03 988.281 5028.69 988.281H5288.69C5498.03 988.281 5602.69 1093.61 5602.69 1304.28V1600.28H4946.69V1742.28C4946.69 1803.61 4977.36 1834.28 5038.69 1834.28H5562.69V1960.28L5456.69 2038.28H5028.69C4818.03 2038.28 4712.69 1932.95 4712.69 1722.28ZM4946.69 1418.28H5368.69V1284.28C5368.69 1222.95 5338.03 1192.28 5276.69 1192.28H5038.69C4977.36 1192.28 4946.69 1222.95 4946.69 1284.28V1418.28ZM5774.9 1998.28L6126.9 1506.28L5784.9 1028.28L5804.9 988.281H6020.9L6258.9 1332.28L6498.9 988.281H6714.9L6734.9 1028.28L6392.9 1506.28L6744.9 1998.28L6726.9 2038.28H6508.9L6258.9 1680.28L6008.9 2038.28H5792.9L5774.9 1998.28Z" fill="#070707"/>
<path d="M6966.83 2038.28V658.281H7614.83C7813.5 658.281 7912.83 757.614 7912.83 956.281V1174.28C7912.83 1348.95 7835.5 1445.61 7680.83 1464.28L7952.83 2004.28L7934.83 2038.28H7824.83L7536.83 1470.28H7100.83V2038.28H6966.83ZM7100.83 1350.28H7622.83C7726.83 1350.28 7778.83 1297.61 7778.83 1192.28V936.281C7778.83 832.281 7726.83 780.281 7622.83 780.281H7100.83V1350.28ZM8186.22 1744.28V1296.28C8186.22 1100.28 8284.22 1002.28 8480.22 1002.28H8760.22C8954.89 1002.28 9052.22 1100.28 9052.22 1296.28V1744.28C9052.22 1940.28 8954.89 2038.28 8760.22 2038.28H8480.22C8284.22 2038.28 8186.22 1940.28 8186.22 1744.28ZM8312.22 1764.28C8312.22 1873.61 8366.89 1928.28 8476.22 1928.28H8764.22C8872.22 1928.28 8926.22 1873.61 8926.22 1764.28V1276.28C8926.22 1168.28 8872.22 1114.28 8764.22 1114.28H8476.22C8366.89 1114.28 8312.22 1168.28 8312.22 1276.28V1764.28ZM9222.29 1028.28L9238.29 1002.28H9348.29L9668.29 1928.28H9714.29L10036.3 1002.28H10144.3L10160.3 1028.28L9802.29 2038.28H9582.29L9222.29 1028.28ZM10327.9 1744.28V1296.28C10327.9 1100.28 10425.9 1002.28 10621.9 1002.28H10881.9C11076.5 1002.28 11173.9 1100.28 11173.9 1296.28V1570.28H10453.9V1764.28C10453.9 1873.61 10508.5 1928.28 10617.9 1928.28H11133.9V1986.28L11065.9 2038.28H10621.9C10425.9 2038.28 10327.9 1940.28 10327.9 1744.28ZM10453.9 1464.28H11047.9V1276.28C11047.9 1168.28 10993.9 1114.28 10885.9 1114.28H10617.9C10508.5 1114.28 10453.9 1168.28 10453.9 1276.28V1464.28ZM11460.4 2038.28V1118.28C11507.1 1040.95 11591.7 1002.28 11714.4 1002.28H11910.4L11978.4 1054.28V1114.28H11720.4C11659.1 1114.28 11614.4 1130.95 11586.4 1164.28V2038.28H11460.4Z" fill="black"/>
<defs>
<filter id="filter0_d_115_2" x="897.662" y="1297.65" width="1956.95" height="1627.1" filterUnits="userSpaceOnUse" color-interpolation-filters="sRGB">
<feFlood flood-opacity="0" result="BackgroundImageFix"/>
<feColorMatrix in="SourceAlpha" type="matrix" values="0 0 0 0 0 0 0 0 0 0 0 0 0 0 0 0 0 0 127 0" result="hardAlpha"/>
<feOffset dy="4"/>
<feGaussianBlur stdDeviation="2"/>
<feComposite in2="hardAlpha" operator="out"/>
<feColorMatrix type="matrix" values="0 0 0 0 0 0 0 0 0 0 0 0 0 0 0 0 0 0 0.25 0"/>
<feBlend mode="normal" in2="BackgroundImageFix" result="effect1_dropShadow_115_2"/>
<feBlend mode="normal" in="SourceGraphic" in2="effect1_dropShadow_115_2" result="shape"/>
</filter>
<filter id="filter1_d_115_2" x="0" y="1.14819" width="1956.95" height="1627.1" filterUnits="userSpaceOnUse" color-interpolation-filters="sRGB">
<feFlood flood-opacity="0" result="BackgroundImageFix"/>
<feColorMatrix in="SourceAlpha" type="matrix" values="0 0 0 0 0 0 0 0 0 0 0 0 0 0 0 0 0 0 127 0" result="hardAlpha"/>
<feOffset dy="4"/>
<feGaussianBlur stdDeviation="2"/>
<feComposite in2="hardAlpha" operator="out"/>
<feColorMatrix type="matrix" values="0 0 0 0 0 0 0 0 0 0 0 0 0 0 0 0 0 0 0.25 0"/>
<feBlend mode="normal" in2="BackgroundImageFix" result="effect1_dropShadow_115_2"/>
<feBlend mode="normal" in="SourceGraphic" in2="effect1_dropShadow_115_2" result="shape"/>
</filter>
<linearGradient id="paint0_linear_115_2" x1="2136.76" y1="2979.02" x2="1616.88" y2="1629.71" gradientUnits="userSpaceOnUse">
<stop stop-color="#205A9F"/>
<stop offset="1" stop-color="#40D3EA"/>
</linearGradient>
<linearGradient id="paint1_linear_115_2" x1="1851.73" y1="1766.41" x2="3279.42" y2="1216.32" gradientUnits="userSpaceOnUse">
<stop stop-color="#06C7E6" stop-opacity="0.2"/>
<stop offset="1" stop-color="#06C7E6"/>
</linearGradient>
<linearGradient id="paint2_linear_115_2" x1="717.846" y1="-61.1209" x2="1237.73" y2="1288.19" gradientUnits="userSpaceOnUse">
<stop stop-color="#205A9F"/>
<stop offset="1" stop-color="#40D3EA"/>
</linearGradient>
<linearGradient id="paint3_linear_115_2" x1="1002.88" y1="1151.48" x2="-424.812" y2="1701.57" gradientUnits="userSpaceOnUse">
<stop stop-color="#06C7E6" stop-opacity="0.2"/>
<stop offset="1" stop-color="#06C7E6"/>
</linearGradient>
</defs>
</svg>
