<svg width="937" height="506" viewBox="0 0 937 506" fill="none" xmlns="http://www.w3.org/2000/svg">
<g clip-path="url(#clip0_121_2)">
<path d="M876.837 422.008L879.757 436.657C879.977 437.777 880.207 438.917 880.457 440.047C882.897 439.542 885.428 439.683 887.797 440.458C885.917 443.143 884.233 445.961 882.757 448.888C884.597 454.558 887.297 459.797 891.817 463.587C894.835 466.062 898.441 467.718 902.286 468.394C906.13 469.07 910.084 468.744 913.767 467.448L913.637 466.868C918.497 457.438 915.857 445.547 909.817 436.837C906.736 432.54 903.086 428.682 898.967 425.367C894.887 421.967 890.477 418.917 886.107 415.907C885.125 415.233 883.965 414.865 882.773 414.853C881.582 414.841 880.415 415.184 879.42 415.839C878.425 416.494 877.647 417.431 877.187 418.529C876.727 419.628 876.605 420.839 876.837 422.008Z" fill="#06C8E6"/>
<path d="M912.726 502.697C913.955 493.744 915.219 484.677 914.357 475.628C913.591 467.592 911.14 459.743 906.148 453.307C903.499 449.897 900.275 446.976 896.621 444.674C895.668 444.074 894.792 445.583 895.74 446.181C902.062 450.176 906.951 456.075 909.703 463.028C912.743 470.76 913.231 479.189 912.703 487.402C912.386 492.369 911.715 497.302 911.038 502.232C910.984 502.455 911.017 502.691 911.13 502.89C911.244 503.09 911.429 503.239 911.648 503.306C911.872 503.366 912.11 503.336 912.311 503.222C912.512 503.108 912.66 502.919 912.722 502.696L912.726 502.697Z" fill="#F2F2F2"/>
<path d="M902.179 53.6341C859.342 52.8893 816.5 52.7823 773.653 53.3132C730.813 53.8472 687.987 55.0219 645.176 56.8373C621.152 57.8561 597.139 59.0766 573.135 60.4988C571.206 60.6129 571.213 57.6125 573.135 57.4988C615.904 54.968 658.704 53.0743 701.535 51.8177C744.36 50.5645 787.198 49.9521 830.048 49.9804C854.093 49.9964 878.137 50.2143 902.179 50.6342C904.107 50.6677 904.113 53.6678 902.179 53.6341Z" fill="#6E6E6E"/>
<path d="M603.643 34.8229L584.912 33.4288C582.998 33.2864 582.983 30.2852 584.912 30.4288L603.643 31.8229C605.557 31.9654 605.573 34.9665 603.643 34.8229Z" fill="#6E6E6E"/>
<path d="M603.643 52.8229L584.912 51.4288C582.998 51.2864 582.983 48.2852 584.912 48.4288L603.643 49.8229C605.557 49.9654 605.573 52.9665 603.643 52.8229Z" fill="#6E6E6E"/>
<path d="M605.052 44.603L578.42 47.0225C576.498 47.1971 576.51 44.1961 578.42 44.0225L605.052 41.603C606.974 41.4284 606.962 44.4295 605.052 44.603Z" fill="#6E6E6E"/>
<path d="M891.093 30.7887C892.395 30.7807 893.671 31.1562 894.762 31.8685C895.853 32.5808 896.709 33.5983 897.226 34.7942C897.803 35.9648 897.981 37.2922 897.733 38.5736C897.485 39.855 896.824 41.0199 895.851 41.89C894.936 42.6681 893.84 43.2017 892.663 43.4407C891.486 43.6798 890.268 43.6166 889.122 43.257C887.951 42.8478 886.935 42.0855 886.214 41.075C885.493 40.0645 885.104 38.8555 885.099 37.6144C885.047 36.2375 885.42 34.8779 886.167 33.7204C886.915 32.563 888.001 31.6639 889.277 31.1454C889.661 31.0412 890.07 31.0928 890.416 31.2891C890.761 31.4853 891.016 31.8103 891.123 32.193C891.217 32.5762 891.161 32.9811 890.966 33.3244C890.772 33.6676 890.452 33.9231 890.075 34.0382C889.814 34.1392 890.314 33.9097 890.07 34.0427C889.969 34.0974 889.867 34.1468 889.769 34.2052C889.685 34.2548 889.605 34.3091 889.523 34.3623C889.243 34.5451 889.66 34.2281 889.481 34.3924C889.326 34.5349 889.172 34.6739 889.031 34.8311C888.977 34.8906 888.768 35.0558 888.931 34.9403C889.055 34.8519 888.979 34.8727 888.931 34.9437C888.894 34.9975 888.856 35.0499 888.82 35.1041C888.703 35.2811 888.597 35.4649 888.502 35.6545C888.48 35.6984 888.46 35.7433 888.437 35.7869C888.395 35.8687 888.334 35.8901 888.433 35.7877C888.527 35.6898 888.467 35.6965 888.434 35.7907C888.411 35.8526 888.387 35.9138 888.366 35.9759C888.295 36.1782 888.236 36.3843 888.189 36.5932C888.167 36.6898 888.149 36.7869 888.13 36.884C888.063 37.2285 888.14 36.6699 888.124 36.9258C888.11 37.1394 888.094 37.3508 888.098 37.5653C888.1 37.6634 888.104 37.7614 888.111 37.8593C888.114 37.9082 888.12 37.9569 888.123 38.0057C888.139 38.2411 888.139 37.9197 888.106 37.8977C888.175 38.0976 888.22 38.3046 888.242 38.5147C888.269 38.608 888.3 38.6992 888.33 38.7915C888.435 39.1133 888.232 38.616 888.344 38.836C888.435 39.0249 888.537 39.2085 888.65 39.3857C888.699 39.4599 888.883 39.6276 888.733 39.5109C888.569 39.3843 888.818 39.6023 888.871 39.6584C888.94 39.7305 889.011 39.8 889.084 39.8671C889.131 39.913 889.181 39.9562 889.233 39.9964C889.242 39.9916 888.982 39.8226 889.123 39.9121C889.301 40.0257 889.47 40.1473 889.657 40.2463C889.679 40.2578 889.919 40.3691 889.918 40.373C889.929 40.3325 889.61 40.2607 889.829 40.3314C889.875 40.3463 889.92 40.3643 889.966 40.3797C890.165 40.4468 890.369 40.501 890.575 40.542C890.622 40.5514 890.672 40.5562 890.719 40.5682C890.874 40.6083 890.571 40.5447 890.561 40.55C890.676 40.545 890.791 40.5552 890.903 40.5802C891.116 40.5924 891.329 40.5924 891.542 40.5801C891.591 40.5773 891.64 40.5724 891.689 40.5695C891.804 40.5629 891.888 40.4806 891.736 40.57C891.618 40.639 891.628 40.5886 891.732 40.5694C891.78 40.5604 891.829 40.5528 891.878 40.5437C892.089 40.5043 892.297 40.4533 892.502 40.3909C892.612 40.3572 892.72 40.3182 892.829 40.2801C892.877 40.2664 892.923 40.2486 892.967 40.227C892.968 40.2146 892.687 40.3613 892.835 40.2813C893.023 40.1803 893.216 40.0957 893.399 39.9853C893.497 39.9264 893.591 39.8624 893.686 39.7994C893.727 39.7742 893.767 39.7458 893.804 39.7143C893.801 39.7017 893.572 39.9142 893.692 39.7995C893.844 39.6543 894.007 39.5244 894.152 39.3698C894.185 39.3345 894.216 39.2975 894.249 39.2621L894.281 39.2257C894.362 39.1263 894.363 39.1268 894.285 39.2271C894.206 39.2505 894.209 39.3378 894.285 39.2245C894.312 39.1841 894.34 39.1449 894.367 39.1045C894.489 38.9309 894.593 38.7454 894.677 38.5508C894.67 38.5451 894.547 38.9117 894.641 38.6351C894.659 38.5828 894.678 38.5314 894.696 38.479C894.73 38.375 894.761 38.27 894.787 38.1637C894.813 38.0585 894.826 37.9499 894.852 37.8451C894.896 37.6685 894.826 37.9845 894.834 37.9766C894.859 37.9519 894.849 37.7987 894.851 37.7621C894.863 37.5267 894.836 37.2982 894.832 37.0643C894.828 36.883 894.847 37.2055 894.85 37.1961C894.849 37.1418 894.84 37.088 894.822 37.0368C894.795 36.9134 894.77 36.7901 894.736 36.6681C894.698 36.5284 894.654 36.3904 894.605 36.2541C894.586 36.2031 894.564 36.1528 894.546 36.1014C894.483 35.9131 894.671 36.3289 894.568 36.1591C894.425 35.9254 894.319 35.6725 894.167 35.4417C894.131 35.387 893.913 35.0822 894.029 35.2361C894.144 35.3894 893.91 35.0989 893.866 35.0496C893.682 34.8447 893.466 34.6765 893.275 34.4803C893.162 34.3642 893.354 34.5375 893.365 34.5456C893.306 34.5034 893.248 34.4597 893.189 34.4185C893.085 34.3467 892.978 34.2789 892.869 34.2149C892.745 34.1428 892.606 34.0891 892.487 34.0127C892.346 33.9226 892.595 34.0523 892.599 34.055C892.535 34.0231 892.468 33.9974 892.398 33.9784C892.282 33.9372 891.777 33.7193 891.671 33.7874C891.676 33.7843 892.055 33.8179 891.748 33.7983C891.676 33.7936 891.604 33.7865 891.532 33.7835C891.385 33.7775 891.239 33.7811 891.092 33.7887C890.695 33.7861 890.315 33.6273 890.035 33.3465C889.754 33.0658 889.595 32.6858 889.592 32.2887C889.601 31.8936 889.762 31.517 890.041 31.2375C890.321 30.958 890.697 30.7972 891.093 30.7887Z" fill="#6E6E6E"/>
<path d="M870.093 30.7887C871.395 30.7807 872.671 31.1562 873.762 31.8685C874.853 32.5808 875.709 33.5983 876.226 34.7942C876.803 35.9648 876.981 37.2922 876.733 38.5736C876.485 39.855 875.824 41.0199 874.851 41.89C873.936 42.6681 872.84 43.2017 871.663 43.4407C870.486 43.6798 869.268 43.6166 868.122 43.257C866.951 42.8478 865.935 42.0855 865.214 41.075C864.493 40.0645 864.104 38.8555 864.099 37.6144C864.047 36.2375 864.42 34.8779 865.167 33.7204C865.915 32.563 867.001 31.6639 868.277 31.1454C868.661 31.0412 869.07 31.0928 869.416 31.2891C869.761 31.4853 870.016 31.8103 870.123 32.193C870.217 32.5762 870.161 32.9811 869.966 33.3244C869.772 33.6676 869.452 33.9231 869.075 34.0382C868.814 34.1392 869.314 33.9097 869.07 34.0427C868.969 34.0974 868.867 34.1468 868.769 34.2052C868.685 34.2548 868.605 34.3091 868.523 34.3623C868.243 34.5451 868.66 34.2281 868.481 34.3924C868.326 34.5349 868.172 34.6739 868.031 34.8311C867.977 34.8906 867.768 35.0558 867.931 34.9403C868.055 34.8519 867.979 34.8727 867.931 34.9437C867.894 34.9975 867.856 35.0499 867.82 35.1041C867.703 35.2811 867.597 35.4649 867.502 35.6545C867.48 35.6984 867.46 35.7433 867.437 35.7869C867.395 35.8687 867.334 35.8901 867.433 35.7877C867.527 35.6898 867.467 35.6965 867.434 35.7907C867.411 35.8526 867.387 35.9138 867.366 35.9759C867.295 36.1782 867.236 36.3843 867.189 36.5932C867.167 36.6898 867.149 36.7869 867.13 36.884C867.063 37.2285 867.14 36.6699 867.124 36.9258C867.11 37.1394 867.094 37.3508 867.098 37.5653C867.1 37.6634 867.104 37.7614 867.111 37.8593C867.114 37.9082 867.12 37.9569 867.123 38.0057C867.139 38.2411 867.139 37.9197 867.106 37.8977C867.175 38.0976 867.22 38.3046 867.242 38.5147C867.269 38.608 867.3 38.6992 867.33 38.7915C867.435 39.1133 867.232 38.616 867.344 38.836C867.435 39.0249 867.537 39.2085 867.65 39.3857C867.699 39.4599 867.883 39.6276 867.733 39.5109C867.569 39.3843 867.818 39.6023 867.871 39.6584C867.94 39.7305 868.011 39.8 868.084 39.8671C868.131 39.913 868.181 39.9562 868.233 39.9964C868.242 39.9916 867.982 39.8226 868.123 39.9121C868.301 40.0257 868.47 40.1473 868.657 40.2463C868.679 40.2578 868.919 40.3691 868.918 40.373C868.929 40.3325 868.61 40.2607 868.829 40.3314C868.875 40.3463 868.92 40.3643 868.966 40.3797C869.165 40.4468 869.369 40.501 869.575 40.542C869.622 40.5514 869.672 40.5562 869.719 40.5682C869.874 40.6083 869.571 40.5447 869.561 40.55C869.676 40.545 869.791 40.5552 869.903 40.5802C870.116 40.5924 870.329 40.5924 870.542 40.5801C870.591 40.5773 870.64 40.5724 870.689 40.5695C870.804 40.5629 870.888 40.4806 870.736 40.57C870.618 40.639 870.628 40.5886 870.732 40.5694C870.78 40.5604 870.829 40.5528 870.878 40.5437C871.089 40.5043 871.297 40.4533 871.502 40.3909C871.612 40.3572 871.72 40.3182 871.829 40.2801C871.877 40.2664 871.923 40.2486 871.967 40.227C871.968 40.2146 871.687 40.3613 871.835 40.2813C872.023 40.1803 872.216 40.0957 872.399 39.9853C872.497 39.9264 872.591 39.8624 872.686 39.7994C872.727 39.7742 872.767 39.7458 872.804 39.7143C872.801 39.7017 872.572 39.9142 872.692 39.7995C872.844 39.6543 873.007 39.5244 873.152 39.3698C873.185 39.3345 873.216 39.2975 873.249 39.2621L873.281 39.2257C873.362 39.1263 873.363 39.1268 873.285 39.2271C873.206 39.2505 873.209 39.3378 873.285 39.2245C873.312 39.1841 873.34 39.1449 873.367 39.1045C873.489 38.9309 873.593 38.7454 873.677 38.5508C873.67 38.5451 873.547 38.9117 873.641 38.6351C873.659 38.5828 873.678 38.5314 873.696 38.479C873.73 38.375 873.761 38.27 873.787 38.1637C873.813 38.0585 873.826 37.9499 873.852 37.8451C873.896 37.6685 873.826 37.9845 873.834 37.9766C873.859 37.9519 873.849 37.7987 873.851 37.7621C873.863 37.5267 873.836 37.2982 873.832 37.0643C873.828 36.883 873.847 37.2055 873.85 37.1961C873.849 37.1418 873.84 37.088 873.822 37.0368C873.795 36.9134 873.77 36.7901 873.736 36.6681C873.698 36.5284 873.654 36.3904 873.605 36.2541C873.586 36.2031 873.564 36.1528 873.546 36.1014C873.483 35.9131 873.671 36.3289 873.568 36.1591C873.425 35.9254 873.319 35.6725 873.167 35.4417C873.131 35.387 872.913 35.0822 873.029 35.2361C873.144 35.3894 872.91 35.0989 872.866 35.0496C872.682 34.8447 872.466 34.6765 872.275 34.4803C872.162 34.3642 872.354 34.5375 872.365 34.5456C872.306 34.5034 872.248 34.4597 872.189 34.4185C872.085 34.3467 871.978 34.2789 871.869 34.2149C871.745 34.1428 871.606 34.0891 871.487 34.0127C871.346 33.9226 871.595 34.0523 871.599 34.055C871.535 34.0231 871.468 33.9974 871.398 33.9784C871.282 33.9372 870.777 33.7193 870.671 33.7874C870.676 33.7843 871.055 33.8179 870.748 33.7983C870.676 33.7936 870.604 33.7865 870.532 33.7835C870.385 33.7775 870.239 33.7811 870.092 33.7887C869.695 33.7861 869.315 33.6273 869.035 33.3465C868.754 33.0658 868.595 32.6858 868.592 32.2887C868.601 31.8936 868.762 31.517 869.041 31.2375C869.321 30.958 869.697 30.7972 870.093 30.7887Z" fill="#6E6E6E"/>
<path d="M849.093 30.7887C850.395 30.7807 851.671 31.1562 852.762 31.8685C853.853 32.5808 854.709 33.5983 855.226 34.7942C855.803 35.9648 855.981 37.2922 855.733 38.5736C855.485 39.855 854.824 41.0199 853.851 41.89C852.936 42.6681 851.84 43.2017 850.663 43.4407C849.486 43.6798 848.268 43.6166 847.122 43.257C845.951 42.8478 844.935 42.0855 844.214 41.075C843.493 40.0645 843.104 38.8555 843.099 37.6144C843.047 36.2375 843.42 34.8779 844.167 33.7204C844.915 32.563 846.001 31.6639 847.277 31.1454C847.661 31.0412 848.07 31.0928 848.416 31.2891C848.761 31.4853 849.016 31.8103 849.123 32.193C849.217 32.5762 849.161 32.9811 848.966 33.3244C848.772 33.6676 848.452 33.9231 848.075 34.0382C847.814 34.1392 848.314 33.9097 848.07 34.0427C847.969 34.0974 847.867 34.1468 847.769 34.2052C847.685 34.2548 847.605 34.3091 847.523 34.3623C847.243 34.5451 847.66 34.2281 847.481 34.3924C847.326 34.5349 847.172 34.6739 847.031 34.8311C846.977 34.8906 846.768 35.0558 846.931 34.9403C847.055 34.8519 846.979 34.8727 846.931 34.9437C846.894 34.9975 846.856 35.0499 846.82 35.1041C846.703 35.2811 846.597 35.4649 846.502 35.6545C846.48 35.6984 846.46 35.7433 846.437 35.7869C846.395 35.8687 846.334 35.8901 846.433 35.7877C846.527 35.6898 846.467 35.6965 846.434 35.7907C846.411 35.8526 846.387 35.9138 846.366 35.9759C846.295 36.1782 846.236 36.3843 846.189 36.5932C846.167 36.6898 846.149 36.7869 846.13 36.884C846.063 37.2285 846.14 36.6699 846.124 36.9258C846.11 37.1394 846.094 37.3508 846.098 37.5653C846.1 37.6634 846.104 37.7614 846.111 37.8593C846.114 37.9082 846.12 37.9569 846.123 38.0057C846.139 38.2411 846.139 37.9197 846.106 37.8977C846.175 38.0976 846.22 38.3046 846.242 38.5147C846.269 38.608 846.3 38.6992 846.33 38.7915C846.435 39.1133 846.232 38.616 846.344 38.836C846.435 39.0249 846.537 39.2085 846.65 39.3857C846.699 39.4599 846.883 39.6276 846.733 39.5109C846.569 39.3843 846.818 39.6023 846.871 39.6584C846.94 39.7305 847.011 39.8 847.084 39.8671C847.131 39.913 847.181 39.9562 847.233 39.9964C847.242 39.9916 846.982 39.8226 847.123 39.9121C847.301 40.0257 847.47 40.1473 847.657 40.2463C847.679 40.2578 847.919 40.3691 847.918 40.373C847.929 40.3325 847.61 40.2607 847.829 40.3314C847.875 40.3463 847.92 40.3643 847.966 40.3797C848.165 40.4468 848.369 40.501 848.575 40.542C848.622 40.5514 848.672 40.5562 848.719 40.5682C848.874 40.6083 848.571 40.5447 848.561 40.55C848.676 40.545 848.791 40.5552 848.903 40.5802C849.116 40.5924 849.329 40.5924 849.542 40.5801C849.591 40.5773 849.64 40.5724 849.689 40.5695C849.804 40.5629 849.888 40.4806 849.736 40.57C849.618 40.639 849.628 40.5886 849.732 40.5694C849.78 40.5604 849.829 40.5528 849.878 40.5437C850.089 40.5043 850.297 40.4533 850.502 40.3909C850.612 40.3572 850.72 40.3182 850.829 40.2801C850.877 40.2664 850.923 40.2486 850.967 40.227C850.968 40.2146 850.687 40.3613 850.835 40.2813C851.023 40.1803 851.216 40.0957 851.399 39.9853C851.497 39.9264 851.591 39.8624 851.686 39.7994C851.727 39.7742 851.767 39.7458 851.804 39.7143C851.801 39.7017 851.572 39.9142 851.692 39.7995C851.844 39.6543 852.007 39.5244 852.152 39.3698C852.185 39.3345 852.216 39.2975 852.249 39.2621L852.281 39.2257C852.362 39.1263 852.363 39.1268 852.285 39.2271C852.206 39.2505 852.209 39.3378 852.285 39.2245C852.312 39.1841 852.34 39.1449 852.367 39.1045C852.489 38.9309 852.593 38.7454 852.677 38.5508C852.67 38.5451 852.547 38.9117 852.641 38.6351C852.659 38.5828 852.678 38.5314 852.696 38.479C852.73 38.375 852.761 38.27 852.787 38.1637C852.813 38.0585 852.826 37.9499 852.852 37.8451C852.896 37.6685 852.826 37.9845 852.834 37.9766C852.859 37.9519 852.849 37.7987 852.851 37.7621C852.863 37.5267 852.836 37.2982 852.832 37.0643C852.828 36.883 852.847 37.2055 852.85 37.1961C852.849 37.1418 852.84 37.088 852.822 37.0368C852.795 36.9134 852.77 36.7901 852.736 36.6681C852.698 36.5284 852.654 36.3904 852.605 36.2541C852.586 36.2031 852.564 36.1528 852.546 36.1014C852.483 35.9131 852.671 36.3289 852.568 36.1591C852.425 35.9254 852.319 35.6725 852.167 35.4417C852.131 35.387 851.913 35.0822 852.029 35.2361C852.144 35.3894 851.91 35.0989 851.866 35.0496C851.682 34.8447 851.466 34.6765 851.275 34.4803C851.162 34.3642 851.354 34.5375 851.365 34.5456C851.306 34.5034 851.248 34.4597 851.189 34.4185C851.085 34.3467 850.978 34.2789 850.869 34.2149C850.745 34.1428 850.606 34.0891 850.487 34.0127C850.346 33.9226 850.595 34.0523 850.599 34.055C850.535 34.0231 850.468 33.9974 850.398 33.9784C850.282 33.9372 849.777 33.7193 849.671 33.7874C849.676 33.7843 850.055 33.8179 849.748 33.7983C849.676 33.7936 849.604 33.7865 849.532 33.7835C849.385 33.7775 849.239 33.7811 849.092 33.7887C848.695 33.7861 848.315 33.6273 848.035 33.3465C847.754 33.0658 847.595 32.6858 847.592 32.2887C847.601 31.8936 847.762 31.517 848.041 31.2375C848.321 30.958 848.697 30.7972 849.093 30.7887Z" fill="#6E6E6E"/>
<path d="M545.72 363H913.625C918.277 362.995 922.737 361.145 926.027 357.855C929.317 354.565 931.167 350.105 931.172 345.453V17.5474C931.167 12.8951 929.317 8.4349 926.027 5.14526C922.737 1.85562 918.277 0.00521683 913.625 0H545.72C541.067 0.00521684 536.607 1.85562 533.318 5.14526C530.028 8.4349 528.178 12.8951 528.172 17.5474V345.453C528.178 350.105 530.028 354.565 533.318 357.855C536.607 361.145 541.068 362.995 545.72 363ZM913.625 2C917.747 2.00469 921.699 3.64422 924.613 6.5589C927.528 9.47358 929.168 13.4254 929.172 17.5474V345.453C929.168 349.575 927.528 353.527 924.613 356.441C921.699 359.356 917.747 360.995 913.625 361H545.72C541.598 360.995 537.646 359.356 534.731 356.441C531.817 353.527 530.177 349.575 530.172 345.453V17.5474C530.177 13.4254 531.817 9.47358 534.731 6.5589C537.646 3.64422 541.598 2.00469 545.72 2H913.625Z" fill="#6E6E6E"/>
<path d="M914.235 223.106L784.856 222.712L656.137 222.321L583.526 222.1C583.137 222.087 582.769 221.923 582.499 221.643C582.228 221.363 582.077 220.989 582.077 220.6C582.077 220.211 582.228 219.837 582.499 219.557C582.769 219.278 583.137 219.114 583.526 219.1L712.905 219.494L841.624 219.885L914.235 220.106C914.624 220.12 914.992 220.283 915.263 220.563C915.533 220.843 915.684 221.217 915.684 221.606C915.684 221.995 915.533 222.369 915.263 222.649C914.992 222.929 914.624 223.093 914.235 223.106Z" fill="#6E6E6E"/>
<path d="M848.965 220.674L848.165 173.437C848.132 171.506 851.132 171.505 851.165 173.437L851.965 220.674C851.998 222.605 848.998 222.605 848.965 220.674Z" fill="#E6E6E6"/>
<path d="M787.13 221.185L785.181 161.81L784.624 144.846C784.56 142.915 787.56 142.918 787.624 144.846L789.573 204.221L790.13 221.185C790.194 223.116 787.194 223.114 787.13 221.185Z" fill="#6E6E6E"/>
<path d="M725.462 116.701C726.638 137.731 728.814 199.761 729.99 220.791C730.098 222.72 727.097 222.714 726.99 220.791C725.814 199.761 723.638 137.731 722.462 116.701C722.354 114.772 725.355 114.778 725.462 116.701Z" fill="#6E6E6E"/>
<path d="M664.089 199.689L664.457 219.902C664.492 221.833 661.492 221.834 661.457 219.902C661.023 196.029 659.909 196.807 659.786 190.069C659.751 188.138 662.751 188.138 662.786 190.069C662.786 190.069 663.655 175.816 664.089 199.689Z" fill="#6E6E6E"/>
<path d="M603.977 146.589L603.638 203.297L603.541 219.535C603.527 219.924 603.363 220.293 603.083 220.563C602.804 220.833 602.43 220.984 602.041 220.984C601.652 220.984 601.278 220.833 600.998 220.563C600.718 220.293 600.554 219.924 600.541 219.535L600.88 162.827L600.977 146.589C600.991 146.2 601.154 145.831 601.434 145.561C601.714 145.291 602.088 145.14 602.477 145.14C602.866 145.14 603.24 145.291 603.52 145.561C603.8 145.831 603.964 146.2 603.977 146.589Z" fill="#6E6E6E"/>
<path d="M913.994 221.418C916.477 214.594 910.879 208.031 905.127 205.082C898.236 201.549 890.309 200.748 883.345 197.342C872.963 192.264 865.401 183.15 858.672 174.028C851.746 164.638 845.409 154.561 836.609 146.76C831.971 142.558 826.494 139.388 820.54 137.461C813.038 135.12 805.081 134.959 797.329 135.903C781.31 137.852 766.461 144.468 751.005 148.673C736.433 152.638 720.377 154.867 706.074 148.702C698.807 145.57 692.865 140.317 686.482 135.771C680.305 131.325 673.398 127.993 666.074 125.926C651.716 121.933 636.036 123 622.669 129.749C610.381 135.873 600.652 146.142 595.199 158.742C588.862 173.88 589.687 190.797 591.757 206.731C592.292 210.85 592.929 214.955 593.573 219.058C593.869 220.947 590.979 221.76 590.68 219.856C588.102 203.425 585.532 186.474 588.74 169.939C591.513 155.502 599.452 142.57 611.071 133.563C622.739 124.531 637.243 119.954 651.982 120.652C659.705 121.01 667.309 122.701 674.456 125.65C681.875 128.719 688.158 133.267 694.54 138.054C701.101 142.975 707.865 147.045 716.011 148.65C723.912 150.207 732.132 149.623 739.999 148.153C756.231 145.12 771.362 138.168 787.456 134.606C802.368 131.306 818.459 130.976 831.812 139.4C842.083 145.88 849.341 155.94 856.306 165.654C863.211 175.283 870.202 185.579 880.298 192.157C886.457 196.169 893.38 197.65 900.27 199.906C907.177 202.168 913.808 205.985 916.625 213.062C917.838 215.976 917.932 219.237 916.886 222.216C916.231 224.016 913.331 223.238 913.994 221.418Z" fill="#6E6E6E"/>
<path d="M849.959 166.905L849.963 166.907L849.955 166.905H849.959Z" fill="#E6E6E6"/>
<path d="M844.76 164.146C845.453 162.918 846.559 161.975 847.881 161.486C849.204 160.996 850.657 160.992 851.983 161.472C852.642 161.713 853.246 162.083 853.759 162.561C854.273 163.039 854.685 163.615 854.972 164.255C855.029 164.391 855.063 164.534 855.11 164.674C855.175 164.779 855.253 164.874 855.311 164.984C855.933 166.223 856.103 167.64 855.792 168.991C855.482 170.342 854.71 171.542 853.609 172.385C852.509 173.228 851.149 173.661 849.764 173.609C848.378 173.558 847.055 173.025 846.02 172.102C844.933 171.119 844.215 169.794 843.986 168.346C843.756 166.899 844.029 165.416 844.76 164.146ZM848.517 166.693C848.509 166.838 848.504 166.769 848.517 166.693V166.693ZM848.899 165.825C848.913 165.808 848.912 165.81 848.899 165.825V165.825ZM850.582 166.502C850.607 166.461 850.605 166.467 850.582 166.502V166.502ZM850.183 166.84C850.126 166.865 850.088 166.872 850.183 166.84V166.84ZM850.005 166.925L849.965 166.907C849.975 166.908 849.985 166.906 849.993 166.901L849.992 166.901L849.961 166.905L849.955 166.902L849.973 166.898C849.958 166.897 849.956 166.9 849.955 166.902C849.777 166.82 849.897 166.86 850.001 166.892L850.008 166.89C850.072 166.857 850.142 166.835 850.213 166.824C850.22 166.82 850.228 166.818 850.233 166.814C850.291 166.773 850.581 166.546 850.312 166.784C850.37 166.732 850.428 166.681 850.483 166.625C850.516 166.592 850.545 166.556 850.571 166.517C850.607 166.457 850.641 166.395 850.674 166.334L850.679 166.301C850.684 166.273 850.687 166.261 850.691 166.245C850.689 166.228 850.686 166.209 850.683 166.191C850.663 166.137 850.651 166.081 850.645 166.024L850.634 166.009C850.591 165.949 850.553 165.879 850.512 165.816C850.729 166.146 850.427 165.78 850.404 165.733C850.4 165.725 850.407 165.73 850.405 165.724C850.397 165.719 850.399 165.723 850.389 165.717C850.321 165.677 850.257 165.633 850.189 165.595C850.108 165.55 849.787 165.458 850.119 165.554C850.044 165.532 849.971 165.505 849.895 165.485C849.881 165.481 849.769 165.465 849.709 165.455C849.656 165.453 849.604 165.452 849.599 165.452C849.574 165.452 849.549 165.455 849.524 165.456C849.579 165.464 849.334 165.516 849.262 165.528C849.251 165.536 849.246 165.541 849.232 165.552C849.17 165.597 849.095 165.636 849.031 165.678C849.321 165.491 849.027 165.693 848.971 165.749C848.938 165.782 848.908 165.817 848.876 165.852C848.848 165.885 848.822 165.921 848.799 165.958C848.752 166.045 848.701 166.133 848.651 166.219L848.637 166.241C848.637 166.244 848.638 166.247 848.638 166.25C848.612 166.389 848.573 166.525 848.523 166.657C848.52 166.669 848.518 166.68 848.517 166.691C848.512 166.767 848.506 166.843 848.506 166.92L848.507 166.935C848.738 166.815 848.994 166.751 849.254 166.749C849.515 166.748 849.772 166.808 850.005 166.925Z" fill="#6E6E6E"/>
<path d="M849.951 166.903C849.947 166.905 849.952 166.905 849.952 166.905L849.951 166.903Z" fill="#E6E6E6"/>
<path d="M849.951 166.905L849.956 166.905C849.95 166.906 849.951 166.905 849.951 166.905Z" fill="#E6E6E6"/>
<path d="M849.954 166.902L849.952 166.903L849.954 166.902Z" fill="#E6E6E6"/>
<path d="M785.959 138.905L785.963 138.907L785.955 138.905H785.959Z" fill="#E6E6E6"/>
<path d="M780.76 136.146C781.453 134.918 782.559 133.975 783.881 133.486C785.204 132.996 786.657 132.992 787.983 133.472C788.642 133.713 789.246 134.083 789.759 134.561C790.273 135.039 790.685 135.615 790.972 136.255C791.029 136.391 791.063 136.534 791.11 136.674C791.175 136.779 791.253 136.874 791.311 136.984C791.933 138.223 792.103 139.64 791.792 140.991C791.482 142.342 790.71 143.542 789.609 144.385C788.509 145.228 787.149 145.661 785.764 145.609C784.378 145.558 783.055 145.025 782.02 144.102C780.933 143.119 780.215 141.794 779.986 140.346C779.756 138.899 780.029 137.416 780.76 136.146ZM784.517 138.693C784.509 138.838 784.504 138.769 784.517 138.693V138.693ZM784.899 137.825C784.913 137.808 784.912 137.81 784.899 137.825V137.825ZM786.582 138.502C786.607 138.461 786.605 138.467 786.582 138.502V138.502ZM786.183 138.84C786.126 138.865 786.088 138.872 786.183 138.84V138.84ZM786.005 138.925L785.965 138.907C785.975 138.908 785.985 138.906 785.993 138.901L785.992 138.901L785.961 138.905L785.955 138.902L785.973 138.898C785.958 138.897 785.957 138.9 785.955 138.902C785.777 138.82 785.897 138.86 786.001 138.892L786.008 138.89C786.072 138.857 786.142 138.835 786.213 138.824C786.22 138.82 786.228 138.818 786.233 138.814C786.291 138.773 786.581 138.546 786.312 138.784C786.371 138.732 786.428 138.681 786.484 138.625C786.516 138.592 786.545 138.556 786.572 138.517C786.607 138.457 786.641 138.395 786.674 138.334L786.679 138.301C786.684 138.273 786.687 138.261 786.691 138.245C786.689 138.228 786.686 138.209 786.684 138.191C786.663 138.137 786.651 138.081 786.645 138.024L786.634 138.009C786.591 137.949 786.553 137.879 786.512 137.816C786.729 138.146 786.427 137.78 786.404 137.733C786.4 137.725 786.407 137.73 786.406 137.724C786.397 137.719 786.399 137.723 786.389 137.717C786.321 137.677 786.258 137.633 786.189 137.595C786.108 137.55 785.787 137.458 786.12 137.554C786.044 137.532 785.971 137.505 785.895 137.485C785.881 137.481 785.769 137.465 785.709 137.455C785.656 137.453 785.604 137.452 785.599 137.452C785.574 137.452 785.549 137.455 785.524 137.456C785.579 137.464 785.335 137.516 785.262 137.528C785.251 137.536 785.246 137.541 785.232 137.552C785.17 137.597 785.095 137.636 785.031 137.678C785.321 137.491 785.027 137.693 784.971 137.749C784.938 137.782 784.908 137.817 784.877 137.852C784.848 137.885 784.822 137.921 784.799 137.958C784.752 138.045 784.701 138.133 784.651 138.219L784.637 138.241C784.638 138.244 784.638 138.247 784.638 138.25C784.612 138.389 784.573 138.525 784.523 138.657C784.52 138.669 784.518 138.68 784.517 138.691C784.513 138.767 784.506 138.843 784.506 138.92L784.507 138.935C784.738 138.815 784.994 138.751 785.254 138.749C785.515 138.748 785.772 138.808 786.005 138.925Z" fill="#6E6E6E"/>
<path d="M785.951 138.905L785.956 138.905C785.95 138.906 785.951 138.905 785.951 138.905Z" fill="#E6E6E6"/>
<path d="M785.954 138.902L785.952 138.903L785.954 138.902Z" fill="#E6E6E6"/>
<path d="M785.951 138.903C785.947 138.905 785.952 138.905 785.952 138.905L785.951 138.903Z" fill="#E6E6E6"/>
<path d="M723.954 152.902L723.952 152.903L723.954 152.902Z" fill="#E6E6E6"/>
<path d="M718.76 108.146C719.453 106.918 720.559 105.975 721.881 105.486C723.204 104.996 724.657 104.992 725.983 105.472C726.642 105.713 727.246 106.083 727.759 106.561C728.273 107.039 728.685 107.615 728.972 108.255C729.029 108.391 729.063 108.534 729.11 108.674C729.175 108.779 729.253 108.874 729.311 108.984C729.933 110.223 730.103 111.64 729.792 112.991C729.482 114.342 728.71 115.542 727.609 116.385C726.509 117.228 725.149 117.661 723.764 117.609C722.378 117.558 721.055 117.025 720.02 116.102C718.933 115.119 718.215 113.794 717.986 112.346C717.756 110.899 718.029 109.416 718.76 108.146ZM722.517 110.693C722.509 110.838 722.504 110.769 722.517 110.693V110.693ZM722.899 109.825C722.913 109.808 722.912 109.81 722.899 109.825V109.825ZM724.582 110.502C724.607 110.461 724.605 110.467 724.582 110.502V110.502ZM724.183 110.84C724.126 110.865 724.088 110.872 724.183 110.84V110.84ZM724.005 110.925L723.965 110.907C723.975 110.908 723.985 110.906 723.993 110.901L723.992 110.901L723.961 110.905L723.955 110.902L723.973 110.898C723.958 110.897 723.957 110.9 723.955 110.902C723.777 110.82 723.897 110.86 724.001 110.892L724.008 110.89C724.072 110.857 724.142 110.835 724.213 110.824C724.22 110.82 724.228 110.818 724.233 110.814C724.291 110.773 724.581 110.546 724.312 110.784C724.371 110.732 724.428 110.681 724.484 110.625C724.516 110.592 724.545 110.556 724.572 110.517C724.607 110.457 724.641 110.395 724.674 110.334L724.679 110.301C724.684 110.273 724.687 110.261 724.691 110.245C724.689 110.228 724.686 110.209 724.684 110.191C724.663 110.137 724.651 110.081 724.645 110.024L724.634 110.009C724.591 109.949 724.553 109.879 724.512 109.816C724.729 110.146 724.427 109.78 724.404 109.733C724.4 109.725 724.407 109.73 724.406 109.724C724.397 109.719 724.399 109.723 724.389 109.717C724.321 109.677 724.258 109.633 724.189 109.595C724.108 109.55 723.787 109.458 724.12 109.554C724.044 109.532 723.971 109.505 723.895 109.485C723.881 109.481 723.769 109.465 723.709 109.455C723.656 109.453 723.604 109.452 723.599 109.452C723.574 109.452 723.549 109.455 723.524 109.456C723.579 109.464 723.335 109.516 723.262 109.528C723.251 109.536 723.246 109.541 723.232 109.552C723.17 109.597 723.095 109.636 723.031 109.678C723.321 109.491 723.027 109.693 722.971 109.749C722.938 109.782 722.908 109.817 722.877 109.852C722.848 109.885 722.822 109.921 722.799 109.958C722.752 110.045 722.701 110.133 722.651 110.219L722.637 110.241C722.638 110.244 722.638 110.247 722.638 110.25C722.612 110.389 722.573 110.525 722.523 110.657C722.52 110.669 722.518 110.68 722.517 110.691C722.513 110.767 722.506 110.843 722.506 110.92L722.507 110.935C722.738 110.815 722.994 110.751 723.254 110.749C723.515 110.748 723.772 110.808 724.005 110.925Z" fill="#6E6E6E"/>
<path d="M723.959 152.905L723.963 152.907L723.955 152.905H723.959Z" fill="#E6E6E6"/>
<path d="M723.951 152.905L723.956 152.905C723.95 152.906 723.951 152.905 723.951 152.905Z" fill="#E6E6E6"/>
<path d="M723.951 152.903C723.947 152.905 723.952 152.905 723.952 152.905L723.951 152.903Z" fill="#E6E6E6"/>
<path d="M655.76 185.146C656.453 183.918 657.559 182.975 658.881 182.486C660.204 181.996 661.657 181.992 662.983 182.472C663.642 182.713 664.246 183.083 664.759 183.561C665.273 184.039 665.685 184.615 665.972 185.255C666.029 185.391 666.063 185.534 666.11 185.674C666.175 185.779 666.253 185.874 666.311 185.984C666.933 187.223 667.103 188.64 666.792 189.991C666.482 191.342 665.71 192.542 664.609 193.385C663.509 194.228 662.149 194.661 660.764 194.609C659.378 194.558 658.055 194.025 657.02 193.102C655.933 192.119 655.215 190.794 654.986 189.346C654.756 187.899 655.029 186.416 655.76 185.146ZM659.517 187.693C659.509 187.838 659.504 187.769 659.517 187.693V187.693ZM659.899 186.825C659.913 186.808 659.912 186.81 659.899 186.825V186.825ZM661.582 187.502C661.607 187.461 661.605 187.467 661.582 187.502V187.502ZM661.183 187.84C661.126 187.865 661.088 187.872 661.183 187.84V187.84ZM661.005 187.925L660.965 187.907C660.975 187.908 660.985 187.906 660.993 187.901L660.992 187.901L660.961 187.905L660.955 187.902L660.973 187.898C660.958 187.897 660.957 187.9 660.955 187.902C660.777 187.82 660.897 187.86 661.001 187.892L661.008 187.89C661.072 187.857 661.142 187.835 661.213 187.824C661.22 187.82 661.228 187.818 661.233 187.814C661.291 187.773 661.581 187.546 661.312 187.784C661.371 187.732 661.428 187.681 661.484 187.625C661.516 187.592 661.545 187.556 661.572 187.517C661.607 187.457 661.641 187.395 661.674 187.334L661.679 187.301C661.684 187.273 661.687 187.261 661.691 187.245C661.689 187.228 661.686 187.209 661.684 187.191C661.663 187.137 661.651 187.081 661.645 187.024L661.634 187.009C661.591 186.949 661.553 186.879 661.512 186.816C661.729 187.146 661.427 186.78 661.404 186.733C661.4 186.725 661.407 186.73 661.406 186.724C661.397 186.719 661.399 186.723 661.389 186.717C661.321 186.677 661.258 186.633 661.189 186.595C661.108 186.55 660.787 186.458 661.12 186.554C661.044 186.532 660.971 186.505 660.895 186.485C660.881 186.481 660.769 186.465 660.709 186.455C660.656 186.453 660.604 186.452 660.599 186.452C660.574 186.452 660.549 186.455 660.524 186.456C660.579 186.464 660.335 186.516 660.262 186.528C660.251 186.536 660.246 186.541 660.232 186.552C660.17 186.597 660.095 186.636 660.031 186.678C660.321 186.491 660.027 186.693 659.971 186.749C659.938 186.782 659.908 186.817 659.877 186.852C659.848 186.885 659.822 186.921 659.799 186.958C659.752 187.045 659.701 187.133 659.651 187.219L659.637 187.241C659.638 187.244 659.638 187.247 659.638 187.25C659.612 187.389 659.573 187.525 659.523 187.657C659.52 187.669 659.518 187.68 659.517 187.691C659.513 187.767 659.506 187.843 659.506 187.92L659.507 187.935C659.738 187.815 659.994 187.751 660.254 187.749C660.515 187.748 660.772 187.808 661.005 187.925Z" fill="#E6E6E6"/>
<path d="M660.961 121.905L660.965 121.907L660.957 121.905H660.961Z" fill="#E6E6E6"/>
<path d="M660.951 121.905L660.956 121.905C660.95 121.906 660.951 121.905 660.951 121.905Z" fill="#E6E6E6"/>
<path d="M660.951 121.903C660.947 121.905 660.952 121.905 660.952 121.905L660.951 121.903Z" fill="#E6E6E6"/>
<path d="M660.954 121.902L660.952 121.903L660.954 121.902Z" fill="#E6E6E6"/>
<path d="M596.76 139.146C597.453 137.918 598.559 136.975 599.881 136.486C601.204 135.996 602.657 135.992 603.983 136.472C604.642 136.713 605.246 137.083 605.759 137.561C606.273 138.039 606.685 138.615 606.972 139.255C607.029 139.391 607.063 139.534 607.11 139.674C607.175 139.779 607.253 139.874 607.311 139.984C607.933 141.223 608.103 142.64 607.792 143.991C607.482 145.342 606.71 146.542 605.609 147.385C604.509 148.228 603.149 148.661 601.764 148.609C600.378 148.558 599.055 148.025 598.02 147.102C596.933 146.119 596.215 144.794 595.986 143.346C595.756 141.899 596.029 140.416 596.76 139.146ZM600.517 141.693C600.509 141.838 600.504 141.769 600.517 141.693V141.693ZM600.899 140.825C600.913 140.808 600.912 140.81 600.899 140.825V140.825ZM602.582 141.502C602.607 141.461 602.605 141.467 602.582 141.502V141.502ZM602.183 141.84C602.126 141.865 602.088 141.872 602.183 141.84V141.84ZM602.005 141.925L601.965 141.907C601.975 141.908 601.985 141.906 601.993 141.901L601.992 141.901L601.961 141.905L601.955 141.902L601.973 141.898C601.958 141.897 601.957 141.9 601.955 141.902C601.777 141.82 601.897 141.86 602.001 141.892L602.008 141.89C602.072 141.857 602.142 141.835 602.213 141.824C602.22 141.82 602.228 141.818 602.233 141.814C602.291 141.773 602.581 141.546 602.312 141.784C602.371 141.732 602.428 141.681 602.484 141.625C602.516 141.592 602.545 141.556 602.572 141.517C602.607 141.457 602.641 141.395 602.674 141.334L602.679 141.301C602.684 141.273 602.687 141.261 602.691 141.245C602.689 141.228 602.686 141.209 602.684 141.191C602.663 141.137 602.651 141.081 602.645 141.024L602.634 141.009C602.591 140.949 602.553 140.879 602.512 140.816C602.729 141.146 602.427 140.78 602.404 140.733C602.4 140.725 602.407 140.73 602.406 140.724C602.397 140.719 602.399 140.723 602.389 140.717C602.321 140.677 602.258 140.633 602.189 140.595C602.108 140.55 601.787 140.458 602.12 140.554C602.044 140.532 601.971 140.505 601.895 140.485C601.881 140.481 601.769 140.465 601.709 140.455C601.656 140.453 601.604 140.452 601.599 140.452C601.574 140.452 601.549 140.455 601.524 140.456C601.579 140.464 601.335 140.516 601.262 140.528C601.251 140.536 601.246 140.541 601.232 140.552C601.17 140.597 601.095 140.636 601.031 140.678C601.321 140.491 601.027 140.693 600.971 140.749C600.938 140.782 600.908 140.817 600.877 140.852C600.848 140.885 600.822 140.921 600.799 140.958C600.752 141.045 600.701 141.133 600.651 141.219L600.637 141.241C600.638 141.244 600.638 141.247 600.638 141.25C600.612 141.389 600.573 141.525 600.523 141.657C600.52 141.669 600.518 141.68 600.517 141.691C600.513 141.767 600.506 141.843 600.506 141.92L600.507 141.935C600.738 141.815 600.994 141.751 601.254 141.749C601.515 141.748 601.772 141.808 602.005 141.925Z" fill="#6E6E6E"/>
<path d="M601.961 141.905L601.965 141.907L601.957 141.905H601.961Z" fill="#E6E6E6"/>
<path d="M601.954 141.902L601.952 141.903L601.954 141.902Z" fill="#E6E6E6"/>
<path d="M601.951 141.903C601.947 141.905 601.952 141.905 601.952 141.905L601.951 141.903Z" fill="#E6E6E6"/>
<path d="M601.951 141.905L601.956 141.905C601.95 141.906 601.951 141.905 601.951 141.905Z" fill="#E6E6E6"/>
<path d="M618.129 187.733L664.625 190.318C664.887 190.332 665.145 190.246 665.345 190.076C665.546 189.906 665.673 189.666 665.701 189.405C665.73 189.144 665.657 188.882 665.498 188.673C665.339 188.464 665.106 188.324 664.847 188.282L617.322 180.549L618.129 187.733Z" fill="#3F3D56"/>
<path d="M559.038 291.25L541.516 261.771L528.566 267.888C528.566 267.888 550.881 295.76 551.592 296.561C551.288 297.916 551.402 299.331 551.919 300.62C552.436 301.908 553.333 303.009 554.489 303.777C555.646 304.545 557.009 304.944 558.397 304.921C559.786 304.898 561.134 304.453 562.264 303.647C563.395 302.841 564.254 301.71 564.727 300.405C565.201 299.1 565.268 297.682 564.918 296.338C564.568 294.994 563.819 293.788 562.769 292.88C561.719 291.971 560.418 291.403 559.038 291.25Z" fill="#FFB6B6"/>
<path d="M551.749 222.774L523.362 237.585C521.588 238.863 520.1 240.497 518.993 242.383C517.887 244.268 517.186 246.364 516.935 248.536C516.685 250.709 516.891 252.909 517.539 254.997C518.188 257.085 519.265 259.015 520.701 260.663L540.272 283.112L548.797 271.56L542.226 257.82L554.95 254.465L551.749 222.774Z" fill="url(#paint0_linear_121_2)"/>
<path d="M632.645 188.215L635.842 222.358L650.165 222.382C650.165 222.382 641.947 187.636 641.649 186.607C642.504 185.513 643.008 184.185 643.093 182.8C643.177 181.414 642.839 180.035 642.123 178.845C641.407 177.655 640.347 176.711 639.083 176.137C637.819 175.563 636.41 175.387 635.043 175.631C633.676 175.875 632.415 176.528 631.428 177.504C630.44 178.48 629.773 179.733 629.513 181.097C629.253 182.461 629.413 183.872 629.972 185.143C630.532 186.414 631.464 187.485 632.645 188.215Z" fill="#FFB6B6"/>
<path d="M604.137 258.037L637.101 251.991C650.983 250.322 656.679 241.188 654.175 232.28L646.114 203.609L633.46 210.394L633.509 225.624L615.796 223.202L604.137 258.037Z" fill="url(#paint1_linear_121_2)"/>
<path d="M617.63 493.992H626.694L631.006 459.03H617.628L617.63 493.992Z" fill="#FFB6B6"/>
<path d="M617.311 503.448L645.184 503.447V503.094C645.184 500.217 644.041 497.458 642.006 495.423C639.972 493.389 637.212 492.246 634.335 492.245L629.243 488.383L619.743 492.246L617.31 492.246L617.311 503.448Z" fill="#2F2E41"/>
<path d="M553.495 493.992H544.431L540.119 459.03H553.497L553.495 493.992Z" fill="#FFB6B6"/>
<path d="M553.815 503.448L525.941 503.447V503.094C525.941 500.217 527.084 497.458 529.119 495.423C531.154 493.389 533.913 492.246 536.79 492.245L541.882 488.383L551.382 492.246L553.815 492.246L553.815 503.448Z" fill="#2F2E41"/>
<path d="M631.405 433.338C631.271 431.343 630.207 420.31 630.207 420.31L627.657 396.913L623.164 334.891L619.159 318.589L599.333 326.312L583.246 318.6L564.125 324.713L549.236 330.296C549.236 330.296 549.211 332.686 549.096 335.573C548.943 339.353 548.675 343.986 548.038 345.191C546.974 347.32 547.241 358.748 547.241 358.748C547.241 358.748 546.183 381.999 544.851 384.548C543.519 387.098 543.252 392.407 543.653 393.471C544.054 394.536 542.321 422.458 542.321 422.458C542.321 422.458 537.871 471.871 540.663 479.322C543.455 486.773 554.004 481.892 554.004 481.892C554.004 481.892 553.494 479.904 556.553 478.967C559.613 478.03 568.931 407.965 568.931 407.965C568.931 407.965 570.664 393.599 572.258 389.481C573.851 385.364 575.317 373.796 575.317 373.796C575.317 373.796 585.158 354.649 585.285 350.392C585.285 350.392 586.573 346.408 587.79 350.793C589.008 355.178 592.596 365.682 592.596 365.682L596.095 378.582L600.212 397.856L602.877 414.083C602.877 414.083 606.867 435.62 607.504 436.55C608.141 437.481 607.504 457.156 607.504 457.156C607.504 457.156 610.589 473.912 614.948 476.838C619.308 479.763 630.858 476.884 630.858 476.884C630.858 476.884 631.539 435.333 631.405 433.338Z" fill="#2F2E41"/>
<path d="M616.583 266.132L619.117 298.95L622.923 302.889C623.266 303.245 623.534 303.665 623.711 304.126C623.887 304.588 623.969 305.08 623.951 305.573C623.933 306.067 623.816 306.552 623.606 306.999C623.396 307.446 623.099 307.846 622.731 308.175L624.828 311.771L625.57 323.101C625.782 323.983 625.796 324.9 625.612 325.788C625.429 326.676 625.051 327.512 624.507 328.237C623.962 328.962 623.264 329.558 622.463 329.982C621.662 330.407 620.777 330.649 619.871 330.691L554.239 333.775C553.338 333.817 552.439 333.661 551.606 333.318C550.772 332.975 550.024 332.453 549.414 331.788C548.804 331.124 548.348 330.335 548.077 329.475C547.806 328.615 547.727 327.706 547.845 326.812L553.426 284.798V281.657L555.925 275.59L554.641 255.266L551.654 223.007L569.016 218.522L578.43 212.045L594.785 212.306L604.708 220.456L617.94 222.528L627.946 224.517L629.221 227.288L626.672 226.733L617.431 262.775L616.583 266.132Z" fill="url(#paint2_linear_121_2)"/>
<path d="M586.973 207.648C576.333 207.648 567.707 199.022 567.707 188.382C567.707 177.741 576.333 169.116 586.973 169.116C597.613 169.116 606.239 177.741 606.239 188.382C606.239 199.022 597.613 207.648 586.973 207.648Z" fill="#FFB6B6"/>
<path d="M591.619 206.405L577.699 205.695C575.916 205.604 573.969 205.446 572.672 204.219C571.974 203.461 571.437 202.569 571.094 201.598C569.807 198.609 568.52 195.619 567.266 192.616C565.531 188.462 563.828 184.076 564.271 179.597C564.374 177.551 565.232 175.616 566.679 174.166C567.417 173.467 568.366 173.032 569.377 172.93C570.389 172.827 571.406 173.063 572.269 173.599C572.484 172.182 573.017 170.833 573.83 169.653C574.643 168.472 575.714 167.492 576.961 166.787C579.48 165.395 582.356 164.785 585.223 165.035C589.384 165.303 593.355 166.869 596.58 169.511C597.486 170.348 598.455 171.115 599.477 171.807C599.991 172.15 600.569 172.386 601.177 172.498C601.785 172.611 602.41 172.598 603.012 172.461C603.61 172.301 604.129 171.931 604.474 171.418C604.819 170.906 604.968 170.285 604.891 169.672C605.871 170.405 606.543 171.477 606.776 172.678C607.009 173.88 606.786 175.125 606.15 176.172C606.873 176.474 607.662 176.585 608.44 176.493C609.218 176.401 609.959 176.109 610.591 175.646C611.268 175.982 611.867 176.456 612.351 177.037C612.834 177.618 613.191 178.294 613.398 179.021C613.605 179.747 613.658 180.51 613.554 181.258C613.45 182.007 613.19 182.725 612.792 183.368C612.394 184.01 611.866 184.563 611.242 184.99C610.618 185.416 609.912 185.708 609.169 185.846C608.426 185.984 607.662 185.965 606.927 185.791C606.191 185.617 605.5 185.291 604.898 184.835C604.053 186.018 604.368 187.626 604.478 189.076C604.588 190.525 604.199 192.327 602.801 192.728C600.912 193.27 599.381 190.725 597.416 190.753C596.931 190.792 596.464 190.95 596.055 191.214C595.646 191.477 595.308 191.838 595.072 192.263C594.609 193.117 594.292 194.043 594.134 195.002L591.619 206.326" fill="#2F2E41"/>
<path d="M48.8742 379.637C48.8742 376.654 49.8761 374.232 51.1062 374.227H386.451C387.687 374.232 388.683 376.654 388.688 379.637V502.446C388.688 502.723 388.791 502.99 388.978 503.196C389.164 503.401 389.42 503.529 389.695 503.556C390.595 503.642 391.495 503.723 392.395 503.797C392.418 503.797 392.44 503.803 392.462 503.803C392.952 503.847 393.442 503.881 393.932 503.92H393.937C394.189 503.454 394.438 502.984 394.684 502.51C394.767 502.35 394.811 502.173 394.811 501.993V372.618C394.811 371.794 394.778 370.965 394.722 370.147C394.643 369.023 394.503 367.905 394.305 366.796C393.364 361.625 391.238 358.124 388.822 358.113H48.7407C48.3881 358.116 48.0397 358.189 47.7166 358.33C47.2419 358.54 46.8127 358.841 46.4531 359.215C45.9649 359.723 45.5474 360.294 45.2119 360.913C43.826 363.675 43.0281 366.694 42.8685 369.779C42.8685 369.813 42.863 369.846 42.863 369.88C42.7851 370.781 42.7462 371.7 42.7517 372.618L42.6737 384.546L42.6237 391.659L42.4734 413.979L42.4177 421.905L42.1729 503.28C42.1729 503.575 42.2901 503.858 42.4989 504.067C42.7077 504.276 42.9908 504.393 43.286 504.393H47.761C48.0562 504.393 48.3394 504.276 48.5482 504.067C48.7569 503.858 48.8742 503.575 48.8742 503.28V379.637Z" fill="#6E6E6E"/>
<path d="M139.998 302.3H176.132C176.643 302.301 177.133 302.504 177.494 302.866C177.855 303.228 178.058 303.719 178.057 304.23V361.311H138.068V304.23C138.068 303.976 138.118 303.725 138.215 303.491C138.312 303.257 138.454 303.044 138.633 302.865C138.812 302.686 139.025 302.543 139.259 302.446C139.494 302.349 139.745 302.3 139.998 302.3ZM157.944 334.733C159.074 334.727 160.156 334.276 160.955 333.477C161.754 332.678 162.205 331.596 162.21 330.466V323.882C162.21 322.75 161.761 321.665 160.961 320.865C160.161 320.065 159.075 319.615 157.944 319.615C156.812 319.615 155.727 320.065 154.927 320.865C154.126 321.665 153.677 322.75 153.677 323.882V330.466C153.682 331.596 154.133 332.678 154.932 333.477C155.731 334.276 156.814 334.727 157.944 334.733Z" fill="#6E6E6E"/>
<path d="M178.182 359.485V364.992C178.182 365.278 178.068 365.551 177.866 365.753C177.664 365.955 177.391 366.069 177.105 366.069H139.022C138.737 366.068 138.464 365.954 138.262 365.752C138.06 365.551 137.946 365.278 137.945 364.992V359.485H178.182Z" fill="#3F3D56"/>
<path d="M80.1627 213.219H234.621C235.948 213.221 237.22 213.749 238.159 214.687C239.097 215.626 239.625 216.898 239.627 218.225V322.454C239.626 323.781 239.098 325.054 238.16 325.993C237.221 326.931 235.949 327.459 234.621 327.46H80.1627C78.8354 327.459 77.5628 326.931 76.6243 325.993C75.6857 325.054 75.1579 323.781 75.1566 322.454V218.225C75.1587 216.898 75.6868 215.626 76.6252 214.687C77.5635 213.749 78.8356 213.221 80.1627 213.219Z" fill="#6E6E6E"/>
<path d="M81.4522 216.834H233.331C234.042 216.836 234.723 217.119 235.224 217.622C235.726 218.125 236.008 218.807 236.008 219.517V321.163C236.007 321.873 235.725 322.553 235.223 323.055C234.721 323.557 234.041 323.839 233.331 323.84H81.4522C80.7425 323.839 80.0623 323.557 79.5605 323.055C79.0587 322.553 78.7762 321.873 78.775 321.163V219.517C78.775 218.807 79.0569 218.125 79.5588 217.622C80.0607 217.119 80.7417 216.836 81.4522 216.834Z" fill="white"/>
<path d="M111.037 367.985H201.397C201.644 367.985 201.888 367.93 202.112 367.824C202.335 367.717 202.532 367.563 202.688 367.371C202.843 367.178 202.954 366.954 203.013 366.714C203.071 366.473 203.074 366.223 203.023 365.981L201.621 359.322C201.542 358.949 201.337 358.615 201.041 358.375C200.745 358.135 200.376 358.003 199.995 358.002H112.439C112.058 358.003 111.689 358.135 111.393 358.375C111.097 358.615 110.892 358.949 110.813 359.322L109.411 365.981C109.36 366.223 109.363 366.473 109.421 366.714C109.48 366.954 109.591 367.178 109.746 367.371C109.902 367.563 110.099 367.717 110.322 367.824C110.546 367.93 110.79 367.985 111.037 367.985Z" fill="#CCCCCC"/>
<path d="M197.057 359.201H198.864C199.134 359.201 199.352 359.42 199.352 359.689V360.383C199.352 360.652 199.134 360.871 198.864 360.871H197.057C196.788 360.871 196.569 360.652 196.569 360.383V359.689C196.569 359.42 196.788 359.201 197.057 359.201Z" fill="#E6E6E6"/>
<path d="M191.491 359.201H193.297C193.567 359.201 193.786 359.42 193.786 359.689V360.383C193.786 360.652 193.567 360.871 193.297 360.871H191.491C191.221 360.871 191.003 360.652 191.003 360.383V359.689C191.003 359.42 191.221 359.201 191.491 359.201Z" fill="#E6E6E6"/>
<path d="M185.926 359.201H187.733C188.003 359.201 188.221 359.42 188.221 359.689V360.383C188.221 360.652 188.003 360.871 187.733 360.871H185.926C185.657 360.871 185.438 360.652 185.438 360.383V359.689C185.438 359.42 185.657 359.201 185.926 359.201Z" fill="#E6E6E6"/>
<path d="M180.36 359.201H182.167C182.436 359.201 182.655 359.42 182.655 359.689V360.383C182.655 360.652 182.436 360.871 182.167 360.871H180.36C180.09 360.871 179.872 360.652 179.872 360.383V359.689C179.872 359.42 180.09 359.201 180.36 359.201Z" fill="#E6E6E6"/>
<path d="M174.794 359.201H176.6C176.87 359.201 177.088 359.42 177.088 359.689V360.383C177.088 360.652 176.87 360.871 176.6 360.871H174.794C174.524 360.871 174.305 360.652 174.305 360.383V359.689C174.305 359.42 174.524 359.201 174.794 359.201Z" fill="#E6E6E6"/>
<path d="M169.227 359.201H171.034C171.303 359.201 171.522 359.42 171.522 359.689V360.383C171.522 360.652 171.303 360.871 171.034 360.871H169.227C168.958 360.871 168.739 360.652 168.739 360.383V359.689C168.739 359.42 168.958 359.201 169.227 359.201Z" fill="#E6E6E6"/>
<path d="M163.663 359.201H165.469C165.739 359.201 165.958 359.42 165.958 359.689V360.383C165.958 360.652 165.739 360.871 165.469 360.871H163.663C163.393 360.871 163.175 360.652 163.175 360.383V359.689C163.175 359.42 163.393 359.201 163.663 359.201Z" fill="#E6E6E6"/>
<path d="M158.096 359.201H159.903C160.173 359.201 160.391 359.42 160.391 359.689V360.383C160.391 360.652 160.173 360.871 159.903 360.871H158.096C157.827 360.871 157.608 360.652 157.608 360.383V359.689C157.608 359.42 157.827 359.201 158.096 359.201Z" fill="#E6E6E6"/>
<path d="M152.53 359.201H154.337C154.606 359.201 154.825 359.42 154.825 359.689V360.383C154.825 360.652 154.606 360.871 154.337 360.871H152.53C152.26 360.871 152.042 360.652 152.042 360.383V359.689C152.042 359.42 152.26 359.201 152.53 359.201Z" fill="#E6E6E6"/>
<path d="M146.964 359.201H148.77C149.04 359.201 149.258 359.42 149.258 359.689V360.383C149.258 360.652 149.04 360.871 148.77 360.871H146.964C146.694 360.871 146.475 360.652 146.475 360.383V359.689C146.475 359.42 146.694 359.201 146.964 359.201Z" fill="#E6E6E6"/>
<path d="M141.397 359.201H143.204C143.473 359.201 143.692 359.42 143.692 359.689V360.383C143.692 360.652 143.473 360.871 143.204 360.871H141.397C141.127 360.871 140.909 360.652 140.909 360.383V359.689C140.909 359.42 141.127 359.201 141.397 359.201Z" fill="#E6E6E6"/>
<path d="M135.833 359.201H137.639C137.909 359.201 138.127 359.42 138.127 359.689V360.383C138.127 360.652 137.909 360.871 137.639 360.871H135.833C135.563 360.871 135.344 360.652 135.344 360.383V359.689C135.344 359.42 135.563 359.201 135.833 359.201Z" fill="#E6E6E6"/>
<path d="M130.266 359.201H132.073C132.342 359.201 132.561 359.42 132.561 359.689V360.383C132.561 360.652 132.342 360.871 132.073 360.871H130.266C129.997 360.871 129.778 360.652 129.778 360.383V359.689C129.778 359.42 129.997 359.201 130.266 359.201Z" fill="#E6E6E6"/>
<path d="M124.7 359.201H126.506C126.776 359.201 126.995 359.42 126.995 359.689V360.383C126.995 360.652 126.776 360.871 126.506 360.871H124.7C124.43 360.871 124.212 360.652 124.212 360.383V359.689C124.212 359.42 124.43 359.201 124.7 359.201Z" fill="#E6E6E6"/>
<path d="M119.133 359.201H120.94C121.21 359.201 121.428 359.42 121.428 359.689V360.383C121.428 360.652 121.21 360.871 120.94 360.871H119.133C118.864 360.871 118.645 360.652 118.645 360.383V359.689C118.645 359.42 118.864 359.201 119.133 359.201Z" fill="#E6E6E6"/>
<path d="M113.567 359.201H115.374C115.643 359.201 115.862 359.42 115.862 359.689V360.383C115.862 360.652 115.643 360.871 115.374 360.871H113.567C113.297 360.871 113.079 360.652 113.079 360.383V359.689C113.079 359.42 113.297 359.201 113.567 359.201Z" fill="#E6E6E6"/>
<path d="M197.124 361.984H198.93C199.2 361.984 199.418 362.202 199.418 362.472V363.165C199.418 363.435 199.2 363.654 198.93 363.654H197.124C196.854 363.654 196.635 363.435 196.635 363.165V362.472C196.635 362.202 196.854 361.984 197.124 361.984Z" fill="#E6E6E6"/>
<path d="M191.557 361.984H193.364C193.633 361.984 193.852 362.202 193.852 362.472V363.165C193.852 363.435 193.633 363.654 193.364 363.654H191.557C191.288 363.654 191.069 363.435 191.069 363.165V362.472C191.069 362.202 191.288 361.984 191.557 361.984Z" fill="#E6E6E6"/>
<path d="M185.991 361.984H187.797C188.067 361.984 188.286 362.202 188.286 362.472V363.165C188.286 363.435 188.067 363.654 187.797 363.654H185.991C185.721 363.654 185.503 363.435 185.503 363.165V362.472C185.503 362.202 185.721 361.984 185.991 361.984Z" fill="#E6E6E6"/>
<path d="M180.426 361.984H182.233C182.503 361.984 182.721 362.202 182.721 362.472V363.165C182.721 363.435 182.503 363.654 182.233 363.654H180.426C180.157 363.654 179.938 363.435 179.938 363.165V362.472C179.938 362.202 180.157 361.984 180.426 361.984Z" fill="#E6E6E6"/>
<path d="M174.86 361.984H176.667C176.936 361.984 177.155 362.202 177.155 362.472V363.165C177.155 363.435 176.936 363.654 176.667 363.654H174.86C174.59 363.654 174.372 363.435 174.372 363.165V362.472C174.372 362.202 174.59 361.984 174.86 361.984Z" fill="#E6E6E6"/>
<path d="M169.294 361.984H171.1C171.37 361.984 171.588 362.202 171.588 362.472V363.165C171.588 363.435 171.37 363.654 171.1 363.654H169.294C169.024 363.654 168.805 363.435 168.805 363.165V362.472C168.805 362.202 169.024 361.984 169.294 361.984Z" fill="#E6E6E6"/>
<path d="M163.727 361.984H165.534C165.803 361.984 166.022 362.202 166.022 362.472V363.165C166.022 363.435 165.803 363.654 165.534 363.654H163.727C163.458 363.654 163.239 363.435 163.239 363.165V362.472C163.239 362.202 163.458 361.984 163.727 361.984Z" fill="#E6E6E6"/>
<path d="M158.161 361.984H159.967C160.237 361.984 160.456 362.202 160.456 362.472V363.165C160.456 363.435 160.237 363.654 159.967 363.654H158.161C157.891 363.654 157.673 363.435 157.673 363.165V362.472C157.673 362.202 157.891 361.984 158.161 361.984Z" fill="#E6E6E6"/>
<path d="M152.596 361.984H154.403C154.673 361.984 154.891 362.202 154.891 362.472V363.165C154.891 363.435 154.673 363.654 154.403 363.654H152.596C152.327 363.654 152.108 363.435 152.108 363.165V362.472C152.108 362.202 152.327 361.984 152.596 361.984Z" fill="#E6E6E6"/>
<path d="M147.03 361.984H148.836C149.106 361.984 149.325 362.202 149.325 362.472V363.165C149.325 363.435 149.106 363.654 148.836 363.654H147.03C146.76 363.654 146.542 363.435 146.542 363.165V362.472C146.542 362.202 146.76 361.984 147.03 361.984Z" fill="#E6E6E6"/>
<path d="M141.464 361.984H143.27C143.54 361.984 143.758 362.202 143.758 362.472V363.165C143.758 363.435 143.54 363.654 143.27 363.654H141.464C141.194 363.654 140.975 363.435 140.975 363.165V362.472C140.975 362.202 141.194 361.984 141.464 361.984Z" fill="#E6E6E6"/>
<path d="M135.897 361.984H137.704C137.973 361.984 138.192 362.202 138.192 362.472V363.165C138.192 363.435 137.973 363.654 137.704 363.654H135.897C135.627 363.654 135.409 363.435 135.409 363.165V362.472C135.409 362.202 135.627 361.984 135.897 361.984Z" fill="#E6E6E6"/>
<path d="M130.331 361.984H132.137C132.407 361.984 132.625 362.202 132.625 362.472V363.165C132.625 363.435 132.407 363.654 132.137 363.654H130.331C130.061 363.654 129.843 363.435 129.843 363.165V362.472C129.843 362.202 130.061 361.984 130.331 361.984Z" fill="#E6E6E6"/>
<path d="M124.766 361.984H126.573C126.842 361.984 127.061 362.202 127.061 362.472V363.165C127.061 363.435 126.842 363.654 126.573 363.654H124.766C124.497 363.654 124.278 363.435 124.278 363.165V362.472C124.278 362.202 124.497 361.984 124.766 361.984Z" fill="#E6E6E6"/>
<path d="M119.2 361.984H121.006C121.276 361.984 121.495 362.202 121.495 362.472V363.165C121.495 363.435 121.276 363.654 121.006 363.654H119.2C118.93 363.654 118.712 363.435 118.712 363.165V362.472C118.712 362.202 118.93 361.984 119.2 361.984Z" fill="#E6E6E6"/>
<path d="M113.633 361.984H115.44C115.71 361.984 115.928 362.202 115.928 362.472V363.165C115.928 363.435 115.71 363.654 115.44 363.654H113.633C113.364 363.654 113.145 363.435 113.145 363.165V362.472C113.145 362.202 113.364 361.984 113.633 361.984Z" fill="#E6E6E6"/>
<path d="M150.926 365.324H172.214C172.483 365.324 172.702 365.542 172.702 365.812V366.505C172.702 366.775 172.483 366.994 172.214 366.994H150.926C150.656 366.994 150.438 366.775 150.438 366.505V365.812C150.438 365.542 150.656 365.324 150.926 365.324Z" fill="#E6E6E6"/>
<path d="M89.0873 230.839H231.2C231.347 230.835 231.488 230.775 231.591 230.669C231.695 230.563 231.752 230.421 231.752 230.274C231.752 230.126 231.695 229.984 231.591 229.878C231.488 229.773 231.347 229.712 231.2 229.708H89.0873C88.9396 229.712 88.799 229.773 88.6957 229.878C88.5924 229.984 88.5345 230.126 88.5345 230.274C88.5345 230.421 88.5924 230.563 88.6957 230.669C88.799 230.775 88.9396 230.835 89.0873 230.839Z" fill="#CACACA"/>
<path d="M221.526 226.823C219.697 226.823 218.214 225.307 218.214 223.437C218.214 221.567 219.697 220.051 221.526 220.051C223.356 220.051 224.838 221.567 224.838 223.437C224.838 225.307 223.356 226.823 221.526 226.823Z" fill="#CCCCCC"/>
<path d="M210.085 226.823C208.256 226.823 206.773 225.307 206.773 223.437C206.773 221.567 208.256 220.051 210.085 220.051C211.914 220.051 213.397 221.567 213.397 223.437C213.397 225.307 211.914 226.823 210.085 226.823Z" fill="#CCCCCC"/>
<path d="M198.644 226.823C196.814 226.823 195.332 225.307 195.332 223.437C195.332 221.567 196.814 220.051 198.644 220.051C200.473 220.051 201.956 221.567 201.956 223.437C201.956 225.307 200.473 226.823 198.644 226.823Z" fill="#CCCCCC"/>
<path d="M95.9767 220.891H104.104C104.265 220.894 104.419 220.96 104.531 221.075C104.644 221.19 104.708 221.345 104.708 221.506C104.708 221.667 104.644 221.822 104.531 221.937C104.419 222.052 104.265 222.118 104.104 222.121H95.9767C95.8156 222.118 95.6622 222.052 95.5494 221.937C95.4366 221.822 95.3734 221.667 95.3734 221.506C95.3734 221.345 95.4366 221.19 95.5494 221.075C95.6622 220.96 95.8156 220.894 95.9767 220.891Z" fill="#CCCCCC"/>
<path d="M95.9769 223.201H104.104C104.265 223.204 104.419 223.27 104.532 223.385C104.644 223.5 104.708 223.655 104.708 223.816C104.708 223.977 104.644 224.132 104.532 224.247C104.419 224.362 104.265 224.428 104.104 224.431H95.977C95.8159 224.428 95.6626 224.362 95.5498 224.247C95.437 224.132 95.3739 223.977 95.3739 223.816C95.3739 223.655 95.437 223.5 95.5498 223.385C95.6626 223.27 95.8159 223.204 95.9769 223.201Z" fill="#CCCCCC"/>
<path d="M95.9767 225.508H104.104C104.265 225.511 104.419 225.577 104.531 225.692C104.644 225.807 104.708 225.962 104.708 226.123C104.708 226.284 104.644 226.439 104.531 226.554C104.419 226.669 104.265 226.735 104.104 226.739H95.9767C95.8156 226.735 95.6622 226.669 95.5494 226.554C95.4366 226.439 95.3734 226.284 95.3734 226.123C95.3734 225.962 95.4366 225.807 95.5494 225.692C95.6622 225.577 95.8156 225.511 95.9767 225.508Z" fill="#CCCCCC"/>
<path d="M148.67 261.629H166.427C167.761 261.629 168.842 262.71 168.842 264.044C168.842 265.378 167.761 266.459 166.427 266.459H148.67C147.336 266.459 146.254 265.378 146.254 264.044C146.254 262.71 147.336 261.629 148.67 261.629Z" fill="#06C7E6"/>
<path d="M137.197 271.289H177.898C179.232 271.289 180.313 272.37 180.313 273.704C180.313 275.038 179.232 276.119 177.898 276.119H137.197C135.863 276.119 134.782 275.038 134.782 273.704C134.782 272.37 135.863 271.289 137.197 271.289Z" fill="#E6E6E6"/>
<path d="M137.197 280.949H177.898C179.232 280.949 180.313 282.03 180.313 283.364C180.313 284.698 179.232 285.779 177.898 285.779H137.197C135.863 285.779 134.782 284.698 134.782 283.364C134.782 282.03 135.863 280.949 137.197 280.949Z" fill="#E6E6E6"/>
<path d="M411.406 431.447L419.592 427.531L408.347 393.314L396.265 399.092L411.406 431.447Z" fill="#FFB6B6"/>
<path d="M356.523 425.93C357.119 426.303 357.714 426.67 358.315 427.036C359.512 427.77 360.72 428.492 361.929 429.201C362.536 429.556 363.15 429.911 363.757 430.26V430.277L363.793 430.284L363.805 430.289L364.731 430.518L366.06 427.006L366.673 425.389L367.539 423.098L369.127 418.907L377.485 396.839L364.491 393.634L364.004 395.624H363.998L363.757 396.61L359.217 415.022L358.291 418.787L358.261 418.901L357.702 421.15L357.221 423.098L356.686 425.275L356.523 425.93Z" fill="#FFB6B6"/>
<path d="M279.007 348.432C279.831 349.755 280.673 351.072 281.521 352.377C283.096 354.806 284.714 357.199 286.373 359.557C286.373 359.563 286.38 359.563 286.385 359.569C287.354 360.465 288.423 361.246 289.572 361.896C289.62 361.932 289.675 361.956 289.723 361.986C290.569 362.454 291.47 362.815 292.405 363.062C292.741 363.146 293.084 363.23 293.421 363.315C294.635 363.603 295.838 363.85 297.035 364.066C299.163 364.445 301.268 364.716 303.36 364.884C303.529 364.902 303.697 364.914 303.866 364.926C312.47 365.558 320.847 364.541 329.59 362.876C333.907 362.058 338.315 361.078 342.878 360.062C344.37 359.725 345.867 359.394 347.382 359.063C347.497 359.039 347.617 359.009 347.737 358.985C349.902 358.51 352.103 358.041 354.357 357.578C357.196 356.995 360.124 356.43 363.167 355.894L362.95 360.182C362.77 363.48 362.085 366.731 360.918 369.821C359.619 373.621 358.591 376.628 360.761 382.887L361.808 385.918C361.265 387.423 361.079 389.033 361.264 390.622C361.448 392.211 361.999 393.735 362.872 395.076L363.082 395.395L354.357 417.469L353.792 418.9H358.26L363.756 418.906H373.07L386.509 391.943L387.153 390.656V390.59L385.764 338.775C385.746 338.318 385.71 337.855 385.65 337.398C385.405 335.321 384.748 333.313 383.719 331.492C382.69 329.67 381.308 328.073 379.654 326.791C378.07 325.553 376.255 324.642 374.316 324.111C372.376 323.581 370.35 323.441 368.356 323.7L363.756 324.296L354.357 325.51L347.737 326.37L347.605 326.388L328.08 328.914L326.679 323.201L326.421 323.105L318.201 320.093L289.771 309.672L289.699 309.648L287.829 308.962L287.606 309.323C287.54 309.431 287.474 309.54 287.414 309.648C285.566 312.961 284.06 316.455 282.922 320.075C281.008 325.987 279.432 332.004 278.202 338.096C278.148 338.36 278.1 338.601 278.057 338.817L278.039 338.884C278.021 338.986 278.009 339.052 278.003 339.07C277.44 342.223 277.788 345.471 279.007 348.432Z" fill="#2F2E41"/>
<path d="M277.808 329.337C277.898 328.952 278.012 328.561 278.133 328.183C279.087 325.313 280.199 322.499 281.464 319.752C282.883 316.625 284.585 313.276 286.611 309.65C287.591 307.894 288.646 306.068 289.774 304.172C290.339 303.222 290.926 302.254 291.536 301.268C291.56 301.223 291.586 301.179 291.614 301.136L291.788 300.847L319.918 304.611L330.392 306.012L331.018 311.232L331.168 312.525C331.174 312.525 331.174 312.525 331.168 312.531L331.589 316.054V316.06L332.148 320.714L332.196 320.708L347.74 318.694L363.759 316.619L372.364 315.507C374.358 315.247 376.384 315.387 378.323 315.917C380.263 316.448 382.078 317.359 383.662 318.598C385.315 319.88 386.697 321.478 387.726 323.299C388.755 325.12 389.412 327.128 389.657 329.205C389.711 329.626 389.747 330.059 389.766 330.486L397.883 349.722C402.741 361.226 405.834 373.397 407.059 385.824L413.012 404.856L412.164 404.934L399.549 406.106L396.218 406.419L388.882 395.71C388.046 394.489 387.252 393.232 386.513 391.945C385.295 389.844 384.212 387.667 383.271 385.427L367.403 347.665C366.176 347.876 364.962 348.076 363.759 348.266C358.197 349.168 352.857 349.904 347.74 350.473C331.102 352.331 316.695 352.476 303.869 350.9C300.267 350.461 296.785 349.884 293.424 349.168C292.191 348.91 290.975 348.631 289.774 348.333C289.491 348.266 289.215 348.2 288.938 348.128C286.453 347.487 284.168 346.233 282.293 344.481C280.418 342.729 279.012 340.534 278.205 338.098C277.241 335.275 277.103 332.236 277.808 329.337Z" fill="#2F2E41"/>
<path d="M408.79 425.859L417.647 421.614L419.036 420.946L421.255 426.394L436.745 429.804C437.511 429.971 438.203 430.38 438.72 430.969C439.237 431.558 439.553 432.298 439.62 433.079C439.687 433.86 439.503 434.642 439.093 435.311C438.684 435.98 438.072 436.501 437.346 436.797L422.211 442.972L417.407 438.649L418.585 444.452L412.885 446.779L406.637 426.893L408.79 425.859Z" fill="#2F2E41"/>
<path d="M354.358 417.469L353.792 418.9H354.358V417.469Z" fill="#2F2E41"/>
<path d="M357.441 419.205L366.722 422.421L368.178 422.924L365.922 428.356L374.529 441.678C374.956 442.336 375.16 443.113 375.113 443.896C375.066 444.679 374.77 445.426 374.268 446.028C373.766 446.631 373.084 447.057 372.323 447.244C371.562 447.432 370.76 447.371 370.036 447.07L354.937 440.809L354.565 434.357L351.319 439.309L345.631 436.952L355.184 418.426L357.441 419.205Z" fill="#2F2E41"/>
<path d="M413.771 220.249C413.331 221.106 412.708 221.857 411.947 222.447C411.185 223.038 410.304 223.454 409.364 223.667C408.424 223.88 407.449 223.885 406.507 223.68C405.566 223.476 404.68 223.067 403.914 222.483L384.398 235.439L384.361 223.266L402.899 212.83C403.965 211.607 405.443 210.817 407.052 210.611C408.661 210.405 410.29 210.796 411.63 211.71C412.97 212.625 413.928 213.999 414.323 215.573C414.718 217.147 414.521 218.81 413.771 220.249Z" fill="#FFB6B6"/>
<path d="M399.192 225.875L390.087 215.517L353.013 237.526L303.867 233.025C301.437 232.803 298.989 233.118 296.695 233.948C294.401 234.779 292.319 236.104 290.594 237.829C288.87 239.555 287.547 241.639 286.719 243.934C285.891 246.229 285.579 248.677 285.803 251.106C286.214 255.493 288.348 259.538 291.738 262.353C295.127 265.168 299.495 266.524 303.883 266.122L359.233 260.999L399.192 225.875Z" fill="#CCCCCC"/>
<path d="M285.125 226.035L285.21 225.928C292.124 225.246 299.087 226.584 305.255 229.78C311.424 232.976 316.532 237.893 319.962 243.935L324.133 251.282C337.624 267.775 327.821 279.149 327.234 280.84L331.917 302.432L330.867 309.658L330.343 311.804L276.889 339.735C273.845 325.113 276.788 312.653 287.875 303.134L277.148 269.756C274.769 262.376 274.253 254.522 275.645 246.894C277.037 239.265 280.293 232.1 285.125 226.035Z" fill="#CCCCCC"/>
<path d="M327.628 388.192H344.774C345.718 388.191 346.629 387.85 347.341 387.232C348.053 386.613 348.517 385.758 348.65 384.825C349.709 377.034 349.709 369.136 348.65 361.345C348.519 360.423 348.064 359.577 347.365 358.96C346.667 358.343 345.772 357.995 344.84 357.979C339.445 355.56 333.636 355.561 327.569 357.978C327.004 357.986 326.448 358.117 325.939 358.362C325.43 358.608 324.981 358.962 324.623 359.399C324.25 359.854 323.983 360.387 323.842 360.958C323.701 361.529 323.688 362.124 323.806 362.701C325.183 369.555 325.183 376.615 323.806 383.469C323.688 384.045 323.701 384.641 323.842 385.212C323.983 385.783 324.25 386.316 324.623 386.771C324.987 387.216 325.446 387.574 325.966 387.82C326.485 388.066 327.053 388.193 327.628 388.192Z" fill="#06C7E6"/>
<path d="M329.423 366.93H343.854C343.973 366.932 344.091 366.909 344.202 366.864C344.312 366.819 344.413 366.753 344.497 366.669C344.582 366.585 344.649 366.485 344.695 366.375C344.741 366.266 344.764 366.148 344.764 366.028C344.764 365.909 344.741 365.791 344.695 365.681C344.649 365.571 344.582 365.472 344.497 365.388C344.413 365.304 344.312 365.238 344.202 365.193C344.091 365.148 343.973 365.125 343.854 365.126H329.423C329.304 365.125 329.186 365.148 329.075 365.193C328.965 365.238 328.865 365.304 328.78 365.388C328.695 365.472 328.628 365.571 328.582 365.681C328.536 365.791 328.513 365.909 328.513 366.028C328.513 366.148 328.536 366.266 328.582 366.375C328.628 366.485 328.695 366.585 328.78 366.669C328.865 366.753 328.965 366.819 329.075 366.864C329.186 366.909 329.304 366.932 329.423 366.93Z" fill="white"/>
<path d="M329.423 374.146H343.854C343.973 374.147 344.091 374.124 344.202 374.079C344.312 374.035 344.413 373.968 344.497 373.884C344.582 373.801 344.649 373.701 344.695 373.591C344.741 373.481 344.764 373.363 344.764 373.244C344.764 373.125 344.741 373.007 344.695 372.897C344.649 372.787 344.582 372.687 344.497 372.603C344.413 372.519 344.312 372.453 344.202 372.408C344.091 372.363 343.973 372.341 343.854 372.342H329.423C329.304 372.341 329.186 372.363 329.075 372.408C328.965 372.453 328.865 372.519 328.78 372.603C328.695 372.687 328.628 372.787 328.582 372.897C328.536 373.007 328.513 373.125 328.513 373.244C328.513 373.363 328.536 373.481 328.582 373.591C328.628 373.701 328.695 373.801 328.78 373.884C328.865 373.968 328.965 374.035 329.075 374.079C329.186 374.124 329.304 374.147 329.423 374.146Z" fill="white"/>
<path d="M329.424 381.362H343.856C343.975 381.363 344.093 381.34 344.203 381.295C344.314 381.251 344.414 381.184 344.499 381.1C344.584 381.017 344.651 380.917 344.697 380.807C344.743 380.697 344.766 380.579 344.766 380.46C344.766 380.34 344.743 380.222 344.697 380.112C344.651 380.002 344.584 379.903 344.499 379.819C344.414 379.735 344.314 379.669 344.203 379.624C344.093 379.579 343.975 379.557 343.856 379.558H329.424C329.305 379.557 329.187 379.579 329.076 379.624C328.966 379.669 328.866 379.735 328.781 379.819C328.696 379.903 328.629 380.002 328.583 380.112C328.537 380.222 328.514 380.34 328.514 380.46C328.514 380.579 328.537 380.697 328.583 380.807C328.629 380.917 328.696 381.017 328.781 381.1C328.866 381.184 328.966 381.251 329.076 381.295C329.187 381.34 329.305 381.363 329.424 381.362Z" fill="white"/>
<path d="M410.628 226.192H427.774C428.718 226.191 429.629 225.85 430.341 225.232C431.053 224.613 431.517 223.758 431.65 222.825C432.709 215.034 432.709 207.136 431.65 199.345C431.519 198.423 431.064 197.577 430.365 196.96C429.667 196.343 428.772 195.995 427.84 195.979C422.445 193.56 416.636 193.561 410.569 195.978C410.004 195.986 409.448 196.117 408.939 196.362C408.43 196.608 407.981 196.962 407.623 197.399C407.25 197.854 406.983 198.387 406.842 198.958C406.701 199.529 406.688 200.124 406.806 200.701C408.183 207.555 408.183 214.615 406.806 221.469C406.688 222.045 406.701 222.641 406.842 223.212C406.983 223.783 407.25 224.316 407.623 224.771C407.987 225.216 408.446 225.574 408.966 225.82C409.485 226.066 410.053 226.193 410.628 226.192Z" fill="#06C7E6"/>
<path d="M412.423 204.93H426.854C426.973 204.931 427.091 204.909 427.202 204.864C427.312 204.819 427.413 204.753 427.497 204.669C427.582 204.585 427.649 204.485 427.695 204.375C427.741 204.266 427.764 204.148 427.764 204.028C427.764 203.909 427.741 203.791 427.695 203.681C427.649 203.571 427.582 203.472 427.497 203.388C427.413 203.304 427.312 203.238 427.202 203.193C427.091 203.148 426.973 203.125 426.854 203.126H412.423C412.304 203.125 412.186 203.148 412.075 203.193C411.965 203.238 411.865 203.304 411.78 203.388C411.695 203.472 411.628 203.571 411.582 203.681C411.536 203.791 411.513 203.909 411.513 204.028C411.513 204.148 411.536 204.266 411.582 204.375C411.628 204.485 411.695 204.585 411.78 204.669C411.865 204.753 411.965 204.819 412.075 204.864C412.186 204.909 412.304 204.931 412.423 204.93Z" fill="white"/>
<path d="M412.423 212.146H426.854C426.973 212.147 427.091 212.124 427.202 212.079C427.312 212.035 427.413 211.968 427.497 211.884C427.582 211.801 427.649 211.701 427.695 211.591C427.741 211.481 427.764 211.363 427.764 211.244C427.764 211.125 427.741 211.007 427.695 210.897C427.649 210.787 427.582 210.687 427.497 210.603C427.413 210.519 427.312 210.453 427.202 210.408C427.091 210.363 426.973 210.341 426.854 210.342H412.423C412.304 210.341 412.186 210.363 412.075 210.408C411.965 210.453 411.865 210.519 411.78 210.603C411.695 210.687 411.628 210.787 411.582 210.897C411.536 211.007 411.513 211.125 411.513 211.244C411.513 211.363 411.536 211.481 411.582 211.591C411.628 211.701 411.695 211.801 411.78 211.884C411.865 211.968 411.965 212.035 412.075 212.079C412.186 212.124 412.304 212.147 412.423 212.146Z" fill="white"/>
<path d="M412.424 219.362H426.856C426.975 219.363 427.093 219.34 427.203 219.295C427.314 219.251 427.414 219.184 427.499 219.1C427.584 219.017 427.651 218.917 427.697 218.807C427.743 218.697 427.766 218.579 427.766 218.46C427.766 218.34 427.743 218.222 427.697 218.112C427.651 218.003 427.584 217.903 427.499 217.819C427.414 217.735 427.314 217.669 427.203 217.624C427.093 217.579 426.975 217.557 426.856 217.558H412.424C412.305 217.557 412.187 217.579 412.076 217.624C411.966 217.669 411.866 217.735 411.781 217.819C411.696 217.903 411.629 218.003 411.583 218.112C411.537 218.222 411.514 218.34 411.514 218.46C411.514 218.579 411.537 218.697 411.583 218.807C411.629 218.917 411.696 219.017 411.781 219.1C411.866 219.184 411.966 219.251 412.076 219.295C412.187 219.34 412.305 219.363 412.424 219.362Z" fill="white"/>
<path d="M711.628 270.192H728.774C729.718 270.191 730.629 269.85 731.341 269.232C732.053 268.613 732.517 267.758 732.65 266.825C733.709 259.034 733.709 251.136 732.65 243.345C732.519 242.423 732.064 241.577 731.365 240.96C730.667 240.343 729.772 239.995 728.84 239.979C723.445 237.56 717.636 237.561 711.569 239.978C711.004 239.986 710.448 240.117 709.939 240.362C709.43 240.608 708.981 240.962 708.623 241.399C708.25 241.854 707.984 242.387 707.842 242.958C707.701 243.529 707.688 244.124 707.806 244.701C709.183 251.555 709.183 258.615 707.806 265.469C707.688 266.045 707.701 266.641 707.842 267.212C707.984 267.783 708.25 268.316 708.623 268.771C708.987 269.216 709.446 269.574 709.966 269.82C710.485 270.066 711.053 270.193 711.628 270.192Z" fill="#06C7E6"/>
<path d="M713.423 248.93H727.854C727.973 248.931 728.091 248.909 728.202 248.864C728.312 248.819 728.413 248.753 728.497 248.669C728.582 248.585 728.649 248.485 728.695 248.375C728.741 248.266 728.764 248.148 728.764 248.028C728.764 247.909 728.741 247.791 728.695 247.681C728.649 247.571 728.582 247.472 728.497 247.388C728.413 247.304 728.312 247.238 728.202 247.193C728.091 247.148 727.973 247.125 727.854 247.126H713.423C713.304 247.125 713.186 247.148 713.075 247.193C712.965 247.238 712.864 247.304 712.78 247.388C712.695 247.472 712.628 247.571 712.582 247.681C712.536 247.791 712.513 247.909 712.513 248.028C712.513 248.148 712.536 248.266 712.582 248.375C712.628 248.485 712.695 248.585 712.78 248.669C712.864 248.753 712.965 248.819 713.075 248.864C713.186 248.909 713.304 248.931 713.423 248.93Z" fill="white"/>
<path d="M713.423 256.146H727.854C727.973 256.147 728.091 256.124 728.202 256.079C728.312 256.035 728.413 255.968 728.497 255.884C728.582 255.801 728.649 255.701 728.695 255.591C728.741 255.481 728.764 255.363 728.764 255.244C728.764 255.125 728.741 255.007 728.695 254.897C728.649 254.787 728.582 254.687 728.497 254.603C728.413 254.519 728.312 254.453 728.202 254.408C728.091 254.363 727.973 254.341 727.854 254.342H713.423C713.304 254.341 713.186 254.363 713.075 254.408C712.965 254.453 712.864 254.519 712.78 254.603C712.695 254.687 712.628 254.787 712.582 254.897C712.536 255.007 712.513 255.125 712.513 255.244C712.513 255.363 712.536 255.481 712.582 255.591C712.628 255.701 712.695 255.801 712.78 255.884C712.864 255.968 712.965 256.035 713.075 256.079C713.186 256.124 713.304 256.147 713.423 256.146Z" fill="white"/>
<path d="M713.424 263.362H727.856C727.975 263.363 728.093 263.34 728.203 263.295C728.314 263.251 728.414 263.184 728.499 263.1C728.584 263.017 728.651 262.917 728.697 262.807C728.743 262.697 728.766 262.579 728.766 262.46C728.766 262.34 728.743 262.222 728.697 262.112C728.651 262.003 728.584 261.903 728.499 261.819C728.414 261.735 728.314 261.669 728.203 261.624C728.093 261.579 727.975 261.557 727.856 261.558H713.424C713.305 261.557 713.187 261.579 713.076 261.624C712.966 261.669 712.866 261.735 712.781 261.819C712.696 261.903 712.629 262.003 712.583 262.112C712.537 262.222 712.514 262.34 712.514 262.46C712.514 262.579 712.537 262.697 712.583 262.807C712.629 262.917 712.696 263.017 712.781 263.1C712.866 263.184 712.966 263.251 713.076 263.295C713.187 263.34 713.305 263.363 713.424 263.362Z" fill="white"/>
<path d="M322.604 366.274C321.775 365.784 321.062 365.118 320.518 364.323C319.974 363.528 319.61 362.623 319.453 361.672C319.296 360.721 319.35 359.748 319.61 358.82C319.87 357.892 320.33 357.032 320.958 356.302L309.184 336.052L321.337 336.737L330.655 355.861C331.813 356.998 332.513 358.52 332.624 360.139C332.734 361.757 332.247 363.36 331.255 364.644C330.262 365.927 328.834 366.802 327.239 367.103C325.645 367.403 323.996 367.108 322.604 366.274Z" fill="#FFB6B6"/>
<path d="M317.852 351.386L328.733 342.911L308.962 304.597L316.37 255.805C316.736 253.393 316.567 250.93 315.874 248.591C315.181 246.252 313.982 244.094 312.362 242.271C310.741 240.447 308.739 239.003 306.498 238.04C304.257 237.078 301.831 236.62 299.393 236.7C294.989 236.85 290.825 238.741 287.814 241.957C284.802 245.174 283.19 249.454 283.33 253.857L285.161 309.414L317.852 351.386Z" fill="#CCCCCC"/>
<path d="M843.746 340.918C843.061 340.229 842.535 339.398 842.205 338.484C841.876 337.57 841.751 336.595 841.839 335.628C841.927 334.66 842.226 333.723 842.715 332.884C843.205 332.044 843.872 331.322 844.67 330.769L834.088 278.208L845.774 281.96L854.245 332.799C855.086 334.202 855.383 335.865 855.08 337.473C854.777 339.08 853.895 340.521 852.601 341.522C851.307 342.522 849.691 343.014 848.059 342.902C846.427 342.791 844.892 342.085 843.746 340.918Z" fill="#9E616A"/>
<path d="M828.121 229.714L835.371 224.241C835.371 224.241 841.767 223.788 842.9 235.323C844.033 246.857 846.359 269.336 846.359 269.336L857.454 320.723L842.095 324.094L830.212 268.639L823.083 252.171L828.121 229.714Z" fill="#CCCCCC"/>
<path d="M840.075 313.623L799.218 312.942L795.813 285.023H840.075V313.623Z" fill="#9E616A"/>
<path d="M803.303 485.427H793.871L789.384 449.046L803.305 449.047L803.303 485.427Z" fill="#9E616A"/>
<path d="M862.393 486.301L852.961 486.234L848.729 449.823L860.996 452.637L862.393 486.301Z" fill="#9E616A"/>
<path d="M832.893 260.98L835.03 266.536L834.603 272.093L792.776 286.58L794.851 262.262L799.553 256.705L832.893 260.98Z" fill="#FFB6B6"/>
<path d="M814.948 210.976C806.698 210.976 800.009 204.287 800.009 196.037C800.009 187.786 806.698 181.098 814.948 181.098C823.199 181.098 829.887 187.786 829.887 196.037C829.887 204.287 823.199 210.976 814.948 210.976Z" fill="#9E616A"/>
<path d="M805.642 480.774L790.732 479.884V486.272L776.556 496.062C775.856 496.546 775.329 497.241 775.051 498.045C774.774 498.849 774.761 499.721 775.014 500.534C775.267 501.346 775.773 502.056 776.459 502.56C777.144 503.065 777.973 503.336 778.824 503.336H796.575L799.634 497.018L800.829 503.336H807.522L805.642 480.774Z" fill="#2F2E41"/>
<path d="M865.62 481.67L850.717 480.676L850.672 487.064L836.428 496.754C835.725 497.233 835.193 497.924 834.909 498.726C834.626 499.529 834.607 500.401 834.855 501.215C835.102 502.029 835.604 502.742 836.285 503.251C836.967 503.76 837.794 504.038 838.645 504.044L856.395 504.168L859.499 497.871L860.65 504.198L867.342 504.245L865.62 481.67Z" fill="#2F2E41"/>
<path d="M865.328 458.407L858.46 403.509L850.288 345.628C856.273 334.515 842.798 300.004 842.798 300.004L840.896 300.096L797.846 308.217L797.855 308.176C789.05 332.192 786.133 344.056 786.615 369.631L788.35 461.566H787.806C786.903 461.566 786.037 461.924 785.398 462.563C784.76 463.201 784.401 464.067 784.401 464.97C784.401 465.873 784.76 466.739 785.398 467.378C786.037 468.016 786.903 468.375 787.806 468.375H804.83C805.277 468.376 805.721 468.288 806.134 468.118C806.548 467.947 806.924 467.696 807.241 467.38C807.558 467.064 807.809 466.688 807.981 466.275C808.152 465.861 808.24 465.418 808.24 464.97C808.24 464.523 808.152 464.079 807.981 463.666C807.809 463.253 807.558 462.877 807.241 462.561C806.924 462.244 806.548 461.994 806.134 461.823C805.721 461.652 805.277 461.565 804.83 461.566H804.391L820.016 352.098L833.265 398.061L848.246 457.985C842.798 456.623 843.644 459.778 843.644 461.566C843.644 462.469 844.003 463.335 844.641 463.973C845.28 464.612 846.146 464.97 847.049 464.97H864.072C864.864 464.971 865.631 464.696 866.242 464.191C866.852 463.687 867.268 462.986 867.416 462.208C867.565 461.431 867.438 460.625 867.057 459.931C866.675 459.237 866.064 458.698 865.328 458.407Z" fill="#2F2E41"/>
<path d="M846.151 301.792L844.789 288.173C844.647 287.618 844.334 287.121 843.893 286.755C843.452 286.388 842.906 286.171 842.334 286.134C841.766 279.646 839.379 251.658 839.236 250.438L839.231 250.386L838.145 227.194C838.106 226.352 837.757 225.554 837.167 224.952C836.576 224.35 835.784 223.987 834.943 223.932L829.209 223.557C829.13 223.555 829.056 223.522 829.001 223.465C828.946 223.409 828.916 223.333 828.916 223.254C828.916 222.621 828.791 221.994 828.549 221.409C828.306 220.824 827.951 220.292 827.503 219.845C827.056 219.397 826.524 219.042 825.939 218.799C825.354 218.557 824.727 218.432 824.094 218.432H807.117C806.017 218.433 804.955 218.834 804.131 219.562C803.307 220.29 802.776 221.293 802.639 222.384C802.632 222.459 802.596 222.529 802.539 222.579C802.483 222.629 802.409 222.656 802.334 222.654H802.332C800.403 222.614 798.524 223.267 797.035 224.495C795.546 225.722 794.547 227.443 794.218 229.344C791.897 242.848 787.246 273.497 789.546 290.536C790.346 296.467 788.62 291.769 788.318 296.732C788.287 297.212 788.352 297.693 788.508 298.147C788.664 298.602 788.909 299.021 789.227 299.381C788.575 299.618 788.043 300.102 787.746 300.729C787.45 301.356 787.412 302.074 787.642 302.728L787.343 302.655C787.431 303.001 787.586 303.328 787.799 303.615C788.013 303.902 788.281 304.144 788.588 304.327C788.895 304.511 789.235 304.632 789.589 304.684C789.943 304.736 790.303 304.717 790.65 304.63L835.066 310.648C836.525 310.28 846.518 303.251 846.151 301.792Z" fill="#CCCCCC"/>
<path d="M727.465 246.42C727.744 247.351 728.222 248.209 728.868 248.935C729.514 249.661 730.312 250.236 731.204 250.621C732.096 251.005 733.062 251.189 734.033 251.16C735.005 251.131 735.958 250.889 736.825 250.451L753.996 266.122L756.276 254.062L739.61 241.069C738.778 239.66 737.459 238.605 735.902 238.104C734.345 237.603 732.658 237.69 731.161 238.35C729.664 239.01 728.461 240.195 727.78 241.683C727.099 243.17 726.987 244.856 727.465 246.42Z" fill="#9E616A"/>
<path d="M787.231 234.442C787.231 234.442 793.218 220.911 800.78 223.601C808.343 226.29 804.438 239.419 804.438 239.419L776.027 282.23C776.027 282.23 735.048 255.943 740.031 255.757C745.014 255.571 746.505 246.508 746.505 246.508L768.163 257.33L768.896 253.477L770.07 254.652L773.101 252.266L787.231 234.442Z" fill="#CCCCCC"/>
<path d="M297.448 219.578C285.929 219.578 276.592 210.24 276.592 198.721C276.592 187.202 285.929 177.864 297.448 177.864C308.967 177.864 318.305 187.202 318.305 198.721C318.305 210.24 308.967 219.578 297.448 219.578Z" fill="#FFB6B6"/>
<path d="M230.511 229.412C232.919 232.823 236.431 235.296 240.454 236.412C242.064 236.891 243.726 237.173 245.404 237.253C245.611 235.355 246.107 233.501 246.875 231.754C246.797 233.613 247.056 235.472 247.639 237.24C250.158 237.097 252.621 236.437 254.874 235.301C257.088 234.188 259.011 232.573 260.492 230.587C261.973 228.601 262.971 226.296 263.406 223.857C264.29 218.152 261.703 212.551 260.768 206.854C259.829 201.158 261.592 193.944 267.168 192.447C271.414 191.306 270.938 191.799 274.468 194.42C270.796 199.849 284.359 219.746 289.909 218.011C293.047 217.03 295.056 214.151 295.704 214.151C300.066 221.665 291.852 234.327 300.131 236.957L299.449 236.275C294.452 230.128 304.896 217.119 299.899 210.972C298.505 209.252 297.021 207.215 297.433 205.04C297.823 202.973 301.104 201.879 302.065 203.577C300.337 199.618 302.889 194.334 307.114 193.317C310.867 192.412 310.798 193.528 314.564 194.012C314.81 192.385 315.27 190.797 315.932 189.29C315.863 190.914 316.053 192.538 316.494 194.102C317.825 194.076 319.109 193.612 320.149 192.781C323.22 190.306 322.598 185.108 319.857 182.273C317.112 179.437 313.033 178.416 309.142 177.756C308.012 169.88 286.283 169.059 283.403 176.928C282.176 171.052 274.82 168.002 269.102 169.825C263.384 171.648 259.417 176.988 257.328 182.616C255.239 188.239 254.656 194.291 253.369 200.15C252.082 206.009 249.907 211.976 245.429 215.969C240.951 219.958 233.655 221.279 228.937 217.573C228.251 219.532 228.036 221.624 228.31 223.681C228.583 225.737 229.338 227.701 230.511 229.412Z" fill="#2F2E41"/>
<path d="M34.8366 277.007L37.7565 291.657C37.9765 292.777 38.2065 293.917 38.4565 295.047C40.897 294.542 43.4275 294.683 45.7965 295.457C43.917 298.143 42.2327 300.96 40.7565 303.887C42.5965 309.557 45.2965 314.797 49.8165 318.587C52.8354 321.062 56.441 322.718 60.2857 323.394C64.1304 324.07 68.0844 323.744 71.7665 322.447L71.6365 321.867C76.4965 312.437 73.8565 300.547 67.8165 291.837C64.7359 287.54 61.0858 283.682 56.9665 280.367C52.8866 276.967 48.4765 273.917 44.1065 270.907C43.125 270.233 41.9646 269.865 40.7735 269.853C39.5824 269.841 38.4147 270.184 37.4196 270.839C36.4246 271.494 35.6473 272.431 35.1872 273.529C34.7271 274.628 34.6051 275.839 34.8366 277.007Z" fill="#06C8E6"/>
<path d="M70.7265 357.697C71.9555 348.744 73.2194 339.677 72.3574 330.628C71.5914 322.592 69.1404 314.743 64.1484 308.307C61.4989 304.897 58.275 301.976 54.6215 299.674C53.6685 299.074 52.7924 300.583 53.7404 301.181C60.0617 305.176 64.951 311.075 67.7034 318.028C70.7434 325.76 71.2314 334.189 70.7034 342.402C70.3864 347.369 69.7155 352.302 69.0385 357.232C68.9839 357.455 69.0167 357.691 69.1301 357.89C69.2435 358.09 69.429 358.239 69.6484 358.306C69.8717 358.366 70.1098 358.336 70.3109 358.222C70.512 358.108 70.6599 357.919 70.7225 357.696L70.7265 357.697Z" fill="#F2F2F2"/>
<path d="M1.19019 504.989L934.94 505.296C935.255 505.295 935.557 505.169 935.78 504.946C936.002 504.723 936.127 504.421 936.127 504.105C936.127 503.79 936.002 503.488 935.78 503.265C935.557 503.042 935.255 502.916 934.94 502.915L1.19019 502.607C0.875 502.608 0.572998 502.734 0.350464 502.957C0.12793 503.181 0.00292969 503.483 0.00292969 503.798C0.00292969 504.113 0.12793 504.416 0.350464 504.639C0.572998 504.862 0.875 504.988 1.19019 504.989Z" fill="#6E6E6E"/>
<path d="M832.532 186.89C834.823 187.989 837.388 186.335 839.366 184.696L838.658 185.307C842.154 188.708 843.789 193.602 844.587 198.419C845.387 203.231 845.476 208.153 846.483 212.931C847.49 217.704 849.58 222.499 853.483 225.422C858.712 229.338 865.924 229.087 872.341 227.886C872.426 227.869 872.506 227.856 872.591 227.838C870.865 222.853 870.163 217.57 870.528 212.307C872.248 217.582 875.176 222.381 879.079 226.324C883.334 225.153 887.487 223.64 891.497 221.799C894.092 220.604 896.886 218.971 897.606 216.206C898.328 213.462 896.651 210.583 894.41 208.85C892.168 207.117 889.416 206.213 886.862 204.979C884.312 203.75 881.789 201.998 880.768 199.353C878.414 193.269 885.122 186.288 882.507 180.308C881.218 177.367 878.061 175.767 875.093 174.534C870.562 172.656 865.909 171.087 861.167 169.836C857.004 168.738 852.657 167.885 848.416 168.605C844.175 169.325 840.02 171.904 838.493 175.932C835.947 176.793 833.243 177.763 831.608 179.906C829.974 182.045 830.106 185.727 832.532 186.89Z" fill="#2F2E41"/>
<path d="M812.145 179.839C818.7 174.665 823.999 175.548 828.088 178.763C828.775 177.998 831.7 180.102 832.69 179.8L836.272 186.524C838.115 189.776 838.871 193.096 838.573 194.965C841.964 204.473 833.924 210.893 824.416 214.284C820.622 215.646 816.483 215.706 812.651 214.454L812.534 212.834L811.814 214.162C811.814 214.162 803.122 232.059 801.068 232.863C802.314 229.63 805.601 214.264 806.519 211.061C807.777 206.704 806.918 199.78 806.178 195.535C805.717 192.918 805.693 190.243 806.107 187.618L806.125 187.503L804.091 191.609L799.528 188.739C801.272 183.66 801.307 177.584 812.145 179.839Z" fill="#2F2E41"/>
</g>
<defs>
<linearGradient id="paint0_linear_121_2" x1="535.891" y1="222.774" x2="535.891" y2="283.112" gradientUnits="userSpaceOnUse">
<stop stop-color="#06C7E6"/>
<stop offset="1" stop-color="#036F80"/>
</linearGradient>
<linearGradient id="paint1_linear_121_2" x1="629.443" y1="203.609" x2="629.443" y2="258.037" gradientUnits="userSpaceOnUse">
<stop stop-color="#06C7E6"/>
<stop offset="1" stop-color="#036F80"/>
</linearGradient>
<linearGradient id="paint2_linear_121_2" x1="588.506" y1="212.045" x2="588.506" y2="333.781" gradientUnits="userSpaceOnUse">
<stop stop-color="#06C7E6"/>
<stop offset="1" stop-color="#56B2C0"/>
</linearGradient>
<clipPath id="clip0_121_2">
<rect width="936.131" height="505.296" fill="white" transform="matrix(-1 0 0 1 936.131 0)"/>
</clipPath>
</defs>
</svg>
